<?xml version="1.0" encoding="UTF-8"?>
<svg width="50px" height="50px" viewBox="0 0 50 50" version="1.1" xmlns="http://www.w3.org/2000/svg" xmlns:xlink="http://www.w3.org/1999/xlink">
    <title>Group 7</title>
    <g id="Page-1" stroke="none" stroke-width="1" fill="none" fill-rule="evenodd">
        <g id="UniSun-Invest" transform="translate(-982.000000, -1357.000000)">
            <g id="Group-14" transform="translate(625.000000, 1327.000000)">
                <g id="Group-17" transform="translate(327.000000, 0.000000)">
                    <g id="Group-7" transform="translate(30.000000, 30.000000)">
                        <rect id="Rectangle" fill="#EBF0F7" x="0" y="0" width="50" height="50" rx="13"></rect>
                        <g id="Group" transform="translate(13.000000, 13.000000)">
                            <polygon id="Path" points="0 0 24 0 24 24 0 24"></polygon>
                            <rect id="Rectangle" stroke="#0C449C" stroke-width="1.5" stroke-linecap="round" stroke-linejoin="round" x="3" y="7" width="18" height="13" rx="2"></rect>
                            <path d="M8,7 L8,5 C8,3.8954305 8.8954305,3 10,3 L14,3 C15.1045695,3 16,3.8954305 16,5 L16,7" id="Path" stroke="#0C449C" stroke-width="1.5" stroke-linecap="round" stroke-linejoin="round"></path>
                            <line x1="12" y1="12" x2="12" y2="12.01" id="Path" stroke="#0C449C" stroke-width="1.5" stroke-linecap="round" stroke-linejoin="round"></line>
                            <path d="M3,13 C8.66095141,15.8525719 15.3390486,15.8525719 21,13" id="Path" stroke="#0C449C" stroke-width="1.5" stroke-linecap="round" stroke-linejoin="round"></path>
                        </g>
                    </g>
                </g>
            </g>
        </g>
    </g>
</svg>