<?xml version="1.0" standalone="no"?>
<!DOCTYPE svg PUBLIC "-//W3C//DTD SVG 1.1//EN" "http://www.w3.org/Graphics/SVG/1.1/DTD/svg11.dtd" >
<svg xmlns="http://www.w3.org/2000/svg" xmlns:xlink="http://www.w3.org/1999/xlink" version="1.1">
<metadata>
Created by FontForge 20170731 at Thu Jun 22 17:54:32 2017
 By Aleksey,,,
Copyright (c) 2016 by Radomir Tinkov. All rights reserved.
</metadata>
<defs>
<font id="GilroyW00-Medium" horiz-adv-x="633" >
  <font-face 
    font-family="GilroyW00-Medium"
    font-weight="500"
    font-stretch="normal"
    units-per-em="1000"
    panose-1="1 0 0 0 0 0 0 0 0 0"
    ascent="800"
    descent="-200"
    x-height="500"
    cap-height="700"
    bbox="-350 -248 1034 965"
    underline-thickness="50"
    underline-position="-175"
    unicode-range="U+0020-FB02"
  />
<missing-glyph horiz-adv-x="500" 
d="M410 800v-1000h-317v1000h317zM333 733h-165v-33h65v-37h-66v-33h166v33h-66v37h66v33zM267 604h-100v-104h166v34h-66v70zM233 570v-36h-33v36h33zM333 473h-166v-33h66v-37h-66v-33h100v70h66v33zM333 413h-33v-66h-133v-34h166v100zM333 291h-100v-56h34v23h33v-47
h-100v80h-33v-113h166v113zM333 118h-166v-113h166v113zM300 85v-47h-100v47h100zM333 -18h-166v-33h70l-70 -47v-33h166v33h-102l70 47h32v33z" />
    <glyph glyph-name="uniFB01" unicode="fi" horiz-adv-x="530" 
d="M463 500v-500h-87v416h-185v-416h-87v416h-80v84h80v15q0 99 55.5 148.5t163.5 49.5q41 0 103 -13v-79q-61 8 -103 8q-68 0 -100 -25.5t-32 -88.5v-15h272z" />
    <glyph glyph-name="uniFB02" unicode="fl" horiz-adv-x="530" 
d="M323 713q60 0 140 -15v-698h-87v633l-53 2q-67 0 -99.5 -28t-32.5 -92v-15h104v-84h-104v-416h-87v416h-80v84h80v15q0 99 55.5 148.5t163.5 49.5z" />
    <glyph glyph-name="f_f.liga" unicode="ff" horiz-adv-x="595" 
d="M595 639q-66 5 -98.5 -22.5t-32.5 -91.5v-25h131v-84h-131v-416h-87v416h-186v-416h-87v416h-80v84h80v15q0 101 56.5 153t162.5 45v-84q-66 5 -99 -22.5t-33 -91.5v-15h186v25q0 101 56 153t162 45v-84z" />
    <glyph glyph-name="f_f_i.liga" unicode="ffi" horiz-adv-x="802" 
d="M736 500v-500h-87v416h-185v-416h-87v416h-186v-416h-87v416h-80v84h80v15q0 101 56.5 153t162.5 45v-84q-66 5 -99 -22.5t-33 -91.5v-15h186v25q0 99 55.5 148.5t162.5 49.5q43 0 103 -13v-79q-59 8 -103 8q-68 0 -99.5 -25.5t-31.5 -88.5v-25h272z" />
    <glyph glyph-name="f_f_l.liga" unicode="ffl" horiz-adv-x="802" 
d="M595 723q61 0 141 -15v-708h-87v643l-54 2q-67 0 -99 -28t-32 -92v-25h104v-84h-104v-416h-87v416h-186v-416h-87v416h-80v84h80v15q0 101 56.5 153t162.5 45v-84q-66 5 -99 -22.5t-33 -91.5v-15h186v25q0 99 55.5 148.5t162.5 49.5z" />
    <glyph glyph-name=".notdef" horiz-adv-x="500" 
d="M410 800v-1000h-317v1000h317zM333 733h-165v-33h65v-37h-66v-33h166v33h-66v37h66v33zM267 604h-100v-104h166v34h-66v70zM233 570v-36h-33v36h33zM333 473h-166v-33h66v-37h-66v-33h100v70h66v33zM333 413h-33v-66h-133v-34h166v100zM333 291h-100v-56h34v23h33v-47
h-100v80h-33v-113h166v113zM333 118h-166v-113h166v113zM300 85v-47h-100v47h100zM333 -18h-166v-33h70l-70 -47v-33h166v33h-102l70 47h32v33z" />
    <glyph glyph-name=".null" horiz-adv-x="0" 
 />
    <glyph glyph-name="nonmarkingreturn" horiz-adv-x="333" 
 />
    <glyph glyph-name="space" unicode=" " horiz-adv-x="250" 
 />
    <glyph glyph-name="exclam" unicode="!" horiz-adv-x="243" 
d="M88 205l-19 295v200h105v-200l-19 -295h-67zM121 -11q-27 0 -46 19t-19 46t19 46t46 19t46 -19t19 -46t-19 -46t-46 -19z" />
    <glyph glyph-name="quotedbl" unicode="&#x22;" horiz-adv-x="333" 
d="M60 490l-12 210h87l-12 -210h-63zM210 490l-12 210h87l-12 -210h-63z" />
    <glyph glyph-name="numbersign" unicode="#" horiz-adv-x="605" 
d="M565 405h-116l-18 -110h117l-12 -72h-117l-29 -173h-76l29 173h-122l-29 -173h-77l29 173h-116l12 72h116l18 110h-117l12 73h117l29 172h77l-29 -172h122l29 172h76l-29 -172h116zM355 295l18 110h-122l-18 -110h122z" />
    <glyph glyph-name="dollar" unicode="$" horiz-adv-x="550" 
d="M515 187q0 -81 -54 -134.5t-140 -63.5v-89h-63v88q-38 3 -83 17.5t-83 49.5t-57 83l80 46q16 -45 52.5 -72t90.5 -33v242q-117 42 -153 89t-36 111q0 30 10 61.5t36.5 62t65.5 47t77 20.5v88h63v-89q43 -6 81.5 -26.5t62.5 -50t36 -57.5l-78 -44q-29 73 -102 87v-230
q66 -24 106 -47.5t64 -62t24 -93.5zM161 521q0 -37 23.5 -61.5t73.5 -45.5v207q-43 -6 -70 -33t-27 -67zM321 81q47 7 74 35.5t27 69.5q0 31 -18.5 58t-82.5 54v-217z" />
    <glyph glyph-name="percent" unicode="%" horiz-adv-x="728" 
d="M213 403q-67 0 -112.5 45t-45.5 110q0 64 45.5 109.5t112.5 45.5t112.5 -45t45.5 -110q0 -23 -7.5 -49t-26.5 -49.5t-50.5 -40t-73.5 -16.5zM213 476q35 0 57.5 24t22.5 58t-22.5 57.5t-57.5 23.5q-34 0 -57 -23.5t-23 -57.5t23 -58t57 -24zM102 99l465 520l49 -27
l-466 -521zM515 -12q-67 0 -112.5 45t-45.5 110t45.5 110t112.5 45t112.5 -45t45.5 -110t-45.5 -110t-112.5 -45zM515 62q34 0 57 23.5t23 57.5t-23 57.5t-57 23.5q-35 0 -57.5 -23.5t-22.5 -57.5t22.5 -57.5t57.5 -23.5z" />
    <glyph glyph-name="ampersand" unicode="&#x26;" horiz-adv-x="662" 
d="M639 29l-78 -45l-71 76q-78 -73 -200 -73q-104 0 -169.5 55t-65.5 147q0 46 18.5 89t49 70.5t60.5 42.5q-45 57 -45 127q0 32 11 66t37 62.5t66.5 47.5t91.5 19t97.5 -22t73 -55t38.5 -66l-78 -45q-15 45 -50 71.5t-79 26.5q-35 0 -63.5 -16.5t-40 -41t-11.5 -46.5
q0 -25 12 -51.5t50 -67.5l191 -204q25 52 36 127l80 -46q-7 -39 -20.5 -77.5t-33.5 -71.5zM292 75q83 0 138 49l-189 203q-23 -10 -46 -29t-35 -47t-12 -56q0 -56 38 -88t106 -32z" />
    <glyph glyph-name="quotesingle" unicode="'" horiz-adv-x="183" 
d="M60 490l-12 210h87l-12 -210h-63z" />
    <glyph glyph-name="parenleft" unicode="(" horiz-adv-x="280" 
d="M168 -100q-110 220 -110 450t110 450h87q-110 -220 -110 -450t110 -450h-87z" />
    <glyph glyph-name="parenright" unicode=")" horiz-adv-x="280" 
d="M112 -100h-87q110 220 110 450t-110 450h87q110 -220 110 -450t-110 -450z" />
    <glyph glyph-name="asterisk" unicode="*" horiz-adv-x="394" 
d="M337 610v-64l-91 4l53 -73l-57 -34l-45 82l-45 -82l-56 34l52 73l-90 -4v64l90 -5l-52 74l56 34l45 -82l45 82l57 -34l-53 -74z" />
    <glyph glyph-name="plus" unicode="+" horiz-adv-x="545" 
d="M488 392v-83h-174v-174h-83v174h-173v83h173v173h83v-173h174z" />
    <glyph glyph-name="comma" unicode="," horiz-adv-x="253" 
d="M196 103l-65 -243h-75l40 243h100z" />
    <glyph glyph-name="hyphen" unicode="-" horiz-adv-x="515" 
d="M75 265v84h365v-84h-365z" />
    <glyph glyph-name="period" unicode="." horiz-adv-x="243" 
d="M121 -11q-27 0 -46 19t-19 46t19 46t46 19t46 -19t19 -46t-19 -46t-46 -19z" />
    <glyph glyph-name="slash" unicode="/" horiz-adv-x="528" 
d="M90 -100h-52l400 900h52z" />
    <glyph glyph-name="zero" unicode="0" horiz-adv-x="630" 
d="M315 -13q-63 0 -114 26t-85.5 74.5t-52.5 115.5t-18 147t18 147t52.5 115.5t85.5 74.5t114 26t114 -26t85.5 -74.5t52.5 -115.5t18 -147t-18 -147t-52.5 -115.5t-85.5 -74.5t-114 -26zM315 78q85 0 131.5 71t46.5 201t-46.5 201.5t-131.5 71.5q-84 0 -130.5 -71.5
t-46.5 -201.5t46.5 -201t130.5 -71z" />
    <glyph glyph-name="one" unicode="1" horiz-adv-x="356" 
d="M198 700h80v-700h-92v600l-149 -44l-23 80z" />
    <glyph glyph-name="two" unicode="2" horiz-adv-x="527" 
d="M36 0v76l247 252q46 46 72.5 88t26.5 82q0 45 -22 74.5t-50.5 40t-51.5 10.5q-48 0 -85 -24t-59 -70l-78 46q33 67 92 102.5t129 35.5q41 0 80 -14.5t70.5 -42t49.5 -68t18 -89.5q0 -45 -25.5 -101t-99.5 -130l-179 -178h317v-90h-452z" />
    <glyph glyph-name="three" unicode="3" horiz-adv-x="535" 
d="M316 413q48 -9 91.5 -36t67 -72.5t23.5 -97.5q0 -38 -13 -77t-43.5 -70.5t-77 -52t-106.5 -20.5q-36 0 -83 12t-87 45.5t-60 84.5l78 46q15 -47 55 -72t97 -25q30 0 58 9t47.5 25t30.5 40.5t11 54.5q0 23 -7.5 46t-27 43.5t-51 30.5t-61.5 10h-24l-37 57l162 219h-311v87
h420v-82z" />
    <glyph glyph-name="four" unicode="4" horiz-adv-x="580" 
d="M559 220v-87h-85v-133h-93v133h-357v87l251 480h100l-251 -480h257v198h93v-198h85z" />
    <glyph glyph-name="five" unicode="5" horiz-adv-x="543" 
d="M270 427q47 0 89.5 -14.5t75.5 -42.5t52 -70t19 -93q0 -38 -13 -77t-43.5 -70.5t-77 -52t-106.5 -20.5q-49 0 -97.5 16.5t-83.5 52.5t-50 81l79 45q14 -50 54.5 -77t97.5 -27q30 0 58.5 9t48 25t30.5 40.5t11 54.5q0 46 -23.5 77t-58.5 42t-64 11h-198l26 363h383v-87
h-299l-12 -186h102z" />
    <glyph glyph-name="six" unicode="6" horiz-adv-x="538" 
d="M269 458q51 0 95.5 -17t77 -48.5t50.5 -75t18 -94.5t-18 -94.5t-50.5 -75.5t-77 -49t-95.5 -17t-96 17t-77.5 49t-50 75.5t-17.5 94.5q0 81 42 140l225 337h106l-165 -244zM269 76q66 0 107.5 40.5t41.5 106.5q0 65 -42 105.5t-107 40.5q-66 0 -107.5 -40t-41.5 -106
t41.5 -106.5t107.5 -40.5z" />
    <glyph glyph-name="seven" unicode="7" horiz-adv-x="490" 
d="M18 700h437v-83l-255 -617h-97l253 612h-338v88z" />
    <glyph glyph-name="eight" unicode="8" horiz-adv-x="555" 
d="M408 362q50 -26 79.5 -70.5t29.5 -99.5q0 -35 -12 -71.5t-41 -66t-76 -48.5t-111 -19q-50 0 -94 13.5t-76.5 40t-50.5 65.5t-18 86q0 55 29.5 99.5t79.5 70.5q-39 25 -62.5 64.5t-23.5 88.5q0 36 12 71.5t39.5 63.5t69.5 45.5t95 17.5q42 0 76 -11t58.5 -27t43 -39
t29 -54t10.5 -67q0 -49 -23.5 -88.5t-62.5 -64.5zM277 624q-52 0 -88 -28.5t-36 -82.5q0 -52 36.5 -82t87.5 -30q52 0 88 30t36 82q0 54 -35.5 82.5t-88.5 28.5zM277 76q30 0 65.5 10t59 39t23.5 73q0 58 -41 89.5t-107 31.5q-30 0 -65 -10t-58.5 -39t-23.5 -72
q0 -37 17 -64t50.5 -42.5t79.5 -15.5z" />
    <glyph glyph-name="nine" unicode="9" horiz-adv-x="538" 
d="M510 478q0 -81 -43 -141h1l-226 -337h-105l166 245l-34 -2q-51 0 -96 17t-77.5 48.5t-50 75t-17.5 94.5t17.5 94.5t50 75t77.5 48.5t96 17t96 -17t77.5 -48.5t50 -75t17.5 -94.5zM120 478q0 -66 41.5 -106.5t107.5 -40.5t107.5 40.5t41.5 106.5t-41.5 106t-107.5 40
t-107.5 -40.5t-41.5 -105.5z" />
    <glyph glyph-name="colon" unicode=":" horiz-adv-x="243" 
d="M121 382q-27 0 -46 19t-19 46t19 46t46 19t46 -19t19 -46t-19 -46t-46 -19zM121 -11q-27 0 -46 19t-19 46t19 46t46 19t46 -19t19 -46t-19 -46t-46 -19z" />
    <glyph glyph-name="semicolon" unicode=";" horiz-adv-x="256" 
d="M135 382q-27 0 -46 19t-19 46t19 46t46 19t46 -19t19 -46t-19 -46t-46 -19zM196 103l-65 -243h-75l40 243h100z" />
    <glyph glyph-name="less" unicode="&#x3c;" horiz-adv-x="523" 
d="M468 573v-94l-314 -129l314 -128v-94l-413 180v85z" />
    <glyph glyph-name="equal" unicode="=" horiz-adv-x="535" 
d="M55 410v83h425v-83h-425zM55 207v83h425v-83h-425z" />
    <glyph glyph-name="greater" unicode="&#x3e;" horiz-adv-x="523" 
d="M55 573l413 -180v-85l-413 -180v94l314 128l-314 129v94z" />
    <glyph glyph-name="question" unicode="?" horiz-adv-x="539" 
d="M205 205q0 35 11.5 64.5t30 54t61.5 65.5t55.5 58.5t19 34.5t6.5 38q0 50 -35 76.5t-89 26.5q-37 0 -68 -13.5t-48.5 -37t-24.5 -46.5l-79 44q16 44 47 75.5t76.5 49.5t97.5 18q53 0 105 -21.5t81.5 -66.5t29.5 -101q0 -40 -18 -77.5t-70 -88t-66.5 -70.5t-22 -40.5
t-7.5 -42.5h-93zM251 -11q-27 0 -46 19t-19 46t19 46t46 19t46 -19t19 -46t-19 -46t-46 -19z" />
    <glyph glyph-name="at" unicode="@" horiz-adv-x="789" 
d="M402 612q79 0 145.5 -29.5t111.5 -78.5t69 -110.5t24 -123.5q0 -40 -8.5 -79t-27.5 -69t-48 -48t-65 -18q-44 0 -75.5 21.5t-43.5 62.5q-19 -24 -47 -37.5t-60 -13.5q-25 0 -51.5 8t-50 28t-39.5 51.5t-16 73.5q0 33 10 59t27 47t47.5 38t72.5 17q60 0 101 -44v36h77
v-221q0 -28 7.5 -49t23 -30t32.5 -9q43 0 72 43.5t29 132.5q0 64 -24.5 121.5t-62 95t-78.5 58.5t-81 29t-71 8q-67 0 -128 -25t-106.5 -70t-71.5 -106.5t-26 -130.5q0 -70 26 -131.5t73.5 -106.5t112.5 -69.5t138 -24.5q99 0 170 28v-32q-70 -26 -170 -26q-38 0 -86.5 9
t-98 33t-94.5 67t-74 110t-29 143q0 73 27.5 139.5t77 116.5t117 78t142.5 28zM389 161q37 0 63 25t26 64t-26 64t-63 25q-18 0 -39 -8t-36.5 -30t-15.5 -51q0 -19 9 -40t32 -35t50 -14z" />
    <glyph glyph-name="A" unicode="A" horiz-adv-x="643" 
d="M536 0l-57 157h-315l-57 -157h-99l261 700h105l261 -700h-99zM196 244h251l-126 345z" />
    <glyph glyph-name="B" unicode="B" horiz-adv-x="615" 
d="M475 363q48 -23 76.5 -66.5t28.5 -98.5q0 -30 -10.5 -63.5t-35.5 -63t-65 -50.5t-92 -21h-302v700h280q29 0 62 -9.5t62.5 -33t50.5 -61.5t21 -87q0 -45 -20.5 -83.5t-55.5 -62.5zM355 613h-187v-214h187q20 0 44.5 10.5t42 37.5t17.5 59q0 44 -30.5 75.5t-73.5 31.5z
M377 87q33 0 61 19t39 46t11 49t-11 48.5t-39 45.5t-61 19h-209v-227h209z" />
    <glyph glyph-name="C" unicode="C" horiz-adv-x="739" 
d="M404 -13q-77 0 -145 28t-117.5 78t-76.5 117t-27 140q0 74 27 140.5t76.5 116.5t117.5 78t145 28q95 0 176 -46t126 -124l-81 -47q-14 27 -43.5 57t-77.5 50t-100 20q-44 0 -91.5 -14t-87.5 -47.5t-61 -74.5t-27.5 -75.5t-6.5 -61.5q0 -41 13 -87t50 -92t94.5 -69.5
t116.5 -23.5q33 0 76 11.5t83 42.5t62 72l81 -46q-44 -78 -125 -124.5t-177 -46.5z" />
    <glyph glyph-name="D" unicode="D" horiz-adv-x="718" 
d="M348 700q70 0 131.5 -27t106.5 -75t69.5 -112.5t24.5 -135.5t-24.5 -135.5t-69.5 -112.5t-106.5 -75t-131.5 -27h-273v700h273zM348 88q52 0 97.5 20t78 55.5t50 84t17.5 102.5t-17.5 102.5t-50 84t-78 55.5t-97.5 20h-180v-524h180z" />
    <glyph glyph-name="E" unicode="E" horiz-adv-x="530" 
d="M168 88h325v-88h-418v700h413v-88h-320v-215h295v-87h-295v-222z" />
    <glyph glyph-name="F" unicode="F" horiz-adv-x="516" 
d="M478 612h-310v-227h297v-88h-297v-297h-93v700h403v-88z" />
    <glyph glyph-name="G" unicode="G" horiz-adv-x="788" 
d="M750 347v-42q0 -66 -24 -124t-69 -101.5t-109.5 -68t-140.5 -24.5q-78 0 -146.5 28t-118.5 78.5t-77 117t-27 139.5t27.5 140t77 117t117.5 78t145 28q96 0 177.5 -46.5t125.5 -122.5l-80 -47q-14 26 -43.5 56t-78.5 50t-102 20q-59 0 -110 -21t-87.5 -58.5t-56.5 -87.5
t-20 -106t20 -106t57 -87t89 -58t112 -21q65 0 121 23.5t88 67.5t40 94h-257v84h350z" />
    <glyph glyph-name="H" unicode="H" horiz-adv-x="675" 
d="M508 700h92v-700h-92v315h-340v-315h-93v700h93v-297h340v297z" />
    <glyph glyph-name="I" unicode="I" horiz-adv-x="243" 
d="M75 700h93v-700h-93v700z" />
    <glyph glyph-name="J" unicode="J" horiz-adv-x="558" 
d="M257 -13q-75 0 -133.5 32.5t-85.5 92.5l79 46q16 -40 52 -60t88 -20q67 0 105 32t38 95v495h92v-495q0 -25 -6 -55.5t-22.5 -59t-44.5 -52t-71 -37.5t-91 -14z" />
    <glyph glyph-name="K" unicode="K" horiz-adv-x="592" 
d="M584 0h-114l-302 336v-336h-93v700h93v-316l292 316h114l-309 -340z" />
    <glyph glyph-name="L" unicode="L" horiz-adv-x="488" 
d="M168 88h302v-88h-395v700h93v-612z" />
    <glyph glyph-name="M" unicode="M" horiz-adv-x="805" 
d="M730 700v-700h-92v547l-229 -381h-12l-229 380v-546h-93v700h105l223 -370l222 370h105z" />
    <glyph glyph-name="N" unicode="N" horiz-adv-x="678" 
d="M510 700h93v-700h-75l-360 523v-523h-93v700h75l360 -522v522z" />
    <glyph glyph-name="O" unicode="O" horiz-adv-x="800" 
d="M400 -13q-74 0 -140.5 28t-116 78t-77.5 117t-28 140t28 140t77.5 117t116 78t140.5 28t140.5 -28t116.5 -78t78 -117t28 -140t-28 -140t-78 -117t-116.5 -78t-140.5 -28zM400 78q56 0 105.5 21t86.5 58t57.5 87t20.5 106t-20.5 106.5t-57.5 87.5t-86.5 58t-105.5 21
t-105.5 -21t-86.5 -58t-57.5 -87.5t-20.5 -106.5t20.5 -106t57.5 -87t86.5 -58t105.5 -21z" />
    <glyph glyph-name="P" unicode="P" horiz-adv-x="590" 
d="M329 700q47 0 88.5 -17t72.5 -47.5t48 -72t17 -88.5q0 -34 -11.5 -72t-42.5 -76t-78 -57.5t-94 -19.5h-161v-250h-93v700h254zM329 337q57 0 95.5 40t38.5 98q0 59 -38.5 98.5t-95.5 39.5h-161v-276h161z" />
    <glyph glyph-name="Q" unicode="Q" horiz-adv-x="805" 
d="M763 350q0 -70 -26.5 -135t-72.5 -114l77 -77l-64 -58l-79 80q-91 -59 -198 -59q-73 0 -139.5 28t-116.5 78.5t-78 117t-28 139.5t28 140t78 117t116.5 78t139.5 28t139.5 -28t116.5 -78t78.5 -117t28.5 -140zM400 78q33 0 68.5 9t63.5 25l-140 141l64 57l144 -144
q33 36 51.5 84t18.5 100q0 56 -21 106.5t-58 87.5t-86.5 58t-104.5 21t-104.5 -21t-86.5 -58t-58 -87.5t-21 -106.5q0 -55 21 -105.5t58 -87.5t86.5 -58t104.5 -21z" />
    <glyph glyph-name="R" unicode="R" horiz-adv-x="611" 
d="M490 0l-157 268h-165v-268h-93v700h280q44 0 84 -17t70 -47t47 -69.5t17 -83.5q0 -68 -40.5 -124t-104.5 -79l165 -280h-103zM168 613v-261h187q24 0 53 13t50.5 46t21.5 72q0 25 -12.5 55.5t-44 52.5t-68.5 22h-187z" />
    <glyph glyph-name="S" unicode="S" horiz-adv-x="578" 
d="M301 -13q-98 0 -167.5 46t-97.5 126l80 46q19 -59 66.5 -93t120.5 -34q54 0 89 17t47 43t12 48q0 38 -27.5 66t-137.5 62q-78 25 -122 47t-71 59.5t-27 94.5q0 34 12 68.5t39.5 63.5t70.5 47.5t98 18.5q31 0 65 -7.5t69 -28t62 -53.5t41 -64l-78 -45q-15 35 -40.5 61
t-57.5 36.5t-61 10.5q-26 0 -56 -9.5t-50.5 -35t-20.5 -59.5q0 -25 12 -46t44 -38t91 -36q55 -18 94.5 -33.5t67.5 -35t45 -43t23.5 -50t6.5 -49.5q0 -45 -17.5 -82.5t-50 -64t-77.5 -40.5t-97 -14z" />
    <glyph glyph-name="T" unicode="T" horiz-adv-x="540" 
d="M523 700v-88h-207v-612h-92v612h-206v88h505z" />
    <glyph glyph-name="U" unicode="U" horiz-adv-x="658" 
d="M329 -13q-42 0 -87 11.5t-88.5 44.5t-65.5 85t-22 107v465h93v-461q0 -74 44 -117.5t126 -43.5t126 43.5t44 117.5v461h92v-465q0 -55 -19 -101.5t-54.5 -79t-84 -50t-104.5 -17.5z" />
    <glyph glyph-name="V" unicode="V" horiz-adv-x="621" 
d="M258 0l-250 700h100l203 -584l202 584h101l-251 -700h-105z" />
    <glyph glyph-name="W" unicode="W" horiz-adv-x="1000" 
d="M226 0l-201 700h98l160 -576l170 576h94l170 -576l160 576h98l-201 -700h-108l-166 559l-166 -559h-108z" />
    <glyph glyph-name="X" unicode="X" horiz-adv-x="590" 
d="M573 0h-106l-172 276l-172 -276h-105l225 360l-212 340h105l159 -255l159 255h105l-211 -339z" />
    <glyph glyph-name="Y" unicode="Y" horiz-adv-x="604" 
d="M596 700l-248 -417v-283h-93v284l-247 416h104l190 -328l190 328h104z" />
    <glyph glyph-name="Z" unicode="Z" horiz-adv-x="525" 
d="M149 88h347v-88h-457v81l338 531h-329v88h440v-80z" />
    <glyph glyph-name="bracketleft" unicode="[" horiz-adv-x="290" 
d="M270 716h-125v-732h125v-84h-212v900h212v-84z" />
    <glyph glyph-name="backslash" unicode="\" horiz-adv-x="528" 
d="M438 -100l-400 900h52l400 -900h-52z" />
    <glyph glyph-name="bracketright" unicode="]" horiz-adv-x="290" 
d="M232 800v-900h-212v84h125v732h-125v84h212z" />
    <glyph glyph-name="asciicircum" unicode="^" horiz-adv-x="520" 
d="M299 700l181 -310h-98l-122 212l-122 -212h-98l181 310h78z" />
    <glyph glyph-name="underscore" unicode="_" horiz-adv-x="520" 
d="M38 -151v84h445v-84h-445z" />
    <glyph glyph-name="grave" unicode="`" horiz-adv-x="225" 
d="M205 568l-80 132h-105l101 -132h84z" />
    <glyph glyph-name="a" unicode="a" 
d="M480 500h87v-500h-87v86q-30 -46 -79 -72.5t-110 -26.5q-51 0 -97 20t-81.5 56t-55 84.5t-19.5 102.5t19.5 102.5t55 84.5t81.5 56t97 20q61 0 110 -26.5t79 -72.5v86zM302 71q46 0 89 23t66 66t23 90t-23 90t-66 66t-89 23t-88.5 -23t-65.5 -66t-23 -90t23 -90t65.5 -66
t88.5 -23z" />
    <glyph glyph-name="b" unicode="b" 
d="M342 513q51 0 97 -20t81.5 -56t55 -84.5t19.5 -102.5t-19.5 -102.5t-55 -84.5t-81.5 -56t-97 -20q-61 0 -110 26.5t-79 72.5v-86h-87v700h87v-286q30 46 79 72.5t110 26.5zM331 71q46 0 88.5 23t65.5 66t23 90t-23 90t-65.5 66t-88.5 23t-89 -23t-66 -66t-23 -90t23 -90
t66 -66t89 -23z" />
    <glyph glyph-name="c" unicode="c" horiz-adv-x="547" 
d="M301 -13q-55 0 -103.5 20t-84.5 56t-55.5 84.5t-19.5 102.5t19.5 102.5t55.5 84.5t84.5 56t103.5 20q34 0 77.5 -12t83 -44t60.5 -75l-73 -42q-19 40 -59 64t-89 24q-17 0 -39.5 -4.5t-45 -16.5t-43.5 -33.5t-34.5 -54t-13.5 -69.5q0 -27 9 -57t33.5 -60t61 -45t72.5 -15
q49 0 89.5 24t61.5 63l74 -43q-15 -27 -45 -58t-78.5 -51.5t-101.5 -20.5z" />
    <glyph glyph-name="d" unicode="d" 
d="M480 700h87v-700h-87v86q-30 -46 -79 -72.5t-110 -26.5q-51 0 -97 20t-81.5 56t-55 84.5t-19.5 102.5t19.5 102.5t55 84.5t81.5 56t97 20q61 0 110 -26.5t79 -72.5v286zM302 71q46 0 89 23t66 66t23 90t-23 90t-66 66t-89 23t-88.5 -23t-65.5 -66t-23 -90t23 -90
t65.5 -66t88.5 -23z" />
    <glyph glyph-name="e" unicode="e" horiz-adv-x="583" 
d="M127 210q8 -41 33 -75t65 -50t83 -16q49 0 86.5 20.5t57.5 52.5l74 -42q-25 -38 -63.5 -65.5t-80 -37.5t-76.5 -10q-66 0 -126.5 27.5t-101 89.5t-40.5 146q0 54 19 102.5t54 84.5t84 56t105 20q54 0 100.5 -21t79.5 -58t51 -85t18 -100q0 -19 -3 -39h-419zM300 431
q-69 0 -115.5 -39.5t-57.5 -105.5h334q-7 44 -28.5 76.5t-56.5 50.5t-76 18z" />
    <glyph glyph-name="f" unicode="f" horiz-adv-x="323" 
d="M323 629q-66 5 -99 -22.5t-33 -91.5v-15h132v-84h-132v-416h-87v416h-80v84h80v15q0 101 56.5 153t162.5 45v-84z" />
    <glyph glyph-name="g" unicode="g" 
d="M481 500h86v-479q0 -42 -14 -83.5t-51 -79t-89 -54.5t-101 -17q-61 0 -112 18t-81 47t-44 57l76 43q41 -84 163 -84q77 0 122 41.5t45 111.5v71q-30 -46 -79 -73t-109 -27q-52 0 -98.5 20t-82 56t-55 84t-19.5 101t19.5 100.5t55 83.5t82 56t98.5 20q61 0 109.5 -26.5
t78.5 -72.5v86zM303 75q75 0 126.5 51.5t51.5 126.5q0 46 -23 88.5t-66 65.5t-89 23t-89 -23t-66 -65.5t-23 -88.5q0 -75 51.5 -126.5t126.5 -51.5z" />
    <glyph glyph-name="h" unicode="h" horiz-adv-x="564" 
d="M315 513q88 0 141 -55.5t53 -150.5v-307h-87v302q0 60 -33.5 94t-90.5 34q-47 0 -79 -20t-49 -56t-17 -89v-265h-87v700h87v-272q53 85 162 85z" />
    <glyph glyph-name="i" unicode="i" horiz-adv-x="220" 
d="M110 591q-24 0 -41.5 17t-17.5 41t17.5 41.5t41.5 17.5t41 -17.5t17 -41.5t-17 -41t-41 -17zM66 0v500h87v-500h-87z" />
    <glyph glyph-name="j" unicode="j" horiz-adv-x="241" 
d="M132 591q-24 0 -41.5 17t-17.5 41t17.5 41.5t41.5 17.5t41 -17.5t17 -41.5t-17 -41t-41 -17zM88 -30v530h87v-530q0 -96 -49.5 -143t-143.5 -40v84q54 -5 80 18.5t26 80.5z" />
    <glyph glyph-name="k" unicode="k" horiz-adv-x="504" 
d="M489 0h-108l-228 237v-237h-87v700h87v-421l216 221h112l-239 -242z" />
    <glyph glyph-name="l" unicode="l" horiz-adv-x="220" 
d="M66 0v730h87v-730h-87z" />
    <glyph glyph-name="m" unicode="m" horiz-adv-x="849" 
d="M606 513q84 0 136 -55t52 -147v-311h-87v308q0 27 -10 56.5t-37 47.5t-63 18q-34 0 -63 -15.5t-44.5 -51.5t-15.5 -85v-278h-87v308q0 27 -9.5 56.5t-35 47.5t-61.5 18q-23 0 -44 -7.5t-38.5 -22t-31.5 -44.5t-14 -78v-278h-87v500h87v-67q26 40 64.5 60t84.5 20
q50 0 87.5 -22.5t59.5 -62.5q25 41 66.5 63t90.5 22z" />
    <glyph glyph-name="n" unicode="n" horiz-adv-x="564" 
d="M315 513q88 0 141 -55.5t53 -150.5v-307h-87v302q0 60 -33.5 94t-90.5 34q-47 0 -79 -20t-49 -56t-17 -89v-265h-87v500h87v-72q53 85 162 85z" />
    <glyph glyph-name="o" unicode="o" horiz-adv-x="602" 
d="M301 -13q-53 0 -101.5 20t-84.5 56t-56.5 84.5t-20.5 102.5t20.5 102.5t56.5 84.5t84.5 56t101.5 20t101.5 -20t85 -56t57 -84.5t20.5 -102.5t-20.5 -102.5t-57 -84.5t-85 -56t-101.5 -20zM301 72q46 0 88.5 23t65.5 66t23 89t-23 89t-65.5 66t-88.5 23q-74 0 -125 -51.5
t-51 -126.5t51 -126.5t125 -51.5z" />
    <glyph glyph-name="p" unicode="p" 
d="M342 513q51 0 97 -20t81.5 -56t55 -84.5t19.5 -102.5t-19.5 -102.5t-55 -84.5t-81.5 -56t-97 -20q-61 0 -110 26.5t-79 72.5v-286h-87v700h87v-86q30 46 79 72.5t110 26.5zM331 71q46 0 88.5 23t65.5 66t23 90t-23 90t-65.5 66t-88.5 23t-89 -23t-66 -66t-23 -90t23 -90
t66 -66t89 -23z" />
    <glyph glyph-name="q" unicode="q" 
d="M480 500h87v-700h-87v286q-30 -46 -79 -72.5t-110 -26.5q-51 0 -97 20t-81.5 56t-55 84.5t-19.5 102.5t19.5 102.5t55 84.5t81.5 56t97 20q61 0 110 -26.5t79 -72.5v86zM302 71q46 0 89 23t66 66t23 90t-23 90t-66 66t-89 23t-88.5 -23t-65.5 -66t-23 -90t23 -90
t65.5 -66t88.5 -23z" />
    <glyph glyph-name="r" unicode="r" horiz-adv-x="328" 
d="M153 416q11 24 32 46.5t54 34.5t70 12v-91q-27 1 -55.5 -6t-51 -25.5t-36 -49t-13.5 -72.5v-265h-87v500h87v-84z" />
    <glyph glyph-name="s" unicode="s" horiz-adv-x="458" 
d="M141 365q0 -23 19.5 -40t82.5 -34.5t93.5 -31t47.5 -30t27 -38.5t10 -54q0 -68 -52.5 -109t-134.5 -41q-53 0 -97 18.5t-68 46.5t-34 52l75 43q12 -36 45.5 -57t78.5 -21q31 0 55 9t34 25.5t10 33.5q0 23 -15.5 37t-35.5 21.5t-50.5 16.5t-38.5 11q-74 22 -107 54.5
t-33 86.5q0 65 50.5 107t126.5 42q60 0 108 -28t72 -76l-73 -41q-6 15 -20.5 30.5t-38 24.5t-48.5 9q-26 0 -48.5 -10t-31.5 -26t-9 -31z" />
    <glyph glyph-name="t" unicode="t" horiz-adv-x="378" 
d="M338 416h-133v-271q0 -21 6 -38.5t27 -25t100 -3.5v-78q-114 -15 -167 19t-53 126v271h-99v84h99v114l87 26v-140h133v-84z" />
    <glyph glyph-name="u" unicode="u" horiz-adv-x="564" 
d="M411 500h87v-500h-87v72q-53 -85 -162 -85q-88 0 -141 55.5t-53 150.5v307h87v-302q0 -60 33.5 -94t90.5 -34q47 0 79 20t49 56t17 89v265z" />
    <glyph glyph-name="v" unicode="v" horiz-adv-x="518" 
d="M416 500h94l-200 -500h-102l-200 500h94l157 -407z" />
    <glyph glyph-name="w" unicode="w" horiz-adv-x="770" 
d="M655 500h91l-155 -500h-89l-117 370l-117 -370h-89l-155 500h91l110 -380l118 380h84l118 -381z" />
    <glyph glyph-name="x" unicode="x" horiz-adv-x="515" 
d="M500 0h-102l-140 189l-141 -189h-102l192 257l-181 243h103l129 -174l129 174h102l-180 -242z" />
    <glyph glyph-name="y" unicode="y" horiz-adv-x="515" 
d="M415 500h93l-204 -531q-32 -85 -89.5 -129.5t-132.5 -39.5v81q42 -3 77 20t58 82l9 19l-218 498h93l170 -392z" />
    <glyph glyph-name="z" unicode="z" horiz-adv-x="471" 
d="M167 83h266v-83h-385v58l255 359h-245v83h365v-58z" />
    <glyph glyph-name="braceleft" unicode="{" horiz-adv-x="356" 
d="M336 -108q-93 -7 -141.5 36t-48.5 134v161q0 43 -17.5 65t-78.5 21v84q37 -1 57 7t29.5 26.5t9.5 52.5v161q0 92 48 134.5t142 35.5v-84q-52 5 -77.5 -12t-25.5 -74v-161q0 -100 -72 -128q72 -27 72 -128v-161q0 -48 21 -70t82 -16v-84z" />
    <glyph glyph-name="bar" unicode="|" horiz-adv-x="237" 
d="M75 -200v920h87v-920h-87z" />
    <glyph glyph-name="braceright" unicode="}" horiz-adv-x="356" 
d="M20 -108v84q52 -5 77.5 12.5t25.5 73.5v161q0 101 72 128q-72 28 -72 128v161q0 49 -21 70.5t-82 15.5v84q94 7 142 -35.5t48 -134.5v-161q0 -34 9.5 -52.5t29.5 -26.5t57 -7v-84q-61 1 -78.5 -21t-17.5 -65v-161q0 -91 -48.5 -134t-141.5 -36z" />
    <glyph glyph-name="asciitilde" unicode="~" horiz-adv-x="596" 
d="M466 424l75 -36q-26 -89 -92 -111.5t-160 31.5q-37 21 -67 30t-53.5 -2t-38.5 -60l-75 35q9 32 27.5 60.5t48.5 44.5t74 12.5t101 -36.5q38 -22 68 -31t53.5 2t38.5 61z" />
    <glyph glyph-name="exclamdown" unicode="&#xa1;" horiz-adv-x="243" 
d="M121 511q27 0 46 -19t19 -46t-19 -46t-46 -19t-46 19t-19 46t19 46t46 19zM88 295h67l19 -295v-200h-105v200z" />
    <glyph glyph-name="cent" unicode="&#xa2;" horiz-adv-x="547" 
d="M452 260l74 -43q-15 -27 -45 -58t-78.5 -51.5t-101.5 -20.5q-33 0 -65 8l-31 -95h-53l36 111q-68 31 -109 95.5t-41 143.5q0 54 19.5 102.5t55.5 84.5t84.5 56t103.5 20q27 0 48 -4l29 91h53l-34 -105q41 -15 74 -45t51 -68l-73 -42q-11 23 -32.5 43.5t-45.5 30.5
l-109 -337q17 -4 39 -4q49 0 89.5 24t61.5 63zM125 350q0 -50 24.5 -92t65.5 -64l107 333l-21 1q-17 0 -39.5 -4.5t-45 -16.5t-43.5 -33.5t-34.5 -54t-13.5 -69.5z" />
    <glyph glyph-name="sterling" unicode="&#xa3;" horiz-adv-x="584" 
d="M217 90h353v-90h-532v90h87v194h-70v82h70v134q0 39 12 77.5t39.5 68.5t68 48.5t90.5 18.5q70 0 121.5 -37t77.5 -101l-77 -44q-33 92 -121 92q-36 0 -63 -16t-38.5 -37t-14.5 -39t-3 -33v-132h222v-82h-222v-194z" />
    <glyph glyph-name="currency" unicode="&#xa4;" horiz-adv-x="549" 
d="M488 350q0 -76 -46 -133l70 -70l-34 -34l-71 71q-56 -45 -132 -45q-75 0 -133 44l-70 -70l-34 34l69 70q-46 57 -46 133t46 133l-69 70l34 34l70 -70q57 45 133 45q74 0 132 -45l71 70l34 -34l-70 -70q46 -57 46 -133zM275 222q39 0 70.5 21.5t44 51.5t12.5 55
t-12.5 55.5t-44 51.5t-70.5 21q-54 0 -90.5 -36.5t-36.5 -91.5q0 -39 21 -71t51 -44.5t55 -12.5z" />
    <glyph glyph-name="yen" unicode="&#xa5;" horiz-adv-x="584" 
d="M596 700l-207 -348h123v-65h-161l-3 -4v-51h164v-66h-164v-166h-93v166h-183v66h183v52l-2 3h-181v65h143l-207 348h104l190 -328l190 328h104z" />
    <glyph glyph-name="brokenbar" unicode="&#xa6;" horiz-adv-x="237" 
d="M75 350v370h87v-370h-87zM75 -200v370h87v-370h-87z" />
    <glyph glyph-name="section" unicode="&#xa7;" horiz-adv-x="521" 
d="M482 269q0 -36 -17 -68.5t-46 -55.5q41 -43 41 -102q0 -69 -52 -112t-135 -43q-79 0 -133.5 34t-79.5 97l75 43q16 -47 52 -70.5t86 -23.5q44 0 72 20t28 55q0 13 -6.5 26.5t-23.5 27.5t-40.5 25.5t-53.5 24t-37 15.5q-81 33 -118.5 74t-37.5 98q0 37 18.5 69.5
t49.5 55.5q-37 40 -37 100q0 67 51 110.5t127 43.5q64 0 113.5 -32.5t73.5 -89.5l-71 -40q-16 40 -47 60.5t-69 20.5q-27 0 -50 -11t-32 -28.5t-9 -33.5q0 -25 16.5 -42.5t38 -30t95.5 -44.5q94 -41 126 -82.5t32 -90.5zM143 337q0 -27 21.5 -53t83.5 -50q80 -30 107 -44
q21 15 30.5 35t9.5 39q0 28 -21.5 53.5t-87.5 52.5q-81 32 -100 42q-21 -14 -32 -33.5t-11 -41.5z" />
    <glyph glyph-name="dieresis" unicode="&#xa8;" horiz-adv-x="335" 
d="M73 566q-21 0 -37 16t-16 37t15.5 36.5t37.5 15.5q21 0 36.5 -15.5t15.5 -36.5q0 -22 -15.5 -37.5t-36.5 -15.5zM263 566q-21 0 -37 16t-16 37t15.5 36.5t37.5 15.5q21 0 36.5 -15.5t15.5 -36.5q0 -22 -15.5 -37.5t-36.5 -15.5z" />
    <glyph glyph-name="copyright" unicode="&#xa9;" horiz-adv-x="799" 
d="M400 -12q-73 0 -139.5 28t-116.5 78t-78 116.5t-28 139.5t28 139.5t78 116.5t116.5 78t139.5 28t139.5 -28t116.5 -78t78 -116.5t28 -139.5t-28 -139.5t-78 -116.5t-116.5 -78t-139.5 -28zM400 18q66 0 126.5 25.5t106 71.5t71 107t25.5 128t-25.5 128t-71 107t-106 71.5
t-126.5 25.5t-126.5 -25.5t-106.5 -71.5t-71.5 -107t-25.5 -128t25.5 -128t71.5 -107t106.5 -71.5t126.5 -25.5zM403 157q-29 0 -62 10t-62.5 34t-50.5 62t-21 87q0 39 15 74.5t42 62t63 41.5t76 15q52 0 96.5 -25.5t68.5 -68.5l-69 -40q-12 27 -39 41.5t-58 14.5
q-27 0 -53 -12.5t-43.5 -41t-17.5 -61.5t17.5 -61.5t43.5 -41t53 -12.5q32 0 59 15t39 42l69 -41q-24 -42 -69 -68t-97 -26z" />
    <glyph glyph-name="guillemotleft" unicode="&#xab;" horiz-adv-x="510" 
d="M272 492l-110 -183l110 -182h-94l-110 182l110 183h94zM442 492l-110 -183l110 -182h-94l-110 182l110 183h94z" />
    <glyph glyph-name="logicalnot" unicode="&#xac;" horiz-adv-x="530" 
d="M55 392h420v-200h-87v117h-333v83z" />
    <glyph glyph-name="registered" unicode="&#xae;" horiz-adv-x="799" 
d="M400 712q73 0 139.5 -28t116.5 -78t78 -116.5t28 -139.5t-28 -139.5t-78 -116.5t-116.5 -78t-139.5 -28t-139.5 28t-116.5 78t-78 116.5t-28 139.5t28 139.5t78 116.5t116.5 78t139.5 28zM400 18q66 0 126.5 25.5t106 71.5t71 107t25.5 128t-25.5 128t-71 107t-106 71.5
t-126.5 25.5t-126.5 -25.5t-106.5 -71.5t-71.5 -107t-25.5 -128t25.5 -128t71.5 -107t106.5 -71.5t126.5 -25.5zM547 415q0 -38 -16.5 -66t-46.5 -43l77 -141h-84l-65 125h-6h-48v-125h-77v370h125q32 0 64.5 -11.5t54.5 -41.5t22 -67zM358 463v-103h48q30 0 47 14t17 37
q0 24 -17 38t-47 14h-48z" />
    <glyph glyph-name="macron" unicode="&#xaf;" horiz-adv-x="310" 
d="M20 575v73h270v-73h-270z" />
    <glyph glyph-name="degree" unicode="&#xb0;" horiz-adv-x="391" 
d="M196 500q-67 0 -112.5 45.5t-45.5 109.5q0 65 45.5 110t112.5 45t112.5 -45t45.5 -110t-45 -110t-113 -45zM196 575q34 0 56.5 23t22.5 57t-22.5 57t-56.5 23t-56.5 -23t-22.5 -57t22.5 -57t56.5 -23z" />
    <glyph glyph-name="plusminus" unicode="&#xb1;" horiz-adv-x="545" 
d="M314 465h174v-83h-174v-157h-83v157h-173v83h173v158h83v-158zM58 78v83h430v-83h-430z" />
    <glyph glyph-name="acute" unicode="&#xb4;" horiz-adv-x="225" 
d="M20 568h84l101 132h-105z" />
    <glyph glyph-name="mu" unicode="&#xb5;" horiz-adv-x="610" 
d="M544 83h38v-83h-51q-37 0 -64 18t-38 49q-26 -40 -67 -60t-92 -20q-72 0 -117 39v-226h-87v700h87v-301q0 -63 34 -96t90 -33q47 0 79 20t49 56t17 89v265h87v-382q0 -16 9.5 -25.5t25.5 -9.5z" />
    <glyph glyph-name="paragraph" unicode="&#xb6;" horiz-adv-x="610" 
d="M568 700v-79h-61v-821h-83v821h-101v-821h-83v490q-41 0 -79 16t-66 44.5t-44 66t-16 78.5q0 52 27 101.5t76.5 76.5t101.5 27h328z" />
    <glyph glyph-name="periodcentered" unicode="&#xb7;" horiz-adv-x="243" 
d="M121 284q-27 0 -46 19t-19 46t19 46t46 19t46 -19t19 -46t-19 -46t-46 -19z" />
    <glyph glyph-name="cedilla" unicode="&#xb8;" horiz-adv-x="250" 
d="M145 -45q38 -8 61.5 -29t23.5 -51q0 -103 -210 -91v66q65 -5 99.5 3.5t34.5 27.5q0 13 -16 23t-67 13v83h74v-45z" />
    <glyph glyph-name="guillemotright" unicode="&#xbb;" horiz-adv-x="510" 
d="M162 492l110 -183l-110 -182h-94l110 182l-110 183h94zM332 492l110 -183l-110 -182h-94l110 182l-110 183h94z" />
    <glyph glyph-name="onequarter" unicode="&#xbc;" horiz-adv-x="819" 
d="M192 300h-77v319l-88 -26l-19 65l117 42h67v-400zM524 700h70l-400 -700h-70zM800 142v-71h-47v-71h-76v71h-199v71l142 258h83l-140 -258h114v88h76v-88h47z" />
    <glyph glyph-name="onehalf" unicode="&#xbd;" horiz-adv-x="809" 
d="M192 300h-77v319l-88 -26l-19 65l117 42h67v-400zM524 700h70l-400 -700h-70zM607 72h172v-72h-286v57l162 153q14 13 26.5 33.5t12.5 43.5q0 24 -16.5 38.5t-44.5 14.5q-55 0 -79 -58l-64 36q19 44 56 69.5t87 25.5q31 0 63 -12.5t54 -43t22 -68.5q0 -67 -64 -126z" />
    <glyph glyph-name="threequarters" unicode="&#xbe;" horiz-adv-x="916" 
d="M316 418q0 -60 -41 -95.5t-108 -35.5q-53 0 -90.5 22.5t-56.5 63.5l65 37q22 -51 82 -51q34 0 53 16t19 43t-20.5 43.5t-52.5 16.5h-9l-34 50l84 100h-172v72h263v-66l-84 -100q47 -10 74.5 -41t27.5 -75zM621 700h70l-400 -700h-70zM897 142v-71h-47v-71h-76v71h-199v71
l142 258h83l-140 -258h114v88h76v-88h47z" />
    <glyph glyph-name="questiondown" unicode="&#xbf;" horiz-adv-x="539" 
d="M288 511q27 0 46 -19t19 -46t-19 -46t-46 -19t-46 19t-19 46t19 46t46 19zM334 295q0 -35 -11.5 -64.5t-30 -54t-61.5 -65.5t-55.5 -58.5t-19 -34.5t-6.5 -38q0 -50 35 -76.5t89 -26.5q37 0 68 13.5t48.5 37t24.5 46.5l79 -44q-16 -44 -47 -75.5t-76.5 -49.5t-97.5 -18
q-53 0 -105 21.5t-81.5 66.5t-29.5 101q0 40 18 77.5t70 88t66.5 70.5t22 40.5t7.5 42.5h93z" />
    <glyph glyph-name="Agrave" unicode="&#xc0;" horiz-adv-x="643" 
d="M388 768h-84l-101 132h105zM536 0l-57 157h-315l-57 -157h-99l261 700h105l261 -700h-99zM196 244h251l-126 345z" />
    <glyph glyph-name="Aacute" unicode="&#xc1;" horiz-adv-x="643" 
d="M446 900l-101 -132h-84l80 132h105zM536 0l-57 157h-315l-57 -157h-99l261 700h105l261 -700h-99zM196 244h251l-126 345z" />
    <glyph glyph-name="Acircumflex" unicode="&#xc2;" horiz-adv-x="643" 
d="M320 846l-61 -81h-93l106 135h96l106 -135h-93zM536 0l-57 157h-315l-57 -157h-99l261 700h105l261 -700h-99zM196 244h251l-126 345z" />
    <glyph glyph-name="Atilde" unicode="&#xc3;" horiz-adv-x="643" 
d="M316 797q-29 21 -43.5 26t-21.5 -6.5t-7 -43.5h-73q0 48 13 78t35.5 41t50 5.5t55.5 -25.5q29 -21 43.5 -26t21.5 6.5t7 42.5h73q0 -36 -9 -66.5t-29 -46t-50 -13t-66 27.5zM536 0l-57 157h-315l-57 -157h-99l261 700h105l261 -700h-99zM196 244h251l-126 345z" />
    <glyph glyph-name="Adieresis" unicode="&#xc4;" horiz-adv-x="643" 
d="M226 766q-21 0 -37 16t-16 37t15.5 36.5t37.5 15.5q21 0 36.5 -15.5t15.5 -36.5q0 -22 -15.5 -37.5t-36.5 -15.5zM416 766q-21 0 -37 16t-16 37t15.5 36.5t37.5 15.5q21 0 36.5 -15.5t15.5 -36.5q0 -22 -15.5 -37.5t-36.5 -15.5zM536 0l-57 157h-315l-57 -157h-99
l261 700h105l261 -700h-99zM196 244h251l-126 345z" />
    <glyph glyph-name="Aring" unicode="&#xc5;" horiz-adv-x="643" 
d="M536 0l-57 157h-315l-57 -157h-99l251 673q-23 13 -36.5 37t-13.5 53q0 21 10.5 46t38.5 42.5t64 17.5t64 -17.5t38.5 -42.5t10.5 -46q0 -29 -13.5 -53.5t-37.5 -37.5l251 -672h-99zM322 808q-21 0 -34 -13t-13 -32q0 -20 12.5 -33t34.5 -13q23 0 35.5 13t12.5 33
q0 19 -12.5 32t-35.5 13zM196 244h251l-126 345z" />
    <glyph glyph-name="AE" unicode="&#xc6;" horiz-adv-x="880" 
d="M541 88h302v-88h-393v157h-250l-95 -157h-105l424 700h414v-88h-297v-215h279v-87h-279v-222zM252 244h198v328z" />
    <glyph glyph-name="Ccedilla" unicode="&#xc7;" horiz-adv-x="739" 
d="M404 78q33 0 76 11.5t83 42.5t62 72l81 -46q-39 -70 -109.5 -115.5t-155.5 -53.5v-34q38 -8 61.5 -29t23.5 -51q0 -103 -210 -91v66q65 -5 99.5 3.5t34.5 27.5q0 13 -16 23t-67 13v72q-70 6 -131.5 36.5t-105.5 79.5t-68 112.5t-24 132.5q0 74 27 140.5t76.5 116.5
t117.5 78t145 28q95 0 176 -46t126 -124l-81 -47q-14 27 -43.5 57t-77.5 50t-100 20q-44 0 -91.5 -14t-87.5 -47.5t-61 -74.5t-27.5 -75.5t-6.5 -61.5q0 -41 13 -87t50 -92t94.5 -69.5t116.5 -23.5z" />
    <glyph glyph-name="Egrave" unicode="&#xc8;" horiz-adv-x="530" 
d="M349 768h-84l-101 132h105zM168 88h325v-88h-418v700h413v-88h-320v-215h295v-87h-295v-222z" />
    <glyph glyph-name="Eacute" unicode="&#xc9;" horiz-adv-x="530" 
d="M407 900l-101 -132h-84l80 132h105zM168 88h325v-88h-418v700h413v-88h-320v-215h295v-87h-295v-222z" />
    <glyph glyph-name="Ecircumflex" unicode="&#xca;" horiz-adv-x="530" 
d="M281 846l-61 -81h-93l106 135h96l106 -135h-93zM168 88h325v-88h-418v700h413v-88h-320v-215h295v-87h-295v-222z" />
    <glyph glyph-name="Edieresis" unicode="&#xcb;" horiz-adv-x="530" 
d="M187 766q-21 0 -37 16t-16 37t15.5 36.5t37.5 15.5q21 0 36.5 -15.5t15.5 -36.5q0 -22 -15.5 -37.5t-36.5 -15.5zM377 766q-21 0 -37 16t-16 37t15.5 36.5t37.5 15.5q21 0 36.5 -15.5t15.5 -36.5q0 -22 -15.5 -37.5t-36.5 -15.5zM168 88h325v-88h-418v700h413v-88h-320
v-215h295v-87h-295v-222z" />
    <glyph glyph-name="Igrave" unicode="&#xcc;" horiz-adv-x="243" 
d="M188 768l-80 132h-105l101 -132h84zM75 700h93v-700h-93v700z" />
    <glyph glyph-name="Iacute" unicode="&#xcd;" horiz-adv-x="243" 
d="M61 768h84l101 132h-105zM75 700h93v-700h-93v700z" />
    <glyph glyph-name="Icircumflex" unicode="&#xce;" horiz-adv-x="243" 
d="M168 900l106 -135h-93l-61 81l-61 -81h-93l106 135h96zM75 0v700h93v-700h-93z" />
    <glyph glyph-name="Idieresis" unicode="&#xcf;" horiz-adv-x="243" 
d="M26 766q-21 0 -37 16t-16 37t15.5 36.5t37.5 15.5q21 0 36.5 -15.5t15.5 -36.5q0 -22 -15.5 -37.5t-36.5 -15.5zM216 766q-21 0 -37 16t-16 37t15.5 36.5t37.5 15.5q21 0 36.5 -15.5t15.5 -36.5q0 -22 -15.5 -37.5t-36.5 -15.5zM75 700h93v-700h-93v700z" />
    <glyph glyph-name="Eth" unicode="&#xd0;" horiz-adv-x="743" 
d="M373 700q70 0 131.5 -27t106.5 -75t69.5 -112.5t24.5 -135.5t-24.5 -135.5t-69.5 -112.5t-106.5 -75t-131.5 -27h-273v306h-73v84h73v310h273zM373 88q52 0 97.5 20t78 55.5t50 84t17.5 102.5t-17.5 102.5t-50 84t-78 55.5t-97.5 20h-180v-222h199v-84h-199v-218h180z
" />
    <glyph glyph-name="Ntilde" unicode="&#xd1;" horiz-adv-x="678" 
d="M186 773q0 48 13 78t35.5 41t50 5.5t55.5 -25.5q29 -21 43.5 -26t21.5 6.5t7 42.5h73q0 -36 -9 -66.5t-29 -46t-50 -13t-66 27.5q-29 21 -43.5 26t-21.5 -6.5t-7 -43.5h-73zM510 700h93v-700h-75l-360 523v-523h-93v700h75l360 -522v522z" />
    <glyph glyph-name="Ograve" unicode="&#xd2;" horiz-adv-x="800" 
d="M467 771l-80 132h-105l101 -132h84zM400 -13q-74 0 -140.5 28t-116 78t-77.5 117t-28 140t28 140t77.5 117t116 78t140.5 28t140.5 -28t116.5 -78t78 -117t28 -140t-28 -140t-78 -117t-116.5 -78t-140.5 -28zM400 78q56 0 105.5 21t86.5 58t57.5 87t20.5 106t-20.5 106.5
t-57.5 87.5t-86.5 58t-105.5 21t-105.5 -21t-86.5 -58t-57.5 -87.5t-20.5 -106.5t20.5 -106t57.5 -87t86.5 -58t105.5 -21z" />
    <glyph glyph-name="Oacute" unicode="&#xd3;" horiz-adv-x="800" 
d="M340 771h84l101 132h-105zM400 -13q-74 0 -140.5 28t-116 78t-77.5 117t-28 140t28 140t77.5 117t116 78t140.5 28t140.5 -28t116.5 -78t78 -117t28 -140t-28 -140t-78 -117t-116.5 -78t-140.5 -28zM400 78q56 0 105.5 21t86.5 58t57.5 87t20.5 106t-20.5 106.5
t-57.5 87.5t-86.5 58t-105.5 21t-105.5 -21t-86.5 -58t-57.5 -87.5t-20.5 -106.5t20.5 -106t57.5 -87t86.5 -58t105.5 -21z" />
    <glyph glyph-name="Ocircumflex" unicode="&#xd4;" horiz-adv-x="800" 
d="M399 849l-61 -81h-93l106 135h96l106 -135h-93zM400 713q74 0 140.5 -28t116.5 -78t78 -117t28 -140t-28 -140t-78 -117t-116.5 -78t-140.5 -28t-140.5 28t-116 78t-77.5 117t-28 140t28 140t77.5 117t116 78t140.5 28zM400 78q56 0 105.5 21t86.5 58t57.5 87t20.5 106
t-20.5 106.5t-57.5 87.5t-86.5 58t-105.5 21t-105.5 -21t-86.5 -58t-57.5 -87.5t-20.5 -106.5t20.5 -106t57.5 -87t86.5 -58t105.5 -21z" />
    <glyph glyph-name="Otilde" unicode="&#xd5;" horiz-adv-x="800" 
d="M250 776q0 48 13 78t35.5 41t50 5.5t55.5 -25.5q29 -21 43.5 -26t21.5 6.5t7 42.5h73q0 -36 -9 -66.5t-29 -46t-50 -13t-66 27.5q-29 21 -43.5 26t-21.5 -6.5t-7 -43.5h-73zM400 -13q-74 0 -140.5 28t-116 78t-77.5 117t-28 140t28 140t77.5 117t116 78t140.5 28
t140.5 -28t116.5 -78t78 -117t28 -140t-28 -140t-78 -117t-116.5 -78t-140.5 -28zM400 78q56 0 105.5 21t86.5 58t57.5 87t20.5 106t-20.5 106.5t-57.5 87.5t-86.5 58t-105.5 21t-105.5 -21t-86.5 -58t-57.5 -87.5t-20.5 -106.5t20.5 -106t57.5 -87t86.5 -58t105.5 -21z" />
    <glyph glyph-name="Odieresis" unicode="&#xd6;" horiz-adv-x="800" 
d="M305 769q-21 0 -37 16t-16 37t15.5 36.5t37.5 15.5q21 0 36.5 -15.5t15.5 -36.5q0 -22 -15.5 -37.5t-36.5 -15.5zM495 769q-21 0 -37 16t-16 37t15.5 36.5t37.5 15.5q21 0 36.5 -15.5t15.5 -36.5q0 -22 -15.5 -37.5t-36.5 -15.5zM400 -13q-74 0 -140.5 28t-116 78
t-77.5 117t-28 140t28 140t77.5 117t116 78t140.5 28t140.5 -28t116.5 -78t78 -117t28 -140t-28 -140t-78 -117t-116.5 -78t-140.5 -28zM400 78q56 0 105.5 21t86.5 58t57.5 87t20.5 106t-20.5 106.5t-57.5 87.5t-86.5 58t-105.5 21t-105.5 -21t-86.5 -58t-57.5 -87.5
t-20.5 -106.5t20.5 -106t57.5 -87t86.5 -58t105.5 -21z" />
    <glyph glyph-name="multiply" unicode="&#xd7;" horiz-adv-x="485" 
d="M435 485l-135 -135l135 -135l-59 -56l-133 134l-134 -134l-59 56l135 135l-135 135l59 56l134 -133l133 133z" />
    <glyph glyph-name="Oslash" unicode="&#xd8;" horiz-adv-x="809" 
d="M667 607q49 -49 77 -116.5t28 -140.5t-28 -140t-78 -117t-116.5 -78t-140.5 -28q-42 0 -97.5 13.5t-112.5 52.5l-49 -57l-54 32l55 66q-48 49 -76 116t-28 140t28 140t77.5 117t116 78t140.5 28q58 0 112.5 -17.5t98.5 -48.5l48 57l54 -31zM139 350q0 -53 19 -102t52 -85
l351 415q-69 45 -152 45q-56 0 -105.5 -21t-86.5 -58t-57.5 -87.5t-20.5 -106.5zM409 78q56 0 105.5 21t86.5 58t57.5 87t20.5 106q0 53 -19 102t-52 86l-351 -415q67 -45 152 -45z" />
    <glyph glyph-name="Ugrave" unicode="&#xd9;" horiz-adv-x="658" 
d="M396 768l-80 132h-105l101 -132h84zM329 -13q-42 0 -87 11.5t-88.5 44.5t-65.5 85t-22 107v465h93v-461q0 -74 44 -117.5t126 -43.5t126 43.5t44 117.5v461h92v-465q0 -55 -19 -101.5t-54.5 -79t-84 -50t-104.5 -17.5z" />
    <glyph glyph-name="Uacute" unicode="&#xda;" horiz-adv-x="658" 
d="M269 768h84l101 132h-105zM329 -13q-42 0 -87 11.5t-88.5 44.5t-65.5 85t-22 107v465h93v-461q0 -74 44 -117.5t126 -43.5t126 43.5t44 117.5v461h92v-465q0 -55 -19 -101.5t-54.5 -79t-84 -50t-104.5 -17.5z" />
    <glyph glyph-name="Ucircumflex" unicode="&#xdb;" horiz-adv-x="658" 
d="M328 846l-61 -81h-93l106 135h96l106 -135h-93zM499 700h92v-465q0 -55 -19 -101.5t-54.5 -79t-84 -50t-104.5 -17.5q-42 0 -87 11.5t-88.5 44.5t-65.5 85t-22 107v465h93v-461q0 -74 44 -117.5t126 -43.5t126 43.5t44 117.5v461z" />
    <glyph glyph-name="Udieresis" unicode="&#xdc;" horiz-adv-x="658" 
d="M234 766q-21 0 -37 16t-16 37t15.5 36.5t37.5 15.5q21 0 36.5 -15.5t15.5 -36.5q0 -22 -15.5 -37.5t-36.5 -15.5zM424 766q-21 0 -37 16t-16 37t15.5 36.5t37.5 15.5q21 0 36.5 -15.5t15.5 -36.5q0 -22 -15.5 -37.5t-36.5 -15.5zM329 -13q-42 0 -87 11.5t-88.5 44.5
t-65.5 85t-22 107v465h93v-461q0 -74 44 -117.5t126 -43.5t126 43.5t44 117.5v461h92v-465q0 -55 -19 -101.5t-54.5 -79t-84 -50t-104.5 -17.5z" />
    <glyph glyph-name="Yacute" unicode="&#xdd;" horiz-adv-x="604" 
d="M424 900l-101 -132h-84l80 132h105zM596 700l-248 -417v-283h-93v284l-247 416h104l190 -328l190 328h104z" />
    <glyph glyph-name="Thorn" unicode="&#xde;" horiz-adv-x="590" 
d="M330 575q47 0 88.5 -17t72 -47.5t47.5 -72t17 -88.5q0 -46 -17 -87.5t-47.5 -72.5t-72.5 -48t-88 -17h-162v-125h-93v700h93v-125h162zM330 212q56 0 94.5 40t38.5 98q0 59 -38.5 98.5t-94.5 39.5h-162v-276h162z" />
    <glyph glyph-name="germandbls" unicode="&#xdf;" horiz-adv-x="523" 
d="M286 -4v78q64 -4 97.5 15t33.5 61q0 11 -4.5 27t-17 36.5t-63 80.5t-50.5 99q0 10 5 25.5t32 48.5t34.5 49t7.5 31q0 38 -26.5 61t-68.5 23q-34 0 -62 -15.5t-39.5 -43.5t-11.5 -59v-513h-87v513q0 34 10 69t34 64t63.5 48t94.5 19q51 0 90.5 -19t64.5 -55t25 -85
q0 -44 -33.5 -86t-39 -52.5t-5.5 -20.5q0 -11 7 -26.5t35.5 -48.5t41.5 -49.5t24 -36t18.5 -42.5t7.5 -50q0 -53 -27.5 -87t-75.5 -49t-115 -10z" />
    <glyph glyph-name="agrave" unicode="&#xe0;" 
d="M373 568h-84l-101 132h105zM480 500h87v-500h-87v86q-30 -46 -79 -72.5t-110 -26.5q-51 0 -97 20t-81.5 56t-55 84.5t-19.5 102.5t19.5 102.5t55 84.5t81.5 56t97 20q61 0 110 -26.5t79 -72.5v86zM302 71q46 0 89 23t66 66t23 90t-23 90t-66 66t-89 23t-88.5 -23
t-65.5 -66t-23 -90t23 -90t65.5 -66t88.5 -23z" />
    <glyph glyph-name="aacute" unicode="&#xe1;" 
d="M431 700l-101 -132h-84l80 132h105zM480 500h87v-500h-87v86q-30 -46 -79 -72.5t-110 -26.5q-51 0 -97 20t-81.5 56t-55 84.5t-19.5 102.5t19.5 102.5t55 84.5t81.5 56t97 20q61 0 110 -26.5t79 -72.5v86zM302 71q46 0 89 23t66 66t23 90t-23 90t-66 66t-89 23t-88.5 -23
t-65.5 -66t-23 -90t23 -90t65.5 -66t88.5 -23z" />
    <glyph glyph-name="acircumflex" unicode="&#xe2;" 
d="M305 646l-61 -81h-93l106 135h96l106 -135h-93zM480 500h87v-500h-87v86q-30 -46 -79 -72.5t-110 -26.5q-51 0 -97 20t-81.5 56t-55 84.5t-19.5 102.5t19.5 102.5t55 84.5t81.5 56t97 20q61 0 110 -26.5t79 -72.5v86zM302 71q46 0 89 23t66 66t23 90t-23 90t-66 66
t-89 23t-88.5 -23t-65.5 -66t-23 -90t23 -90t65.5 -66t88.5 -23z" />
    <glyph glyph-name="atilde" unicode="&#xe3;" 
d="M301 597q-29 21 -43.5 26t-21.5 -6.5t-7 -43.5h-73q0 48 13 78t35.5 41t50 5.5t55.5 -25.5q29 -21 43.5 -26t21.5 6.5t7 42.5h73q0 -36 -9 -66.5t-29 -46t-50 -13t-66 27.5zM480 500h87v-500h-87v86q-30 -46 -79 -72.5t-110 -26.5q-51 0 -97 20t-81.5 56t-55 84.5
t-19.5 102.5t19.5 102.5t55 84.5t81.5 56t97 20q61 0 110 -26.5t79 -72.5v86zM302 71q46 0 89 23t66 66t23 90t-23 90t-66 66t-89 23t-88.5 -23t-65.5 -66t-23 -90t23 -90t65.5 -66t88.5 -23z" />
    <glyph glyph-name="adieresis" unicode="&#xe4;" 
d="M211 566q-21 0 -37 16t-16 37t15.5 36.5t37.5 15.5q21 0 36.5 -15.5t15.5 -36.5q0 -22 -15.5 -37.5t-36.5 -15.5zM401 566q-21 0 -37 16t-16 37t15.5 36.5t37.5 15.5q21 0 36.5 -15.5t15.5 -36.5q0 -22 -15.5 -37.5t-36.5 -15.5zM480 500h87v-500h-87v86
q-30 -46 -79 -72.5t-110 -26.5q-51 0 -97 20t-81.5 56t-55 84.5t-19.5 102.5t19.5 102.5t55 84.5t81.5 56t97 20q61 0 110 -26.5t79 -72.5v86zM302 71q46 0 89 23t66 66t23 90t-23 90t-66 66t-89 23t-88.5 -23t-65.5 -66t-23 -90t23 -90t65.5 -66t88.5 -23z" />
    <glyph glyph-name="aring" unicode="&#xe5;" 
d="M306 546q-36 0 -64 17.5t-38.5 43t-10.5 46.5t10.5 46t38.5 42.5t64 17.5t64 -17.5t38.5 -42.5t10.5 -46q0 -46 -31.5 -76.5t-81.5 -30.5zM306 698q-21 0 -34 -13t-13 -32q0 -20 12.5 -33t34.5 -13q23 0 35.5 13t12.5 33q0 19 -12.5 32t-35.5 13zM480 500h87v-500h-87v86
q-30 -46 -79 -72.5t-110 -26.5q-51 0 -97 20t-81.5 56t-55 84.5t-19.5 102.5t19.5 102.5t55 84.5t81.5 56t97 20q61 0 110 -26.5t79 -72.5v86zM302 71q46 0 89 23t66 66t23 90t-23 90t-66 66t-89 23t-88.5 -23t-65.5 -66t-23 -90t23 -90t65.5 -66t88.5 -23z" />
    <glyph glyph-name="ae" unicode="&#xe6;" horiz-adv-x="1024" 
d="M570 210q7 -41 31.5 -75t63.5 -50t81 -16q51 0 89 20.5t58 52.5l74 -42q-34 -52 -88 -82.5t-122 -30.5q-63 0 -113 26t-80 72v-85h-84v86q-30 -46 -79 -72.5t-110 -26.5q-51 0 -97 20t-81.5 56t-55 84.5t-19.5 102.5t19.5 102.5t55 84.5t81.5 56t97 20q61 0 110 -26.5
t79 -72.5v86h84v-85q30 46 78 72t109 26q55 0 100.5 -21t76 -58t46.5 -85t16 -100q0 -19 -3 -39h-417zM742 431q-71 0 -116.5 -39t-55.5 -105h332q-6 44 -27.5 76t-56 50t-76.5 18zM302 71q46 0 89 23t66 66t23 90t-23 90t-66 66t-89 23t-88.5 -23t-65.5 -66t-23 -90t23 -90
t65.5 -66t88.5 -23z" />
    <glyph glyph-name="ccedilla" unicode="&#xe7;" horiz-adv-x="547" 
d="M526 117q-28 -51 -78 -85t-110 -42v-35q38 -8 61.5 -29t23.5 -51q0 -103 -210 -91v66q65 -5 99.5 3.5t34.5 27.5q0 13 -16 23t-67 13v72q-48 6 -90 28.5t-72.5 57.5t-47 80t-16.5 95q0 54 19.5 102.5t55.5 84.5t84.5 56t103.5 20q34 0 77.5 -12t83 -44t60.5 -75l-73 -42
q-19 40 -59 64t-89 24q-17 0 -39.5 -4.5t-45 -16.5t-43.5 -33.5t-34.5 -54t-13.5 -69.5q0 -27 9 -57t33.5 -60t61 -45t72.5 -15q49 0 89.5 24t61.5 63z" />
    <glyph glyph-name="egrave" unicode="&#xe8;" horiz-adv-x="583" 
d="M361 569h-84l-101 132h105zM127 210q8 -41 33 -75t65 -50t83 -16q49 0 86.5 20.5t57.5 52.5l74 -42q-25 -38 -63.5 -65.5t-80 -37.5t-76.5 -10q-66 0 -126.5 27.5t-101 89.5t-40.5 146q0 54 19 102.5t54 84.5t84 56t105 20q54 0 100.5 -21t79.5 -58t51 -85t18 -100
q0 -19 -3 -39h-419zM300 431q-69 0 -115.5 -39.5t-57.5 -105.5h334q-7 44 -28.5 76.5t-56.5 50.5t-76 18z" />
    <glyph glyph-name="eacute" unicode="&#xe9;" horiz-adv-x="583" 
d="M419 701l-101 -132h-84l80 132h105zM127 210q8 -41 33 -75t65 -50t83 -16q49 0 86.5 20.5t57.5 52.5l74 -42q-25 -38 -63.5 -65.5t-80 -37.5t-76.5 -10q-66 0 -126.5 27.5t-101 89.5t-40.5 146q0 54 19 102.5t54 84.5t84 56t105 20q54 0 100.5 -21t79.5 -58t51 -85
t18 -100q0 -19 -3 -39h-419zM300 431q-69 0 -115.5 -39.5t-57.5 -105.5h334q-7 44 -28.5 76.5t-56.5 50.5t-76 18z" />
    <glyph glyph-name="ecircumflex" unicode="&#xea;" horiz-adv-x="583" 
d="M293 647l-61 -81h-93l106 135h96l106 -135h-93zM127 210q8 -41 33 -75t65 -50t83 -16q49 0 86.5 20.5t57.5 52.5l74 -42q-25 -38 -63.5 -65.5t-80 -37.5t-76.5 -10q-66 0 -126.5 27.5t-101 89.5t-40.5 146q0 54 19 102.5t54 84.5t84 56t105 20q54 0 100.5 -21t79.5 -58
t51 -85t18 -100q0 -19 -3 -39h-419zM300 431q-69 0 -115.5 -39.5t-57.5 -105.5h334q-7 44 -28.5 76.5t-56.5 50.5t-76 18z" />
    <glyph glyph-name="edieresis" unicode="&#xeb;" horiz-adv-x="583" 
d="M199 567q-21 0 -37 16t-16 37t15.5 36.5t37.5 15.5q21 0 36.5 -15.5t15.5 -36.5q0 -22 -15.5 -37.5t-36.5 -15.5zM389 567q-21 0 -37 16t-16 37t15.5 36.5t37.5 15.5q21 0 36.5 -15.5t15.5 -36.5q0 -22 -15.5 -37.5t-36.5 -15.5zM127 210q8 -41 33 -75t65 -50t83 -16
q49 0 86.5 20.5t57.5 52.5l74 -42q-25 -38 -63.5 -65.5t-80 -37.5t-76.5 -10q-66 0 -126.5 27.5t-101 89.5t-40.5 146q0 54 19 102.5t54 84.5t84 56t105 20q54 0 100.5 -21t79.5 -58t51 -85t18 -100q0 -19 -3 -39h-419zM300 431q-69 0 -115.5 -39.5t-57.5 -105.5h334
q-7 44 -28.5 76.5t-56.5 50.5t-76 18z" />
    <glyph glyph-name="igrave" unicode="&#xec;" horiz-adv-x="220" 
d="M151 565l-48 135h-102l66 -135h84zM153 0h-87v500h87v-500z" />
    <glyph glyph-name="iacute" unicode="&#xed;" horiz-adv-x="220" 
d="M69 565h84l66 135h-103zM66 0v500h87v-500h-87z" />
    <glyph glyph-name="icircumflex" unicode="&#xee;" horiz-adv-x="220" 
d="M158 700l88 -135h-92l-44 70l-44 -70h-93l89 135h96zM66 0v500h87v-500h-87z" />
    <glyph glyph-name="idieresis" unicode="&#xef;" horiz-adv-x="220" 
d="M35 568q-22 0 -37.5 15.5t-15.5 36.5t16 37t37 16t36.5 -15.5t15.5 -37.5q0 -21 -15.5 -36.5t-36.5 -15.5zM185 568q-22 0 -37.5 15.5t-15.5 36.5t16 37t37 16t36.5 -15.5t15.5 -37.5q0 -21 -15.5 -36.5t-36.5 -15.5zM66 0v500h87v-500h-87z" />
    <glyph glyph-name="eth" unicode="&#xf0;" horiz-adv-x="581" 
d="M498 370q46 -65 46 -140q0 -54 -20.5 -99t-55.5 -77t-81.5 -49t-95.5 -17t-95.5 17t-81.5 49t-55.5 77t-20.5 99q0 52 20.5 96.5t56.5 76t82.5 47t95.5 11.5q25 -2 38 -5l-75 102l-118 -67v70l81 46l-68 93h101l39 -52l114 65v-70l-78 -44zM291 71q50 0 88 22.5t58 57
t20 79.5q0 26 -7 50.5t-20 41.5q-48 63 -138 63q-72 0 -119.5 -42.5t-47.5 -112.5q0 -45 22 -83t62 -57t82 -19z" />
    <glyph glyph-name="ntilde" unicode="&#xf1;" horiz-adv-x="564" 
d="M288 600q-29 21 -43.5 26t-21.5 -6.5t-7 -43.5h-73q0 48 13 78t35.5 41t50 5.5t55.5 -25.5q29 -21 43.5 -26t21.5 6.5t7 42.5h73q0 -36 -9 -66.5t-29 -46t-50 -13t-66 27.5zM315 513q88 0 141 -55.5t53 -150.5v-307h-87v302q0 60 -33.5 94t-90.5 34q-47 0 -79 -20
t-49 -56t-17 -89v-265h-87v500h87v-72q53 85 162 85z" />
    <glyph glyph-name="ograve" unicode="&#xf2;" horiz-adv-x="602" 
d="M368 571l-80 132h-105l101 -132h84zM301 -13q-53 0 -101.5 20t-84.5 56t-56.5 84.5t-20.5 102.5t20.5 102.5t56.5 84.5t84.5 56t101.5 20t101.5 -20t85 -56t57 -84.5t20.5 -102.5t-20.5 -102.5t-57 -84.5t-85 -56t-101.5 -20zM301 72q46 0 88.5 23t65.5 66t23 89t-23 89
t-65.5 66t-88.5 23q-74 0 -125 -51.5t-51 -126.5t51 -126.5t125 -51.5z" />
    <glyph glyph-name="oacute" unicode="&#xf3;" horiz-adv-x="602" 
d="M241 571h84l101 132h-105zM301 -13q-53 0 -101.5 20t-84.5 56t-56.5 84.5t-20.5 102.5t20.5 102.5t56.5 84.5t84.5 56t101.5 20t101.5 -20t85 -56t57 -84.5t20.5 -102.5t-20.5 -102.5t-57 -84.5t-85 -56t-101.5 -20zM301 72q46 0 88.5 23t65.5 66t23 89t-23 89t-65.5 66
t-88.5 23q-74 0 -125 -51.5t-51 -126.5t51 -126.5t125 -51.5z" />
    <glyph glyph-name="ocircumflex" unicode="&#xf4;" horiz-adv-x="602" 
d="M300 649l-61 -81h-93l106 135h96l106 -135h-93zM301 513q53 0 101.5 -20t85 -56t57 -84.5t20.5 -102.5t-20.5 -102.5t-57 -84.5t-85 -56t-101.5 -20t-101.5 20t-84.5 56t-56.5 84.5t-20.5 102.5t20.5 102.5t56.5 84.5t84.5 56t101.5 20zM301 72q46 0 88.5 23t65.5 66
t23 89t-23 89t-65.5 66t-88.5 23q-74 0 -125 -51.5t-51 -126.5t51 -126.5t125 -51.5z" />
    <glyph glyph-name="otilde" unicode="&#xf5;" horiz-adv-x="602" 
d="M151 576q0 48 13 78t35.5 41t50 5.5t55.5 -25.5q29 -21 43.5 -26t21.5 6.5t7 42.5h73q0 -36 -9 -66.5t-29 -46t-50 -13t-66 27.5q-29 21 -43.5 26t-21.5 -6.5t-7 -43.5h-73zM301 -13q-53 0 -101.5 20t-84.5 56t-56.5 84.5t-20.5 102.5t20.5 102.5t56.5 84.5t84.5 56
t101.5 20t101.5 -20t85 -56t57 -84.5t20.5 -102.5t-20.5 -102.5t-57 -84.5t-85 -56t-101.5 -20zM301 72q46 0 88.5 23t65.5 66t23 89t-23 89t-65.5 66t-88.5 23q-74 0 -125 -51.5t-51 -126.5t51 -126.5t125 -51.5z" />
    <glyph glyph-name="odieresis" unicode="&#xf6;" horiz-adv-x="602" 
d="M206 569q-21 0 -37 16t-16 37t15.5 36.5t37.5 15.5q21 0 36.5 -15.5t15.5 -36.5q0 -22 -15.5 -37.5t-36.5 -15.5zM396 569q-21 0 -37 16t-16 37t15.5 36.5t37.5 15.5q21 0 36.5 -15.5t15.5 -36.5q0 -22 -15.5 -37.5t-36.5 -15.5zM301 -13q-53 0 -101.5 20t-84.5 56
t-56.5 84.5t-20.5 102.5t20.5 102.5t56.5 84.5t84.5 56t101.5 20t101.5 -20t85 -56t57 -84.5t20.5 -102.5t-20.5 -102.5t-57 -84.5t-85 -56t-101.5 -20zM301 72q46 0 88.5 23t65.5 66t23 89t-23 89t-65.5 66t-88.5 23q-74 0 -125 -51.5t-51 -126.5t51 -126.5t125 -51.5z" />
    <glyph glyph-name="divide" unicode="&#xf7;" horiz-adv-x="575" 
d="M288 476q-27 0 -45.5 18.5t-18.5 45.5q0 26 18.5 44.5t45.5 18.5t45 -18t18 -45t-18.5 -45.5t-44.5 -18.5zM55 309v83h465v-83h-465zM288 97q-27 0 -45.5 18.5t-18.5 45.5q0 26 18.5 44.5t45.5 18.5t45 -18t18 -45t-18.5 -45.5t-44.5 -18.5z" />
    <glyph glyph-name="oslash" unicode="&#xf8;" horiz-adv-x="602" 
d="M494 431q33 -35 52 -82.5t19 -98.5q0 -54 -20.5 -102.5t-57 -84.5t-85 -56t-101.5 -20q-84 0 -154 48l-36 -41l-45 26l43 49q-33 35 -52 82.5t-19 98.5q0 54 20.5 102.5t56.5 84.5t84.5 56t101.5 20q86 0 154 -49l37 42l45 -26zM125 250q0 -67 41 -116l233 266
q-44 28 -98 28q-74 0 -125 -51.5t-51 -126.5zM301 72q46 0 88.5 23t65.5 66t23 89q0 67 -41 116l-233 -266q44 -28 97 -28z" />
    <glyph glyph-name="ugrave" unicode="&#xf9;" horiz-adv-x="564" 
d="M342 568h-84l-101 132h105zM411 500h87v-500h-87v72q-53 -85 -162 -85q-88 0 -141 55.5t-53 150.5v307h87v-302q0 -60 33.5 -94t90.5 -34q47 0 79 20t49 56t17 89v265z" />
    <glyph glyph-name="uacute" unicode="&#xfa;" horiz-adv-x="564" 
d="M400 700l-101 -132h-84l80 132h105zM411 500h87v-500h-87v72q-53 -85 -162 -85q-88 0 -141 55.5t-53 150.5v307h87v-302q0 -60 33.5 -94t90.5 -34q47 0 79 20t49 56t17 89v265z" />
    <glyph glyph-name="ucircumflex" unicode="&#xfb;" horiz-adv-x="564" 
d="M274 646l-61 -81h-93l106 135h96l106 -135h-93zM411 500h87v-500h-87v72q-53 -85 -162 -85q-88 0 -141 55.5t-53 150.5v307h87v-302q0 -60 33.5 -94t90.5 -34q47 0 79 20t49 56t17 89v265z" />
    <glyph glyph-name="udieresis" unicode="&#xfc;" horiz-adv-x="564" 
d="M180 566q-21 0 -37 16t-16 37t15.5 36.5t37.5 15.5q21 0 36.5 -15.5t15.5 -36.5q0 -22 -15.5 -37.5t-36.5 -15.5zM370 566q-21 0 -37 16t-16 37t15.5 36.5t37.5 15.5q21 0 36.5 -15.5t15.5 -36.5q0 -22 -15.5 -37.5t-36.5 -15.5zM411 500h87v-500h-87v72
q-53 -85 -162 -85q-88 0 -141 55.5t-53 150.5v307h87v-302q0 -60 33.5 -94t90.5 -34q47 0 79 20t49 56t17 89v265z" />
    <glyph glyph-name="yacute" unicode="&#xfd;" horiz-adv-x="515" 
d="M381 700l-101 -132h-84l80 132h105zM415 500h93l-204 -531q-32 -85 -89.5 -129.5t-132.5 -39.5v81q42 -3 77 20t58 82l9 19l-218 498h93l170 -392z" />
    <glyph glyph-name="thorn" unicode="&#xfe;" 
d="M342 513q51 0 97 -20t81.5 -56t55 -84.5t19.5 -102.5t-19.5 -102.5t-55 -84.5t-81.5 -56t-97 -20q-61 0 -110 26.5t-79 72.5v-286h-87v900h87v-286q30 46 79 72.5t110 26.5zM331 71q46 0 88.5 23t65.5 66t23 90t-23 90t-65.5 66t-88.5 23t-89 -23t-66 -66t-23 -90t23 -90
t66 -66t89 -23z" />
    <glyph glyph-name="ydieresis" unicode="&#xff;" horiz-adv-x="515" 
d="M161 566q-21 0 -37 16t-16 37t15.5 36.5t37.5 15.5q21 0 36.5 -15.5t15.5 -36.5q0 -22 -15.5 -37.5t-36.5 -15.5zM351 566q-21 0 -37 16t-16 37t15.5 36.5t37.5 15.5q21 0 36.5 -15.5t15.5 -36.5q0 -22 -15.5 -37.5t-36.5 -15.5zM415 500h93l-204 -531
q-32 -85 -89.5 -129.5t-132.5 -39.5v81q42 -3 77 20t58 82l9 19l-218 498h93l170 -392z" />
    <glyph glyph-name="Amacron" unicode="&#x100;" horiz-adv-x="643" 
d="M456 848v-73h-270v73h270zM536 0l-57 157h-315l-57 -157h-99l261 700h105l261 -700h-99zM196 244h251l-126 345z" />
    <glyph glyph-name="amacron" unicode="&#x101;" 
d="M441 648v-73h-270v73h270zM480 500h87v-500h-87v86q-30 -46 -79 -72.5t-110 -26.5q-51 0 -97 20t-81.5 56t-55 84.5t-19.5 102.5t19.5 102.5t55 84.5t81.5 56t97 20q61 0 110 -26.5t79 -72.5v86zM302 71q46 0 89 23t66 66t23 90t-23 90t-66 66t-89 23t-88.5 -23
t-65.5 -66t-23 -90t23 -90t65.5 -66t88.5 -23z" />
    <glyph glyph-name="Abreve" unicode="&#x102;" horiz-adv-x="643" 
d="M321 757q-69 0 -109 35.5t-40 99.5h81q0 -65 68 -65t68 65h81q0 -64 -39.5 -99.5t-109.5 -35.5zM536 0l-57 157h-315l-57 -157h-99l261 700h105l261 -700h-99zM196 244h251l-126 345z" />
    <glyph glyph-name="abreve" unicode="&#x103;" 
d="M306 557q-69 0 -109 35.5t-40 99.5h81q0 -65 68 -65t68 65h81q0 -64 -39.5 -99.5t-109.5 -35.5zM480 500h87v-500h-87v86q-30 -46 -79 -72.5t-110 -26.5q-51 0 -97 20t-81.5 56t-55 84.5t-19.5 102.5t19.5 102.5t55 84.5t81.5 56t97 20q61 0 110 -26.5t79 -72.5v86z
M302 71q46 0 89 23t66 66t23 90t-23 90t-66 66t-89 23t-88.5 -23t-65.5 -66t-23 -90t23 -90t65.5 -66t88.5 -23z" />
    <glyph glyph-name="Aogonek" unicode="&#x104;" horiz-adv-x="643" 
d="M567 -114q0 -30 31 -30q20 0 37 8v-64q-31 -13 -66 -13q-40 0 -63.5 22t-23.5 58q0 29 18.5 64t51.5 69h-16l-57 157h-315l-57 -157h-99l261 700h105l261 -700q-31 -29 -49.5 -60.5t-18.5 -53.5zM196 244h251l-126 345z" />
    <glyph glyph-name="aogonek" unicode="&#x105;" 
d="M567 0q-31 -30 -50 -61t-19 -53q0 -16 9 -23t22 -7q21 0 38 8v-64q-32 -13 -67 -13q-40 0 -63 22t-23 58q0 28 17 63t49 73v83q-30 -46 -79 -72.5t-110 -26.5q-51 0 -97 20t-81.5 56t-55 84.5t-19.5 102.5t19.5 102.5t55 84.5t81.5 56t97 20q61 0 110 -26.5t79 -72.5v86
h87v-500zM302 71q46 0 89 23t66 66t23 90t-23 90t-66 66t-89 23t-88.5 -23t-65.5 -66t-23 -90t23 -90t65.5 -66t88.5 -23z" />
    <glyph glyph-name="Cacute" unicode="&#x106;" horiz-adv-x="739" 
d="M344 771h84l101 132h-105zM404 -13q-77 0 -145 28t-117.5 78t-76.5 117t-27 140q0 74 27 140.5t76.5 116.5t117.5 78t145 28q95 0 176 -46t126 -124l-81 -47q-14 27 -43.5 57t-77.5 50t-100 20q-44 0 -91.5 -14t-87.5 -47.5t-61 -74.5t-27.5 -75.5t-6.5 -61.5
q0 -41 13 -87t50 -92t94.5 -69.5t116.5 -23.5q33 0 76 11.5t83 42.5t62 72l81 -46q-44 -78 -125 -124.5t-177 -46.5z" />
    <glyph glyph-name="cacute" unicode="&#x107;" horiz-adv-x="547" 
d="M233 568h84l101 132h-105zM301 -13q-55 0 -103.5 20t-84.5 56t-55.5 84.5t-19.5 102.5t19.5 102.5t55.5 84.5t84.5 56t103.5 20q34 0 77.5 -12t83 -44t60.5 -75l-73 -42q-19 40 -59 64t-89 24q-17 0 -39.5 -4.5t-45 -16.5t-43.5 -33.5t-34.5 -54t-13.5 -69.5q0 -27 9 -57
t33.5 -60t61 -45t72.5 -15q49 0 89.5 24t61.5 63l74 -43q-15 -27 -45 -58t-78.5 -51.5t-101.5 -20.5z" />
    <glyph glyph-name="Cdotaccent" unicode="&#x10a;" horiz-adv-x="739" 
d="M404 767q-26 0 -44.5 18.5t-18.5 43.5q0 26 18.5 44.5t44.5 18.5q25 0 43.5 -18.5t18.5 -44.5q0 -25 -18.5 -43.5t-43.5 -18.5zM404 -13q-77 0 -145 28t-117.5 78t-76.5 117t-27 140q0 74 27 140.5t76.5 116.5t117.5 78t145 28q95 0 176 -46t126 -124l-81 -47
q-14 27 -43.5 57t-77.5 50t-100 20q-44 0 -91.5 -14t-87.5 -47.5t-61 -74.5t-27.5 -75.5t-6.5 -61.5q0 -41 13 -87t50 -92t94.5 -69.5t116.5 -23.5q33 0 76 11.5t83 42.5t62 72l81 -46q-44 -78 -125 -124.5t-177 -46.5z" />
    <glyph glyph-name="cdotaccent" unicode="&#x10b;" horiz-adv-x="547" 
d="M293 564q-26 0 -44.5 18.5t-18.5 43.5q0 26 18.5 44.5t44.5 18.5q25 0 43.5 -18.5t18.5 -44.5q0 -25 -18.5 -43.5t-43.5 -18.5zM301 -13q-55 0 -103.5 20t-84.5 56t-55.5 84.5t-19.5 102.5t19.5 102.5t55.5 84.5t84.5 56t103.5 20q34 0 77.5 -12t83 -44t60.5 -75l-73 -42
q-19 40 -59 64t-89 24q-17 0 -39.5 -4.5t-45 -16.5t-43.5 -33.5t-34.5 -54t-13.5 -69.5q0 -27 9 -57t33.5 -60t61 -45t72.5 -15q49 0 89.5 24t61.5 63l74 -43q-15 -27 -45 -58t-78.5 -51.5t-101.5 -20.5z" />
    <glyph glyph-name="Ccaron" unicode="&#x10c;" horiz-adv-x="739" 
d="M355 768l-106 135h93l61 -81l61 81h93l-106 -135h-96zM404 78q33 0 76 11.5t83 42.5t62 72l81 -46q-44 -78 -125 -124.5t-177 -46.5q-77 0 -145 28t-117.5 78t-76.5 117t-27 140q0 74 27 140.5t76.5 116.5t117.5 78t145 28q95 0 176 -46t126 -124l-81 -47
q-14 27 -43.5 57t-77.5 50t-100 20q-44 0 -91.5 -14t-87.5 -47.5t-61 -74.5t-27.5 -75.5t-6.5 -61.5q0 -41 13 -87t50 -92t94.5 -69.5t116.5 -23.5z" />
    <glyph glyph-name="ccaron" unicode="&#x10d;" horiz-adv-x="547" 
d="M244 565l-106 135h93l61 -81l61 81h93l-106 -135h-96zM452 160l74 -43q-15 -27 -45 -58t-78.5 -51.5t-101.5 -20.5q-55 0 -103.5 20t-84.5 56t-55.5 84.5t-19.5 102.5t19.5 102.5t55.5 84.5t84.5 56t103.5 20q34 0 77.5 -12t83 -44t60.5 -75l-73 -42q-19 40 -59 64
t-89 24q-17 0 -39.5 -4.5t-45 -16.5t-43.5 -33.5t-34.5 -54t-13.5 -69.5q0 -27 9 -57t33.5 -60t61 -45t72.5 -15q49 0 89.5 24t61.5 63z" />
    <glyph glyph-name="Dcaron" unicode="&#x10e;" horiz-adv-x="718" 
d="M296 765l-106 135h93l61 -81l61 81h93l-106 -135h-96zM348 700q70 0 131.5 -27t106.5 -75t69.5 -112.5t24.5 -135.5t-24.5 -135.5t-69.5 -112.5t-106.5 -75t-131.5 -27h-273v700h273zM348 88q52 0 97.5 20t78 55.5t50 84t17.5 102.5t-17.5 102.5t-50 84t-78 55.5
t-97.5 20h-180v-524h180z" />
    <glyph glyph-name="dcaron" unicode="&#x10f;" horiz-adv-x="713" 
d="M480 414v286h87v-700h-87v86q-30 -46 -79 -72.5t-110 -26.5q-51 0 -97 20t-81.5 56t-55 84.5t-19.5 102.5t19.5 102.5t55 84.5t81.5 56t97 20q61 0 110 -26.5t79 -72.5zM639 700h84l-30 -180h-64zM302 71q46 0 89 23t66 66t23 90t-23 90t-66 66t-89 23t-88.5 -23
t-65.5 -66t-23 -90t23 -90t65.5 -66t88.5 -23z" />
    <glyph glyph-name="Dcroat" unicode="&#x110;" horiz-adv-x="743" 
d="M373 700q70 0 131.5 -27t106.5 -75t69.5 -112.5t24.5 -135.5t-24.5 -135.5t-69.5 -112.5t-106.5 -75t-131.5 -27h-273v306h-73v84h73v310h273zM373 88q52 0 97.5 20t78 55.5t50 84t17.5 102.5t-17.5 102.5t-50 84t-78 55.5t-97.5 20h-180v-222h199v-84h-199v-218h180z
" />
    <glyph glyph-name="dcroat" unicode="&#x111;" horiz-adv-x="642" 
d="M634 633v-64h-67v-569h-87v86q-30 -46 -79 -72.5t-110 -26.5q-51 0 -97 20t-81.5 56t-55 84.5t-19.5 102.5t19.5 102.5t55 84.5t81.5 56t97 20q61 0 110 -26.5t79 -72.5v155h-173v64h173v67h87v-67h67zM302 71q46 0 89 23t66 66t23 90t-23 90t-66 66t-89 23t-88.5 -23
t-65.5 -66t-23 -90t23 -90t65.5 -66t88.5 -23z" />
    <glyph glyph-name="Emacron" unicode="&#x112;" horiz-adv-x="530" 
d="M417 848v-73h-270v73h270zM168 88h325v-88h-418v700h413v-88h-320v-215h295v-87h-295v-222z" />
    <glyph glyph-name="emacron" unicode="&#x113;" horiz-adv-x="583" 
d="M429 649v-73h-270v73h270zM127 210q8 -41 33 -75t65 -50t83 -16q49 0 86.5 20.5t57.5 52.5l74 -42q-25 -38 -63.5 -65.5t-80 -37.5t-76.5 -10q-66 0 -126.5 27.5t-101 89.5t-40.5 146q0 54 19 102.5t54 84.5t84 56t105 20q54 0 100.5 -21t79.5 -58t51 -85t18 -100
q0 -19 -3 -39h-419zM300 431q-69 0 -115.5 -39.5t-57.5 -105.5h334q-7 44 -28.5 76.5t-56.5 50.5t-76 18z" />
    <glyph glyph-name="Edotaccent" unicode="&#x116;" horiz-adv-x="530" 
d="M282 764q-26 0 -44.5 18.5t-18.5 43.5q0 26 18.5 44.5t44.5 18.5q25 0 43.5 -18.5t18.5 -44.5q0 -25 -18.5 -43.5t-43.5 -18.5zM168 88h325v-88h-418v700h413v-88h-320v-215h295v-87h-295v-222z" />
    <glyph glyph-name="edotaccent" unicode="&#x117;" horiz-adv-x="583" 
d="M294 565q-26 0 -44.5 18.5t-18.5 43.5q0 26 18.5 44.5t44.5 18.5q25 0 43.5 -18.5t18.5 -44.5q0 -25 -18.5 -43.5t-43.5 -18.5zM127 210q8 -41 33 -75t65 -50t83 -16q49 0 86.5 20.5t57.5 52.5l74 -42q-25 -38 -63.5 -65.5t-80 -37.5t-76.5 -10q-66 0 -126.5 27.5
t-101 89.5t-40.5 146q0 54 19 102.5t54 84.5t84 56t105 20q54 0 100.5 -21t79.5 -58t51 -85t18 -100q0 -19 -3 -39h-419zM300 431q-69 0 -115.5 -39.5t-57.5 -105.5h334q-7 44 -28.5 76.5t-56.5 50.5t-76 18z" />
    <glyph glyph-name="Eogonek" unicode="&#x118;" horiz-adv-x="530" 
d="M493 0q-31 -29 -49.5 -60.5t-18.5 -53.5q-1 -30 31 -30q20 0 37 8v-64q-32 -13 -66 -13q-40 0 -63.5 22t-23.5 58q0 30 18.5 65t51.5 68h-335v700h413v-88h-320v-215h295v-87h-295v-222h325v-88z" />
    <glyph glyph-name="eogonek" unicode="&#x119;" horiz-adv-x="583" 
d="M127 210q8 -41 33 -75t65 -50t83 -16q49 0 86.5 20.5t57.5 52.5l74 -42q-16 -24 -39 -46q-56 -61 -80.5 -103t-24.5 -65q0 -16 9 -23t22 -7q21 0 37 8v-64q-31 -13 -66 -13q-40 0 -63 22t-23 58q0 27 16 60.5t48 64.5q-30 -5 -56 -5q-66 0 -126.5 27.5t-101 89.5
t-40.5 146q0 54 19 102.5t54 84.5t84 56t105 20q54 0 100.5 -21t79.5 -58t51 -85t18 -100q0 -19 -3 -39h-419zM300 431q-69 0 -115.5 -39.5t-57.5 -105.5h334q-7 44 -28.5 76.5t-56.5 50.5t-76 18z" />
    <glyph glyph-name="Ecaron" unicode="&#x11a;" horiz-adv-x="530" 
d="M233 765l-106 135h93l61 -81l61 81h93l-106 -135h-96zM168 88h325v-88h-418v700h413v-88h-320v-215h295v-87h-295v-222z" />
    <glyph glyph-name="ecaron" unicode="&#x11b;" horiz-adv-x="583" 
d="M245 566l-106 135h93l61 -81l61 81h93l-106 -135h-96zM127 210q8 -41 33 -75t65 -50t83 -16q49 0 86.5 20.5t57.5 52.5l74 -42q-25 -38 -63.5 -65.5t-80 -37.5t-76.5 -10q-66 0 -126.5 27.5t-101 89.5t-40.5 146q0 54 19 102.5t54 84.5t84 56t105 20q54 0 100.5 -21
t79.5 -58t51 -85t18 -100q0 -19 -3 -39h-419zM300 431q-69 0 -115.5 -39.5t-57.5 -105.5h334q-7 44 -28.5 76.5t-56.5 50.5t-76 18z" />
    <glyph glyph-name="Gbreve" unicode="&#x11e;" horiz-adv-x="788" 
d="M394 760q-69 0 -109 35.5t-40 99.5h81q0 -65 68 -65t68 65h81q0 -64 -39.5 -99.5t-109.5 -35.5zM750 347v-42q0 -66 -24 -124t-69 -101.5t-109.5 -68t-140.5 -24.5q-78 0 -146.5 28t-118.5 78.5t-77 117t-27 139.5t27.5 140t77 117t117.5 78t145 28q96 0 177.5 -46.5
t125.5 -122.5l-80 -47q-14 26 -43.5 56t-78.5 50t-102 20q-59 0 -110 -21t-87.5 -58.5t-56.5 -87.5t-20 -106t20 -106t57 -87t89 -58t112 -21q65 0 121 23.5t88 67.5t40 94h-257v84h350z" />
    <glyph glyph-name="gbreve" unicode="&#x11f;" 
d="M304 560q-69 0 -109 35.5t-40 99.5h81q0 -65 68 -65t68 65h81q0 -64 -39.5 -99.5t-109.5 -35.5zM481 500h86v-479q0 -42 -14 -83.5t-51 -79t-89 -54.5t-101 -17q-61 0 -112 18t-81 47t-44 57l76 43q41 -84 163 -84q77 0 122 41.5t45 111.5v71q-30 -46 -79 -73t-109 -27
q-52 0 -98.5 20t-82 56t-55 84t-19.5 101t19.5 100.5t55 83.5t82 56t98.5 20q61 0 109.5 -26.5t78.5 -72.5v86zM303 75q75 0 126.5 51.5t51.5 126.5q0 46 -23 88.5t-66 65.5t-89 23t-89 -23t-66 -65.5t-23 -88.5q0 -75 51.5 -126.5t126.5 -51.5z" />
    <glyph glyph-name="Gdotaccent" unicode="&#x120;" horiz-adv-x="788" 
d="M394 767q-26 0 -44.5 18.5t-18.5 43.5q0 26 18.5 44.5t44.5 18.5q25 0 43.5 -18.5t18.5 -44.5q0 -25 -18.5 -43.5t-43.5 -18.5zM750 347v-42q0 -66 -24 -124t-69 -101.5t-109.5 -68t-140.5 -24.5q-78 0 -146.5 28t-118.5 78.5t-77 117t-27 139.5t27.5 140t77 117
t117.5 78t145 28q96 0 177.5 -46.5t125.5 -122.5l-80 -47q-14 26 -43.5 56t-78.5 50t-102 20q-59 0 -110 -21t-87.5 -58.5t-56.5 -87.5t-20 -106t20 -106t57 -87t89 -58t112 -21q65 0 121 23.5t88 67.5t40 94h-257v84h350z" />
    <glyph glyph-name="gdotaccent" unicode="&#x121;" 
d="M304 567q-26 0 -44.5 18.5t-18.5 43.5q0 26 18.5 44.5t44.5 18.5q25 0 43.5 -18.5t18.5 -44.5q0 -25 -18.5 -43.5t-43.5 -18.5zM481 500h86v-479q0 -42 -14 -83.5t-51 -79t-89 -54.5t-101 -17q-61 0 -112 18t-81 47t-44 57l76 43q41 -84 163 -84q77 0 122 41.5t45 111.5
v71q-30 -46 -79 -73t-109 -27q-52 0 -98.5 20t-82 56t-55 84t-19.5 101t19.5 100.5t55 83.5t82 56t98.5 20q61 0 109.5 -26.5t78.5 -72.5v86zM303 75q75 0 126.5 51.5t51.5 126.5q0 46 -23 88.5t-66 65.5t-89 23t-89 -23t-66 -65.5t-23 -88.5q0 -75 51.5 -126.5t126.5 -51.5
z" />
    <glyph glyph-name="uni0122" unicode="&#x122;" horiz-adv-x="788" 
d="M750 347v-42q0 -66 -24 -124t-69 -101.5t-109.5 -68t-140.5 -24.5q-78 0 -146.5 28t-118.5 78.5t-77 117t-27 139.5t27.5 140t77 117t117.5 78t145 28q96 0 177.5 -46.5t125.5 -122.5l-80 -47q-14 26 -43.5 56t-78.5 50t-102 20q-59 0 -110 -21t-87.5 -58.5t-56.5 -87.5
t-20 -106t20 -106t57 -87t89 -58t112 -21q65 0 121 23.5t88 67.5t40 94h-257v84h350zM370 -248l10 180h85l-30 -180h-65z" />
    <glyph glyph-name="uni0123" unicode="&#x123;" 
d="M350 768l-10 -180h-85l30 180h65zM481 500h86v-479q0 -42 -14 -83.5t-51 -79t-89 -54.5t-101 -17q-61 0 -112 18t-81 47t-44 57l76 43q41 -84 163 -84q77 0 122 41.5t45 111.5v71q-30 -46 -79 -73t-109 -27q-52 0 -98.5 20t-82 56t-55 84t-19.5 101t19.5 100.5t55 83.5
t82 56t98.5 20q61 0 109.5 -26.5t78.5 -72.5v86zM303 75q75 0 126.5 51.5t51.5 126.5q0 46 -23 88.5t-66 65.5t-89 23t-89 -23t-66 -65.5t-23 -88.5q0 -75 51.5 -126.5t126.5 -51.5z" />
    <glyph glyph-name="Hbar" unicode="&#x126;" horiz-adv-x="723" 
d="M688 579v-71h-64v-508h-93v309h-340v-309h-92v508h-64v71h64v121h92v-121h340v121h93v-121h64zM531 397v111h-340v-111h340z" />
    <glyph glyph-name="hbar" unicode="&#x127;" horiz-adv-x="573" 
d="M324 513q88 0 141 -55.5t53 -150.5v-307h-87v302q0 60 -33.5 94t-90.5 34q-47 0 -79 -20t-49 -56t-17 -89v-265h-87v569h-67v64h67v67h87v-67h143v-64h-143v-141q53 85 162 85z" />
    <glyph glyph-name="Imacron" unicode="&#x12a;" horiz-adv-x="243" 
d="M-14 775v73h270v-73h-270zM75 700h93v-700h-93v700z" />
    <glyph glyph-name="imacron" unicode="&#x12b;" horiz-adv-x="220" 
d="M5 575v76h210v-76h-210zM66 0v500h87v-500h-87z" />
    <glyph glyph-name="Iogonek" unicode="&#x12e;" horiz-adv-x="243" 
d="M157 -144q21 0 38 8v-64q-32 -13 -67 -13q-40 0 -63 22t-23 58q0 30 12 66.5t28 66.5h-7v700h93v-700q-20 -35 -31 -61.5t-11 -52.5q0 -16 9 -23t22 -7z" />
    <glyph glyph-name="iogonek" unicode="&#x12f;" horiz-adv-x="220" 
d="M110 591q-24 0 -41.5 17t-17.5 41t17.5 41.5t41.5 17.5t41 -17.5t17 -41.5t-17 -41t-41 -17zM146 -144q20 0 37 8v-64q-32 -13 -66 -13q-19 0 -39.5 8.5t-34 30.5t-13.5 49q0 52 39 125h-3v500h87v-500q-38 -62 -38 -107q-1 -15 8 -26t23 -11z" />
    <glyph glyph-name="Idotaccent" unicode="&#x130;" horiz-adv-x="243" 
d="M121 764q-26 0 -44.5 18.5t-18.5 43.5q0 26 18.5 44.5t44.5 18.5q25 0 43.5 -18.5t18.5 -44.5q0 -25 -18.5 -43.5t-43.5 -18.5zM75 700h93v-700h-93v700z" />
    <glyph glyph-name="dotlessi" unicode="&#x131;" horiz-adv-x="220" 
d="M66 0v500h87v-500h-87z" />
    <glyph glyph-name="uni0136" unicode="&#x136;" horiz-adv-x="592" 
d="M265 360l319 -360h-114l-302 336v-336h-93v700h93v-316l292 316h114zM257 -248l10 180h85l-30 -180h-65z" />
    <glyph glyph-name="uni0137" unicode="&#x137;" horiz-adv-x="504" 
d="M242 258l247 -258h-108l-228 237v-237h-87v700h87v-421l216 221h112zM220 -248l10 180h85l-30 -180h-65z" />
    <glyph glyph-name="Lacute" unicode="&#x139;" horiz-adv-x="488" 
d="M262 900l-101 -132h-84l80 132h105zM168 88h302v-88h-395v700h93v-612z" />
    <glyph glyph-name="lacute" unicode="&#x13a;" horiz-adv-x="220" 
d="M66 768h84l101 132h-105zM66 0v730h87v-730h-87z" />
    <glyph glyph-name="uni013B" unicode="&#x13b;" horiz-adv-x="488" 
d="M168 88h302v-88h-395v700h93v-612zM231 -248l10 180h85l-30 -180h-65z" />
    <glyph glyph-name="uni013C" unicode="&#x13c;" horiz-adv-x="220" 
d="M66 0v730h87v-730h-87zM124 -248l30 180h-85l-10 -180h65z" />
    <glyph glyph-name="Lcaron" unicode="&#x13d;" horiz-adv-x="488" 
d="M168 88h302v-88h-395v700h93v-612zM357 700l-30 -175h-67l10 175h87z" />
    <glyph glyph-name="lcaron" unicode="&#x13e;" horiz-adv-x="299" 
d="M66 0v730h87v-730h-87zM279 550l30 180h-84l-10 -180h64z" />
    <glyph glyph-name="Lslash" unicode="&#x141;" horiz-adv-x="508" 
d="M188 88h302v-88h-395v233l-60 -35v88l60 35v379h93v-324l157 93v-88l-157 -93v-200z" />
    <glyph glyph-name="lslash" unicode="&#x142;" horiz-adv-x="248" 
d="M230 470v-83l-63 -43v-344h-87v284l-62 -42v83l62 42v363h87v-303z" />
    <glyph glyph-name="Nacute" unicode="&#x143;" horiz-adv-x="678" 
d="M276 768h84l101 132h-105zM510 700h93v-700h-75l-360 523v-523h-93v700h75l360 -522v522z" />
    <glyph glyph-name="nacute" unicode="&#x144;" horiz-adv-x="564" 
d="M418 703l-101 -132h-84l80 132h105zM315 513q88 0 141 -55.5t53 -150.5v-307h-87v302q0 60 -33.5 94t-90.5 34q-47 0 -79 -20t-49 -56t-17 -89v-265h-87v500h87v-72q53 85 162 85z" />
    <glyph glyph-name="uni0145" unicode="&#x145;" horiz-adv-x="678" 
d="M510 700h93v-700h-75l-360 523v-523h-93v700h75l360 -522v522zM354 -248l30 180h-85l-10 -180h65z" />
    <glyph glyph-name="uni0146" unicode="&#x146;" horiz-adv-x="564" 
d="M315 513q88 0 141 -55.5t53 -150.5v-307h-87v302q0 60 -33.5 94t-90.5 34q-47 0 -79 -20t-49 -56t-17 -89v-265h-87v500h87v-72q53 85 162 85zM243 -248l10 180h85l-30 -180h-65z" />
    <glyph glyph-name="Ncaron" unicode="&#x147;" horiz-adv-x="678" 
d="M287 765l-106 135h93l61 -81l61 81h93l-106 -135h-96zM510 700h93v-700h-75l-360 523v-523h-93v700h75l360 -522v522z" />
    <glyph glyph-name="ncaron" unicode="&#x148;" horiz-adv-x="564" 
d="M244 568l-106 135h93l61 -81l61 81h93l-106 -135h-96zM315 513q88 0 141 -55.5t53 -150.5v-307h-87v302q0 60 -33.5 94t-90.5 34q-47 0 -79 -20t-49 -56t-17 -89v-265h-87v500h87v-72q53 85 162 85z" />
    <glyph glyph-name="Eng" unicode="&#x14a;" horiz-adv-x="678" 
d="M510 700h93v-700q0 -40 -11 -78t-37 -65.5t-68 -42.5t-102 -14v87q70 0 97.5 28t27.5 88v23l-342 497v-523h-93v700h75l360 -522v522z" />
    <glyph glyph-name="eng" unicode="&#x14b;" horiz-adv-x="564" 
d="M315 513q88 0 141 -55.5t53 -150.5v-337q0 -94 -49 -142t-141 -41v84q51 -5 77 18.5t26 80.5v332q0 60 -33.5 94t-90.5 34q-47 0 -79 -20t-49 -56t-17 -89v-265h-87v500h87v-72q53 85 162 85z" />
    <glyph glyph-name="Omacron" unicode="&#x14c;" horiz-adv-x="800" 
d="M265 778v73h270v-73h-270zM400 -13q-74 0 -140.5 28t-116 78t-77.5 117t-28 140t28 140t77.5 117t116 78t140.5 28t140.5 -28t116.5 -78t78 -117t28 -140t-28 -140t-78 -117t-116.5 -78t-140.5 -28zM400 78q56 0 105.5 21t86.5 58t57.5 87t20.5 106t-20.5 106.5
t-57.5 87.5t-86.5 58t-105.5 21t-105.5 -21t-86.5 -58t-57.5 -87.5t-20.5 -106.5t20.5 -106t57.5 -87t86.5 -58t105.5 -21z" />
    <glyph glyph-name="omacron" unicode="&#x14d;" horiz-adv-x="602" 
d="M166 578v73h270v-73h-270zM301 -13q-53 0 -101.5 20t-84.5 56t-56.5 84.5t-20.5 102.5t20.5 102.5t56.5 84.5t84.5 56t101.5 20t101.5 -20t85 -56t57 -84.5t20.5 -102.5t-20.5 -102.5t-57 -84.5t-85 -56t-101.5 -20zM301 72q46 0 88.5 23t65.5 66t23 89t-23 89t-65.5 66
t-88.5 23q-74 0 -125 -51.5t-51 -126.5t51 -126.5t125 -51.5z" />
    <glyph glyph-name="Ohungarumlaut" unicode="&#x150;" horiz-adv-x="800" 
d="M255 768h88l79 133h-94zM408 768h88l89 133h-94zM400 -13q-74 0 -140.5 28t-116 78t-77.5 117t-28 140t28 140t77.5 117t116 78t140.5 28t140.5 -28t116.5 -78t78 -117t28 -140t-28 -140t-78 -117t-116.5 -78t-140.5 -28zM400 78q56 0 105.5 21t86.5 58t57.5 87t20.5 106
t-20.5 106.5t-57.5 87.5t-86.5 58t-105.5 21t-105.5 -21t-86.5 -58t-57.5 -87.5t-20.5 -106.5t20.5 -106t57.5 -87t86.5 -58t105.5 -21z" />
    <glyph glyph-name="ohungarumlaut" unicode="&#x151;" horiz-adv-x="602" 
d="M156 568h88l79 133h-94zM309 568h88l89 133h-94zM301 -13q-53 0 -101.5 20t-84.5 56t-56.5 84.5t-20.5 102.5t20.5 102.5t56.5 84.5t84.5 56t101.5 20t101.5 -20t85 -56t57 -84.5t20.5 -102.5t-20.5 -102.5t-57 -84.5t-85 -56t-101.5 -20zM301 72q46 0 88.5 23t65.5 66
t23 89t-23 89t-65.5 66t-88.5 23q-74 0 -125 -51.5t-51 -126.5t51 -126.5t125 -51.5z" />
    <glyph glyph-name="OE" unicode="&#x152;" horiz-adv-x="915" 
d="M578 88h300v-88h-393q-47 -13 -95 -13q-73 0 -138.5 28t-113 78t-74 117t-26.5 140q0 74 26.5 140.5t74 116.5t112.5 78t139 28q48 0 95 -13h388v-88h-295v-215h277v-87h-277v-222zM485 93v515q-43 15 -95 15q-27 0 -60.5 -7t-67 -25.5t-64 -51t-49.5 -83t-19 -106.5
t19 -106t54 -87.5t83.5 -58t103.5 -20.5t95 15z" />
    <glyph glyph-name="oe" unicode="&#x153;" horiz-adv-x="1023" 
d="M567 210q9 -50 39.5 -83.5t69 -45.5t70.5 -12q50 0 88 20.5t58 52.5l74 -42q-34 -52 -90.5 -82.5t-127.5 -30.5q-41 0 -84.5 12.5t-82 45t-60.5 77.5q-31 -61 -90 -98t-131 -37q-55 0 -103.5 20t-84 56t-55 84.5t-19.5 102.5t19.5 102.5t55 84.5t84 56t103.5 20
q72 0 131 -37t90 -98q30 61 88 98t134 37q54 0 100 -21t78.5 -58t50 -85t17.5 -100q0 -19 -3 -39h-419zM740 431q-68 0 -115 -39.5t-58 -104.5h334q-7 44 -28.5 76t-56.5 50t-76 18zM301 72q46 0 88.5 23t65.5 66t23 89t-23 89t-65.5 66t-88.5 23q-77 0 -126.5 -51
t-49.5 -127t49.5 -127t126.5 -51z" />
    <glyph glyph-name="Racute" unicode="&#x154;" horiz-adv-x="611" 
d="M430 900l-101 -132h-84l80 132h105zM490 0l-157 268h-165v-268h-93v700h280q44 0 84 -17t70 -47t47 -69.5t17 -83.5q0 -68 -40.5 -124t-104.5 -79l165 -280h-103zM168 613v-261h187q24 0 53 13t50.5 46t21.5 72q0 25 -12.5 55.5t-44 52.5t-68.5 22h-187z" />
    <glyph glyph-name="racute" unicode="&#x155;" horiz-adv-x="328" 
d="M311 700l-101 -132h-84l80 132h105zM153 416q11 24 32 46.5t54 34.5t70 12v-91q-27 1 -55.5 -6t-51 -25.5t-36 -49t-13.5 -72.5v-265h-87v500h87v-84z" />
    <glyph glyph-name="uni0156" unicode="&#x156;" horiz-adv-x="611" 
d="M428 280l165 -280h-103l-157 268h-165v-268h-93v700h280q44 0 84 -17t70 -47t47 -69.5t17 -83.5q0 -68 -40.5 -124t-104.5 -79zM168 613v-261h187q24 0 53 13t50.5 46t21.5 72q0 25 -12.5 55.5t-44 52.5t-68.5 22h-187zM278 -248l10 180h85l-30 -180h-65z" />
    <glyph glyph-name="uni0157" unicode="&#x157;" horiz-adv-x="328" 
d="M153 416q11 24 32 46.5t54 34.5t70 12v-91q-27 1 -55.5 -6t-51 -25.5t-36 -49t-13.5 -72.5v-265h-87v500h87v-84zM59 -248l10 180h85l-30 -180h-65z" />
    <glyph glyph-name="Rcaron" unicode="&#x158;" horiz-adv-x="611" 
d="M256 765l-106 135h93l61 -81l61 81h93l-106 -135h-96zM490 0l-157 268h-165v-268h-93v700h280q44 0 84 -17t70 -47t47 -69.5t17 -83.5q0 -68 -40.5 -124t-104.5 -79l165 -280h-103zM168 613v-261h187q24 0 53 13t50.5 46t21.5 72q0 25 -12.5 55.5t-44 52.5t-68.5 22h-187
z" />
    <glyph glyph-name="rcaron" unicode="&#x159;" horiz-adv-x="328" 
d="M137 565l-106 135h93l61 -81l61 81h93l-106 -135h-96zM153 416q11 24 32 46.5t54 34.5t70 12v-91q-27 1 -55.5 -6t-51 -25.5t-36 -49t-13.5 -72.5v-265h-87v500h87v-84z" />
    <glyph glyph-name="Sacute" unicode="&#x15a;" horiz-adv-x="578" 
d="M226 771h84l101 132h-105zM301 -13q-98 0 -167.5 46t-97.5 126l80 46q19 -59 66.5 -93t120.5 -34q54 0 89 17t47 43t12 48q0 38 -27.5 66t-137.5 62q-78 25 -122 47t-71 59.5t-27 94.5q0 34 12 68.5t39.5 63.5t70.5 47.5t98 18.5q31 0 65 -7.5t69 -28t62 -53.5t41 -64
l-78 -45q-15 35 -40.5 61t-57.5 36.5t-61 10.5q-26 0 -56 -9.5t-50.5 -35t-20.5 -59.5q0 -25 12 -46t44 -38t91 -36q55 -18 94.5 -33.5t67.5 -35t45 -43t23.5 -50t6.5 -49.5q0 -45 -17.5 -82.5t-50 -64t-77.5 -40.5t-97 -14z" />
    <glyph glyph-name="sacute" unicode="&#x15b;" horiz-adv-x="458" 
d="M355 703l-101 -132h-84l80 132h105zM141 365q0 -23 19.5 -40t82.5 -34.5t93.5 -31t47.5 -30t27 -38.5t10 -54q0 -68 -52.5 -109t-134.5 -41q-53 0 -97 18.5t-68 46.5t-34 52l75 43q12 -36 45.5 -57t78.5 -21q31 0 55 9t34 25.5t10 33.5q0 23 -15.5 37t-35.5 21.5
t-50.5 16.5t-38.5 11q-74 22 -107 54.5t-33 86.5q0 65 50.5 107t126.5 42q60 0 108 -28t72 -76l-73 -41q-6 15 -20.5 30.5t-38 24.5t-48.5 9q-26 0 -48.5 -10t-31.5 -26t-9 -31z" />
    <glyph glyph-name="Scedilla" unicode="&#x15e;" horiz-adv-x="578" 
d="M543 188q0 -84 -58 -138t-154 -62v-33q38 -8 61.5 -29t23.5 -51q0 -103 -210 -91v66q65 -5 99.5 3.5t34.5 27.5q0 13 -16 23t-67 13v73q-80 9 -138 54.5t-83 114.5l80 46q19 -59 66.5 -93t120.5 -34q54 0 89 17t47 43t12 48q0 38 -27.5 66t-137.5 62q-78 25 -122 47
t-71 59.5t-27 94.5q0 34 12 68.5t39.5 63.5t70.5 47.5t98 18.5q31 0 65 -7.5t69 -28t62 -53.5t41 -64l-78 -45q-15 35 -40.5 61t-57.5 36.5t-61 10.5q-26 0 -56 -9.5t-50.5 -35t-20.5 -59.5q0 -25 12 -46t44 -38t91 -36q55 -18 94.5 -33.5t67.5 -35t45 -43t23.5 -50
t6.5 -49.5z" />
    <glyph glyph-name="scedilla" unicode="&#x15f;" horiz-adv-x="458" 
d="M421 137q0 -37 -16.5 -67t-50.5 -52t-83 -29v-34q38 -8 61.5 -29t23.5 -51q0 -103 -210 -91v66q65 -5 99.5 3.5t34.5 27.5q0 13 -16 23t-67 13v72q-58 8 -100.5 39t-61.5 76l75 43q12 -36 45.5 -57t78.5 -21q31 0 55 9t34 25.5t10 33.5q0 23 -15.5 37t-35.5 21.5
t-50.5 16.5t-38.5 11q-74 22 -107 54.5t-33 86.5q0 65 50.5 107t126.5 42q60 0 108 -28t72 -76l-73 -41q-6 15 -20.5 30.5t-38 24.5t-48.5 9q-26 0 -48.5 -10t-31.5 -26t-9 -31q0 -23 19.5 -40t82.5 -34.5t93.5 -31t47.5 -30t27 -38.5t10 -54z" />
    <glyph glyph-name="Scaron" unicode="&#x160;" horiz-adv-x="578" 
d="M237 768l-106 135h93l61 -81l61 81h93l-106 -135h-96zM306 399q55 -18 94.5 -33.5t67.5 -35t45 -43t23.5 -50t6.5 -49.5q0 -45 -17.5 -82.5t-50 -64t-77.5 -40.5t-97 -14q-98 0 -167.5 46t-97.5 126l80 46q19 -59 66.5 -93t120.5 -34q54 0 89 17t47 43t12 48
q0 38 -27.5 66t-137.5 62q-78 25 -122 47t-71 59.5t-27 94.5q0 34 12 68.5t39.5 63.5t70.5 47.5t98 18.5q31 0 65 -7.5t69 -28t62 -53.5t41 -64l-78 -45q-15 35 -40.5 61t-57.5 36.5t-61 10.5q-26 0 -56 -9.5t-50.5 -35t-20.5 -59.5q0 -25 12 -46t44 -38t91 -36z" />
    <glyph glyph-name="scaron" unicode="&#x161;" horiz-adv-x="458" 
d="M181 568l-106 135h93l61 -81l61 81h93l-106 -135h-96zM141 365q0 -23 19.5 -40t82.5 -34.5t93.5 -31t47.5 -30t27 -38.5t10 -54q0 -68 -52.5 -109t-134.5 -41q-53 0 -97 18.5t-68 46.5t-34 52l75 43q12 -36 45.5 -57t78.5 -21q31 0 55 9t34 25.5t10 33.5q0 23 -15.5 37
t-35.5 21.5t-50.5 16.5t-38.5 11q-74 22 -107 54.5t-33 86.5q0 65 50.5 107t126.5 42q60 0 108 -28t72 -76l-73 -41q-6 15 -20.5 30.5t-38 24.5t-48.5 9q-26 0 -48.5 -10t-31.5 -26t-9 -31z" />
    <glyph glyph-name="uni0162" unicode="&#x162;" horiz-adv-x="540" 
d="M523 700v-88h-207v-612h-92v612h-206v88h505zM220 -248l10 180h85l-30 -180h-65z" />
    <glyph glyph-name="uni0163" unicode="&#x163;" horiz-adv-x="378" 
d="M338 416h-133v-271q0 -21 6 -38.5t27 -25t100 -3.5v-78q-114 -15 -167 19t-53 126v271h-99v84h99v114l87 26v-140h133v-84zM183 -248l10 180h85l-30 -180h-65z" />
    <glyph glyph-name="Tcaron" unicode="&#x164;" horiz-adv-x="540" 
d="M221 765l-106 135h93l61 -81l61 81h93l-106 -135h-96zM523 700v-88h-207v-612h-92v612h-206v88h505z" />
    <glyph glyph-name="tcaron" unicode="&#x165;" horiz-adv-x="385" 
d="M351 719l-30 -168h-65l10 168h85zM205 640v-140h133v-84h-133v-271q0 -21 6 -38.5t27 -25t100 -3.5v-78q-114 -15 -167 19t-53 126v271h-99v84h99v114z" />
    <glyph glyph-name="Tbar" unicode="&#x166;" horiz-adv-x="540" 
d="M523 612h-207v-222h137v-84h-137v-306h-92v306h-136v84h136v222h-206v88h505v-88z" />
    <glyph glyph-name="tbar" unicode="&#x167;" horiz-adv-x="378" 
d="M338 416h-133v-124h91v-70h-91v-77q0 -21 6 -38.5t27 -25t100 -3.5v-78q-114 -15 -167 19t-53 126v77h-64v70h64v124h-99v84h99v114l87 26v-140h133v-84z" />
    <glyph glyph-name="Umacron" unicode="&#x16a;" horiz-adv-x="658" 
d="M194 775v73h270v-73h-270zM329 -13q-42 0 -87 11.5t-88.5 44.5t-65.5 85t-22 107v465h93v-461q0 -74 44 -117.5t126 -43.5t126 43.5t44 117.5v461h92v-465q0 -55 -19 -101.5t-54.5 -79t-84 -50t-104.5 -17.5z" />
    <glyph glyph-name="umacron" unicode="&#x16b;" horiz-adv-x="564" 
d="M410 648v-73h-270v73h270zM411 500h87v-500h-87v72q-53 -85 -162 -85q-88 0 -141 55.5t-53 150.5v307h87v-302q0 -60 33.5 -94t90.5 -34q47 0 79 20t49 56t17 89v265z" />
    <glyph glyph-name="Uring" unicode="&#x16e;" horiz-adv-x="658" 
d="M329 716q-36 0 -64 17.5t-38.5 43t-10.5 46.5t10.5 46t38.5 42.5t64 17.5t64 -17.5t38.5 -42.5t10.5 -46q0 -46 -31.5 -76.5t-81.5 -30.5zM329 777q23 0 35.5 13t12.5 33q0 19 -12.5 32t-35.5 13q-21 0 -34 -13t-13 -32q0 -20 12.5 -33t34.5 -13zM329 -13q-42 0 -87 11.5
t-88.5 44.5t-65.5 85t-22 107v465h93v-461q0 -74 44 -117.5t126 -43.5t126 43.5t44 117.5v461h92v-465q0 -55 -19 -101.5t-54.5 -79t-84 -50t-104.5 -17.5z" />
    <glyph glyph-name="uring" unicode="&#x16f;" horiz-adv-x="564" 
d="M275 546q-36 0 -64 17.5t-38.5 43t-10.5 46.5t10.5 46t38.5 42.5t64 17.5t64 -17.5t38.5 -42.5t10.5 -46q0 -46 -31.5 -76.5t-81.5 -30.5zM275 698q-21 0 -34 -13t-13 -32q0 -20 12.5 -33t34.5 -13q23 0 35.5 13t12.5 33q0 19 -12.5 32t-35.5 13zM411 500h87v-500h-87v72
q-53 -85 -162 -85q-88 0 -141 55.5t-53 150.5v307h87v-302q0 -60 33.5 -94t90.5 -34q47 0 79 20t49 56t17 89v265z" />
    <glyph glyph-name="Uhungarumlaut" unicode="&#x170;" horiz-adv-x="658" 
d="M184 765h88l79 133h-94zM337 765h88l89 133h-94zM329 -13q-42 0 -87 11.5t-88.5 44.5t-65.5 85t-22 107v465h93v-461q0 -74 44 -117.5t126 -43.5t126 43.5t44 117.5v461h92v-465q0 -55 -19 -101.5t-54.5 -79t-84 -50t-104.5 -17.5z" />
    <glyph glyph-name="uhungarumlaut" unicode="&#x171;" horiz-adv-x="564" 
d="M297 698l-79 -133h-88l73 133h94zM371 565h-88l83 133h94zM411 500h87v-500h-87v72q-53 -85 -162 -85q-88 0 -141 55.5t-53 150.5v307h87v-302q0 -60 33.5 -94t90.5 -34q47 0 79 20t49 56t17 89v265z" />
    <glyph glyph-name="Uogonek" unicode="&#x172;" horiz-adv-x="658" 
d="M499 700h92v-465q0 -62 -24 -112.5t-67 -82.5q-60 -56 -84.5 -90t-24.5 -64q-1 -30 31 -30q20 0 37 8v-64q-32 -13 -66 -13q-40 0 -63.5 22t-23.5 58q0 27 15.5 59t43.5 63l-36 -2q-42 0 -87 11.5t-88.5 44.5t-65.5 85t-22 107v465h93v-461q0 -74 44 -117.5t126 -43.5
t126 43.5t44 117.5v461z" />
    <glyph glyph-name="uogonek" unicode="&#x173;" horiz-adv-x="564" 
d="M498 0q-31 -29 -49.5 -60.5t-18.5 -53.5q0 -30 31 -30q20 0 37 8v-64q-31 -13 -66 -13q-40 0 -63.5 22t-23.5 58q0 53 66 134v71q-53 -85 -162 -85q-88 0 -141 55.5t-53 150.5v307h87v-302q0 -60 33.5 -94t90.5 -34q47 0 79 20t49 56t17 89v265h87v-500z" />
    <glyph glyph-name="Wcircumflex" unicode="&#x174;" horiz-adv-x="1000" 
d="M509 846l-61 -81h-93l106 135h96l106 -135h-93zM877 700h98l-201 -700h-108l-166 559l-166 -559h-108l-201 700h98l160 -576l170 576h94l170 -576z" />
    <glyph glyph-name="wcircumflex" unicode="&#x175;" horiz-adv-x="770" 
d="M384 646l-61 -81h-93l106 135h96l106 -135h-93zM655 500h91l-155 -500h-89l-117 370l-117 -370h-89l-155 500h91l110 -380l118 380h84l118 -381z" />
    <glyph glyph-name="Ycircumflex" unicode="&#x176;" horiz-adv-x="604" 
d="M298 846l-61 -81h-93l106 135h96l106 -135h-93zM596 700l-248 -417v-283h-93v284l-247 416h104l190 -328l190 328h104z" />
    <glyph glyph-name="ycircumflex" unicode="&#x177;" horiz-adv-x="515" 
d="M255 646l-61 -81h-93l106 135h96l106 -135h-93zM415 500h93l-204 -531q-32 -85 -89.5 -129.5t-132.5 -39.5v81q42 -3 77 20t58 82l9 19l-218 498h93l170 -392z" />
    <glyph glyph-name="Ydieresis" unicode="&#x178;" horiz-adv-x="604" 
d="M204 766q-21 0 -37 16t-16 37t15.5 36.5t37.5 15.5q21 0 36.5 -15.5t15.5 -36.5q0 -22 -15.5 -37.5t-36.5 -15.5zM394 766q-21 0 -37 16t-16 37t15.5 36.5t37.5 15.5q21 0 36.5 -15.5t15.5 -36.5q0 -22 -15.5 -37.5t-36.5 -15.5zM596 700l-248 -417v-283h-93v284
l-247 416h104l190 -328l190 328h104z" />
    <glyph glyph-name="Zacute" unicode="&#x179;" horiz-adv-x="525" 
d="M393 900l-101 -132h-84l80 132h105zM149 88h347v-88h-457v81l338 531h-329v88h440v-80z" />
    <glyph glyph-name="zacute" unicode="&#x17a;" horiz-adv-x="471" 
d="M367 700l-101 -132h-84l80 132h105zM167 83h266v-83h-385v58l255 359h-245v83h365v-58z" />
    <glyph glyph-name="Zdotaccent" unicode="&#x17b;" horiz-adv-x="525" 
d="M268 764q-26 0 -44.5 18.5t-18.5 43.5q0 26 18.5 44.5t44.5 18.5q25 0 43.5 -18.5t18.5 -44.5q0 -25 -18.5 -43.5t-43.5 -18.5zM149 88h347v-88h-457v81l338 531h-329v88h440v-80z" />
    <glyph glyph-name="zdotaccent" unicode="&#x17c;" horiz-adv-x="471" 
d="M242 564q-26 0 -44.5 18.5t-18.5 43.5q0 26 18.5 44.5t44.5 18.5q25 0 43.5 -18.5t18.5 -44.5q0 -25 -18.5 -43.5t-43.5 -18.5zM167 83h266v-83h-385v58l255 359h-245v83h365v-58z" />
    <glyph glyph-name="Zcaron" unicode="&#x17d;" horiz-adv-x="525" 
d="M219 765l-106 135h93l61 -81l61 81h93l-106 -135h-96zM149 88h347v-88h-457v81l338 531h-329v88h440v-80z" />
    <glyph glyph-name="zcaron" unicode="&#x17e;" horiz-adv-x="471" 
d="M193 565l-106 135h93l61 -81l61 81h93l-106 -135h-96zM167 83h266v-83h-385v58l255 359h-245v83h365v-58z" />
    <glyph glyph-name="florin" unicode="&#x192;" horiz-adv-x="440" 
d="M440 618q-22 9 -48.5 9.5t-48 -19t-27.5 -54.5l-28 -161h107v-84h-121l-63 -369q-10 -58 -37 -94.5t-71 -50t-103 3.5v85q22 -9 48.5 -9t48 19t27.5 54l62 361h-101v84h115l29 169q10 59 37 95.5t71 50t103 -3.5v-86z" />
    <glyph glyph-name="uni0218" unicode="&#x218;" horiz-adv-x="578" 
d="M301 -13q-98 0 -167.5 46t-97.5 126l80 46q19 -59 66.5 -93t120.5 -34q54 0 89 17t47 43t12 48q0 38 -27.5 66t-137.5 62q-78 25 -122 47t-71 59.5t-27 94.5q0 34 12 68.5t39.5 63.5t70.5 47.5t98 18.5q31 0 65 -7.5t69 -28t62 -53.5t41 -64l-78 -45q-15 35 -40.5 61
t-57.5 36.5t-61 10.5q-26 0 -56 -9.5t-50.5 -35t-20.5 -59.5q0 -25 12 -46t44 -38t91 -36q55 -18 94.5 -33.5t67.5 -35t45 -43t23.5 -50t6.5 -49.5q0 -45 -17.5 -82.5t-50 -64t-77.5 -40.5t-97 -14zM320 -248l30 180h-85l-10 -180h65z" />
    <glyph glyph-name="uni0219" unicode="&#x219;" horiz-adv-x="458" 
d="M141 365q0 -23 19.5 -40t82.5 -34.5t93.5 -31t47.5 -30t27 -38.5t10 -54q0 -68 -52.5 -109t-134.5 -41q-53 0 -97 18.5t-68 46.5t-34 52l75 43q12 -36 45.5 -57t78.5 -21q31 0 55 9t34 25.5t10 33.5q0 23 -15.5 37t-35.5 21.5t-50.5 16.5t-38.5 11q-74 22 -107 54.5
t-33 86.5q0 65 50.5 107t126.5 42q60 0 108 -28t72 -76l-73 -41q-6 15 -20.5 30.5t-38 24.5t-48.5 9q-26 0 -48.5 -10t-31.5 -26t-9 -31zM195 -248l10 180h85l-30 -180h-65z" />
    <glyph glyph-name="uni021A" unicode="&#x21a;" horiz-adv-x="540" 
d="M523 700v-88h-207v-612h-92v612h-206v88h505zM220 -248l10 180h85l-30 -180h-65z" />
    <glyph glyph-name="uni021B" unicode="&#x21b;" horiz-adv-x="378" 
d="M338 416h-133v-271q0 -21 6 -38.5t27 -25t100 -3.5v-78q-114 -15 -167 19t-53 126v271h-99v84h99v114l87 26v-140h133v-84zM183 -248l10 180h85l-30 -180h-65z" />
    <glyph glyph-name="circumflex" unicode="&#x2c6;" horiz-adv-x="348" 
d="M328 565h-93l-61 81l-61 -81h-93l106 135h96z" />
    <glyph glyph-name="caron" unicode="&#x2c7;" horiz-adv-x="348" 
d="M235 700h93l-106 -135h-96l-106 135h93l61 -81z" />
    <glyph glyph-name="breve" unicode="&#x2d8;" horiz-adv-x="338" 
d="M169 557q-69 0 -109 35.5t-40 99.5h81q0 -65 68 -65t68 65h81q0 -64 -39.5 -99.5t-109.5 -35.5z" />
    <glyph glyph-name="dotaccent" unicode="&#x2d9;" horiz-adv-x="168" 
d="M83 564q-26 0 -44.5 18.5t-18.5 43.5q0 26 18.5 44.5t44.5 18.5q25 0 43.5 -18.5t18.5 -44.5q0 -25 -18.5 -43.5t-43.5 -18.5z" />
    <glyph glyph-name="ring" unicode="&#x2da;" horiz-adv-x="266" 
d="M133 546q-36 0 -64 17.5t-38.5 43t-10.5 46.5t10.5 46t38.5 42.5t64 17.5t64 -17.5t38.5 -42.5t10.5 -46q0 -46 -31.5 -76.5t-81.5 -30.5zM133 607q23 0 35.5 13t12.5 33q0 19 -12.5 32t-35.5 13q-21 0 -34 -13t-13 -32q0 -20 12.5 -33t34.5 -13z" />
    <glyph glyph-name="ogonek" unicode="&#x2db;" horiz-adv-x="193" 
d="M107 -213q-40 0 -63.5 22t-23.5 58q0 30 18.5 65t51.5 68h83q-31 -29 -49.5 -60.5t-18.5 -53.5q-1 -30 31 -30q20 0 37 8v-64q-32 -13 -66 -13z" />
    <glyph glyph-name="tilde" unicode="&#x2dc;" horiz-adv-x="340" 
d="M21 573q0 48 13 78t35.5 41t50 5.5t55.5 -25.5q29 -21 43.5 -26t21.5 6.5t7 42.5h73q0 -36 -9 -66.5t-29 -46t-50 -13t-66 27.5q-29 21 -43.5 26t-21.5 -6.5t-7 -43.5h-73z" />
    <glyph glyph-name="hungarumlaut" unicode="&#x2dd;" horiz-adv-x="370" 
d="M20 565h88l79 133h-94zM173 565h88l89 133h-94z" />
    <glyph glyph-name="gravecomb" unicode="&#x300;" horiz-adv-x="0" 
d="M-20 568l-80 132h-105l101 -132h84z" />
    <glyph glyph-name="acutecomb" unicode="&#x301;" horiz-adv-x="0" 
d="M-205 568h84l101 132h-105z" />
    <glyph glyph-name="uni0302" unicode="&#x302;" horiz-adv-x="0" 
d="M-20 565h-93l-61 81l-61 -81h-93l106 135h96z" />
    <glyph glyph-name="tildecomb" unicode="&#x303;" horiz-adv-x="0" 
d="M-317 573q0 48 13 78t35.5 41t50 5.5t55.5 -25.5q29 -21 43.5 -26t21.5 6.5t7 42.5h73q0 -36 -9 -66.5t-29 -46t-50 -13t-66 27.5q-29 21 -43.5 26t-21.5 -6.5t-7 -43.5h-73z" />
    <glyph glyph-name="uni0304" unicode="&#x304;" horiz-adv-x="0" 
d="M-290 575v73h270v-73h-270z" />
    <glyph glyph-name="uni0306" unicode="&#x306;" horiz-adv-x="0" 
d="M-169 557q-69 0 -109 35.5t-40 99.5h81q0 -65 68 -65t68 65h81q0 -64 -39.5 -99.5t-109.5 -35.5z" />
    <glyph glyph-name="uni0307" unicode="&#x307;" horiz-adv-x="0" 
d="M-82 564q-26 0 -44.5 18.5t-18.5 43.5q0 26 18.5 44.5t44.5 18.5q25 0 43.5 -18.5t18.5 -44.5q0 -25 -18.5 -43.5t-43.5 -18.5z" />
    <glyph glyph-name="uni0308" unicode="&#x308;" horiz-adv-x="0" 
d="M-262 566q-21 0 -37 16t-16 37t15.5 36.5t37.5 15.5q21 0 36.5 -15.5t15.5 -36.5q0 -22 -15.5 -37.5t-36.5 -15.5zM-72 566q-21 0 -37 16t-16 37t15.5 36.5t37.5 15.5q21 0 36.5 -15.5t15.5 -36.5q0 -22 -15.5 -37.5t-36.5 -15.5z" />
    <glyph glyph-name="uni030A" unicode="&#x30a;" horiz-adv-x="0" 
d="M-134 546q-36 0 -64 17.5t-38.5 43t-10.5 46.5t10.5 46t38.5 42.5t64 17.5t64 -17.5t38.5 -42.5t10.5 -46q0 -46 -31.5 -76.5t-81.5 -30.5zM-134 607q23 0 35.5 13t12.5 33q0 19 -12.5 32t-35.5 13q-21 0 -34 -13t-13 -32q0 -20 12.5 -33t34.5 -13z" />
    <glyph glyph-name="uni030B" unicode="&#x30b;" horiz-adv-x="0" 
d="M-350 565h88l79 133h-94zM-197 565h88l89 133h-94z" />
    <glyph glyph-name="uni030C" unicode="&#x30c;" horiz-adv-x="0" 
d="M-113 700h93l-106 -135h-96l-106 135h93l61 -81z" />
    <glyph glyph-name="uni0312" unicode="&#x312;" horiz-adv-x="0" 
d="M-85 965l-30 -180h85l10 180h-65z" />
    <glyph glyph-name="uni0326" unicode="&#x326;" horiz-adv-x="0" 
d="M-50 -248l30 180h-85l-10 -180h65z" />
    <glyph glyph-name="uni0327" unicode="&#x327;" horiz-adv-x="0" 
d="M-105 -45q38 -8 61.5 -29t23.5 -51q0 -103 -210 -91v66q65 -5 99.5 3.5t34.5 27.5q0 13 -16 23t-67 13v83h74v-45z" />
    <glyph glyph-name="uni0328" unicode="&#x328;" horiz-adv-x="0" 
d="M-88 -213q-40 0 -63.5 22t-23.5 58q0 30 18.5 65t51.5 68h83q-31 -29 -49.5 -60.5t-18.5 -53.5q-1 -30 31 -30q20 0 37 8v-64q-32 -13 -66 -13z" />
    <glyph glyph-name="uni0394" unicode="&#x394;" horiz-adv-x="638" 
d="M371 700l259 -700h-622l258 700h105zM138 87h362l-181 504z" />
    <glyph glyph-name="uni03A9" unicode="&#x3a9;" horiz-adv-x="795" 
d="M760 355q0 -60 -21 -116t-53 -93t-61 -58h123v-88h-275v88q86 24 140.5 96t54.5 166q0 56 -20.5 106.5t-57.5 87.5t-86.5 58t-105.5 21t-105.5 -21t-86.5 -58t-57.5 -87.5t-20.5 -106.5q0 -58 21.5 -109.5t65 -93t107.5 -59.5v-88h-274v88h122q-63 45 -99 115t-36 152
q0 72 28 138t77.5 115.5t116.5 77t141 27.5t140.5 -27.5t116 -77t77.5 -115.5t28 -138z" />
    <glyph glyph-name="pi" unicode="&#x3c0;" horiz-adv-x="655" 
d="M628 500v-83h-82v-417h-87v417h-259v-417h-87v417h-85v83h600z" />
    <glyph glyph-name="uni0401" unicode="&#x401;" horiz-adv-x="530" 
d="M187 766q-21 0 -37 16t-16 37t15.5 36.5t37.5 15.5q21 0 36.5 -15.5t15.5 -36.5q0 -22 -15.5 -37.5t-36.5 -15.5zM377 766q-21 0 -37 16t-16 37t15.5 36.5t37.5 15.5q21 0 36.5 -15.5t15.5 -36.5q0 -22 -15.5 -37.5t-36.5 -15.5zM168 88h325v-88h-418v700h413v-88h-320
v-215h295v-87h-295v-222z" />
    <glyph glyph-name="uni0402" unicode="&#x402;" horiz-adv-x="700" 
d="M451 470q41 0 71 -10.5t54.5 -29t44 -56.5t19.5 -96v-104q0 -96 -49.5 -143t-143.5 -40v86q53 -5 76.5 18t23.5 79v100q0 57 -28 84.5t-77 27.5q-71 0 -143 -28v-358h-93v612h-188v88h497v-88h-216v-172q72 30 152 30z" />
    <glyph glyph-name="uni0403" unicode="&#x403;" horiz-adv-x="485" 
d="M399 899l-101 -132h-84l80 132h105zM468 700v-88h-300v-612h-93v700h393z" />
    <glyph glyph-name="uni0404" unicode="&#x404;" horiz-adv-x="735" 
d="M400 78q34 0 77 11.5t83 42.5t61 72l81 -46q-43 -78 -124.5 -124.5t-177.5 -46.5q-77 0 -144.5 28t-116 78t-75 116.5t-26.5 140.5t26.5 140.5t75 116.5t116 78t144.5 28q96 0 177 -46t125 -124l-81 -47q-14 27 -43 57t-77.5 50t-100.5 20q-54 0 -100.5 -17t-81.5 -48
t-56.5 -73t-28.5 -91h360v-87h-360q7 -49 28.5 -91t56.5 -73t81.5 -48t100.5 -17z" />
    <glyph glyph-name="uni0405" unicode="&#x405;" horiz-adv-x="578" 
d="M301 -13q-98 0 -167.5 46t-97.5 126l80 46q19 -59 66.5 -93t120.5 -34q54 0 89 17t47 43t12 48q0 38 -27.5 66t-137.5 62q-78 25 -122 47t-71 59.5t-27 94.5q0 34 12 68.5t39.5 63.5t70.5 47.5t98 18.5q31 0 65 -7.5t69 -28t62 -53.5t41 -64l-78 -45q-15 35 -40.5 61
t-57.5 36.5t-61 10.5q-26 0 -56 -9.5t-50.5 -35t-20.5 -59.5q0 -25 12 -46t44 -38t91 -36q55 -18 94.5 -33.5t67.5 -35t45 -43t23.5 -50t6.5 -49.5q0 -45 -17.5 -82.5t-50 -64t-77.5 -40.5t-97 -14z" />
    <glyph glyph-name="uni0406" unicode="&#x406;" horiz-adv-x="243" 
d="M75 700h93v-700h-93v700z" />
    <glyph glyph-name="uni0407" unicode="&#x407;" horiz-adv-x="243" 
d="M26 766q-21 0 -37 16t-16 37t15.5 36.5t37.5 15.5q21 0 36.5 -15.5t15.5 -36.5q0 -22 -15.5 -37.5t-36.5 -15.5zM216 766q-21 0 -37 16t-16 37t15.5 36.5t37.5 15.5q21 0 36.5 -15.5t15.5 -36.5q0 -22 -15.5 -37.5t-36.5 -15.5zM75 700h93v-700h-93v700z" />
    <glyph glyph-name="uni0408" unicode="&#x408;" horiz-adv-x="558" 
d="M257 -13q-75 0 -133.5 32.5t-85.5 92.5l79 46q16 -40 52 -60t88 -20q67 0 105 32t38 95v495h92v-495q0 -25 -6 -55.5t-22.5 -59t-44.5 -52t-71 -37.5t-91 -14z" />
    <glyph glyph-name="uni0409" unicode="&#x409;" horiz-adv-x="984" 
d="M730 413q45 0 85 -15.5t70 -43.5t47 -66.5t17 -81.5t-17 -81.5t-47 -66t-70 -43t-85 -15.5h-234v612h-251v-309q0 -159 -54 -237t-177 -67v84q78 -10 108 47t30 173v397h437v-287h141zM730 87q24 0 54 11t51 40.5t21 67.5q0 27 -13 54.5t-44 46.5t-69 19h-141v-239h141z
" />
    <glyph glyph-name="uni040A" unicode="&#x40a;" horiz-adv-x="973" 
d="M719 413q44 0 84.5 -15.5t70.5 -43.5t47 -66.5t17 -81.5t-17 -81.5t-47 -66t-70.5 -43t-84.5 -15.5h-234v326h-317v-326h-93v700h93v-287h317v287h93v-287h141zM719 87q24 0 54 11t51 40.5t21 67.5q0 27 -13 54.5t-44 46.5t-69 19h-141v-239h141z" />
    <glyph glyph-name="uni040B" unicode="&#x40b;" horiz-adv-x="705" 
d="M451 470q41 0 71 -10.5t54.5 -29t44 -56.5t19.5 -96v-278h-93v274q0 57 -28 84.5t-77 27.5q-71 0 -143 -28v-358h-93v612h-188v88h497v-88h-216v-172q72 30 152 30z" />
    <glyph glyph-name="uni040C" unicode="&#x40c;" horiz-adv-x="592" 
d="M419 899l-101 -132h-84l80 132h105zM584 0h-114l-302 336v-336h-93v700h93v-316l292 316h114l-309 -340z" />
    <glyph glyph-name="uni040E" unicode="&#x40e;" horiz-adv-x="580" 
d="M430 850v-76h-270v76h270zM476 700h94l-225 -534q-38 -90 -97 -130.5t-144 -35.5v86q57 -6 94 17.5t60 78.5l7 16l-237 502h94l186 -400z" />
    <glyph glyph-name="uni040F" unicode="&#x40f;" horiz-adv-x="658" 
d="M490 700h93v-700h-208v-134h-92v134h-208v700h93v-612h322v612z" />
    <glyph glyph-name="uni0410" unicode="&#x410;" horiz-adv-x="643" 
d="M536 0l-57 157h-315l-57 -157h-99l261 700h105l261 -700h-99zM196 244h251l-126 345z" />
    <glyph glyph-name="uni0411" unicode="&#x411;" horiz-adv-x="585" 
d="M338 425q44 0 84 -16t70 -45.5t46.5 -68.5t16.5 -82q0 -44 -16.5 -83.5t-46.5 -68.5t-70 -45t-84 -16h-263v700h420v-88h-327v-187h170zM338 87q24 0 53 12t50.5 43.5t21.5 70.5t-21.5 70t-50.5 43t-53 12h-170v-251h170z" />
    <glyph glyph-name="uni0412" unicode="&#x412;" horiz-adv-x="615" 
d="M475 363q48 -23 76.5 -66.5t28.5 -98.5q0 -30 -10.5 -63.5t-35.5 -63t-65 -50.5t-92 -21h-302v700h280q29 0 62 -9.5t62.5 -33t50.5 -61.5t21 -87q0 -45 -20.5 -83.5t-55.5 -62.5zM355 613h-187v-214h187q20 0 44.5 10.5t42 37.5t17.5 59q0 44 -30.5 75.5t-73.5 31.5z
M377 87q33 0 61 19t39 46t11 49t-11 48.5t-39 45.5t-61 19h-209v-227h209z" />
    <glyph glyph-name="uni0413" unicode="&#x413;" horiz-adv-x="485" 
d="M468 700v-88h-300v-612h-93v700h393z" />
    <glyph glyph-name="uni0414" unicode="&#x414;" horiz-adv-x="695" 
d="M588 88h75v-222h-93v134h-462v-134h-93v222h61q65 81 65 246v366h447v-612zM181 88h314v525h-261v-281q0 -159 -53 -244z" />
    <glyph glyph-name="uni0415" unicode="&#x415;" horiz-adv-x="530" 
d="M168 88h325v-88h-418v700h413v-88h-320v-215h295v-87h-295v-222z" />
    <glyph glyph-name="uni0416" unicode="&#x416;" horiz-adv-x="868" 
d="M851 0h-106l-265 336v-336h-92v336l-265 -336h-105l280 358l-270 342h105l255 -321v321h92v-321l255 321h106l-271 -342z" />
    <glyph glyph-name="uni0417" unicode="&#x417;" horiz-adv-x="564" 
d="M415 362q53 -22 83.5 -67t30.5 -104q0 -43 -15 -76t-40.5 -59.5t-74 -47.5t-116.5 -21q-38 0 -77.5 8.5t-72.5 29t-58.5 51t-40.5 72.5l79 45q6 -22 22 -49.5t53 -48t95 -20.5q73 0 113 32.5t40 86.5q0 25 -12 53.5t-46 47.5t-84 19h-82v85h59q47 0 81 18.5t46.5 45.5
t12.5 50q0 36 -20 63.5t-50.5 38.5t-63.5 11q-34 0 -65.5 -11t-54.5 -35.5t-35 -56.5l-78 45q13 29 40 63.5t76 58t117 23.5q49 0 91.5 -15t72.5 -41.5t46 -63t16 -78.5q0 -49 -23.5 -88.5t-64.5 -64.5z" />
    <glyph glyph-name="uni0418" unicode="&#x418;" horiz-adv-x="678" 
d="M510 0v522l-360 -522h-75v700h93v-523l360 523h75v-700h-93z" />
    <glyph glyph-name="uni0419" unicode="&#x419;" horiz-adv-x="678" 
d="M204 775v76h270v-76h-270zM510 0v522l-360 -522h-75v700h93v-523l360 523h75v-700h-93z" />
    <glyph glyph-name="uni041A" unicode="&#x41a;" horiz-adv-x="592" 
d="M584 0h-114l-302 336v-336h-93v700h93v-316l292 316h114l-309 -340z" />
    <glyph glyph-name="uni041B" unicode="&#x41b;" horiz-adv-x="689" 
d="M14 0v84q51 -7 80.5 14.5t43.5 71t14 133.5v397h462v-700h-93v612h-276v-309q0 -159 -54 -236.5t-177 -66.5z" />
    <glyph glyph-name="uni041C" unicode="&#x41c;" horiz-adv-x="805" 
d="M730 700v-700h-92v547l-229 -381h-12l-229 380v-546h-93v700h105l223 -370l222 370h105z" />
    <glyph glyph-name="uni041D" unicode="&#x41d;" horiz-adv-x="675" 
d="M508 700h92v-700h-92v315h-340v-315h-93v700h93v-297h340v297z" />
    <glyph glyph-name="uni041E" unicode="&#x41e;" horiz-adv-x="800" 
d="M400 -13q-74 0 -140.5 28t-116 78t-77.5 117t-28 140t28 140t77.5 117t116 78t140.5 28t140.5 -28t116.5 -78t78 -117t28 -140t-28 -140t-78 -117t-116.5 -78t-140.5 -28zM400 78q56 0 105.5 21t86.5 58t57.5 87t20.5 106t-20.5 106.5t-57.5 87.5t-86.5 58t-105.5 21
t-105.5 -21t-86.5 -58t-57.5 -87.5t-20.5 -106.5t20.5 -106t57.5 -87t86.5 -58t105.5 -21z" />
    <glyph glyph-name="uni041F" unicode="&#x41f;" horiz-adv-x="658" 
d="M583 700v-700h-93v612h-322v-612h-93v700h508z" />
    <glyph glyph-name="uni0420" unicode="&#x420;" horiz-adv-x="590" 
d="M329 700q47 0 88.5 -17t72.5 -47.5t48 -72t17 -88.5q0 -34 -11.5 -72t-42.5 -76t-78 -57.5t-94 -19.5h-161v-250h-93v700h254zM329 337q57 0 95.5 40t38.5 98q0 59 -38.5 98.5t-95.5 39.5h-161v-276h161z" />
    <glyph glyph-name="uni0421" unicode="&#x421;" horiz-adv-x="739" 
d="M404 -13q-77 0 -145 28t-117.5 78t-76.5 117t-27 140q0 74 27 140.5t76.5 116.5t117.5 78t145 28q95 0 176 -46t126 -124l-81 -47q-14 27 -43.5 57t-77.5 50t-100 20q-44 0 -91.5 -14t-87.5 -47.5t-61 -74.5t-27.5 -75.5t-6.5 -61.5q0 -41 13 -87t50 -92t94.5 -69.5
t116.5 -23.5q33 0 76 11.5t83 42.5t62 72l81 -46q-44 -78 -125 -124.5t-177 -46.5z" />
    <glyph glyph-name="uni0422" unicode="&#x422;" horiz-adv-x="540" 
d="M523 700v-88h-207v-612h-92v612h-206v88h505z" />
    <glyph glyph-name="uni0423" unicode="&#x423;" horiz-adv-x="580" 
d="M476 700h94l-225 -534q-38 -90 -97 -130.5t-144 -35.5v86q57 -6 94 17.5t60 78.5l7 16l-237 502h94l186 -400z" />
    <glyph glyph-name="uni0424" unicode="&#x424;" horiz-adv-x="809" 
d="M782 350q0 -61 -24 -110.5t-68.5 -84.5t-106 -55.5t-133.5 -25.5v-79h-91v79q-72 5 -133.5 25.5t-105.5 55.5t-68 84.5t-24 110.5t24 110.5t68 84.5t105.5 55.5t133.5 25.5v79h91v-79q72 -5 133.5 -25.5t106 -55.5t68.5 -84.5t24 -110.5zM450 159q113 8 176 56t63 135
t-63 135t-176 56v-382zM120 350q0 -87 63 -134.5t176 -55.5v381q-113 -8 -176 -56t-63 -135z" />
    <glyph glyph-name="uni0425" unicode="&#x425;" horiz-adv-x="590" 
d="M573 0h-106l-172 276l-172 -276h-105l225 360l-212 340h105l159 -255l159 255h105l-211 -339z" />
    <glyph glyph-name="uni0426" unicode="&#x426;" horiz-adv-x="690" 
d="M583 88h75v-222h-93v134h-490v700h93v-612h322v612h93v-612z" />
    <glyph glyph-name="uni0427" unicode="&#x427;" horiz-adv-x="628" 
d="M460 700h93v-700h-93v282q-82 -39 -172 -39q-102 0 -165 57.5t-63 149.5v250h93v-244q0 -26 11.5 -56t44 -49.5t80.5 -19.5q90 0 171 39v330z" />
    <glyph glyph-name="uni0428" unicode="&#x428;" horiz-adv-x="948" 
d="M780 700h93v-700h-798v700h93v-612h260v612h92v-612h260v612z" />
    <glyph glyph-name="uni0429" unicode="&#x429;" horiz-adv-x="980" 
d="M873 88h75v-222h-93v134h-780v700h93v-612h260v612h92v-612h260v612h93v-612z" />
    <glyph glyph-name="uni042A" unicode="&#x42a;" horiz-adv-x="698" 
d="M183 0v612h-183v88h275v-250h161q47 0 89 -17t73 -48t48 -72.5t17 -87.5q0 -47 -17 -88.5t-48 -72t-73 -47.5t-89 -17h-253zM275 87h161q58 0 96 39.5t38 98.5t-38 98.5t-96 39.5h-161v-276z" />
    <glyph glyph-name="uni042B" unicode="&#x42b;" horiz-adv-x="794" 
d="M75 0v700h93v-250h161q47 0 88.5 -17t72.5 -48t48 -72.5t17 -87.5q0 -47 -17 -88.5t-48 -72t-72.5 -47.5t-88.5 -17h-254zM626 0v700h93v-700h-93zM168 87h161q57 0 95.5 39.5t38.5 98.5t-38.5 98.5t-95.5 39.5h-161v-276z" />
    <glyph glyph-name="uni042C" unicode="&#x42c;" horiz-adv-x="590" 
d="M329 450q47 0 88.5 -17t72.5 -48t48 -72.5t17 -87.5q0 -47 -17 -88.5t-48 -72t-72.5 -47.5t-88.5 -17h-254v700h93v-250h161zM329 87q57 0 95.5 39.5t38.5 98.5q0 58 -38.5 98t-95.5 40h-161v-276h161z" />
    <glyph glyph-name="uni042D" unicode="&#x42d;" horiz-adv-x="735" 
d="M335 713q77 0 144.5 -28t116 -78t75 -116.5t26.5 -140.5t-26.5 -140.5t-75 -116.5t-116 -78t-144.5 -28q-96 0 -177.5 46.5t-124.5 124.5l81 46q14 -27 43 -56.5t77.5 -49.5t100.5 -20q54 0 100.5 17t81.5 48t56.5 73t28.5 91h-360v87h360q-7 49 -28.5 91t-56.5 73
t-81.5 48t-100.5 17q-34 0 -76.5 -11.5t-82.5 -42.5t-62 -73l-81 47q44 78 125 124t177 46z" />
    <glyph glyph-name="uni042E" unicode="&#x42e;" horiz-adv-x="1045" 
d="M645 713q74 0 140.5 -28t116.5 -78t78 -117t28 -140t-28 -140t-78 -117t-116.5 -78t-140.5 -28q-69 0 -132 25t-111 70t-78 105.5t-36 128.5h-120v-316h-93v700h93v-296h123q12 81 51.5 142t90.5 98.5t106.5 53t105.5 15.5zM645 78q56 0 105.5 21t86.5 58t57.5 87
t20.5 106t-20.5 106.5t-57.5 87.5t-86.5 58t-105.5 21t-105.5 -20.5t-86.5 -58t-57.5 -88t-20.5 -106.5t20.5 -106t57.5 -87t86.5 -58t105.5 -21z" />
    <glyph glyph-name="uni042F" unicode="&#x42f;" horiz-adv-x="621" 
d="M546 700v-700h-92v268h-139l-181 -268h-105l186 274q-26 6 -58 23.5t-57.5 49t-38 66t-12.5 70.5q0 44 17 83.5t47 69.5t69.5 47t83.5 17h280zM266 352h188v261h-188q-24 0 -53 -13t-50.5 -45.5t-21.5 -71.5q0 -25 12.5 -55.5t44 -53t68.5 -22.5z" />
    <glyph glyph-name="uni0430" unicode="&#x430;" 
d="M480 500h87v-500h-87v86q-30 -46 -79 -72.5t-110 -26.5q-51 0 -97 20t-81.5 56t-55 84.5t-19.5 102.5t19.5 102.5t55 84.5t81.5 56t97 20q61 0 110 -26.5t79 -72.5v86zM302 71q46 0 89 23t66 66t23 90t-23 90t-66 66t-89 23t-88.5 -23t-65.5 -66t-23 -90t23 -90t65.5 -66
t88.5 -23z" />
    <glyph glyph-name="uni0431" unicode="&#x431;" horiz-adv-x="567" 
d="M293 -13q-54 0 -101 19t-81.5 54t-53.5 83.5t-19 104.5q0 47 5 91t21.5 83t53.5 75.5t111 72.5q18 9 79.5 36t85.5 51t31 59l70 -40q-6 -34 -25 -59.5t-51 -46t-82 -41t-52 -21.5q-67 -28 -99.5 -58.5t-45.5 -76.5q16 20 43 39t63.5 29t69.5 10q45 0 86.5 -16.5t72.5 -47
t48.5 -73.5t17.5 -92q0 -36 -12 -76t-46 -79.5t-85.5 -59.5t-104.5 -20zM293 71q70 0 115.5 43t45.5 108q0 66 -44 109t-114 43q-28 0 -59 -10.5t-55 -29t-38.5 -46.5t-14.5 -61q0 -42 19 -76t56.5 -57t88.5 -23z" />
    <glyph glyph-name="uni0432" unicode="&#x432;" horiz-adv-x="504" 
d="M399 257q37 -15 57 -45.5t20 -70.5q0 -45 -23 -79.5t-60.5 -48t-76.5 -13.5h-250v500h230q75 0 116 -38t41 -98q0 -72 -54 -107zM292 422h-141v-131h141q37 0 56.5 17.5t19.5 49.5q0 30 -20 47t-56 17zM311 79q38 0 58.5 18.5t20.5 50.5q0 31 -21 48.5t-58 17.5h-160
v-135h160z" />
    <glyph glyph-name="uni0433" unicode="&#x433;" horiz-adv-x="404" 
d="M394 500v-84h-241v-416h-87v500h328z" />
    <glyph glyph-name="uni0434" unicode="&#x434;" horiz-adv-x="593" 
d="M496 83h69v-217h-86v134h-375v-134h-86v217h61q24 33 36 75.5t12 109.5v232h369v-417zM178 83h232v336h-197v-151q0 -112 -35 -185z" />
    <glyph glyph-name="uni0435" unicode="&#x435;" horiz-adv-x="583" 
d="M127 210q8 -41 33 -75t65 -50t83 -16q49 0 86.5 20.5t57.5 52.5l74 -42q-25 -38 -63.5 -65.5t-80 -37.5t-76.5 -10q-66 0 -126.5 27.5t-101 89.5t-40.5 146q0 54 19 102.5t54 84.5t84 56t105 20q54 0 100.5 -21t79.5 -58t51 -85t18 -100q0 -19 -3 -39h-419zM300 431
q-69 0 -115.5 -39.5t-57.5 -105.5h334q-7 44 -28.5 76.5t-56.5 50.5t-76 18z" />
    <glyph glyph-name="uni0436" unicode="&#x436;" horiz-adv-x="698" 
d="M681 0h-102l-187 237v-237h-86v237l-187 -237h-101l209 258l-199 242h101l177 -221v221h86v-221l177 221h102l-200 -242z" />
    <glyph glyph-name="uni0437" unicode="&#x437;" horiz-adv-x="447" 
d="M336 256q39 -16 61 -47.5t22 -71.5q0 -30 -12 -57t-36.5 -48t-61 -33t-82.5 -12q-69 0 -121.5 29t-79.5 91l73 43q13 -38 45.5 -60t83.5 -22q49 0 77 21.5t28 55.5q0 30 -22.5 49t-60.5 19h-73v79h54q37 0 58.5 18.5t21.5 50.5q0 31 -25 51.5t-67 20.5q-40 0 -69.5 -18
t-44.5 -53l-71 41q24 51 72 80.5t113 29.5q81 0 129 -42.5t48 -102.5q0 -36 -15.5 -65.5t-44.5 -46.5z" />
    <glyph glyph-name="uni0438" unicode="&#x438;" horiz-adv-x="565" 
d="M429 500h70v-500h-86v351l-277 -351h-70v500h86v-351z" />
    <glyph glyph-name="uni0439" unicode="&#x439;" horiz-adv-x="565" 
d="M148 575v76h270v-76h-270zM429 500h70v-500h-86v351l-277 -351h-70v500h86v-351z" />
    <glyph glyph-name="uni043A" unicode="&#x43a;" horiz-adv-x="504" 
d="M489 0h-108l-228 237v-237h-87v500h87v-221l216 221h112l-239 -242z" />
    <glyph glyph-name="uni043B" unicode="&#x43b;" horiz-adv-x="549" 
d="M483 500v-500h-87v416h-197v-204q0 -77 -20.5 -125t-61.5 -70.5t-107 -16.5v82q51 -7 76.5 22.5t25.5 109.5v286h371z" />
    <glyph glyph-name="uni043C" unicode="&#x43c;" 
d="M566 500v-500h-85v363l-159 -256h-11l-159 256v-363h-86v500h93l157 -253l157 253h93z" />
    <glyph glyph-name="uni043D" unicode="&#x43d;" horiz-adv-x="565" 
d="M412 500h87v-500h-87v209h-259v-209h-87v500h87v-208h259v208z" />
    <glyph glyph-name="uni043E" unicode="&#x43e;" horiz-adv-x="602" 
d="M301 -13q-53 0 -101.5 20t-84.5 56t-56.5 84.5t-20.5 102.5t20.5 102.5t56.5 84.5t84.5 56t101.5 20t101.5 -20t85 -56t57 -84.5t20.5 -102.5t-20.5 -102.5t-57 -84.5t-85 -56t-101.5 -20zM301 72q46 0 88.5 23t65.5 66t23 89t-23 89t-65.5 66t-88.5 23q-74 0 -125 -51.5
t-51 -126.5t51 -126.5t125 -51.5z" />
    <glyph glyph-name="uni043F" unicode="&#x43f;" horiz-adv-x="565" 
d="M499 500v-500h-87v417h-259v-417h-87v500h433z" />
    <glyph glyph-name="uni0440" unicode="&#x440;" 
d="M342 513q51 0 97 -20t81.5 -56t55 -84.5t19.5 -102.5t-19.5 -102.5t-55 -84.5t-81.5 -56t-97 -20q-61 0 -110 26.5t-79 72.5v-286h-87v700h87v-86q30 46 79 72.5t110 26.5zM331 71q46 0 88.5 23t65.5 66t23 90t-23 90t-65.5 66t-88.5 23t-89 -23t-66 -66t-23 -90t23 -90
t66 -66t89 -23z" />
    <glyph glyph-name="uni0441" unicode="&#x441;" horiz-adv-x="547" 
d="M301 -13q-55 0 -103.5 20t-84.5 56t-55.5 84.5t-19.5 102.5t19.5 102.5t55.5 84.5t84.5 56t103.5 20q34 0 77.5 -12t83 -44t60.5 -75l-73 -42q-19 40 -59 64t-89 24q-17 0 -39.5 -4.5t-45 -16.5t-43.5 -33.5t-34.5 -54t-13.5 -69.5q0 -27 9 -57t33.5 -60t61 -45t72.5 -15
q49 0 89.5 24t61.5 63l74 -43q-15 -27 -45 -58t-78.5 -51.5t-101.5 -20.5z" />
    <glyph glyph-name="uni0442" unicode="&#x442;" horiz-adv-x="448" 
d="M438 500v-84h-170v-416h-87v416h-171v84h428z" />
    <glyph glyph-name="uni0443" unicode="&#x443;" horiz-adv-x="515" 
d="M415 500h93l-204 -531q-32 -84 -90 -129t-132 -40v81q23 -2 49.5 6t48.5 32.5t37 61.5l8 18l-217 501h92l171 -392z" />
    <glyph glyph-name="uni0444" unicode="&#x444;" horiz-adv-x="675" 
d="M638 250q0 -103 -70 -175t-187 -85v-190h-86v190q-117 13 -187 85t-70 175t70 175t187 85v190h86v-190q117 -13 187 -85t70 -175zM124 250q0 -69 45.5 -117t125.5 -59v352q-80 -10 -125.5 -58.5t-45.5 -117.5zM381 74q79 11 124.5 59.5t45.5 116.5q0 69 -45 117t-125 59
v-352z" />
    <glyph glyph-name="uni0445" unicode="&#x445;" horiz-adv-x="515" 
d="M500 0h-102l-140 189l-141 -189h-102l192 257l-181 243h103l129 -174l129 174h102l-180 -242z" />
    <glyph glyph-name="uni0446" unicode="&#x446;" horiz-adv-x="595" 
d="M486 83h82v-217h-86v134h-416v500h87v-417h246v417h87v-417z" />
    <glyph glyph-name="uni0447" unicode="&#x447;" horiz-adv-x="534" 
d="M381 500h87v-500h-87v180q-27 -12 -64 -19t-71 -7q-95 0 -148 45.5t-53 134.5v166h87v-161q0 -55 31 -79.5t89 -24.5q32 0 67 7t62 19v239z" />
    <glyph glyph-name="uni0448" unicode="&#x448;" horiz-adv-x="818" 
d="M664 500h87v-500h-685v500h87v-417h212v417h87v-417h212v417z" />
    <glyph glyph-name="uni0449" unicode="&#x449;" horiz-adv-x="843" 
d="M746 83h69v-217h-86v134h-663v500h87v-417h210v417h87v-417h209v417h87v-417z" />
    <glyph glyph-name="uni044A" unicode="&#x44a;" horiz-adv-x="551" 
d="M350 320q74 0 124 -45t50 -115t-50 -115t-124 -45h-211v416h-139v84h226v-180h124zM350 81q37 0 62.5 22t25.5 57t-26 57.5t-62 22.5h-124v-159h124z" />
    <glyph glyph-name="uni044B" unicode="&#x44b;" horiz-adv-x="670" 
d="M277 320q75 0 124.5 -45t49.5 -115t-49.5 -115t-124.5 -45h-211v500h87v-180h124zM516 500h87v-500h-87v500zM277 81q37 0 62.5 22t25.5 57t-26 57.5t-62 22.5h-124v-159h124z" />
    <glyph glyph-name="uni044C" unicode="&#x44c;" horiz-adv-x="479" 
d="M277 320q75 0 124.5 -45t49.5 -115t-49.5 -115t-124.5 -45h-211v500h87v-180h124zM277 81q37 0 62.5 22t25.5 57t-26 57.5t-62 22.5h-124v-159h124z" />
    <glyph glyph-name="uni044D" unicode="&#x44d;" horiz-adv-x="538" 
d="M246 513q56 0 103.5 -19.5t81.5 -55.5t52 -84.5t18 -103.5t-18.5 -103.5t-52.5 -84.5t-81.5 -55.5t-103.5 -19.5q-37 0 -82.5 12t-85 44t-59.5 76l74 43q15 -41 55.5 -66t97.5 -25q40 0 72.5 15.5t58 47t34.5 75.5h-223v82h223q-11 61 -55 99.5t-108 38.5
q-52 0 -92 -24.5t-59 -65.5l-75 43q14 28 43.5 59t78 51.5t103.5 20.5z" />
    <glyph glyph-name="uni044E" unicode="&#x44e;" horiz-adv-x="804" 
d="M503 513q53 0 101.5 -20t84.5 -56t56.5 -84.5t20.5 -102.5t-20.5 -102.5t-56.5 -84.5t-84.5 -56t-101.5 -20q-36 0 -76 11t-77 38t-66 70.5t-38 102.5h-93v-209h-87v500h87v-208h93q7 46 29.5 87t57 71t78.5 46.5t92 16.5zM503 72q74 0 125 51.5t51 126.5t-51 126.5
t-125 51.5q-46 0 -88.5 -23t-65.5 -66t-23 -89t23 -89t65.5 -66t88.5 -23z" />
    <glyph glyph-name="uni044F" unicode="&#x44f;" horiz-adv-x="506" 
d="M440 500v-500h-86v180h-73l-140 -180h-106l146 185q-26 6 -55.5 24.5t-50 53.5t-20.5 76q0 25 8.5 52t29.5 51t55 41t79 17h213zM230 258h124v161h-124q-37 0 -63 -22.5t-26 -58.5q0 -17 9 -36t31 -31.5t49 -12.5z" />
    <glyph glyph-name="uni0451" unicode="&#x451;" horiz-adv-x="583" 
d="M199 567q-21 0 -37 16t-16 37t15.5 36.5t37.5 15.5q21 0 36.5 -15.5t15.5 -36.5q0 -22 -15.5 -37.5t-36.5 -15.5zM389 567q-21 0 -37 16t-16 37t15.5 36.5t37.5 15.5q21 0 36.5 -15.5t15.5 -36.5q0 -22 -15.5 -37.5t-36.5 -15.5zM127 210q8 -41 33 -75t65 -50t83 -16
q49 0 86.5 20.5t57.5 52.5l74 -42q-25 -38 -63.5 -65.5t-80 -37.5t-76.5 -10q-66 0 -126.5 27.5t-101 89.5t-40.5 146q0 54 19 102.5t54 84.5t84 56t105 20q54 0 100.5 -21t79.5 -58t51 -85t18 -100q0 -19 -3 -39h-419zM300 431q-69 0 -115.5 -39.5t-57.5 -105.5h334
q-7 44 -28.5 76.5t-56.5 50.5t-76 18z" />
    <glyph glyph-name="uni0452" unicode="&#x452;" horiz-adv-x="573" 
d="M324 513q88 0 141 -55.5t53 -150.5v-337q0 -96 -49.5 -143t-143.5 -40v84q54 -5 80 18.5t26 80.5v332q0 60 -33.5 94t-90.5 34q-47 0 -79 -20t-49 -56t-17 -89v-265h-87v569h-67v64h67v67h87v-67h143v-64h-143v-141q53 85 162 85z" />
    <glyph glyph-name="uni0453" unicode="&#x453;" horiz-adv-x="404" 
d="M334 700l-101 -132h-84l80 132h105zM394 500v-84h-241v-416h-87v500h328z" />
    <glyph glyph-name="uni0454" unicode="&#x454;" horiz-adv-x="538" 
d="M446 162l74 -43q-20 -44 -59.5 -76t-85 -44t-82.5 -12q-56 0 -103.5 19.5t-81.5 55.5t-52.5 84.5t-18.5 103.5t18 103.5t52 84.5t81.5 55.5t103.5 19.5q55 0 103.5 -20.5t78 -51.5t43.5 -59l-75 -43q-19 41 -59 65.5t-92 24.5q-64 0 -108 -38.5t-55 -99.5h223v-82h-223
q9 -44 34.5 -75.5t58 -47t72.5 -15.5q42 0 76 14.5t52 36t25 40.5z" />
    <glyph glyph-name="uni0455" unicode="&#x455;" horiz-adv-x="458" 
d="M141 365q0 -23 19.5 -40t82.5 -34.5t93.5 -31t47.5 -30t27 -38.5t10 -54q0 -68 -52.5 -109t-134.5 -41q-53 0 -97 18.5t-68 46.5t-34 52l75 43q12 -36 45.5 -57t78.5 -21q31 0 55 9t34 25.5t10 33.5q0 23 -15.5 37t-35.5 21.5t-50.5 16.5t-38.5 11q-74 22 -107 54.5
t-33 86.5q0 65 50.5 107t126.5 42q60 0 108 -28t72 -76l-73 -41q-6 15 -20.5 30.5t-38 24.5t-48.5 9q-26 0 -48.5 -10t-31.5 -26t-9 -31z" />
    <glyph glyph-name="uni0456" unicode="&#x456;" horiz-adv-x="220" 
d="M110 591q-24 0 -41.5 17t-17.5 41t17.5 41.5t41.5 17.5t41 -17.5t17 -41.5t-17 -41t-41 -17zM66 0v500h87v-500h-87z" />
    <glyph glyph-name="uni0457" unicode="&#x457;" horiz-adv-x="220" 
d="M15 566q-21 0 -37 16t-16 37t15.5 36.5t37.5 15.5q21 0 36.5 -15.5t15.5 -36.5q0 -22 -15.5 -37.5t-36.5 -15.5zM205 566q-21 0 -37 16t-16 37t15.5 36.5t37.5 15.5q21 0 36.5 -15.5t15.5 -36.5q0 -22 -15.5 -37.5t-36.5 -15.5zM66 0v500h87v-500h-87z" />
    <glyph glyph-name="uni0458" unicode="&#x458;" horiz-adv-x="241" 
d="M132 591q-24 0 -41.5 17t-17.5 41t17.5 41.5t41.5 17.5t41 -17.5t17 -41.5t-17 -41t-41 -17zM88 -30v530h87v-530q0 -96 -49.5 -143t-143.5 -40v84q54 -5 80 18.5t26 80.5z" />
    <glyph glyph-name="uni0459" unicode="&#x459;" horiz-adv-x="781" 
d="M591 303q71 0 116.5 -41t45.5 -111q0 -69 -45.5 -110t-116.5 -41h-205v416h-187v-204q0 -77 -20.5 -125t-61.5 -71t-107 -18v82q51 -6 76.5 24t25.5 110v286h361v-197h118zM592 81q33 0 55.5 18t22.5 52q0 17 -8 34t-27 27t-43 10h-119v-141h119z" />
    <glyph glyph-name="uni045A" unicode="&#x45a;" horiz-adv-x="789" 
d="M598 303q43 0 82.5 -18t60.5 -54.5t21 -79.5q0 -69 -47 -110t-117 -41h-206v220h-241v-220h-87v500h87v-197h241v197h87v-197h119zM598 81q33 0 55.5 18t22.5 52q0 35 -22.5 53t-55.5 18h-119v-141h119z" />
    <glyph glyph-name="uni045B" unicode="&#x45b;" horiz-adv-x="573" 
d="M324 513q88 0 141 -55.5t53 -150.5v-307h-87v302q0 60 -33.5 94t-90.5 34q-47 0 -79 -20t-49 -56t-17 -89v-265h-87v569h-67v64h67v67h87v-67h143v-64h-143v-141q53 85 162 85z" />
    <glyph glyph-name="uni045C" unicode="&#x45c;" horiz-adv-x="504" 
d="M379 700l-101 -132h-84l80 132h105zM489 0h-108l-228 237v-237h-87v500h87v-221l216 221h112l-239 -242z" />
    <glyph glyph-name="uni045E" unicode="&#x45e;" horiz-adv-x="515" 
d="M391 651v-76h-270v76h270zM415 500h93l-204 -531q-32 -84 -90 -129t-132 -40v81q23 -2 49.5 6t48.5 32.5t37 61.5l8 18l-217 501h92l171 -392z" />
    <glyph glyph-name="uni045F" unicode="&#x45f;" horiz-adv-x="565" 
d="M412 500h87v-500h-173v-134h-86v134h-174v500h87v-417h259v417z" />
    <glyph glyph-name="uni0490" unicode="&#x490;" horiz-adv-x="485" 
d="M375 820h93v-208h-300v-612h-93v700h300v120z" />
    <glyph glyph-name="uni0491" unicode="&#x491;" horiz-adv-x="404" 
d="M308 603h86v-187h-241v-416h-87v500h242v103z" />
    <glyph glyph-name="Wgrave" unicode="&#x1e80;" horiz-adv-x="1000" 
d="M577 768l-80 132h-105l101 -132h84zM226 0l-201 700h98l160 -576l170 576h94l170 -576l160 576h98l-201 -700h-108l-166 559l-166 -559h-108z" />
    <glyph glyph-name="wgrave" unicode="&#x1e81;" horiz-adv-x="770" 
d="M452 568h-84l-101 132h105zM655 500h91l-155 -500h-89l-117 370l-117 -370h-89l-155 500h91l110 -380l118 380h84l118 -381z" />
    <glyph glyph-name="Wacute" unicode="&#x1e82;" horiz-adv-x="1000" 
d="M450 768h84l101 132h-105zM226 0l-201 700h98l160 -576l170 576h94l170 -576l160 576h98l-201 -700h-108l-166 559l-166 -559h-108z" />
    <glyph glyph-name="wacute" unicode="&#x1e83;" horiz-adv-x="770" 
d="M510 700l-101 -132h-84l80 132h105zM655 500h91l-155 -500h-89l-117 370l-117 -370h-89l-155 500h91l110 -380l118 380h84l118 -381z" />
    <glyph glyph-name="Wdieresis" unicode="&#x1e84;" horiz-adv-x="1000" 
d="M415 766q-21 0 -37 16t-16 37t15.5 36.5t37.5 15.5q21 0 36.5 -15.5t15.5 -36.5q0 -22 -15.5 -37.5t-36.5 -15.5zM605 766q-21 0 -37 16t-16 37t15.5 36.5t37.5 15.5q21 0 36.5 -15.5t15.5 -36.5q0 -22 -15.5 -37.5t-36.5 -15.5zM226 0l-201 700h98l160 -576l170 576h94
l170 -576l160 576h98l-201 -700h-108l-166 559l-166 -559h-108z" />
    <glyph glyph-name="wdieresis" unicode="&#x1e85;" horiz-adv-x="770" 
d="M290 566q-21 0 -37 16t-16 37t15.5 36.5t37.5 15.5q21 0 36.5 -15.5t15.5 -36.5q0 -22 -15.5 -37.5t-36.5 -15.5zM480 566q-21 0 -37 16t-16 37t15.5 36.5t37.5 15.5q21 0 36.5 -15.5t15.5 -36.5q0 -22 -15.5 -37.5t-36.5 -15.5zM655 500h91l-155 -500h-89l-117 370
l-117 -370h-89l-155 500h91l110 -380l118 380h84l118 -381z" />
    <glyph glyph-name="Ygrave" unicode="&#x1ef2;" horiz-adv-x="604" 
d="M366 768h-84l-101 132h105zM596 700l-248 -417v-283h-93v284l-247 416h104l190 -328l190 328h104z" />
    <glyph glyph-name="ygrave" unicode="&#x1ef3;" horiz-adv-x="515" 
d="M323 568h-84l-101 132h105zM415 500h93l-204 -531q-32 -85 -89.5 -129.5t-132.5 -39.5v81q42 -3 77 20t58 82l9 19l-218 498h93l170 -392z" />
    <glyph glyph-name="endash" unicode="&#x2013;" horiz-adv-x="655" 
d="M75 265v84h505v-84h-505z" />
    <glyph glyph-name="emdash" unicode="&#x2014;" horiz-adv-x="755" 
d="M75 265v84h605v-84h-605z" />
    <glyph glyph-name="quoteleft" unicode="&#x2018;" horiz-adv-x="253" 
d="M57 457l65 243h75l-40 -243h-100z" />
    <glyph glyph-name="quoteright" unicode="&#x2019;" horiz-adv-x="253" 
d="M196 701l-65 -243h-75l40 243h100z" />
    <glyph glyph-name="quotesinglbase" unicode="&#x201a;" horiz-adv-x="253" 
d="M196 103l-65 -243h-75l40 243h100z" />
    <glyph glyph-name="quotedblleft" unicode="&#x201c;" horiz-adv-x="408" 
d="M57 457l65 243h75l-40 -243h-100zM212 457l65 243h75l-40 -243h-100z" />
    <glyph glyph-name="quotedblright" unicode="&#x201d;" horiz-adv-x="408" 
d="M196 701l-65 -243h-75l40 243h100zM351 701l-65 -243h-75l40 243h100z" />
    <glyph glyph-name="quotedblbase" unicode="&#x201e;" horiz-adv-x="408" 
d="M196 103l-65 -243h-75l40 243h100zM351 103l-65 -243h-75l40 243h100z" />
    <glyph glyph-name="dagger" unicode="&#x2020;" horiz-adv-x="480" 
d="M425 545v-84h-141v-461h-87v461h-142v84h142v155h87v-155h141z" />
    <glyph glyph-name="daggerdbl" unicode="&#x2021;" horiz-adv-x="480" 
d="M425 461h-141v-222h141v-84h-141v-155h-87v155h-142v84h142v222h-142v84h142v155h87v-155h141v-84z" />
    <glyph glyph-name="bullet" unicode="&#x2022;" horiz-adv-x="320" 
d="M161 238q-47 0 -80 33t-33 80q0 21 11 47.5t39.5 45.5t62.5 19q21 0 47.5 -11t45.5 -39.5t19 -61.5q0 -34 -19 -62.5t-45.5 -39.5t-47.5 -11z" />
    <glyph glyph-name="ellipsis" unicode="&#x2026;" horiz-adv-x="648" 
d="M121 -11q-27 0 -46 19t-19 46t19 46t46 19t46 -19t19 -46t-19 -46t-46 -19zM324 -11q-27 0 -46 19t-19 46t19 46t46 19t46 -19t19 -46t-19 -46t-46 -19zM526 -11q-27 0 -46 19t-19 46t19 46t46 19t46 -19t19 -46t-19 -46t-46 -19z" />
    <glyph glyph-name="perthousand" unicode="&#x2030;" horiz-adv-x="1089" 
d="M213 403q-67 0 -112.5 45t-45.5 110q0 64 45.5 109.5t112.5 45.5t112.5 -45t45.5 -110q0 -23 -7.5 -49t-26.5 -49.5t-50.5 -40t-73.5 -16.5zM213 476q35 0 57.5 24t22.5 58t-22.5 57.5t-57.5 23.5q-34 0 -57 -23.5t-23 -57.5t23 -58t57 -24zM102 99l465 520l49 -27
l-466 -521zM515 -12q-67 0 -112.5 45t-45.5 110t45.5 110t112.5 45t112.5 -45t45.5 -110t-45.5 -110t-112.5 -45zM876 -12q-67 0 -112.5 45t-45.5 110t45.5 110t112.5 45t112.5 -45t45.5 -110t-45.5 -110t-112.5 -45zM515 62q34 0 57 23.5t23 57.5t-23 57.5t-57 23.5
q-35 0 -57.5 -23.5t-22.5 -57.5t22.5 -57.5t57.5 -23.5zM876 62q35 0 57.5 23.5t22.5 57.5t-22.5 57.5t-57.5 23.5t-57.5 -23.5t-22.5 -57.5t22.5 -57.5t57.5 -23.5z" />
    <glyph glyph-name="guilsinglleft" unicode="&#x2039;" horiz-adv-x="340" 
d="M272 492l-110 -183l110 -182h-94l-110 182l110 183h94z" />
    <glyph glyph-name="guilsinglright" unicode="&#x203a;" horiz-adv-x="340" 
d="M162 492l110 -183l-110 -182h-94l110 182l-110 183h94z" />
    <glyph glyph-name="fraction" unicode="&#x2044;" horiz-adv-x="210" 
d="M-60 0h-70l400 700h70z" />
    <glyph glyph-name="Euro" unicode="&#x20ac;" horiz-adv-x="600" 
d="M499 173l77 -44q-29 -68 -84.5 -105t-131.5 -37q-54 0 -100 19.5t-80.5 55.5t-56.5 87.5t-31 113.5h-73v65h67v22l1 31h-68v64h74q20 124 90 196t177 72q35 0 77 -12t79.5 -45.5t58.5 -81.5l-77 -44q-20 45 -55.5 69t-82.5 24q-67 0 -112 -46t-61 -132h237v-64h-244
l-1 -31v-22h245v-65h-238q14 -89 59.5 -137t114.5 -48q48 0 84 24.5t55 70.5z" />
    <glyph glyph-name="uni20BD" unicode="&#x20bd;" horiz-adv-x="594" 
d="M356 268h-161v-81h248v-68h-248v-119h-92v119h-85v68h85v81h-85v84h85v348h253q44 0 84.5 -17t70.5 -47t47 -69.5t17 -83.5t-17 -83.5t-47 -69t-70.5 -46t-84.5 -16.5zM195 613v-261h161q52 0 89.5 38.5t37.5 92.5q0 39 -21.5 71.5t-51.5 45.5t-54 13h-161z" />
    <glyph glyph-name="uni2116" unicode="&#x2116;" horiz-adv-x="1024" 
d="M829 402q-67 0 -112.5 45.5t-45.5 109.5q0 65 45.5 110t112.5 45t112.5 -45t45.5 -110t-45 -110t-113 -45zM510 700h93v-700h-75l-360 523v-523h-93v700h75l360 -522v522zM829 477q34 0 56.5 23t22.5 57t-22.5 57t-56.5 23t-56.5 -23t-22.5 -57t22.5 -57t56.5 -23z
M683 255v83h292v-83h-292z" />
    <glyph glyph-name="trademark" unicode="&#x2122;" horiz-adv-x="468" 
d="M198 700v-43h-56v-157h-47v157h-57v43h160zM384 700h46v-200h-46v124l-56 -88h-5l-56 88v-124h-46v200h46l59 -92z" />
    <glyph glyph-name="estimated" unicode="&#x212e;" horiz-adv-x="810" 
d="M405 710q80 0 149 -28t118.5 -77.5t76 -115.5t26.5 -139q0 -15 -15 -15h-560q-15 0 -15 -15v-192q0 -11 7 -19q84 -89 233 -89q72 0 131 25.5t100 71.5q8 9 18 9h37q9 0 12 -6t-3 -13q-51 -55 -126.5 -86t-168.5 -31q-87 0 -160 28t-124.5 77.5t-78.5 115.5t-27 139
t26.5 139t76 115.5t118.5 77.5t149 28zM625 572q0 11 -7 19q-40 42 -95.5 65.5t-117.5 23.5t-117.5 -23.5t-95.5 -65.5q-7 -8 -7 -19v-192q0 -15 15 -15h410q15 0 15 15v192z" />
    <glyph glyph-name="oneeighth" unicode="&#x215b;" horiz-adv-x="804" 
d="M192 300h-77v319l-88 -26l-19 65l117 42h67v-400zM524 700h70l-400 -700h-70zM718 211q29 -16 46 -43t17 -61q0 -40 -22.5 -69t-58 -40t-66.5 -11t-66.5 11t-58 40t-22.5 69q0 34 17 61t46 43q-23 14 -36.5 36.5t-13.5 49.5q0 26 13 53t46.5 45t74.5 18q26 0 56.5 -10
t54 -37.5t23.5 -68.5q0 -20 -10.5 -44t-39.5 -42zM634 344q-29 0 -45.5 -13.5t-16.5 -36.5q0 -24 16.5 -38.5t45.5 -14.5t45.5 14.5t16.5 38.5q0 23 -16.5 36.5t-45.5 13.5zM634 58q33 0 52.5 16.5t19.5 42.5q0 27 -20 43t-52 16q-34 0 -53 -16t-19 -43q0 -26 19.5 -42.5
t52.5 -16.5z" />
    <glyph glyph-name="threeeighths" unicode="&#x215c;" horiz-adv-x="901" 
d="M316 418q0 -60 -41 -95.5t-108 -35.5q-53 0 -90.5 22.5t-56.5 63.5l65 37q22 -51 82 -51q34 0 53 16t19 43t-20.5 43.5t-52.5 16.5h-9l-34 50l84 100h-172v72h263v-66l-84 -100q47 -10 74.5 -41t27.5 -75zM621 700h70l-400 -700h-70zM815 211q29 -16 46 -43t17 -61
q0 -40 -22.5 -69t-58 -40t-66.5 -11t-66.5 11t-58 40t-22.5 69q0 34 17 61t46 43q-23 14 -36.5 36.5t-13.5 49.5q0 26 13 53t46.5 45t74.5 18q26 0 56.5 -10t54 -37.5t23.5 -68.5q0 -20 -10.5 -44t-39.5 -42zM731 344q-29 0 -45.5 -13.5t-16.5 -36.5q0 -24 16.5 -38.5
t45.5 -14.5t45.5 14.5t16.5 38.5q0 23 -16.5 36.5t-45.5 13.5zM731 58q33 0 52.5 16.5t19.5 42.5q0 27 -20 43t-52 16q-34 0 -53 -16t-19 -43q0 -26 19.5 -42.5t52.5 -16.5z" />
    <glyph glyph-name="fiveeighths" unicode="&#x215d;" horiz-adv-x="889" 
d="M307 417q0 -60 -39 -95t-105 -35q-106 0 -146 87l65 36q23 -52 80 -52q33 0 52 16.5t19 43.5q0 28 -19 45.5t-52 17.5h-124l15 219h237v-71h-172l-5 -79h52q28 0 62 -11t57 -43.5t23 -78.5zM609 700h70l-400 -700h-70zM803 211q29 -16 46 -43t17 -61q0 -40 -22.5 -69
t-58 -40t-66.5 -11t-66.5 11t-58 40t-22.5 69q0 34 17 61t46 43q-23 14 -36.5 36.5t-13.5 49.5q0 26 13 53t46.5 45t74.5 18q26 0 56.5 -10t54 -37.5t23.5 -68.5q0 -20 -10.5 -44t-39.5 -42zM719 344q-29 0 -45.5 -13.5t-16.5 -36.5q0 -24 16.5 -38.5t45.5 -14.5t45.5 14.5
t16.5 38.5q0 23 -16.5 36.5t-45.5 13.5zM719 58q33 0 52.5 16.5t19.5 42.5q0 27 -20 43t-52 16q-34 0 -53 -16t-19 -43q0 -26 19.5 -42.5t52.5 -16.5z" />
    <glyph glyph-name="seveneighths" unicode="&#x215e;" horiz-adv-x="846" 
d="M277 700v-61l-141 -339h-81l138 328h-185v72h269zM566 700h70l-400 -700h-70zM760 211q29 -16 46 -43t17 -61q0 -40 -22.5 -69t-58 -40t-66.5 -11t-66.5 11t-58 40t-22.5 69q0 34 17 61t46 43q-23 14 -36.5 36.5t-13.5 49.5q0 26 13 53t46.5 45t74.5 18q26 0 56.5 -10
t54 -37.5t23.5 -68.5q0 -20 -10.5 -44t-39.5 -42zM676 344q-29 0 -45.5 -13.5t-16.5 -36.5q0 -24 16.5 -38.5t45.5 -14.5t45.5 14.5t16.5 38.5q0 23 -16.5 36.5t-45.5 13.5zM676 58q33 0 52.5 16.5t19.5 42.5q0 27 -20 43t-52 16q-34 0 -53 -16t-19 -43q0 -26 19.5 -42.5
t52.5 -16.5z" />
    <glyph glyph-name="arrowleft" unicode="&#x2190;" horiz-adv-x="813" 
d="M758 392v-84h-544l258 -258h-117l-300 300l300 300h117l-258 -258h544z" />
    <glyph glyph-name="arrowup" unicode="&#x2191;" horiz-adv-x="710" 
d="M655 400v-117l-256 256v-539h-87v540l-257 -257v117l300 300z" />
    <glyph glyph-name="arrowright" unicode="&#x2192;" horiz-adv-x="813" 
d="M458 650l300 -300l-300 -300h-117l258 258h-544v84h544l-258 258h117z" />
    <glyph glyph-name="arrowdown" unicode="&#x2193;" horiz-adv-x="710" 
d="M399 161l256 256v-117l-300 -300l-300 300v117l257 -257v540h87v-539z" />
    <glyph glyph-name="arrowboth" unicode="&#x2194;" horiz-adv-x="1055" 
d="M743 608l257 -258l-257 -257h-116l214 215h-628l215 -215h-116l-257 257l257 258h116l-215 -216h629l-215 216h116z" />
    <glyph glyph-name="arrowupdn" unicode="&#x2195;" horiz-adv-x="625" 
d="M570 450l-214 214v-628l214 214v-116l-257 -257l-258 257v116l214 -213v626l-214 -213v116l258 257l257 -257v-116z" />
    <glyph glyph-name="uni2196" unicode="&#x2196;" horiz-adv-x="640" 
d="M585 127l-61 -61l-387 387v-363l-82 82v424h424l82 -82h-363z" />
    <glyph glyph-name="uni2197" unicode="&#x2197;" horiz-adv-x="640" 
d="M161 596h424v-424l-82 -82v363l-387 -387l-61 61l387 387h-363z" />
    <glyph glyph-name="uni2198" unicode="&#x2198;" horiz-adv-x="640" 
d="M503 590l82 -82v-424h-424l-82 82h363l-387 387l61 60l387 -387v364z" />
    <glyph glyph-name="uni2199" unicode="&#x2199;" horiz-adv-x="640" 
d="M585 553l-387 -387h363l-82 -82h-424v424l82 82v-364l387 387z" />
    <glyph glyph-name="partialdiff" unicode="&#x2202;" horiz-adv-x="579" 
d="M235 713q58 0 111 -25.5t93 -74t62.5 -116t22.5 -147.5q0 -85 -20.5 -154t-56.5 -115t-85 -70t-104 -24q-36 0 -73 11t-67.5 37.5t-50 68t-19.5 96.5q0 24 5 54t19 59.5t40 56.5t68.5 44t95.5 17q39 0 81.5 -12.5t78.5 -35.5q-4 51 -19 96t-41.5 78.5t-64 52.5t-82.5 19
q-31 0 -64.5 -9t-60.5 -25v82q56 36 131 36zM260 71q74 0 120.5 61.5t54.5 168.5q-33 26 -73.5 38t-79.5 12q-41 0 -76 -17t-53 -52.5t-18 -80.5q0 -41 16.5 -70.5t43.5 -44.5t65 -15z" />
    <glyph glyph-name="emptyset" unicode="&#x2205;" horiz-adv-x="804" 
d="M656 608q50 -49 79 -117t29 -141t-28 -139.5t-78 -116.5t-116.5 -78t-139.5 -28q-55 0 -108 16.5t-96 46.5l-58 -71h-82l91 111q-50 50 -79.5 118t-29.5 141t28 139.5t78 116.5t116.5 78t139.5 28q55 0 108 -16.5t96 -46.5l58 71h83zM110 350q0 -58 22 -112t61 -94
l370 452q-71 48 -161 48q-59 0 -112.5 -22.5t-94 -63t-63 -95t-22.5 -113.5zM402 56q59 0 113 23t94 63.5t62.5 94.5t22.5 113q0 58 -22 112t-60 93l-370 -451q74 -48 160 -48z" />
    <glyph glyph-name="product" unicode="&#x220f;" horiz-adv-x="640" 
d="M75 -200v900h490v-900h-87v816h-316v-816h-87z" />
    <glyph glyph-name="summation" unicode="&#x2211;" horiz-adv-x="548" 
d="M45 -200v80l231 380l-216 359v81h440v-84h-339l215 -356l-229 -376h368v-84h-470z" />
    <glyph glyph-name="minus" unicode="&#x2212;" horiz-adv-x="545" 
d="M58 309v83h430v-83h-430z" />
    <glyph glyph-name="radical" unicode="&#x221a;" horiz-adv-x="655" 
d="M280 0l-132 224h-93v84h143l118 -205l233 697h91l-272 -800h-88z" />
    <glyph glyph-name="infinity" unicode="&#x221e;" horiz-adv-x="803" 
d="M581 515q72 0 120 -47t48 -118t-48 -118t-120 -47q-92 0 -179 101q-87 -101 -180 -101q-72 0 -120 47t-48 118t48 118t120 47q93 0 180 -101q87 101 179 101zM224 264q64 0 127 86q-63 86 -127 86q-36 0 -60 -24.5t-24 -61.5t24 -61.5t60 -24.5zM579 264q37 0 60.5 24.5
t23.5 61.5t-23.5 61.5t-60.5 24.5q-63 0 -126 -86q63 -86 126 -86z" />
    <glyph glyph-name="integral" unicode="&#x222b;" horiz-adv-x="440" 
d="M0 -203v86q22 -9 48 -9.5t46 19t26 54.5l104 614q16 94 72.5 129t143.5 12v-85q-25 9 -53 9t-49 -19t-27 -54l-104 -614q-16 -94 -71.5 -129.5t-135.5 -12.5z" />
    <glyph glyph-name="approxequal" unicode="&#x2248;" horiz-adv-x="586" 
d="M284 394q-63 36 -101 33.5t-60 -57.5l-68 28q9 32 27 60.5t47 44t72 12t100 -36.5q62 -36 100 -32.5t55 64.5l75 -35q-25 -88 -89.5 -111t-157.5 30zM130 190l-75 35q9 31 26.5 59.5t47 44.5t72.5 13t100 -36q64 -37 102 -33.5t60 57.5l68 -28q-26 -89 -89.5 -111
t-157.5 31q-61 35 -99 32t-55 -64z" />
    <glyph glyph-name="notequal" unicode="&#x2260;" horiz-adv-x="535" 
d="M480 410h-156l-53 -120h209v-83h-246l-64 -142h-60l64 142h-119v83h156l53 120h-209v83h246l64 142h60l-64 -142h119v-83z" />
    <glyph glyph-name="lessequal" unicode="&#x2264;" horiz-adv-x="523" 
d="M468 618v-94l-308 -107l308 -106v-94l-413 159v82zM55 85v83h413v-83h-413z" />
    <glyph glyph-name="greaterequal" unicode="&#x2265;" horiz-adv-x="523" 
d="M55 618l413 -160v-82l-413 -159v94l308 106l-308 107v94zM55 85v83h413v-83h-413z" />
    <glyph glyph-name="lozenge" unicode="&#x25ca;" horiz-adv-x="545" 
d="M234 0l-186 350l186 350h78l186 -350l-186 -350h-78zM273 104l131 246l-131 246l-132 -246z" />
    <glyph glyph-name="i.locl" horiz-adv-x="220" 
d="M110 564q-26 0 -44.5 18.5t-18.5 43.5q0 26 18.5 44.5t44.5 18.5q25 0 43.5 -18.5t18.5 -44.5q0 -25 -18.5 -43.5t-43.5 -18.5zM66 0v500h87v-500h-87z" />
    <glyph glyph-name="f_f_j.dlig" horiz-adv-x="802" 
d="M736 500v-530q0 -96 -49.5 -143t-143.5 -40v84q54 -5 80 18.5t26 80.5v446h-185v-416h-87v416h-186v-416h-87v416h-80v84h80v15q0 101 56.5 153t162.5 45v-84q-66 5 -99 -22.5t-33 -91.5v-15h186v25q0 99 55.5 148.5t162.5 49.5q43 0 103 -13v-79q-59 8 -103 8
q-68 0 -99.5 -25.5t-31.5 -88.5v-25h272z" />
    <glyph glyph-name="f_j.dlig" horiz-adv-x="530" 
d="M463 500v-530q0 -96 -49 -143t-143 -40v84q53 -5 79 18.5t26 80.5v446h-185v-416h-87v416h-80v84h80v15q0 99 55.5 148.5t163.5 49.5q41 0 103 -13v-79q-61 8 -103 8q-68 0 -100 -25.5t-32 -88.5v-15h272z" />
    <glyph glyph-name="uni0414.locl" horiz-adv-x="710" 
d="M618 88h70v-222h-93v134h-480v-134h-92v222h69l211 612h105zM189 88h332l-166 502z" />
    <glyph glyph-name="uni041B.aalt" horiz-adv-x="621" 
d="M258 700h105l251 -700h-101l-202 584l-203 -584h-100z" />
    <glyph glyph-name="uni0424.aalt" horiz-adv-x="849" 
d="M812 350q0 -75 -24.5 -139t-70 -111t-109 -75.5t-138.5 -34.5v-90h-90v90q-75 6 -138.5 34.5t-109 75.5t-70 111t-24.5 139t24.5 139t70 111t109 75.5t138.5 34.5v90h90v-90q75 -6 138.5 -34.5t109 -75.5t70 -111t24.5 -139zM130 350q0 -117 67 -190t183 -85v551
q-116 -13 -183 -86t-67 -190zM470 75q116 12 182.5 85t66.5 190t-66.5 190t-182.5 86v-551z" />
    <glyph glyph-name="uni0414.salt" horiz-adv-x="695" 
d="M588 88h75v-88h-648v88h61q65 81 65 246v366h447v-612zM181 88h314v525h-261v-281q0 -159 -53 -244z" />
    <glyph glyph-name="uni0426.aalt" horiz-adv-x="690" 
d="M583 88h75v-88h-583v700h93v-612h322v612h93v-612z" />
    <glyph glyph-name="uni0429.aalt" horiz-adv-x="980" 
d="M873 88h75v-88h-873v700h93v-612h260v612h92v-612h260v612h93v-612z" />
    <glyph glyph-name="uni0414.locl.salt" horiz-adv-x="710" 
d="M618 88h70v-88h-665v88h69l211 612h105zM189 88h332l-166 502z" />
    <glyph glyph-name="uni0432.aalt" horiz-adv-x="569" 
d="M406 403q59 -21 92 -72.5t33 -125.5q0 -102 -61.5 -160t-170.5 -58q-108 0 -170.5 65t-62.5 178v236q0 112 60 179.5t161 67.5q85 0 136 -47t51 -123q0 -37 -17.5 -73t-50.5 -67zM287 630q-62 0 -98 -45t-36 -119v-73l85 17q43 8 76 8q74 56 74 120q0 29 -15.5 51.5
t-39.5 31.5t-46 9zM299 72q68 0 106.5 35t38.5 98q0 75 -56.5 108.5t-149.5 14.5l-85 -17v-81q0 -74 39 -116t107 -42z" />
    <glyph glyph-name="uni0433.aalt" horiz-adv-x="458" 
d="M353 151l75 -44q-16 -38 -50 -67.5t-74.5 -41t-74.5 -11.5q-50 0 -95 18t-69 54t-24 78q0 32 13.5 61t47.5 49.5t92.5 37t79.5 26t32 22.5t11 32q0 15 -9 31t-31 26t-46 10q-36 0 -66 -18t-44 -50l-73 42q24 48 73 77.5t110 29.5q74 0 124 -42t50 -107q0 -32 -13.5 -60.5
t-47.5 -48.5t-92.5 -36t-79.5 -26t-32 -23t-11 -32q0 -26 17 -42.5t40.5 -21.5t42.5 -5q44 0 77.5 23t46.5 59z" />
    <glyph glyph-name="uni0434.aalt" 
d="M481 500h86v-479q0 -42 -14 -83.5t-51 -79t-89 -54.5t-101 -17q-61 0 -112 18t-81 47t-44 57l76 43q41 -84 163 -84q77 0 122 41.5t45 111.5v71q-30 -46 -79 -73t-109 -27q-52 0 -98.5 20t-82 56t-55 84t-19.5 101t19.5 100.5t55 83.5t82 56t98.5 20q61 0 109.5 -26.5
t78.5 -72.5v86zM303 75q75 0 126.5 51.5t51.5 126.5q0 46 -23 88.5t-66 65.5t-89 23t-89 -23t-66 -65.5t-23 -88.5q0 -75 51.5 -126.5t126.5 -51.5z" />
    <glyph glyph-name="uni0436.aalt" horiz-adv-x="698" 
d="M681 0h-102l-187 235v-235h-86v235l-187 -235h-101l209 258l-199 242h101l177 -220v420h86v-420l177 220h102l-200 -242z" />
    <glyph glyph-name="uni0438.aalt" horiz-adv-x="564" 
d="M411 500h87v-500h-87v72q-53 -85 -162 -85q-88 0 -141 55.5t-53 150.5v307h87v-302q0 -60 33.5 -94t90.5 -34q47 0 79 20t49 56t17 89v265z" />
    <glyph glyph-name="uni0439.aalt" horiz-adv-x="564" 
d="M410 651v-76h-270v76h270zM411 500h87v-500h-87v72q-53 -85 -162 -85q-88 0 -141 55.5t-53 150.5v307h87v-302q0 -60 33.5 -94t90.5 -34q47 0 79 20t49 56t17 89v265z" />
    <glyph glyph-name="uni043A.aalt" horiz-adv-x="504" 
d="M489 0h-108l-228 237v-237h-87v700h87v-421l216 221h112l-239 -242z" />
    <glyph glyph-name="uni043B.aalt" horiz-adv-x="518" 
d="M510 0h-94l-157 407l-157 -407h-94l200 500h102z" />
    <glyph glyph-name="uni043F.aalt" horiz-adv-x="564" 
d="M315 513q88 0 141 -55.5t53 -150.5v-307h-87v302q0 60 -33.5 94t-90.5 34q-47 0 -79 -20t-49 -56t-17 -89v-265h-87v500h87v-72q53 85 162 85z" />
    <glyph glyph-name="uni0442.aalt" horiz-adv-x="849" 
d="M606 513q84 0 136 -55t52 -147v-311h-87v308q0 27 -10 56.5t-37 47.5t-63 18q-34 0 -63 -15.5t-44.5 -51.5t-15.5 -85v-278h-87v308q0 27 -9.5 56.5t-35 47.5t-61.5 18q-23 0 -44 -7.5t-38.5 -22t-31.5 -44.5t-14 -78v-278h-87v500h87v-67q26 40 64.5 60t84.5 20
q50 0 87.5 -22.5t59.5 -62.5q25 41 66.5 63t90.5 22z" />
    <glyph glyph-name="uni0446.aalt" horiz-adv-x="601" 
d="M533 83h41v-217h-86v138q-27 7 -46 25t-26 45q-55 -87 -167 -87q-87 0 -140 56t-53 150v307h87v-301q0 -61 33 -95t90 -34q47 0 79 20t49 56t17 89v265h87v-382q0 -16 9.5 -25.5t25.5 -9.5z" />
    <glyph glyph-name="uni0448.aalt" horiz-adv-x="849" 
d="M696 500h87v-500h-87v67q-26 -40 -64.5 -60t-84.5 -20q-50 0 -87.5 22.5t-59.5 62.5q-25 -41 -66.5 -63t-90.5 -22q-84 0 -136 55t-52 147v311h87v-308q0 -27 10 -56.5t37 -47.5t63 -18q34 0 63 15.5t44.5 51.5t15.5 85v278h87v-308q0 -27 9.5 -56.5t35 -47.5t61.5 -18
q23 0 44 7.5t38.5 22t31.5 44.5t14 78v278z" />
    <glyph glyph-name="uni0449.aalt" horiz-adv-x="886" 
d="M818 83h41v-217h-86v138q-25 7 -43.5 24t-27.5 42q-52 -83 -152 -83q-50 0 -88.5 22.5t-60.5 62.5q-25 -41 -66.5 -63t-91.5 -22q-84 0 -135.5 55t-51.5 147v311h87v-307q0 -58 30 -90.5t79 -32.5q34 0 60.5 14t45 47t18.5 91v278h87v-307q0 -58 28.5 -90.5t77.5 -32.5
q23 0 46.5 8.5t41.5 27.5t28.5 48t10.5 68v278h87v-382q0 -16 9.5 -25.5t25.5 -9.5z" />
    <glyph glyph-name="uni044C.aalt" horiz-adv-x="483" 
d="M258 346q94 0 146 -46t52 -128q0 -27 -9.5 -58t-33.5 -59t-63.5 -48t-93.5 -20q-34 0 -69 9.5t-64 32t-48 59t-19 86.5v326h86v-154h116zM256 71q36 0 64.5 18.5t39 41.5t10.5 41q0 43 -30 68t-82 25h-116v-91q0 -31 17.5 -56.5t44.5 -36t52 -10.5z" />
    <glyph glyph-name="uni044A.aalt" horiz-adv-x="568" 
d="M341 346q94 0 146 -46t52 -128q0 -27 -9.5 -58t-33.5 -59t-63.5 -48t-93.5 -20q-34 0 -69 9.5t-64 32t-48 59t-19 86.5v243h-139v83h225v-154h116zM339 71q36 0 64.5 18.5t39 41.5t10.5 41q0 43 -30 68t-82 25h-116v-91q0 -31 17.5 -56.5t44.5 -36t52 -10.5z" />
    <glyph glyph-name="uni044E.aalt" horiz-adv-x="804" 
d="M503 513q53 0 101.5 -20t84.5 -56t56.5 -84.5t20.5 -102.5t-20.5 -102.5t-56.5 -84.5t-84.5 -56t-101.5 -20q-36 0 -76 11t-77 38t-66 70.5t-38 102.5h-93v-209h-87v700h87v-408h93q7 46 29.5 87t57 71t78.5 46.5t92 16.5zM503 72q74 0 125 51.5t51 126.5t-51 126.5
t-125 51.5q-46 0 -88.5 -23t-65.5 -66t-23 -89t23 -89t65.5 -66t88.5 -23z" />
    <glyph glyph-name="zero.sinf" horiz-adv-x="410" 
d="M205 -173q-82 0 -129.5 58t-47.5 155t47.5 155t129.5 58t129.5 -58t47.5 -155t-47.5 -155t-129.5 -58zM205 -97q46 0 72.5 35.5t26.5 101.5t-26.5 101.5t-72.5 35.5t-72.5 -35.5t-26.5 -101.5t26.5 -101.5t72.5 -35.5z" />
    <glyph glyph-name="one.sinf" horiz-adv-x="248" 
d="M125 240h67v-400h-77v319l-88 -26l-19 65z" />
    <glyph glyph-name="two.sinf" horiz-adv-x="344" 
d="M29 -160v57l162 153q14 13 26.5 33.5t12.5 43.5q0 24 -16.5 38.5t-44.5 14.5q-55 0 -79 -58l-64 36q19 44 56 69.5t87 25.5q31 0 63 -12.5t54 -43t22 -68.5q0 -67 -64 -126l-101 -91h172v-72h-286z" />
    <glyph glyph-name="three.sinf" horiz-adv-x="347" 
d="M214 74q47 -10 74.5 -41t27.5 -75q0 -60 -41 -95.5t-108 -35.5q-53 0 -90.5 22.5t-56.5 63.5l65 37q22 -51 82 -51q34 0 53 16t19 43t-20.5 43.5t-52.5 16.5h-9l-34 50l84 100h-172v72h263v-66z" />
    <glyph glyph-name="four.sinf" horiz-adv-x="355" 
d="M336 -18v-71h-47v-71h-76v71h-199v71l142 258h83l-140 -258h114v88h76v-88h47z" />
    <glyph glyph-name="five.sinf" horiz-adv-x="331" 
d="M169 90q28 0 62 -11t57 -43.5t23 -78.5q0 -60 -39 -95t-105 -35q-106 0 -146 87l65 36q23 -52 80 -52q33 0 52 16.5t19 43.5q0 28 -19 45.5t-52 17.5h-124l15 219h237v-71h-172l-5 -79h52z" />
    <glyph glyph-name="six.sinf" horiz-adv-x="337" 
d="M168 108q65 0 107.5 -40t42.5 -100t-42.5 -100.5t-107.5 -40.5t-107 40.5t-42 100.5q0 22 7 43.5t18 37.5l121 191h87l-89 -132h5zM168 -103q34 0 55 20t21 51t-21 50.5t-55 19.5q-33 0 -54 -19.5t-21 -50.5t21 -51t54 -20z" />
    <glyph glyph-name="seven.sinf" horiz-adv-x="296" 
d="M8 240h269v-61l-141 -339h-81l138 328h-185v72z" />
    <glyph glyph-name="eight.sinf" horiz-adv-x="340" 
d="M254 51q29 -16 46 -43t17 -61q0 -40 -22.5 -69t-58 -40t-66.5 -11t-66.5 11t-58 40t-22.5 69q0 34 17 61t46 43q-23 14 -36.5 36.5t-13.5 49.5q0 26 13 53t46.5 45t74.5 18q26 0 56.5 -10t54 -37.5t23.5 -68.5q0 -20 -10.5 -44t-39.5 -42zM170 184q-29 0 -45.5 -13.5
t-16.5 -36.5q0 -24 16.5 -38.5t45.5 -14.5t45.5 14.5t16.5 38.5q0 23 -16.5 36.5t-45.5 13.5zM170 -102q33 0 52.5 16.5t19.5 42.5q0 27 -20 43t-52 16q-34 0 -53 -16t-19 -43q0 -26 19.5 -42.5t52.5 -16.5z" />
    <glyph glyph-name="nine.sinf" horiz-adv-x="337" 
d="M318 112q0 -22 -7 -43.5t-18 -37.5l-121 -191h-87l89 132h-5q-65 0 -107.5 40t-42.5 100t42.5 100.5t107.5 40.5t107 -40.5t42 -100.5zM93 112q0 -31 21 -50.5t55 -19.5q33 0 54 19.5t21 50.5t-21 51t-54 20q-34 0 -55 -20t-21 -51z" />
    <glyph glyph-name="zero.tnum" horiz-adv-x="573" 
d="M286 -13q-63 0 -114 26t-85.5 74.5t-52.5 115.5t-18 147t18 147t52.5 115.5t85.5 74.5t114 26t114 -26t85.5 -74.5t52.5 -115.5t18 -147t-18 -147t-52.5 -115.5t-85.5 -74.5t-114 -26zM286 78q85 0 131.5 71t46.5 201t-46.5 201.5t-131.5 71.5q-84 0 -130.5 -71.5
t-46.5 -201.5t46.5 -201t130.5 -71z" />
    <glyph glyph-name="one.tnum" horiz-adv-x="573" 
d="M346 88h200v-88h-510v88h218v512l-149 -44l-23 80l184 64h80v-612z" />
    <glyph glyph-name="two.tnum" horiz-adv-x="573" 
d="M41 0v76l254 223q81 70 106 112.5t25 77.5q0 61 -38.5 97.5t-104.5 36.5q-52 0 -93.5 -29t-64.5 -80l-78 45q12 27 32.5 54t53 51.5t74 36.5t77.5 12q62 0 118.5 -27t86.5 -80.5t30 -114.5q0 -67 -42 -128t-119 -125l-178 -148h353v-90h-492z" />
    <glyph glyph-name="three.tnum" horiz-adv-x="573" 
d="M341 415q64 -10 107.5 -39.5t65.5 -71t22 -95.5q0 -38 -13 -77.5t-44.5 -71.5t-81.5 -52.5t-117 -20.5q-91 0 -159.5 42.5t-95.5 117.5l78 46q16 -53 63 -84t112 -31q77 0 121.5 34t44.5 97q0 62 -44.5 96.5t-121.5 34.5h-22l-39 57l175 216h-344v87h458v-82z" />
    <glyph glyph-name="four.tnum" horiz-adv-x="573" 
d="M554 220v-87h-85v-133h-93v133h-360v87l251 480h100l-251 -480h260v183h93v-183h85z" />
    <glyph glyph-name="five.tnum" horiz-adv-x="573" 
d="M289 427q51 0 96 -14.5t79 -42.5t53 -70t19 -93q0 -38 -13 -77t-44 -70.5t-79.5 -52t-111.5 -20.5q-91 0 -160 42.5t-96 117.5l79 46q15 -53 62 -84t113 -31q72 0 115 34t43 95q0 62 -43 96t-115 34h-215l26 363h412v-87h-327l-13 -186h120z" />
    <glyph glyph-name="six.tnum" horiz-adv-x="573" 
d="M279 460q58 0 106.5 -17t82.5 -48.5t52.5 -75.5t18.5 -95q0 -38 -12 -78.5t-46.5 -80t-89 -59t-112.5 -19.5q-43 0 -88.5 11.5t-88 43.5t-63 81.5t-20.5 100.5q0 88 49 149l234 327h109l-174 -242zM279 76q78 0 122.5 40t44.5 108t-44.5 108t-122.5 40q-79 0 -123.5 -40
t-44.5 -108t44.5 -108t123.5 -40z" />
    <glyph glyph-name="seven.tnum" horiz-adv-x="573" 
d="M35 700h500v-83l-278 -617h-97l275 612h-400v88z" />
    <glyph glyph-name="eight.tnum" horiz-adv-x="573" 
d="M431 362q52 -25 82 -70.5t30 -99.5q0 -96 -70 -150.5t-187 -54.5q-57 0 -104.5 14t-81.5 40.5t-52 65t-18 85.5q0 54 30 99.5t82 70.5q-41 25 -64.5 64.5t-23.5 88.5q0 35 12 70.5t40.5 63.5t74 46t105.5 18q48 0 90.5 -12.5t74.5 -38t50 -63t18 -84.5q0 -49 -23.5 -88.5
t-64.5 -64.5zM286 624q-62 0 -101 -27.5t-39 -83.5q0 -52 38.5 -82t101.5 -30q64 0 102.5 30t38.5 82q0 56 -39 83.5t-102 27.5zM286 76q79 0 122 32t43 90t-43 89.5t-122 31.5t-121.5 -31.5t-42.5 -89.5t42.5 -90t121.5 -32z" />
    <glyph glyph-name="nine.tnum" horiz-adv-x="573" 
d="M554 476q0 -84 -47 -145l-237 -331h-108l173 242l-41 -2q-58 0 -106.5 17t-82.5 48.5t-52.5 75.5t-18.5 95q0 52 18.5 96t52.5 75.5t82.5 48.5t106.5 17t106.5 -17t82.5 -48.5t52.5 -75.5t18.5 -96zM126 476q0 -68 44.5 -107.5t123.5 -39.5t123 39.5t44 107.5
q0 69 -44 108.5t-123 39.5t-123.5 -40t-44.5 -108z" />
    <glyph glyph-name="zero.dnom" horiz-adv-x="410" 
d="M205 -13q-82 0 -129.5 58t-47.5 155t47.5 155t129.5 58t129.5 -58t47.5 -155t-47.5 -155t-129.5 -58zM205 63q46 0 72.5 35.5t26.5 101.5t-26.5 101.5t-72.5 35.5t-72.5 -35.5t-26.5 -101.5t26.5 -101.5t72.5 -35.5z" />
    <glyph glyph-name="one.dnom" horiz-adv-x="254" 
d="M125 400h67v-400h-77v319l-88 -26l-19 65z" />
    <glyph glyph-name="two.dnom" horiz-adv-x="345" 
d="M29 0v57l162 153q14 13 26.5 33.5t12.5 43.5q0 24 -16.5 38.5t-44.5 14.5q-55 0 -79 -58l-64 36q19 44 56 69.5t87 25.5q31 0 63 -12.5t54 -43t22 -68.5q0 -67 -64 -126l-101 -91h172v-72h-286z" />
    <glyph glyph-name="three.dnom" horiz-adv-x="351" 
d="M214 234q47 -10 74.5 -41t27.5 -75q0 -60 -41 -95.5t-108 -35.5q-53 0 -90.5 22.5t-56.5 63.5l65 37q22 -51 82 -51q34 0 53 16t19 43t-20.5 43.5t-52.5 16.5h-9l-34 50l84 100h-172v72h263v-66z" />
    <glyph glyph-name="four.dnom" horiz-adv-x="355" 
d="M336 142v-71h-47v-71h-76v71h-199v71l142 258h83l-140 -258h114v88h76v-88h47z" />
    <glyph glyph-name="five.dnom" horiz-adv-x="339" 
d="M165 250q28 0 62 -11t57 -43.5t23 -78.5q0 -60 -39 -95t-105 -35q-106 0 -146 87l65 36q23 -52 80 -52q33 0 52 16.5t19 43.5q0 28 -19 45.5t-52 17.5h-124l15 219h237v-71h-172l-5 -79h52z" />
    <glyph glyph-name="six.dnom" horiz-adv-x="337" 
d="M168 268q65 0 107.5 -40t42.5 -100t-42.5 -100.5t-107.5 -40.5t-107 40.5t-42 100.5q0 22 7 43.5t18 37.5l121 191h87l-89 -132h5zM168 57q34 0 55 20t21 51t-21 50.5t-55 19.5q-33 0 -54 -19.5t-21 -50.5t21 -51t54 -20z" />
    <glyph glyph-name="seven.dnom" horiz-adv-x="296" 
d="M8 400h269v-61l-141 -339h-81l138 328h-185v72z" />
    <glyph glyph-name="eight.dnom" horiz-adv-x="340" 
d="M254 211q29 -16 46 -43t17 -61q0 -40 -22.5 -69t-58 -40t-66.5 -11t-66.5 11t-58 40t-22.5 69q0 34 17 61t46 43q-23 14 -36.5 36.5t-13.5 49.5q0 26 13 53t46.5 45t74.5 18q26 0 56.5 -10t54 -37.5t23.5 -68.5q0 -20 -10.5 -44t-39.5 -42zM170 344q-29 0 -45.5 -13.5
t-16.5 -36.5q0 -24 16.5 -38.5t45.5 -14.5t45.5 14.5t16.5 38.5q0 23 -16.5 36.5t-45.5 13.5zM170 58q33 0 52.5 16.5t19.5 42.5q0 27 -20 43t-52 16q-34 0 -53 -16t-19 -43q0 -26 19.5 -42.5t52.5 -16.5z" />
    <glyph glyph-name="nine.dnom" horiz-adv-x="337" 
d="M318 272q0 -22 -7 -43.5t-18 -37.5l-121 -191h-87l89 132h-5q-65 0 -107.5 40t-42.5 100t42.5 100.5t107.5 40.5t107 -40.5t42 -100.5zM93 272q0 -31 21 -50.5t55 -19.5q33 0 54 19.5t21 50.5t-21 51t-54 20q-34 0 -55 -20t-21 -51z" />
    <glyph glyph-name="zero.numr" horiz-adv-x="410" 
d="M205 287q-82 0 -129.5 58t-47.5 155t47.5 155t129.5 58t129.5 -58t47.5 -155t-47.5 -155t-129.5 -58zM205 363q46 0 72.5 35.5t26.5 101.5t-26.5 101.5t-72.5 35.5t-72.5 -35.5t-26.5 -101.5t26.5 -101.5t72.5 -35.5z" />
    <glyph glyph-name="one.numr" horiz-adv-x="254" 
d="M125 700h67v-400h-77v319l-88 -26l-19 65z" />
    <glyph glyph-name="two.numr" horiz-adv-x="345" 
d="M29 300v57l162 153q14 13 26.5 33.5t12.5 43.5q0 24 -16.5 38.5t-44.5 14.5q-55 0 -79 -58l-64 36q19 44 56 69.5t87 25.5q31 0 63 -12.5t54 -43t22 -68.5q0 -67 -64 -126l-101 -91h172v-72h-286z" />
    <glyph glyph-name="three.numr" horiz-adv-x="351" 
d="M214 534q47 -10 74.5 -41t27.5 -75q0 -60 -41 -95.5t-108 -35.5q-53 0 -90.5 22.5t-56.5 63.5l65 37q22 -51 82 -51q34 0 53 16t19 43t-20.5 43.5t-52.5 16.5h-9l-34 50l84 100h-172v72h263v-66z" />
    <glyph glyph-name="four.numr" horiz-adv-x="355" 
d="M336 442v-71h-47v-71h-76v71h-199v71l142 258h83l-140 -258h114v88h76v-88h47z" />
    <glyph glyph-name="five.numr" horiz-adv-x="339" 
d="M165 550q28 0 62 -11t57 -43.5t23 -78.5q0 -60 -39 -95t-105 -35q-106 0 -146 87l65 36q23 -52 80 -52q33 0 52 16.5t19 43.5q0 28 -19 45.5t-52 17.5h-124l15 219h237v-71h-172l-5 -79h52z" />
    <glyph glyph-name="six.numr" horiz-adv-x="337" 
d="M168 568q65 0 107.5 -40t42.5 -100t-42.5 -100.5t-107.5 -40.5t-107 40.5t-42 100.5q0 22 7 43.5t18 37.5l121 191h87l-89 -132h5zM168 357q34 0 55 20t21 51t-21 50.5t-55 19.5q-33 0 -54 -19.5t-21 -50.5t21 -51t54 -20z" />
    <glyph glyph-name="seven.numr" horiz-adv-x="296" 
d="M8 700h269v-61l-141 -339h-81l138 328h-185v72z" />
    <glyph glyph-name="eight.numr" horiz-adv-x="340" 
d="M254 511q29 -16 46 -43t17 -61q0 -40 -22.5 -69t-58 -40t-66.5 -11t-66.5 11t-58 40t-22.5 69q0 34 17 61t46 43q-23 14 -36.5 36.5t-13.5 49.5q0 26 13 53t46.5 45t74.5 18q26 0 56.5 -10t54 -37.5t23.5 -68.5q0 -20 -10.5 -44t-39.5 -42zM170 644q-29 0 -45.5 -13.5
t-16.5 -36.5q0 -24 16.5 -38.5t45.5 -14.5t45.5 14.5t16.5 38.5q0 23 -16.5 36.5t-45.5 13.5zM170 358q33 0 52.5 16.5t19.5 42.5q0 27 -20 43t-52 16q-34 0 -53 -16t-19 -43q0 -26 19.5 -42.5t52.5 -16.5z" />
    <glyph glyph-name="nine.numr" horiz-adv-x="337" 
d="M318 572q0 -22 -7 -43.5t-18 -37.5l-121 -191h-87l89 132h-5q-65 0 -107.5 40t-42.5 100t42.5 100.5t107.5 40.5t107 -40.5t42 -100.5zM93 572q0 -31 21 -50.5t55 -19.5q33 0 54 19.5t21 50.5t-21 51t-54 20q-34 0 -55 -20t-21 -51z" />
    <glyph glyph-name="zero.superior" horiz-adv-x="410" 
d="M205 447q-82 0 -129.5 58t-47.5 155t47.5 155t129.5 58t129.5 -58t47.5 -155t-47.5 -155t-129.5 -58zM205 523q46 0 72.5 35.5t26.5 101.5t-26.5 101.5t-72.5 35.5t-72.5 -35.5t-26.5 -101.5t26.5 -101.5t72.5 -35.5z" />
    <glyph glyph-name="one.superior" horiz-adv-x="254" 
d="M125 860h67v-400h-77v319l-88 -26l-19 65z" />
    <glyph glyph-name="two.superior" horiz-adv-x="345" 
d="M29 460v57l162 153q14 13 26.5 33.5t12.5 43.5q0 24 -16.5 38.5t-44.5 14.5q-55 0 -79 -58l-64 36q19 44 56 69.5t87 25.5q31 0 63 -12.5t54 -43t22 -68.5q0 -67 -64 -126l-101 -91h172v-72h-286z" />
    <glyph glyph-name="three.superior" horiz-adv-x="351" 
d="M214 694q47 -10 74.5 -41t27.5 -75q0 -60 -41 -95.5t-108 -35.5q-53 0 -90.5 22.5t-56.5 63.5l65 37q22 -51 82 -51q34 0 53 16t19 43t-20.5 43.5t-52.5 16.5h-9l-34 50l84 100h-172v72h263v-66z" />
    <glyph glyph-name="four.superior" horiz-adv-x="355" 
d="M336 602v-71h-47v-71h-76v71h-199v71l142 258h83l-140 -258h114v88h76v-88h47z" />
    <glyph glyph-name="five.superior" horiz-adv-x="339" 
d="M165 710q28 0 62 -11t57 -43.5t23 -78.5q0 -60 -39 -95t-105 -35q-106 0 -146 87l65 36q23 -52 80 -52q33 0 52 16.5t19 43.5q0 28 -19 45.5t-52 17.5h-124l15 219h237v-71h-172l-5 -79h52z" />
    <glyph glyph-name="six.superior" horiz-adv-x="337" 
d="M168 728q65 0 107.5 -40t42.5 -100t-42.5 -100.5t-107.5 -40.5t-107 40.5t-42 100.5q0 22 7 43.5t18 37.5l121 191h87l-89 -132h5zM168 517q34 0 55 20t21 51t-21 50.5t-55 19.5q-33 0 -54 -19.5t-21 -50.5t21 -51t54 -20z" />
    <glyph glyph-name="seven.superior" horiz-adv-x="296" 
d="M8 860h269v-61l-141 -339h-81l138 328h-185v72z" />
    <glyph glyph-name="eight.superior" horiz-adv-x="340" 
d="M254 671q29 -16 46 -43t17 -61q0 -40 -22.5 -69t-58 -40t-66.5 -11t-66.5 11t-58 40t-22.5 69q0 34 17 61t46 43q-23 14 -36.5 36.5t-13.5 49.5q0 26 13 53t46.5 45t74.5 18q26 0 56.5 -10t54 -37.5t23.5 -68.5q0 -20 -10.5 -44t-39.5 -42zM170 804q-29 0 -45.5 -13.5
t-16.5 -36.5q0 -24 16.5 -38.5t45.5 -14.5t45.5 14.5t16.5 38.5q0 23 -16.5 36.5t-45.5 13.5zM170 518q33 0 52.5 16.5t19.5 42.5q0 27 -20 43t-52 16q-34 0 -53 -16t-19 -43q0 -26 19.5 -42.5t52.5 -16.5z" />
    <glyph glyph-name="nine.superior" horiz-adv-x="337" 
d="M318 732q0 -22 -7 -43.5t-18 -37.5l-121 -191h-87l89 132h-5q-65 0 -107.5 40t-42.5 100t42.5 100.5t107.5 40.5t107 -40.5t42 -100.5zM93 732q0 -31 21 -50.5t55 -19.5q33 0 54 19.5t21 50.5t-21 51t-54 20q-34 0 -55 -20t-21 -51z" />
    <glyph glyph-name="cent.aalt" horiz-adv-x="573" 
d="M464 260l74 -43q-15 -27 -45 -58t-78.5 -51.5t-101.5 -20.5q-33 0 -65 8l-31 -95h-53l36 111q-68 31 -109 95.5t-41 143.5q0 54 19.5 102.5t55.5 84.5t84.5 56t103.5 20q27 0 48 -4l29 91h53l-34 -105q41 -15 74 -45t51 -68l-73 -42q-11 23 -32.5 43.5t-45.5 30.5
l-109 -337q17 -4 39 -4q49 0 89.5 24t61.5 63zM137 350q0 -50 24.5 -92t65.5 -64l107 333l-21 1q-17 0 -39.5 -4.5t-45 -16.5t-43.5 -33.5t-34.5 -54t-13.5 -69.5z" />
    <glyph glyph-name="dollar.aalt" horiz-adv-x="573" 
d="M538 186q0 -82 -56.5 -135t-148.5 -62v-89h-62v88q-86 5 -146.5 46.5t-89.5 113.5l80 46q36 -107 156 -117v242q-73 23 -114 47.5t-64.5 62.5t-23.5 93q0 51 23.5 91t69 67t109.5 32v88h62v-89q48 -6 88.5 -27t65 -53t36.5 -62l-78 -45q-31 84 -112 97v-230
q126 -40 165.5 -89t39.5 -116zM161 522q0 -39 26 -64t84 -46v211q-51 -5 -80.5 -32t-29.5 -69zM333 78q40 5 67 23t36 41t9 42q0 42 -27 68t-85 47v-221z" />
    <glyph glyph-name="Euro.aalt" horiz-adv-x="573" 
d="M472 184l76 -43q-25 -73 -79.5 -113.5t-127.5 -40.5q-64 0 -119.5 33t-88.5 99t-43 144h-66v65h60v22l1 31h-61v64h67q18 124 83.5 196t166.5 72q71 0 124.5 -38t78.5 -107l-77 -44q-15 47 -49 73t-77 26q-61 0 -102.5 -46t-55.5 -132h221v-64h-227l-1 -31v-22h228v-65
h-222q13 -89 54.5 -137t104.5 -48q44 0 79.5 28t51.5 78z" />
    <glyph glyph-name="florin.aalt" horiz-adv-x="573" 
d="M545 618q-54 19 -89.5 1.5t-47.5 -65.5l-41 -161h141v-84h-163l-94 -369q-24 -94 -81.5 -129t-141.5 -12v85q55 -18 89.5 -1t46.5 65l92 361h-139v84h161l43 169q9 35 25.5 67t43.5 53.5t65 28.5t90 -7v-86z" />
    <glyph glyph-name="uni20BD.aalt" horiz-adv-x="573" 
d="M326 268h-138v-81h225v-68h-225v-119h-93v119h-85v68h85v81h-85v84h85v348h231q44 0 84.5 -17t70.5 -47t47 -69.5t17 -83.5t-17 -83.5t-47 -69t-70.5 -46t-84.5 -16.5zM188 613v-261h138q52 0 89.5 38.5t37.5 92.5q0 39 -21.5 71.5t-51.5 45.5t-54 13h-138z" />
    <glyph glyph-name="sterling.aalt" horiz-adv-x="573" 
d="M210 90h353v-90h-533v90h87v194h-69v82h69v134q0 39 12 77.5t39.5 68.5t68 48.5t90.5 18.5q70 0 122 -37t78 -101l-78 -44q-33 92 -121 92q-35 0 -62 -16t-38.5 -37t-14.5 -39t-3 -33v-132h224v-82h-224v-194z" />
    <glyph glyph-name="yen.aalt" horiz-adv-x="573" 
d="M567 700l-215 -348h155v-65h-174v-55h174v-66h-174v-166h-93v166h-173v66h173v55h-173v65h155l-216 348h103l178 -292l177 292h103z" />
    <glyph glyph-name="glyph553" horiz-adv-x="320" 
d="M25 575v76h270v-76h-270z" />
    </font>
</defs>
</svg>
