<?xml version="1.0" standalone="no"?>
<!DOCTYPE svg PUBLIC "-//W3C//DTD SVG 1.1//EN" "http://www.w3.org/Graphics/SVG/1.1/DTD/svg11.dtd" >
<svg xmlns="http://www.w3.org/2000/svg" xmlns:xlink="http://www.w3.org/1999/xlink" version="1.1">
<metadata>
Created by FontForge 20170731 at Thu Jun 22 17:50:28 2017
 By Aleksey,,,
Copyright (c) 2016 by Radomir Tinkov. All rights reserved.
</metadata>
<defs>
<font id="GilroyW00-Bold" horiz-adv-x="626" >
  <font-face 
    font-family="GilroyW00-Bold"
    font-weight="700"
    font-stretch="normal"
    units-per-em="1000"
    panose-1="1 0 0 0 0 0 0 0 0 0"
    ascent="800"
    descent="-200"
    x-height="500"
    cap-height="700"
    bbox="-415 -263 1094 975"
    underline-thickness="50"
    underline-position="-175"
    unicode-range="U+0020-FB02"
  />
<missing-glyph horiz-adv-x="500" 
d="M410 800v-1000h-317v1000h317zM333 733h-165v-33h65v-37h-66v-33h166v33h-66v37h66v33zM267 604h-100v-104h166v34h-66v70zM233 570v-36h-33v36h33zM333 473h-166v-33h66v-37h-66v-33h100v70h66v33zM333 413h-33v-66h-133v-34h166v100zM333 291h-100v-56h34v23h33v-47
h-100v80h-33v-113h166v113zM333 118h-166v-113h166v113zM300 85v-47h-100v47h100zM333 -18h-166v-33h70l-70 -47v-33h166v33h-102l70 47h32v33z" />
    <glyph glyph-name="uniFB01" unicode="fi" horiz-adv-x="557" 
d="M498 500v-500h-129v376h-147v-376h-129v376h-72v124h72v5q0 209 235 209q53 0 117 -14v-118q-67 8 -117 8q-53 0 -79.5 -18.5t-26.5 -66.5v-5h276z" />
    <glyph glyph-name="uniFB02" unicode="fl" horiz-adv-x="557" 
d="M328 714q65 0 170 -21v-693h-129v600l-41 1q-106 0 -106 -96v-5h83v-124h-83v-376h-129v376h-72v124h72v5q0 209 235 209z" />
    <glyph glyph-name="f_f.liga" unicode="ff" horiz-adv-x="605" 
d="M605 600q-106 8 -106 -85v-15h106v-124h-106v-376h-129v376h-148v-376h-129v376h-72v124h72v5q0 106 59.5 161t175.5 48v-124q-106 8 -106 -85v-5h148v15q0 105 59.5 160.5t175.5 48.5v-124z" />
    <glyph glyph-name="f_f_i.liga" unicode="ffi" horiz-adv-x="834" 
d="M775 500v-500h-129v376h-147v-376h-129v376h-148v-376h-129v376h-72v124h72v5q0 106 59.5 161t175.5 48v-124q-106 8 -106 -85v-5h148v15q0 209 235 209q54 0 118 -14v-118q-69 8 -118 8q-39 0 -63 -9.5t-33.5 -29.5t-9.5 -46v-15h276z" />
    <glyph glyph-name="f_f_l.liga" unicode="ffl" horiz-adv-x="834" 
d="M605 724q67 0 170 -21v-703h-129v610l-41 1q-50 0 -78 -23.5t-28 -72.5v-15h84v-124h-84v-376h-129v376h-148v-376h-129v376h-72v124h72v5q0 106 59.5 161t175.5 48v-124q-106 8 -106 -85v-5h148v15q0 209 235 209z" />
    <glyph glyph-name=".notdef" horiz-adv-x="500" 
d="M410 800v-1000h-317v1000h317zM333 733h-165v-33h65v-37h-66v-33h166v33h-66v37h66v33zM267 604h-100v-104h166v34h-66v70zM233 570v-36h-33v36h33zM333 473h-166v-33h66v-37h-66v-33h100v70h66v33zM333 413h-33v-66h-133v-34h166v100zM333 291h-100v-56h34v23h33v-47
h-100v80h-33v-113h166v113zM333 118h-166v-113h166v113zM300 85v-47h-100v47h100zM333 -18h-166v-33h70l-70 -47v-33h166v33h-102l70 47h32v33z" />
    <glyph glyph-name=".null" horiz-adv-x="0" 
 />
    <glyph glyph-name="nonmarkingreturn" horiz-adv-x="333" 
 />
    <glyph glyph-name="space" unicode=" " horiz-adv-x="250" 
 />
    <glyph glyph-name="exclam" unicode="!" horiz-adv-x="268" 
d="M83 235l-27 265v200h155v-200l-26 -265h-102zM134 -13q-16 0 -36 8.5t-34.5 30t-14.5 46.5q0 16 8.5 36t30 34.5t46.5 14.5q16 0 36 -8.5t34.5 -30t14.5 -46.5q0 -16 -8.5 -36t-30 -34.5t-46.5 -14.5z" />
    <glyph glyph-name="quotedbl" unicode="&#x22;" horiz-adv-x="378" 
d="M60 470l-17 230h122l-17 -230h-88zM230 470l-17 230h122l-17 -230h-88z" />
    <glyph glyph-name="numbersign" unicode="#" horiz-adv-x="616" 
d="M577 395h-108l-15 -90h109l-16 -97h-110l-26 -158h-102l26 158h-102l-26 -158h-101l26 158h-109l16 97h110l15 90h-111l16 98h111l26 157h101l-26 -157h102l26 157h102l-26 -157h108zM352 305l15 90h-102l-15 -90h102z" />
    <glyph glyph-name="dollar" unicode="$" horiz-adv-x="549" 
d="M524 196q0 -33 -10 -67t-34.5 -63t-63.5 -50t-94 -28v-88h-67v87q-39 3 -86 18.5t-86 51.5t-58 88l119 69q32 -80 111 -91v173l-3 1q-118 45 -157 95.5t-39 118.5q0 55 24 97.5t69 70.5t106 34v87h67v-89q46 -6 87 -27.5t66.5 -53t38.5 -60.5l-116 -68q-24 60 -76 73
v-167q88 -35 116.5 -54t46.5 -40.5t28.5 -51t10.5 -66.5zM193 510q0 -22 14 -38.5t48 -33.5v140q-29 -6 -45.5 -24.5t-16.5 -43.5zM322 125q32 7 48 26.5t16 43.5q0 19 -12 37t-52 37v-144z" />
    <glyph glyph-name="percent" unicode="%" horiz-adv-x="765" 
d="M214 384q-72 0 -120.5 48t-48.5 117q0 25 8.5 52.5t29 52.5t54 42.5t77.5 17.5q71 0 119.5 -47.5t48.5 -117.5q0 -69 -48 -117t-120 -48zM116 106l456 507l61 -34l-457 -508zM213 485q27 0 45 19t18 45t-18 44.5t-45 18.5q-26 0 -44 -18.5t-18 -44.5q0 -27 18 -45.5
t44 -18.5zM552 -12q-26 0 -54.5 8.5t-53.5 29t-42.5 53t-17.5 74.5q0 25 8.5 52.5t29 52.5t53.5 42.5t77 17.5q26 0 54.5 -8.5t53.5 -29t42.5 -53t17.5 -74.5q0 -25 -8.5 -52.5t-29 -52.5t-53.5 -42.5t-77 -17.5zM552 89q27 0 44.5 19t17.5 45q0 27 -17.5 45.5t-44.5 18.5
t-44.5 -18.5t-17.5 -45.5t17.5 -45.5t44.5 -18.5z" />
    <glyph glyph-name="ampersand" unicode="&#x26;" horiz-adv-x="673" 
d="M652 40l-110 -63l-64 69q-81 -60 -188 -60q-39 0 -80.5 9.5t-82.5 37t-61.5 71t-20.5 90.5q0 61 30.5 114.5t86.5 86.5q-34 54 -34 117q0 32 11 66.5t37.5 64.5t69.5 50.5t101 20.5q35 0 79 -12.5t83 -48t61 -89.5l-118 -68q-14 39 -40.5 61.5t-62.5 22.5q-35 0 -59 -21
t-24 -53q0 -22 10.5 -44t46.5 -62l150 -164q22 47 34 116l116 -66q-9 -36 -25 -76t-36 -71zM299 113q52 0 93 25l-151 164l-2 3q-28 -17 -41.5 -43t-13.5 -54q0 -43 30 -69t85 -26z" />
    <glyph glyph-name="quotesingle" unicode="'" horiz-adv-x="208" 
d="M60 470l-17 230h122l-17 -230h-88z" />
    <glyph glyph-name="parenleft" unicode="(" horiz-adv-x="307" 
d="M163 -100q-110 220 -110 450t110 450h129q-110 -220 -110 -450t110 -450h-129z" />
    <glyph glyph-name="parenright" unicode=")" horiz-adv-x="307" 
d="M144 -100h-129q110 220 110 450t-110 450h129q110 -220 110 -450t-110 -450z" />
    <glyph glyph-name="asterisk" unicode="*" horiz-adv-x="398" 
d="M346 609v-80l-91 7l55 -70l-68 -42l-43 84l-43 -84l-67 42l54 70l-90 -7v80l90 -8l-54 71l67 42l43 -84l43 84l68 -42l-55 -71z" />
    <glyph glyph-name="plus" unicode="+" horiz-adv-x="555" 
d="M503 411v-121h-165v-165h-121v165h-164v121h164v164h121v-164h165z" />
    <glyph glyph-name="comma" unicode="," horiz-adv-x="278" 
d="M229 138l-75 -278h-105l40 278h140z" />
    <glyph glyph-name="hyphen" unicode="-" horiz-adv-x="505" 
d="M65 240v124h375v-124h-375z" />
    <glyph glyph-name="period" unicode="." horiz-adv-x="268" 
d="M134 -13q-16 0 -36 8.5t-34.5 30t-14.5 46.5q0 16 8.5 36t30 34.5t46.5 14.5q16 0 36 -8.5t34.5 -30t14.5 -46.5q0 -16 -8.5 -36t-30 -34.5t-46.5 -14.5z" />
    <glyph glyph-name="slash" unicode="/" horiz-adv-x="523" 
d="M90 -100h-57l400 900h57z" />
    <glyph glyph-name="zero" unicode="0" horiz-adv-x="630" 
d="M315 -14q-65 0 -117.5 26.5t-88.5 74.5t-55 115.5t-19 147.5t19 147.5t55 115.5t88.5 74.5t117.5 26.5t118 -26.5t89 -74.5t54.5 -115.5t18.5 -147.5t-18.5 -147.5t-54.5 -115.5t-89 -74.5t-118 -26.5zM315 121q70 0 106.5 59t36.5 170t-36.5 170.5t-106.5 59.5
t-106 -59.5t-36 -170.5t36 -170t106 -59z" />
    <glyph glyph-name="one" unicode="1" horiz-adv-x="387" 
d="M195 700h120v-700h-138v554l-132 -37l-34 118z" />
    <glyph glyph-name="two" unicode="2" horiz-adv-x="531" 
d="M27 0v103l239 246q38 39 59 73.5t21 66.5q0 41 -25.5 66t-65.5 25q-39 0 -69.5 -22t-47.5 -60l-116 68q16 36 46.5 70.5t81 56t103.5 21.5q45 0 87 -15t74.5 -43.5t51 -70t18.5 -91.5q0 -109 -115 -224l-137 -137h263v-133h-468z" />
    <glyph glyph-name="three" unicode="3" horiz-adv-x="545" 
d="M353 416q32 -10 70.5 -33.5t64 -67t25.5 -99.5q0 -40 -13.5 -81t-45 -74t-80.5 -54t-111 -21q-37 0 -85 12t-90.5 47t-64.5 89l118 68q13 -39 43.5 -60t78.5 -21q52 0 82 26t30 69q0 42 -30 68.5t-82 26.5h-30l-53 80l138 180h-274v129h440v-114z" />
    <glyph glyph-name="four" unicode="4" horiz-adv-x="580" 
d="M566 247v-128h-75v-119h-139v119h-331v128l233 453h148l-232 -453h182v166h139v-166h75z" />
    <glyph glyph-name="five" unicode="5" horiz-adv-x="548" 
d="M280 445q48 0 91.5 -15t76.5 -44t52 -72.5t19 -97.5q0 -40 -13.5 -81t-45 -74t-80.5 -54t-111 -21q-51 0 -97 14.5t-85.5 47.5t-61.5 88l118 69q26 -84 126 -84q52 0 82 26t30 69q0 42 -29.5 68.5t-78.5 26.5h-212l28 389h397v-129h-269l-9 -126h72z" />
    <glyph glyph-name="six" unicode="6" horiz-adv-x="553" 
d="M285 473q53 -1 98.5 -19.5t78 -51t50.5 -77t18 -95.5q0 -52 -18.5 -97.5t-52.5 -78t-81 -50.5t-102 -18t-102 18t-80.5 50.5t-52 78t-18.5 97.5q0 80 41 141l218 329h158zM276 116q36 0 65 17.5t40.5 45t11.5 51.5q0 50 -34 81.5t-83 31.5q-50 0 -83 -30.5t-33 -82.5
q0 -38 19.5 -66t46.5 -38t50 -10z" />
    <glyph glyph-name="seven" unicode="7" horiz-adv-x="490" 
d="M13 700h452v-117l-237 -583h-146l230 568h-299v132z" />
    <glyph glyph-name="eight" unicode="8" horiz-adv-x="568" 
d="M438 364q46 -28 71.5 -72t25.5 -97q0 -96 -67.5 -152.5t-183.5 -56.5t-183.5 56t-67.5 153q0 52 25.5 97t70.5 72q-34 25 -53.5 62t-19.5 83q0 36 12 72.5t40.5 66t73 48t102.5 18.5t102.5 -18.5t72.5 -48t40 -66t12 -72.5q0 -47 -19.5 -84t-53.5 -61zM284 584
q-39 0 -64.5 -22t-25.5 -60q0 -37 25.5 -60t64.5 -23t64.5 23t25.5 60q0 38 -25.5 60t-64.5 22zM284 116q51 0 82.5 25.5t31.5 71.5q0 21 -10.5 44t-38.5 37.5t-65 14.5t-65 -14.5t-38.5 -37.5t-10.5 -44q0 -46 31.5 -71.5t82.5 -25.5z" />
    <glyph glyph-name="nine" unicode="9" horiz-adv-x="553" 
d="M530 471q0 -81 -42 -142h1l-218 -329h-158l156 228q-53 1 -98.5 19.5t-78.5 50.5t-51 77t-18 96q0 25 6 56.5t23 63t46.5 59.5t76.5 46t101 18q55 0 102 -17.5t81 -50.5t52.5 -78t18.5 -97zM160 471q0 -24 11.5 -51.5t40.5 -45t64 -17.5q23 0 50.5 10t47 38t19.5 66
t-19.5 65.5t-47 37.5t-50.5 10q-22 0 -49.5 -10t-47 -38t-19.5 -65z" />
    <glyph glyph-name="colon" unicode=":" horiz-adv-x="268" 
d="M134 345q-16 0 -36 8.5t-34.5 30t-14.5 46.5q0 16 8.5 36t30 34.5t46.5 14.5q16 0 36 -8.5t34.5 -30t14.5 -46.5q0 -16 -8.5 -36t-30 -34.5t-46.5 -14.5zM134 -13q-16 0 -36 8.5t-34.5 30t-14.5 46.5q0 16 8.5 36t30 34.5t46.5 14.5q16 0 36 -8.5t34.5 -30t14.5 -46.5
q0 -16 -8.5 -36t-30 -34.5t-46.5 -14.5z" />
    <glyph glyph-name="semicolon" unicode=";" horiz-adv-x="279" 
d="M145 345q-16 0 -36 8.5t-34.5 30t-14.5 46.5q0 16 8.5 36t30 34.5t46.5 14.5q16 0 36 -8.5t34.5 -30t14.5 -46.5q0 -16 -8.5 -36t-30 -34.5t-46.5 -14.5zM229 138l-75 -278h-105l40 278h140z" />
    <glyph glyph-name="less" unicode="&#x3c;" horiz-adv-x="528" 
d="M483 598v-134l-291 -114l291 -113v-134l-438 190v115z" />
    <glyph glyph-name="equal" unicode="=" horiz-adv-x="525" 
d="M45 393v121h435v-121h-435zM45 186v121h435v-121h-435z" />
    <glyph glyph-name="greater" unicode="&#x3e;" horiz-adv-x="528" 
d="M45 598l438 -190v-115l-438 -190v134l291 113l-291 114v134z" />
    <glyph glyph-name="question" unicode="?" horiz-adv-x="553" 
d="M195 235q0 34 16.5 67.5t67 80.5t61.5 62.5t17 30t6 31.5q0 34 -24 53.5t-67 19.5q-42 0 -72.5 -24t-46.5 -65l-118 68q15 37 40 66t57.5 49.5t70.5 30t74 9.5q42 0 82.5 -13t72.5 -38t50.5 -62.5t18.5 -83.5q0 -38 -14.5 -70.5t-33.5 -55t-69.5 -71t-50.5 -85.5h-138z
M264 -13q-16 0 -36 8.5t-34.5 30t-14.5 46.5q0 16 8.5 36t30 34.5t46.5 14.5q16 0 36 -8.5t34.5 -30t14.5 -46.5q0 -16 -8.5 -36t-30 -34.5t-46.5 -14.5z" />
    <glyph glyph-name="at" unicode="@" horiz-adv-x="779" 
d="M397 612q79 0 145.5 -29.5t111.5 -78.5t69 -110.5t24 -123.5q0 -52 -12 -93.5t-34 -68.5t-51 -41t-62 -14q-49 0 -83.5 21t-48.5 58q-38 -46 -99 -46q-39 0 -74.5 21t-54 60.5t-18.5 82.5t18.5 82.5t54 60.5t74.5 21q25 0 50 -10.5t41 -26.5v26h107v-231q0 -34 14 -53.5
t44 -19.5q43 0 69.5 43t26.5 128q0 63 -24 120t-66.5 99t-100 65.5t-121.5 23.5q-67 0 -127 -25t-105 -69.5t-70 -105.5t-25 -128q0 -69 25.5 -129.5t72.5 -105t111 -69t136 -24.5q94 0 162 25v-36q-67 -23 -162 -23q-38 0 -86.5 9t-98 33t-94.5 67t-74 110t-29 143
q0 73 27.5 139.5t77 116.5t117 78t142.5 28zM384 182q27 0 45 19t18 49t-18 49t-45 19q-28 0 -46.5 -19t-18.5 -49q0 -29 18.5 -48.5t46.5 -19.5z" />
    <glyph glyph-name="A" unicode="A" horiz-adv-x="668" 
d="M515 0l-42 126h-279l-42 -126h-149l245 700h171l246 -700h-150zM238 255h192l-96 286z" />
    <glyph glyph-name="B" unicode="B" horiz-adv-x="605" 
d="M488 363q43 -24 67.5 -65.5t24.5 -94.5q0 -54 -28.5 -103t-81 -74.5t-108.5 -25.5h-297v700h276q43 0 82 -14.5t68.5 -40.5t46 -63t16.5 -79q0 -43 -17.5 -79t-48.5 -61zM341 571h-138v-154h138q32 0 53.5 22t21.5 55t-21.5 55t-53.5 22zM362 129q35 0 58 24t23 59
t-23 58.5t-58 23.5h-159v-165h159z" />
    <glyph glyph-name="C" unicode="C" horiz-adv-x="726" 
d="M397 -14q-77 0 -144.5 28t-116.5 77.5t-76 117t-27 141.5q0 75 27 142t76 117t116.5 77.5t144.5 27.5q59 0 113.5 -18t104 -54.5t83.5 -92.5l-119 -69q-12 22 -36 45.5t-63.5 39t-82.5 15.5q-50 0 -92.5 -17t-72.5 -47.5t-46 -73.5t-16 -92t16 -91.5t46 -73t72.5 -47.5
t92.5 -17q43 0 83 15.5t63.5 39t35.5 44.5l119 -69q-45 -76 -125.5 -120.5t-175.5 -44.5z" />
    <glyph glyph-name="D" unicode="D" horiz-adv-x="713" 
d="M343 700q70 0 132.5 -26.5t108 -74.5t71 -112.5t25.5 -136.5t-25.5 -136.5t-71 -112.5t-108 -74.5t-132.5 -26.5h-278v700h278zM343 132q90 0 147.5 61t57.5 157t-57.5 157t-147.5 61h-140v-436h140z" />
    <glyph glyph-name="E" unicode="E" horiz-adv-x="530" 
d="M203 132h295v-132h-433v700h428v-132h-290v-149h265v-130h-265v-157z" />
    <glyph glyph-name="F" unicode="F" horiz-adv-x="519" 
d="M483 568h-280v-166h272v-132h-272v-270h-138v700h418v-132z" />
    <glyph glyph-name="G" unicode="G" horiz-adv-x="785" 
d="M752 376v-54q0 -73 -25.5 -136t-71.5 -107.5t-109.5 -68.5t-137.5 -24q-79 0 -148.5 28t-120.5 78.5t-78.5 117t-27.5 139.5q0 74 28 141t78 117.5t117.5 78.5t143.5 28q97 0 178.5 -44.5t126.5 -118.5l-118 -68q-24 42 -75.5 69.5t-112.5 27.5q-23 0 -52.5 -5.5t-59 -21
t-56.5 -43t-44 -70.5t-17 -91t17 -90t48.5 -73t76 -48t97.5 -17q60 0 105 20.5t68 52.5t31 60h-212v122h351z" />
    <glyph glyph-name="H" unicode="H" horiz-adv-x="665" 
d="M463 700h137v-700h-137v290h-260v-290h-138v700h138v-278h260v278z" />
    <glyph glyph-name="I" unicode="I" horiz-adv-x="268" 
d="M65 700h138v-700h-138v700z" />
    <glyph glyph-name="J" unicode="J" horiz-adv-x="569" 
d="M264 -14q-79 0 -139 34.5t-92 98.5l119 68q17 -33 43.5 -49.5t68.5 -16.5q54 0 81.5 26.5t27.5 70.5v482h137v-482q0 -54 -18.5 -98t-52 -74t-79 -45t-96.5 -15z" />
    <glyph glyph-name="K" unicode="K" horiz-adv-x="615" 
d="M612 0h-159l-250 328v-328h-138v700h138v-309l240 309h159l-259 -340z" />
    <glyph glyph-name="L" unicode="L" horiz-adv-x="483" 
d="M203 132h267v-132h-405v700h138v-568z" />
    <glyph glyph-name="M" unicode="M" horiz-adv-x="815" 
d="M750 700v-700h-137v454l-197 -325h-16l-197 324v-453h-138v700h142l201 -331l200 331h142z" />
    <glyph glyph-name="N" unicode="N" horiz-adv-x="673" 
d="M470 700h138v-700h-105l-300 428v-428h-138v700h105l300 -427v427z" />
    <glyph glyph-name="O" unicode="O" horiz-adv-x="792" 
d="M396 -14q-73 0 -140 28t-117 78t-78 117t-28 141t28 141.5t78 117t117 77.5t140 28t140 -28t117.5 -77.5t78.5 -117t28 -141.5t-28 -141t-78.5 -117t-117.5 -78t-140 -28zM396 121q34 0 72.5 11.5t76.5 42.5t57.5 78.5t19.5 96.5q0 23 -5.5 53t-21 59.5t-42.5 56.5
t-69 44t-88 17q-34 0 -72.5 -11.5t-76.5 -42.5t-57.5 -79t-19.5 -97q0 -36 11.5 -75t43 -77.5t78.5 -57.5t93 -19z" />
    <glyph glyph-name="P" unicode="P" horiz-adv-x="590" 
d="M326 700q49 0 93 -18t77 -50.5t51 -75.5t18 -91q0 -35 -12 -74.5t-45.5 -79.5t-83 -60.5t-98.5 -20.5h-123v-230h-138v700h261zM326 359q20 0 44 10t41 36.5t17 59.5q0 46 -29 76t-73 30h-123v-212h123z" />
    <glyph glyph-name="Q" unicode="Q" horiz-adv-x="797" 
d="M760 350q0 -66 -22.5 -127.5t-63.5 -108.5l72 -75l-98 -87l-76 79q-81 -45 -176 -45q-73 0 -140 28t-117 78t-78 117t-28 141t28 141.5t78 117t117 77.5t140 28t140 -28t117 -77.5t78.5 -117t28.5 -141.5zM396 121q39 0 78 13l-115 120l98 87l123 -128q42 60 42 137
q0 61 -29.5 116.5t-84 84.5t-112.5 29t-112.5 -29t-84 -84.5t-29.5 -116.5q0 -49 17.5 -91.5t48.5 -73t72.5 -47.5t87.5 -17z" />
    <glyph glyph-name="R" unicode="R" horiz-adv-x="614" 
d="M449 0l-141 243h-105v-243h-138v700h280q35 0 74 -12t78.5 -45t60 -81t20.5 -94q0 -65 -37.5 -120.5t-97.5 -83.5l155 -264h-149zM203 571v-207h142q18 0 40 10t38.5 36.5t16.5 57.5q0 20 -9.5 44t-33.5 41.5t-52 17.5h-142z" />
    <glyph glyph-name="S" unicode="S" horiz-adv-x="583" 
d="M304 -14q-104 0 -175 46.5t-100 126.5l118 69q19 -50 59 -78.5t102 -28.5q57 0 84.5 21t27.5 53q0 28 -24 50t-127 52q-72 21 -116 46t-69.5 65t-25.5 98q0 35 12.5 71.5t45.5 70.5t80 50t92 16q85 0 149.5 -41.5t100.5 -115.5l-116 -67q-42 90 -134 90q-42 0 -67 -20
t-25 -50q0 -32 26.5 -53t106.5 -45q98 -31 142.5 -58t65.5 -67t21 -90q0 -48 -18.5 -87.5t-52.5 -67t-81 -42t-102 -14.5z" />
    <glyph glyph-name="T" unicode="T" horiz-adv-x="540" 
d="M528 700v-132h-189v-568h-138v568h-188v132h515z" />
    <glyph glyph-name="U" unicode="U" horiz-adv-x="653" 
d="M326 -14q-56 0 -105.5 17t-85.5 48.5t-56 77t-20 100.5v471h137v-460q0 -54 31.5 -86.5t98.5 -32.5t98.5 32.5t31.5 86.5v460h138v-471q0 -55 -20 -100.5t-56 -77t-85.5 -48.5t-106.5 -17z" />
    <glyph glyph-name="V" unicode="V" horiz-adv-x="647" 
d="M238 0l-235 700h150l171 -538l170 538h151l-236 -700h-171z" />
    <glyph glyph-name="W" unicode="W" horiz-adv-x="999" 
d="M211 0l-196 700h145l134 -519l146 519h118l147 -519l134 519h145l-196 -700h-157l-132 462l-131 -462h-157z" />
    <glyph glyph-name="X" unicode="X" horiz-adv-x="610" 
d="M598 0h-157l-136 228l-136 -228h-156l214 359l-203 341h156l125 -210l125 210h156l-203 -340z" />
    <glyph glyph-name="Y" unicode="Y" horiz-adv-x="621" 
d="M619 700l-240 -427v-273h-137v273l-239 427h156l152 -292l152 292h156z" />
    <glyph glyph-name="Z" unicode="Z" horiz-adv-x="535" 
d="M212 132h297v-132h-473v110l291 458h-284v132h460v-109z" />
    <glyph glyph-name="bracketleft" unicode="[" horiz-adv-x="310" 
d="M290 676h-108v-652h108v-124h-237v900h237v-124z" />
    <glyph glyph-name="backslash" unicode="\" horiz-adv-x="523" 
d="M433 -100l-400 900h57l400 -900h-57z" />
    <glyph glyph-name="bracketright" unicode="]" horiz-adv-x="310" 
d="M257 800v-900h-237v124h108v652h-108v124h237z" />
    <glyph glyph-name="asciicircum" unicode="^" horiz-adv-x="560" 
d="M329 700l191 -330h-139l-101 182l-101 -182h-139l191 330h98z" />
    <glyph glyph-name="underscore" unicode="_" horiz-adv-x="520" 
d="M33 -171v124h455v-124h-455z" />
    <glyph glyph-name="grave" unicode="`" horiz-adv-x="275" 
d="M255 563l-80 137h-155l111 -137h124z" />
    <glyph glyph-name="a" unicode="a" 
d="M439 500h129v-500h-129v59q-27 -34 -69 -53.5t-94 -19.5q-48 0 -93 20t-78.5 56.5t-52.5 85t-19 102.5t19 102.5t52.5 85t78.5 56.5t93 20q52 0 94 -19.5t69 -53.5v59zM300 109q60 0 99.5 39.5t39.5 101.5t-39.5 101.5t-99.5 39.5t-99 -39.5t-39 -101.5t39 -101.5
t99 -39.5z" />
    <glyph glyph-name="b" unicode="b" 
d="M350 514q49 0 93.5 -20t78.5 -56.5t53 -85t19 -102.5t-19 -102.5t-53 -85t-78.5 -56.5t-93.5 -20q-105 0 -162 73v-59h-129v700h129v-259q57 73 162 73zM326 109q60 0 99.5 39.5t39.5 101.5t-39.5 101.5t-99.5 39.5t-99 -39.5t-39 -101.5t39 -101.5t99 -39.5z" />
    <glyph glyph-name="c" unicode="c" horiz-adv-x="536" 
d="M297 -14q-55 0 -104 20t-85 56t-55.5 85t-19.5 103t19.5 103t55.5 85t85 56t104 20q53 0 101.5 -20.5t78.5 -51t44 -57.5l-111 -65q-15 30 -46 48.5t-68 18.5q-57 0 -95.5 -39t-38.5 -98q0 -58 38.5 -97t95.5 -39q38 0 69 18t46 48l112 -64q-15 -27 -45.5 -58t-79 -51.5
t-101.5 -20.5z" />
    <glyph glyph-name="d" unicode="d" 
d="M438 700h129v-700h-129v59q-57 -73 -162 -73q-49 0 -93.5 20t-78.5 56.5t-53 85t-19 102.5t19 102.5t53 85t78.5 56.5t93.5 20q105 0 162 -73v259zM300 109q60 0 99 39.5t39 101.5t-39 101.5t-99 39.5t-99.5 -39.5t-39.5 -101.5t39.5 -101.5t99.5 -39.5z" />
    <glyph glyph-name="e" unicode="e" horiz-adv-x="581" 
d="M168 197q13 -47 50.5 -70.5t90.5 -23.5q36 0 65.5 14t46.5 36l104 -60q-35 -51 -91.5 -79t-126.5 -28q-61 0 -112 20t-87.5 56t-55.5 84.5t-19 103.5t19 103.5t54.5 84.5t84.5 56t106 20q54 0 101 -20.5t81 -56.5t52.5 -84.5t18.5 -102.5q0 -25 -5 -53h-377zM166 297h255
q-6 26 -19.5 47.5t-40 37.5t-64.5 16q-51 0 -85.5 -27t-45.5 -74z" />
    <glyph glyph-name="f" unicode="f" horiz-adv-x="328" 
d="M328 590q-106 8 -106 -85v-5h106v-124h-106v-376h-129v376h-72v124h72v5q0 106 59.5 161t175.5 48v-124z" />
    <glyph glyph-name="g" unicode="g" 
d="M442 500h126v-476q0 -44 -14.5 -87t-48 -76.5t-84 -54t-114.5 -20.5q-80 0 -142.5 31.5t-94.5 90.5l110 63q13 -24 32 -40.5t46 -23t53 -6.5q59 0 95 31.5t36 91.5v54q-27 -36 -68 -56t-92 -20q-38 0 -74.5 11.5t-66.5 32.5t-52.5 49.5t-39 70t-16.5 92.5t19 98t53 82.5
t80 55.5t97 20t92 -20t68 -56v62zM302 121q58 0 99 38t41 99q0 58 -40 97t-100 39t-100 -39t-40 -97q0 -61 41 -99t99 -38z" />
    <glyph glyph-name="h" unicode="h" horiz-adv-x="577" 
d="M337 514q39 0 74 -14t60.5 -40.5t40 -65.5t14.5 -87v-307h-129v291q0 49 -27.5 76t-71.5 27q-36 0 -60.5 -16t-34.5 -36.5t-12.5 -38.5t-2.5 -33v-270h-129v700h129v-256q22 33 61 51.5t88 18.5z" />
    <glyph glyph-name="i" unicode="i" horiz-adv-x="247" 
d="M123 560q-32 0 -55.5 23.5t-23.5 55.5t23.5 56t55.5 24t56 -24t24 -56t-24 -55.5t-56 -23.5zM59 0v500h129v-500h-129z" />
    <glyph glyph-name="j" unicode="j" horiz-adv-x="264" 
d="M141 560q-32 0 -56 23.5t-24 55.5t24 56t56 24t55.5 -24t23.5 -56t-23.5 -55.5t-55.5 -23.5zM76 -10v510h129v-510q0 -110 -54 -160.5t-164 -43.5v124q45 -3 67 16t22 64z" />
    <glyph glyph-name="k" unicode="k" horiz-adv-x="525" 
d="M520 0h-150l-182 227v-227h-129v700h129v-420l172 220h154l-201 -247z" />
    <glyph glyph-name="l" unicode="l" horiz-adv-x="247" 
d="M59 0v730h129v-730h-129z" />
    <glyph glyph-name="m" unicode="m" horiz-adv-x="852" 
d="M612 514q85 0 137 -56.5t52 -149.5v-308h-129v299q0 44 -22 69.5t-62 25.5q-43 0 -68 -29.5t-25 -83.5v-281h-129v299q0 44 -22 69.5t-62 25.5q-42 0 -68 -29.5t-26 -83.5v-281h-129v500h129v-53q21 32 57 49.5t82 17.5q45 0 80 -19t56 -53q23 34 61.5 53t87.5 19z" />
    <glyph glyph-name="n" unicode="n" horiz-adv-x="577" 
d="M337 514q39 0 74 -14t60.5 -40.5t40 -65.5t14.5 -87v-307h-129v291q0 49 -27.5 76t-71.5 27q-36 0 -60.5 -16t-34.5 -36.5t-12.5 -38.5t-2.5 -33v-270h-129v500h129v-56q22 33 61 51.5t88 18.5z" />
    <glyph glyph-name="o" unicode="o" horiz-adv-x="594" 
d="M297 -14q-53 0 -102 20t-85 56.5t-56.5 85t-20.5 102.5t20.5 102.5t56.5 85t85 56.5t102 20t102 -20t85.5 -56.5t57 -85t20.5 -102.5t-20.5 -102.5t-57 -85t-85.5 -56.5t-102 -20zM297 112q57 0 96.5 39.5t39.5 98.5t-39.5 98.5t-96.5 39.5t-96 -39.5t-39 -98.5t39 -98.5
t96 -39.5z" />
    <glyph glyph-name="p" unicode="p" 
d="M350 514q49 0 93.5 -20t78.5 -56.5t53 -85t19 -102.5t-19 -102.5t-53 -85t-78.5 -56.5t-93.5 -20q-105 0 -162 73v-259h-129v700h129v-59q57 73 162 73zM326 109q60 0 99.5 39.5t39.5 101.5t-39.5 101.5t-99.5 39.5t-99 -39.5t-39 -101.5t39 -101.5t99 -39.5z" />
    <glyph glyph-name="q" unicode="q" 
d="M438 500h129v-700h-129v259q-57 -73 -162 -73q-49 0 -93.5 20t-78.5 56.5t-53 85t-19 102.5t19 102.5t53 85t78.5 56.5t93.5 20q105 0 162 -73v59zM300 109q60 0 99 39.5t39 101.5t-39 101.5t-99 39.5t-99.5 -39.5t-39.5 -101.5t39.5 -101.5t99.5 -39.5z" />
    <glyph glyph-name="r" unicode="r" horiz-adv-x="356" 
d="M188 414q9 23 29 46.5t53.5 36.5t69.5 13v-144q-25 3 -53 -2.5t-50 -20t-35.5 -41t-13.5 -63.5v-239h-129v500h129v-86z" />
    <glyph glyph-name="s" unicode="s" horiz-adv-x="465" 
d="M178 358q0 -13 12.5 -24t59.5 -24.5t69 -20.5t43 -19t37 -27t26.5 -40t10.5 -57q0 -48 -24 -83t-69.5 -56t-107.5 -21q-74 0 -128.5 31t-81.5 88l112 63q8 -23 24 -38.5t36.5 -21t37.5 -5.5q31 0 50 11t19 32q0 16 -16 26.5t-61.5 24t-65.5 20t-41 18.5t-37 26.5
t-26.5 38.5t-10.5 55q0 46 22.5 80.5t65.5 56.5t102 22q60 0 111 -28t79 -78l-110 -60q-11 24 -32 37.5t-48 13.5q-25 0 -41.5 -11t-16.5 -30z" />
    <glyph glyph-name="t" unicode="t" horiz-adv-x="385" 
d="M345 376h-113v-208q0 -20 9.5 -33.5t33 -17t70.5 -0.5v-117q-84 -9 -136 3t-79 50t-27 115v208h-87v124h87v101l129 39v-140h113v-124z" />
    <glyph glyph-name="u" unicode="u" horiz-adv-x="577" 
d="M389 500h129v-500h-129v56q-22 -33 -61 -51.5t-88 -18.5q-39 0 -74 14t-60.5 40.5t-40 65.5t-14.5 87v307h129v-291q0 -49 27.5 -76t71.5 -27q36 0 60.5 16t34.5 36.5t12.5 38.5t2.5 33v270z" />
    <glyph glyph-name="v" unicode="v" horiz-adv-x="533" 
d="M388 500h142l-190 -500h-147l-190 500h142l121 -350z" />
    <glyph glyph-name="w" unicode="w" horiz-adv-x="770" 
d="M622 500h137l-159 -500h-123l-92 303l-92 -303h-123l-159 500h137l85 -307l91 307h122l91 -308z" />
    <glyph glyph-name="x" unicode="x" horiz-adv-x="525" 
d="M520 0h-149l-108 152l-109 -152h-149l183 255l-175 245h149l101 -141l101 141h148l-175 -244z" />
    <glyph glyph-name="y" unicode="y" horiz-adv-x="525" 
d="M385 500h138l-182 -500q-39 -107 -104 -156t-160 -44v120q52 -1 82.5 22.5t48.5 73.5l-205 484h141l130 -336z" />
    <glyph glyph-name="z" unicode="z" horiz-adv-x="474" 
d="M216 121h222v-121h-395v86l211 293h-201v121h375v-86z" />
    <glyph glyph-name="braceleft" unicode="{" horiz-adv-x="359" 
d="M339 -107q-106 -7 -158 41t-52 145v148q0 20 -6.5 36.5t-25 22t-47.5 3.5v125q29 -2 47.5 3.5t25 22t6.5 36.5v148q0 97 52 145t158 41v-124q-41 5 -61 -8t-20 -54v-148q0 -91 -60 -124q60 -34 60 -125v-148q0 -41 20 -54t61 -8v-124z" />
    <glyph glyph-name="bar" unicode="|" horiz-adv-x="259" 
d="M65 -200v920h129v-920h-129z" />
    <glyph glyph-name="braceright" unicode="}" horiz-adv-x="359" 
d="M20 -107v124q41 -5 61 8t20 54v148q0 91 60 125q-60 33 -60 124v148q0 41 -20 54t-61 8v124q106 7 158 -41t52 -145v-148q0 -20 6.5 -36.5t25 -22t47.5 -3.5v-125q-29 2 -47.5 -3.5t-25 -22t-6.5 -36.5v-148q0 -97 -52 -145t-158 -41z" />
    <glyph glyph-name="asciitilde" unicode="~" horiz-adv-x="599" 
d="M449 443l105 -51q-13 -49 -37.5 -81t-57.5 -46t-72.5 -10.5t-82.5 24.5q-59 28 -85.5 31.5t-41.5 -9t-27 -46.5l-105 50q13 49 37.5 81t57.5 46.5t72.5 10.5t82.5 -24q49 -23 76.5 -30t45 3.5t32.5 50.5z" />
    <glyph glyph-name="exclamdown" unicode="&#xa1;" horiz-adv-x="268" 
d="M134 513q16 0 36 -8.5t34.5 -30t14.5 -46.5q0 -16 -8.5 -36t-30 -34.5t-46.5 -14.5q-16 0 -36 8.5t-34.5 30t-14.5 46.5q0 16 8.5 36t30 34.5t46.5 14.5zM83 265h102l26 -265v-200h-155v200z" />
    <glyph glyph-name="cent" unicode="&#xa2;" horiz-adv-x="536" 
d="M411 280l112 -64q-15 -27 -45.5 -58t-79 -51.5t-101.5 -20.5q-34 0 -61 7l-30 -93h-58l35 110q-66 30 -108 93.5t-42 146.5q0 54 19.5 103t55.5 85t85 56t104 20q27 0 48 -4l29 90h58l-34 -106q39 -16 71.5 -44.5t51.5 -64.5l-111 -65q-17 35 -52 52l-82 -257l20 -1
q38 0 69 18t46 48zM162 350q0 -37 16.5 -68t44.5 -48l82 253h-9q-57 0 -95.5 -39t-38.5 -98z" />
    <glyph glyph-name="sterling" unicode="&#xa3;" horiz-adv-x="581" 
d="M243 133h327v-133h-537v133h73v141h-61v121h61v100q0 67 28 115t78 76t114 28q75 0 132 -39t85 -107l-119 -68q-13 40 -35.5 60t-59.5 20q-27 0 -48 -13t-29.5 -34.5t-8.5 -42.5v-95h203v-121h-203v-141z" />
    <glyph glyph-name="currency" unicode="&#xa4;" horiz-adv-x="543" 
d="M486 350q0 -36 -12 -70.5t-33 -60.5l70 -70l-38 -38l-71 71q-54 -42 -130 -42q-74 0 -131 41l-70 -70l-38 38l69 70q-21 26 -33 60.5t-12 70.5q0 74 45 132l-69 69l38 38l70 -70q58 42 131 42q72 0 130 -42l71 70l38 -38l-70 -70q45 -58 45 -131zM272 262q18 0 38.5 8.5
t34.5 30t14 49.5q0 38 -24.5 63t-62.5 25t-62.5 -25t-24.5 -63t24.5 -63t62.5 -25z" />
    <glyph glyph-name="yen" unicode="&#xa5;" horiz-adv-x="601" 
d="M619 700l-190 -338h102v-80h-147l-5 -9v-36h152v-81h-152v-156h-137v156h-171v81h171v36l-5 9h-166v80h121l-189 338h156l152 -292l152 292h156z" />
    <glyph glyph-name="brokenbar" unicode="&#xa6;" horiz-adv-x="259" 
d="M65 350v370h129v-370h-129zM65 -200v370h129v-370h-129z" />
    <glyph glyph-name="section" unicode="&#xa7;" horiz-adv-x="542" 
d="M505 284q0 -38 -16 -71.5t-43 -56.5q14 -18 23.5 -43t9.5 -57q0 -50 -23.5 -86.5t-68.5 -59t-109 -22.5q-79 0 -136 30t-85 96l115 66q27 -78 106 -78q35 0 53.5 14.5t18.5 39.5q0 15 -12 28t-32.5 23.5t-56.5 24.5t-47 19q-80 34 -116.5 75t-36.5 99q0 39 16.5 71
t45.5 54q-14 18 -22 44t-8 55t10.5 58.5t34.5 53t61.5 38.5t84.5 15q66 0 119.5 -32t80.5 -94l-106 -58q-32 70 -94 70q-28 0 -45 -14t-17 -37q0 -12 8 -25t31.5 -27t58.5 -27.5t39 -15.5q83 -33 120.5 -73t37.5 -97zM178 332q0 -20 16.5 -40t64.5 -38q5 -2 40.5 -14.5
t53.5 -20.5q23 20 23 50q0 22 -16.5 41t-72.5 41l-85 32q-24 -18 -24 -51z" />
    <glyph glyph-name="dieresis" unicode="&#xa8;" horiz-adv-x="365" 
d="M88 549q-27 0 -47.5 20t-20.5 47t20.5 47.5t47.5 20.5t47 -20.5t20 -47.5t-20 -47t-47 -20zM278 549q-27 0 -47.5 20t-20.5 47t20.5 47.5t47.5 20.5t47 -20.5t20 -47.5t-20 -47t-47 -20z" />
    <glyph glyph-name="copyright" unicode="&#xa9;" horiz-adv-x="789" 
d="M395 -12q-73 0 -139.5 28t-116.5 78t-78 116.5t-28 139.5t28 139.5t78 116.5t116.5 78t139.5 28t139.5 -28t116.5 -78t78 -116.5t28 -139.5t-28 -139.5t-78 -116.5t-116.5 -78t-139.5 -28zM395 22q65 0 124.5 25.5t104.5 71t70 105.5t25 126t-25 126t-70 105.5t-104.5 71
t-124.5 25.5t-125 -25.5t-105 -71t-70 -105.5t-25 -126t25 -126t70 -105.5t105 -71t125 -25.5zM398 154q-29 0 -62.5 10.5t-67 38t-51 68t-17.5 79.5t15.5 75t43 63t64 42.5t75.5 15.5q51 0 96.5 -26t70.5 -70l-96 -56q-9 18 -29 29.5t-45 11.5q-27 0 -48 -15t-28.5 -34.5
t-7.5 -35.5q0 -34 23.5 -59.5t60.5 -25.5q19 0 40.5 9.5t33.5 32.5l97 -57q-12 -21 -35 -43.5t-59 -37.5t-74 -15z" />
    <glyph glyph-name="guillemotleft" unicode="&#xab;" horiz-adv-x="545" 
d="M292 497l-110 -188l110 -187h-119l-110 187l110 188h119zM482 497l-110 -188l110 -187h-119l-110 187l110 188h119z" />
    <glyph glyph-name="logicalnot" unicode="&#xac;" horiz-adv-x="550" 
d="M45 411h460v-240h-129v119h-331v121z" />
    <glyph glyph-name="registered" unicode="&#xae;" horiz-adv-x="789" 
d="M395 712q73 0 139.5 -28t116.5 -78t78 -116.5t28 -139.5t-28 -139.5t-78 -116.5t-116.5 -78t-139.5 -28t-139.5 28t-116.5 78t-78 116.5t-28 139.5t28 139.5t78 116.5t116.5 78t139.5 28zM395 22q65 0 124.5 25.5t104.5 71t70 105.5t25 126t-25 126t-70 105.5t-104.5 71
t-124.5 25.5t-125 -25.5t-105 -71t-70 -105.5t-25 -126t25 -126t70 -105.5t105 -71t125 -25.5zM550 412q0 -35 -14.5 -64t-40.5 -47l76 -136h-115l-53 110h-38v-110h-107v370h149q60 0 101.5 -34.5t41.5 -88.5zM365 438v-73h33q20 0 32.5 10t12.5 26q0 37 -45 37h-33z" />
    <glyph glyph-name="macron" unicode="&#xaf;" horiz-adv-x="330" 
d="M20 564v105h290v-105h-290z" />
    <glyph glyph-name="degree" unicode="&#xb0;" horiz-adv-x="401" 
d="M201 480q-44 0 -84.5 22t-62 62t-21.5 81q0 25 8.5 52.5t29 52.5t53.5 42.5t77 17.5q26 0 54.5 -8.5t53.5 -29t42.5 -53t17.5 -74.5t-21 -81.5t-61.5 -61.5t-85.5 -22zM201 585q26 0 42.5 17t16.5 43q0 25 -16.5 42.5t-42.5 17.5t-42.5 -17.5t-16.5 -42.5t16.5 -42.5
t42.5 -17.5z" />
    <glyph glyph-name="plusminus" unicode="&#xb1;" horiz-adv-x="555" 
d="M338 502h165v-121h-165v-146h-121v146h-164v121h164v146h121v-146zM53 53v121h450v-121h-450z" />
    <glyph glyph-name="acute" unicode="&#xb4;" horiz-adv-x="275" 
d="M20 563h124l111 137h-155z" />
    <glyph glyph-name="mu" unicode="&#xb5;" horiz-adv-x="617" 
d="M558 121h36v-121h-60q-75 0 -111 50q-23 -31 -60.5 -47.5t-84.5 -16.5q-52 0 -90 22v-208h-129v700h129v-290q0 -37 16 -62t39 -33.5t44 -8.5q36 0 60.5 16t34.5 36.5t12.5 38.5t2.5 33v270h129v-347q0 -14 9 -23t23 -9z" />
    <glyph glyph-name="paragraph" unicode="&#xb6;" horiz-adv-x="669" 
d="M623 700v-113h-62v-787h-121v787h-79v-787h-121v470q-54 0 -106 28.5t-80.5 80.5t-28.5 106q0 32 11 68t41.5 72.5t75 55.5t87.5 19h383z" />
    <glyph glyph-name="periodcentered" unicode="&#xb7;" horiz-adv-x="268" 
d="M134 262q-16 0 -36 8.5t-34.5 30t-14.5 46.5q0 16 8.5 36t30 34.5t46.5 14.5q16 0 36 -8.5t34.5 -30t14.5 -46.5q0 -16 -8.5 -36t-30 -34.5t-46.5 -14.5z" />
    <glyph glyph-name="cedilla" unicode="&#xb8;" horiz-adv-x="260" 
d="M170 -46q29 -7 49.5 -27t20.5 -51q0 -105 -220 -92v91q53 -4 80.5 1.5t27.5 18.5q0 8 -12 15t-51 10v80h105v-46z" />
    <glyph glyph-name="guillemotright" unicode="&#xbb;" horiz-adv-x="545" 
d="M182 497l110 -188l-110 -187h-119l110 187l-110 188h119zM372 497l110 -188l-110 -187h-119l110 187l-110 188h119z" />
    <glyph glyph-name="onequarter" unicode="&#xbc;" horiz-adv-x="814" 
d="M217 300h-107v292l-82 -23l-25 88l120 43h94v-400zM517 700h90l-400 -700h-90zM798 162v-98h-41v-64h-102v64h-187v98l129 238h114l-123 -238h67v69h102v-69h41z" />
    <glyph glyph-name="onehalf" unicode="&#xbd;" horiz-adv-x="813" 
d="M217 300h-107v292l-82 -23l-25 88l120 43h94v-400zM517 700h90l-400 -700h-90zM641 97h139v-97h-299v70l150 149q16 15 25.5 31.5t9.5 29.5q0 16 -11.5 26t-29.5 10q-41 0 -62 -51l-87 50q19 45 58 72t92 27q29 0 61 -11t52 -31.5t27.5 -42t7.5 -41.5q0 -26 -13.5 -57
t-54.5 -72z" />
    <glyph glyph-name="threequarters" unicode="&#xbe;" horiz-adv-x="895" 
d="M321 421q0 -64 -41.5 -99.5t-113.5 -35.5q-58 0 -97.5 23.5t-58.5 65.5l90 52q17 -47 66 -47q23 0 35.5 11t12.5 30q0 18 -14.5 29t-36.5 11h-19l-40 58l69 84h-145v97h275v-79l-72 -86q42 -12 66 -42t24 -72zM598 700h90l-400 -700h-90zM879 162v-98h-41v-64h-102v64
h-187v98l129 238h114l-123 -238h67v69h102v-69h41z" />
    <glyph glyph-name="questiondown" unicode="&#xbf;" horiz-adv-x="553" 
d="M289 513q16 0 36 -8.5t34.5 -30t14.5 -46.5q0 -16 -8.5 -36t-30 -34.5t-46.5 -14.5q-16 0 -36 8.5t-34.5 30t-14.5 46.5q0 16 8.5 36t30 34.5t46.5 14.5zM358 265q0 -34 -16.5 -67.5t-67 -80.5t-61.5 -62.5t-17 -30t-6 -31.5q0 -34 24 -53.5t67 -19.5q42 0 72.5 24
t46.5 65l118 -68q-15 -37 -40 -66t-57.5 -49.5t-70.5 -30t-74 -9.5q-42 0 -82.5 13t-72.5 38t-50.5 62.5t-18.5 83.5q0 38 14.5 70.5t33.5 55t69.5 71t50.5 85.5h138z" />
    <glyph glyph-name="Agrave" unicode="&#xc0;" horiz-adv-x="668" 
d="M416 763h-124l-111 137h155zM515 0l-42 126h-279l-42 -126h-149l245 700h171l246 -700h-150zM238 255h192l-96 286z" />
    <glyph glyph-name="Aacute" unicode="&#xc1;" horiz-adv-x="668" 
d="M489 900l-111 -137h-124l80 137h155zM515 0l-42 126h-279l-42 -126h-149l245 700h171l246 -700h-150zM238 255h192l-96 286z" />
    <glyph glyph-name="Acircumflex" unicode="&#xc2;" horiz-adv-x="668" 
d="M331 820l-44 -65h-128l106 145h131l106 -145h-128zM515 0l-42 126h-279l-42 -126h-149l245 700h171l246 -700h-150zM238 255h192l-96 286z" />
    <glyph glyph-name="Atilde" unicode="&#xc3;" horiz-adv-x="668" 
d="M321 784q-30 19 -41.5 15.5t-11.5 -39.5h-104q0 56 16 91.5t42 48.5t58.5 7.5t65.5 -26.5q30 -19 41 -15.5t11 39.5h105q0 -56 -16 -91.5t-42.5 -48.5t-59 -7.5t-64.5 26.5zM515 0l-42 126h-279l-42 -126h-149l245 700h171l246 -700h-150zM238 255h192l-96 286z" />
    <glyph glyph-name="Adieresis" unicode="&#xc4;" horiz-adv-x="668" 
d="M239 749q-27 0 -47.5 20t-20.5 47t20.5 47.5t47.5 20.5t47 -20.5t20 -47.5t-20 -47t-47 -20zM429 749q-27 0 -47.5 20t-20.5 47t20.5 47.5t47.5 20.5t47 -20.5t20 -47.5t-20 -47t-47 -20zM515 0l-42 126h-279l-42 -126h-149l245 700h171l246 -700h-150zM238 255h192
l-96 286z" />
    <glyph glyph-name="Aring" unicode="&#xc5;" horiz-adv-x="668" 
d="M515 0l-42 126h-279l-42 -126h-149l239 684q-15 15 -24.5 38t-9.5 46q0 36 20.5 65.5t50 41t55.5 11.5q41 0 72 -19.5t42.5 -47.5t11.5 -51q0 -24 -9.5 -47t-25.5 -38l240 -683h-150zM334 805q-18 0 -28.5 -10.5t-10.5 -26.5q0 -17 10.5 -27.5t28.5 -10.5q19 0 29.5 10.5
t10.5 27.5q0 16 -10.5 26.5t-29.5 10.5zM238 255h192l-96 286z" />
    <glyph glyph-name="AE" unicode="&#xc6;" horiz-adv-x="880" 
d="M584 132h264v-132h-398v126h-221l-74 -126h-155l414 700h429v-132h-259v-149h236v-130h-236v-157zM305 255h145v246z" />
    <glyph glyph-name="Ccedilla" unicode="&#xc7;" horiz-adv-x="726" 
d="M397 121q43 0 83 15.5t63.5 39t35.5 44.5l119 -69q-27 -46 -71 -82.5t-90 -54.5t-82 -24v-36q29 -7 49.5 -27t20.5 -51q0 -105 -220 -92v91q53 -4 80.5 1.5t27.5 18.5q0 8 -12 15t-51 10v69q-68 8 -127 38.5t-101.5 79t-65.5 111.5t-23 132q0 75 27 142t76 117
t116.5 77.5t144.5 27.5q59 0 113.5 -18t104 -54.5t83.5 -92.5l-119 -69q-12 22 -36 45.5t-63.5 39t-82.5 15.5q-50 0 -92.5 -17t-72.5 -47.5t-46 -73.5t-16 -92t16 -91.5t46 -73t72.5 -47.5t92.5 -17z" />
    <glyph glyph-name="Egrave" unicode="&#xc8;" horiz-adv-x="530" 
d="M361 763h-124l-111 137h155zM203 132h295v-132h-433v700h428v-132h-290v-149h265v-130h-265v-157z" />
    <glyph glyph-name="Eacute" unicode="&#xc9;" horiz-adv-x="530" 
d="M434 900l-111 -137h-124l80 137h155zM203 132h295v-132h-433v700h428v-132h-290v-149h265v-130h-265v-157z" />
    <glyph glyph-name="Ecircumflex" unicode="&#xca;" horiz-adv-x="530" 
d="M276 820l-44 -65h-128l106 145h131l106 -145h-128zM203 132h295v-132h-433v700h428v-132h-290v-149h265v-130h-265v-157z" />
    <glyph glyph-name="Edieresis" unicode="&#xcb;" horiz-adv-x="530" 
d="M184 749q-27 0 -47.5 20t-20.5 47t20.5 47.5t47.5 20.5t47 -20.5t20 -47.5t-20 -47t-47 -20zM374 749q-27 0 -47.5 20t-20.5 47t20.5 47.5t47.5 20.5t47 -20.5t20 -47.5t-20 -47t-47 -20zM203 132h295v-132h-433v700h428v-132h-290v-149h265v-130h-265v-157z" />
    <glyph glyph-name="Igrave" unicode="&#xcc;" horiz-adv-x="268" 
d="M216 763l-80 137h-155l111 -137h124zM65 700h138v-700h-138v700z" />
    <glyph glyph-name="Iacute" unicode="&#xcd;" horiz-adv-x="268" 
d="M54 763h124l111 137h-155zM65 700h138v-700h-138v700z" />
    <glyph glyph-name="Icircumflex" unicode="&#xce;" horiz-adv-x="268" 
d="M131 820l-44 -65h-128l106 145h131l106 -145h-128zM65 0v700h138v-700h-138z" />
    <glyph glyph-name="Idieresis" unicode="&#xcf;" horiz-adv-x="268" 
d="M39 749q-27 0 -47.5 20t-20.5 47t20.5 47.5t47.5 20.5t47 -20.5t20 -47.5t-20 -47t-47 -20zM229 749q-27 0 -47.5 20t-20.5 47t20.5 47.5t47.5 20.5t47 -20.5t20 -47.5t-20 -47t-47 -20zM65 700h138v-700h-138v700z" />
    <glyph glyph-name="Eth" unicode="&#xd0;" horiz-adv-x="748" 
d="M378 700q70 0 132.5 -26.5t108 -74.5t71 -112.5t25.5 -136.5t-25.5 -136.5t-71 -112.5t-108 -74.5t-132.5 -26.5h-278v281h-78v124h78v295h278zM378 132q90 0 147.5 61t57.5 157t-57.5 157t-147.5 61h-140v-163h159v-124h-159v-149h140z" />
    <glyph glyph-name="Ntilde" unicode="&#xd1;" horiz-adv-x="673" 
d="M159 760q0 56 16 91.5t42 48.5t58.5 7.5t65.5 -26.5q30 -19 41 -15.5t11 39.5h105q0 -56 -16 -91.5t-42.5 -48.5t-59 -7.5t-64.5 26.5q-30 19 -41.5 15.5t-11.5 -39.5h-104zM470 700h138v-700h-105l-300 428v-428h-138v700h105l300 -427v427z" />
    <glyph glyph-name="Ograve" unicode="&#xd2;" horiz-adv-x="792" 
d="M478 771l-80 137h-155l111 -137h124zM396 -14q-73 0 -140 28t-117 78t-78 117t-28 141t28 141.5t78 117t117 77.5t140 28t140 -28t117.5 -77.5t78.5 -117t28 -141.5t-28 -141t-78.5 -117t-117.5 -78t-140 -28zM396 121q34 0 72.5 11.5t76.5 42.5t57.5 78.5t19.5 96.5
q0 23 -5.5 53t-21 59.5t-42.5 56.5t-69 44t-88 17q-34 0 -72.5 -11.5t-76.5 -42.5t-57.5 -79t-19.5 -97q0 -36 11.5 -75t43 -77.5t78.5 -57.5t93 -19z" />
    <glyph glyph-name="Oacute" unicode="&#xd3;" horiz-adv-x="792" 
d="M316 771h124l111 137h-155zM396 -14q-73 0 -140 28t-117 78t-78 117t-28 141t28 141.5t78 117t117 77.5t140 28t140 -28t117.5 -77.5t78.5 -117t28 -141.5t-28 -141t-78.5 -117t-117.5 -78t-140 -28zM396 121q34 0 72.5 11.5t76.5 42.5t57.5 78.5t19.5 96.5q0 23 -5.5 53
t-21 59.5t-42.5 56.5t-69 44t-88 17q-34 0 -72.5 -11.5t-76.5 -42.5t-57.5 -79t-19.5 -97q0 -36 11.5 -75t43 -77.5t78.5 -57.5t93 -19z" />
    <glyph glyph-name="Ocircumflex" unicode="&#xd4;" horiz-adv-x="792" 
d="M393 828l-44 -65h-128l106 145h131l106 -145h-128zM396 714q73 0 140 -28t117.5 -77.5t78.5 -117t28 -141.5t-28 -141t-78.5 -117t-117.5 -78t-140 -28t-140 28t-117 78t-78 117t-28 141t28 141.5t78 117t117 77.5t140 28zM396 121q34 0 72.5 11.5t76.5 42.5t57.5 78.5
t19.5 96.5q0 23 -5.5 53t-21 59.5t-42.5 56.5t-69 44t-88 17q-34 0 -72.5 -11.5t-76.5 -42.5t-57.5 -79t-19.5 -97q0 -36 11.5 -75t43 -77.5t78.5 -57.5t93 -19z" />
    <glyph glyph-name="Otilde" unicode="&#xd5;" horiz-adv-x="792" 
d="M226 768q0 56 16 91.5t42 48.5t58.5 7.5t65.5 -26.5q30 -19 41 -15.5t11 39.5h105q0 -56 -16 -91.5t-42.5 -48.5t-59 -7.5t-64.5 26.5q-30 19 -41.5 15.5t-11.5 -39.5h-104zM396 -14q-73 0 -140 28t-117 78t-78 117t-28 141t28 141.5t78 117t117 77.5t140 28t140 -28
t117.5 -77.5t78.5 -117t28 -141.5t-28 -141t-78.5 -117t-117.5 -78t-140 -28zM396 121q34 0 72.5 11.5t76.5 42.5t57.5 78.5t19.5 96.5q0 23 -5.5 53t-21 59.5t-42.5 56.5t-69 44t-88 17q-34 0 -72.5 -11.5t-76.5 -42.5t-57.5 -79t-19.5 -97q0 -36 11.5 -75t43 -77.5
t78.5 -57.5t93 -19z" />
    <glyph glyph-name="Odieresis" unicode="&#xd6;" horiz-adv-x="792" 
d="M301 757q-27 0 -47.5 20t-20.5 47t20.5 47.5t47.5 20.5t47 -20.5t20 -47.5t-20 -47t-47 -20zM491 757q-27 0 -47.5 20t-20.5 47t20.5 47.5t47.5 20.5t47 -20.5t20 -47.5t-20 -47t-47 -20zM396 -14q-73 0 -140 28t-117 78t-78 117t-28 141t28 141.5t78 117t117 77.5
t140 28t140 -28t117.5 -77.5t78.5 -117t28 -141.5t-28 -141t-78.5 -117t-117.5 -78t-140 -28zM396 121q34 0 72.5 11.5t76.5 42.5t57.5 78.5t19.5 96.5q0 23 -5.5 53t-21 59.5t-42.5 56.5t-69 44t-88 17q-34 0 -72.5 -11.5t-76.5 -42.5t-57.5 -79t-19.5 -97q0 -36 11.5 -75
t43 -77.5t78.5 -57.5t93 -19z" />
    <glyph glyph-name="multiply" unicode="&#xd7;" horiz-adv-x="512" 
d="M462 471l-121 -121l121 -121l-86 -84l-120 120l-120 -120l-86 84l121 121l-121 121l86 84l120 -120l120 120z" />
    <glyph glyph-name="Oslash" unicode="&#xd8;" horiz-adv-x="798" 
d="M664 605q47 -49 74.5 -115.5t27.5 -139.5q0 -74 -28 -141t-78.5 -117t-117.5 -78t-140 -28q-111 0 -201 60l-47 -57l-68 40l55 66q-48 50 -75 116.5t-27 138.5q0 74 28 141.5t78 117t117 77.5t140 28q110 0 202 -60l47 57l68 -39zM176 350q0 -43 13.5 -82t38.5 -68
l290 350q-54 30 -116 30q-34 0 -72.5 -11.5t-76.5 -42.5t-57.5 -79t-19.5 -97zM402 121q34 0 72.5 11.5t76.5 42.5t57.5 78.5t19.5 96.5q0 32 -10.5 72.5t-40.5 77.5l-290 -350q24 -13 55 -21t60 -8z" />
    <glyph glyph-name="Ugrave" unicode="&#xd9;" horiz-adv-x="653" 
d="M408 763l-80 137h-155l111 -137h124zM326 -14q-56 0 -105.5 17t-85.5 48.5t-56 77t-20 100.5v471h137v-460q0 -54 31.5 -86.5t98.5 -32.5t98.5 32.5t31.5 86.5v460h138v-471q0 -55 -20 -100.5t-56 -77t-85.5 -48.5t-106.5 -17z" />
    <glyph glyph-name="Uacute" unicode="&#xda;" horiz-adv-x="653" 
d="M246 763h124l111 137h-155zM326 -14q-56 0 -105.5 17t-85.5 48.5t-56 77t-20 100.5v471h137v-460q0 -54 31.5 -86.5t98.5 -32.5t98.5 32.5t31.5 86.5v460h138v-471q0 -55 -20 -100.5t-56 -77t-85.5 -48.5t-106.5 -17z" />
    <glyph glyph-name="Ucircumflex" unicode="&#xdb;" horiz-adv-x="653" 
d="M323 820l-44 -65h-128l106 145h131l106 -145h-128zM456 700h138v-471q0 -55 -20 -100.5t-56 -77t-85.5 -48.5t-106.5 -17q-56 0 -105.5 17t-85.5 48.5t-56 77t-20 100.5v471h137v-460q0 -54 31.5 -86.5t98.5 -32.5t98.5 32.5t31.5 86.5v460z" />
    <glyph glyph-name="Udieresis" unicode="&#xdc;" horiz-adv-x="653" 
d="M231 749q-27 0 -47.5 20t-20.5 47t20.5 47.5t47.5 20.5t47 -20.5t20 -47.5t-20 -47t-47 -20zM421 749q-27 0 -47.5 20t-20.5 47t20.5 47.5t47.5 20.5t47 -20.5t20 -47.5t-20 -47t-47 -20zM326 -14q-56 0 -105.5 17t-85.5 48.5t-56 77t-20 100.5v471h137v-460
q0 -54 31.5 -86.5t98.5 -32.5t98.5 32.5t31.5 86.5v460h138v-471q0 -55 -20 -100.5t-56 -77t-85.5 -48.5t-106.5 -17z" />
    <glyph glyph-name="Yacute" unicode="&#xdd;" horiz-adv-x="621" 
d="M465 900l-111 -137h-124l80 137h155zM619 700l-240 -427v-273h-137v273l-239 427h156l152 -292l152 292h156z" />
    <glyph glyph-name="Thorn" unicode="&#xde;" horiz-adv-x="590" 
d="M330 585q48 0 91 -18t75.5 -50.5t50.5 -75.5t18 -91t-18 -91t-50.5 -75.5t-75.5 -50.5t-91 -18h-127v-115h-138v700h138v-115h127zM330 244q19 0 42 10.5t39.5 37t16.5 58.5q0 21 -9.5 46t-34 42.5t-54.5 17.5h-127v-212h127z" />
    <glyph glyph-name="germandbls" unicode="&#xdf;" horiz-adv-x="537" 
d="M279 -6v114q113 -11 113 59q0 9 -3.5 20.5t-12 27.5t-56 78.5t-47.5 96.5q0 27 27 64t31.5 52.5t4.5 25.5q0 27 -18.5 45.5t-49.5 18.5q-35 0 -57.5 -22t-22.5 -65v-509h-129v508q0 94 58.5 150t155.5 56q54 0 96 -19.5t69 -56.5t27 -86q0 -21 -6.5 -44t-30 -58
t-23.5 -52q0 -25 37.5 -76.5t52 -79t20.5 -52.5t6 -45q0 -36 -12.5 -66t-41 -51t-75.5 -30.5t-113 -3.5z" />
    <glyph glyph-name="agrave" unicode="&#xe0;" 
d="M391 563h-124l-111 137h155zM439 500h129v-500h-129v59q-27 -34 -69 -53.5t-94 -19.5q-48 0 -93 20t-78.5 56.5t-52.5 85t-19 102.5t19 102.5t52.5 85t78.5 56.5t93 20q52 0 94 -19.5t69 -53.5v59zM300 109q60 0 99.5 39.5t39.5 101.5t-39.5 101.5t-99.5 39.5t-99 -39.5
t-39 -101.5t39 -101.5t99 -39.5z" />
    <glyph glyph-name="aacute" unicode="&#xe1;" 
d="M464 700l-111 -137h-124l80 137h155zM439 500h129v-500h-129v59q-27 -34 -69 -53.5t-94 -19.5q-48 0 -93 20t-78.5 56.5t-52.5 85t-19 102.5t19 102.5t52.5 85t78.5 56.5t93 20q52 0 94 -19.5t69 -53.5v59zM300 109q60 0 99.5 39.5t39.5 101.5t-39.5 101.5t-99.5 39.5
t-99 -39.5t-39 -101.5t39 -101.5t99 -39.5z" />
    <glyph glyph-name="acircumflex" unicode="&#xe2;" 
d="M306 620l-44 -65h-128l106 145h131l106 -145h-128zM439 500h129v-500h-129v59q-27 -34 -69 -53.5t-94 -19.5q-48 0 -93 20t-78.5 56.5t-52.5 85t-19 102.5t19 102.5t52.5 85t78.5 56.5t93 20q52 0 94 -19.5t69 -53.5v59zM300 109q60 0 99.5 39.5t39.5 101.5t-39.5 101.5
t-99.5 39.5t-99 -39.5t-39 -101.5t39 -101.5t99 -39.5z" />
    <glyph glyph-name="atilde" unicode="&#xe3;" 
d="M296 584q-30 19 -41.5 15.5t-11.5 -39.5h-104q0 56 16 91.5t42 48.5t58.5 7.5t65.5 -26.5q30 -19 41 -15.5t11 39.5h105q0 -56 -16 -91.5t-42.5 -48.5t-59 -7.5t-64.5 26.5zM439 500h129v-500h-129v59q-27 -34 -69 -53.5t-94 -19.5q-48 0 -93 20t-78.5 56.5t-52.5 85
t-19 102.5t19 102.5t52.5 85t78.5 56.5t93 20q52 0 94 -19.5t69 -53.5v59zM300 109q60 0 99.5 39.5t39.5 101.5t-39.5 101.5t-99.5 39.5t-99 -39.5t-39 -101.5t39 -101.5t99 -39.5z" />
    <glyph glyph-name="adieresis" unicode="&#xe4;" 
d="M214 549q-27 0 -47.5 20t-20.5 47t20.5 47.5t47.5 20.5t47 -20.5t20 -47.5t-20 -47t-47 -20zM404 549q-27 0 -47.5 20t-20.5 47t20.5 47.5t47.5 20.5t47 -20.5t20 -47.5t-20 -47t-47 -20zM439 500h129v-500h-129v59q-27 -34 -69 -53.5t-94 -19.5q-48 0 -93 20t-78.5 56.5
t-52.5 85t-19 102.5t19 102.5t52.5 85t78.5 56.5t93 20q52 0 94 -19.5t69 -53.5v59zM300 109q60 0 99.5 39.5t39.5 101.5t-39.5 101.5t-99.5 39.5t-99 -39.5t-39 -101.5t39 -101.5t99 -39.5z" />
    <glyph glyph-name="aring" unicode="&#xe5;" 
d="M309 539q-26 0 -55.5 11.5t-50 41t-20.5 66.5q0 36 20.5 65.5t50 41t55.5 11.5q41 0 72 -19.5t42.5 -47.5t11.5 -51q0 -37 -20 -66.5t-50 -41t-56 -11.5zM309 695q-18 0 -28.5 -10.5t-10.5 -26.5q0 -17 10.5 -27.5t28.5 -10.5q19 0 29.5 10.5t10.5 27.5q0 16 -10.5 26.5
t-29.5 10.5zM439 500h129v-500h-129v59q-27 -34 -69 -53.5t-94 -19.5q-48 0 -93 20t-78.5 56.5t-52.5 85t-19 102.5t19 102.5t52.5 85t78.5 56.5t93 20q52 0 94 -19.5t69 -53.5v59zM300 109q60 0 99.5 39.5t39.5 101.5t-39.5 101.5t-99.5 39.5t-99 -39.5t-39 -101.5
t39 -101.5t99 -39.5z" />
    <glyph glyph-name="ae" unicode="&#xe6;" horiz-adv-x="988" 
d="M575 197q7 -23 24 -45.5t48 -35.5t68 -13q36 0 66 14t47 36l104 -60q-36 -52 -85 -79.5t-117 -27.5q-52 0 -96 20.5t-74 56.5v-63h-121v59q-27 -34 -69 -53.5t-94 -19.5q-48 0 -93 20t-78.5 56.5t-52.5 85t-19 102.5t19 102.5t52.5 85t78.5 56.5t93 20q52 0 94 -19.5
t69 -53.5v59h121v-62q30 36 72.5 56t93.5 20q53 0 97 -20t73.5 -56.5t45 -85t15.5 -102.5q0 -25 -5 -53h-377zM573 298h255q-8 38 -30 61.5t-47.5 31t-45.5 7.5q-51 0 -85.5 -26.5t-46.5 -73.5zM300 109q60 0 99.5 39.5t39.5 101.5t-39.5 101.5t-99.5 39.5t-99 -39.5
t-39 -101.5t39 -101.5t99 -39.5z" />
    <glyph glyph-name="ccedilla" unicode="&#xe7;" horiz-adv-x="536" 
d="M523 116q-25 -46 -69.5 -79t-98.5 -45v-38q29 -7 49.5 -27t20.5 -51q0 -105 -220 -92v91q53 -4 80.5 1.5t27.5 18.5q0 8 -12 15t-51 10v70q-96 16 -156.5 88.5t-60.5 171.5q0 54 19.5 103t55.5 85t85 56t104 20q53 0 101.5 -20.5t78.5 -51t44 -57.5l-111 -65
q-15 30 -46 48.5t-68 18.5q-57 0 -95.5 -39t-38.5 -98q0 -58 38.5 -97t95.5 -39q38 0 69 18t46 48z" />
    <glyph glyph-name="egrave" unicode="&#xe8;" horiz-adv-x="581" 
d="M373 567h-124l-111 137h155zM168 197q13 -47 50.5 -70.5t90.5 -23.5q36 0 65.5 14t46.5 36l104 -60q-35 -51 -91.5 -79t-126.5 -28q-61 0 -112 20t-87.5 56t-55.5 84.5t-19 103.5t19 103.5t54.5 84.5t84.5 56t106 20q54 0 101 -20.5t81 -56.5t52.5 -84.5t18.5 -102.5
q0 -25 -5 -53h-377zM166 297h255q-6 26 -19.5 47.5t-40 37.5t-64.5 16q-51 0 -85.5 -27t-45.5 -74z" />
    <glyph glyph-name="eacute" unicode="&#xe9;" horiz-adv-x="581" 
d="M446 704l-111 -137h-124l80 137h155zM168 197q13 -47 50.5 -70.5t90.5 -23.5q36 0 65.5 14t46.5 36l104 -60q-35 -51 -91.5 -79t-126.5 -28q-61 0 -112 20t-87.5 56t-55.5 84.5t-19 103.5t19 103.5t54.5 84.5t84.5 56t106 20q54 0 101 -20.5t81 -56.5t52.5 -84.5
t18.5 -102.5q0 -25 -5 -53h-377zM166 297h255q-6 26 -19.5 47.5t-40 37.5t-64.5 16q-51 0 -85.5 -27t-45.5 -74z" />
    <glyph glyph-name="ecircumflex" unicode="&#xea;" horiz-adv-x="581" 
d="M288 624l-44 -65h-128l106 145h131l106 -145h-128zM168 197q13 -47 50.5 -70.5t90.5 -23.5q36 0 65.5 14t46.5 36l104 -60q-35 -51 -91.5 -79t-126.5 -28q-61 0 -112 20t-87.5 56t-55.5 84.5t-19 103.5t19 103.5t54.5 84.5t84.5 56t106 20q54 0 101 -20.5t81 -56.5
t52.5 -84.5t18.5 -102.5q0 -25 -5 -53h-377zM166 297h255q-6 26 -19.5 47.5t-40 37.5t-64.5 16q-51 0 -85.5 -27t-45.5 -74z" />
    <glyph glyph-name="edieresis" unicode="&#xeb;" horiz-adv-x="581" 
d="M196 553q-27 0 -47.5 20t-20.5 47t20.5 47.5t47.5 20.5t47 -20.5t20 -47.5t-20 -47t-47 -20zM386 553q-27 0 -47.5 20t-20.5 47t20.5 47.5t47.5 20.5t47 -20.5t20 -47.5t-20 -47t-47 -20zM168 197q13 -47 50.5 -70.5t90.5 -23.5q36 0 65.5 14t46.5 36l104 -60
q-35 -51 -91.5 -79t-126.5 -28q-61 0 -112 20t-87.5 56t-55.5 84.5t-19 103.5t19 103.5t54.5 84.5t84.5 56t106 20q54 0 101 -20.5t81 -56.5t52.5 -84.5t18.5 -102.5q0 -25 -5 -53h-377zM166 297h255q-6 26 -19.5 47.5t-40 37.5t-64.5 16q-51 0 -85.5 -27t-45.5 -74z" />
    <glyph glyph-name="igrave" unicode="&#xec;" horiz-adv-x="247" 
d="M184 555l-43 145h-148l67 -145h124zM188 0h-129v500h129v-500z" />
    <glyph glyph-name="iacute" unicode="&#xed;" horiz-adv-x="247" 
d="M60 555h124l66 145h-148zM59 0v500h129v-500h-129z" />
    <glyph glyph-name="icircumflex" unicode="&#xee;" horiz-adv-x="247" 
d="M124 609l-32 -54h-128l94 145h131l93 -145h-127zM59 0v500h129v-500h-129z" />
    <glyph glyph-name="idieresis" unicode="&#xef;" horiz-adv-x="247" 
d="M38 553q-27 0 -47 20t-20 47t20 47.5t47 20.5t47.5 -20.5t20.5 -47.5t-20.5 -47t-47.5 -20zM208 553q-27 0 -47 20t-20 47t20 47.5t47 20.5t47.5 -20.5t20.5 -47.5t-20.5 -47t-47.5 -20zM59 0v500h129v-500h-129z" />
    <glyph glyph-name="eth" unicode="&#xf0;" horiz-adv-x="571" 
d="M493 370q46 -63 46 -140q0 -55 -20 -100.5t-55.5 -77t-81.5 -48t-96 -16.5t-96 16.5t-81.5 48t-55.5 77t-20 100.5q0 48 19 91t52.5 74.5t78 47.5t93.5 12l-58 80l-127 -63v90l79 39l-72 99h149l33 -44l118 58v-90l-69 -34zM286 109q39 0 69 18.5t42.5 46t12.5 56.5
q0 8 -3.5 29t-17.5 41q-37 47 -103 47q-25 0 -54.5 -10.5t-49.5 -39t-20 -67.5q0 -41 20.5 -70.5t49.5 -40t54 -10.5z" />
    <glyph glyph-name="ntilde" unicode="&#xf1;" horiz-adv-x="577" 
d="M285 592q-30 19 -41.5 15.5t-11.5 -39.5h-104q0 56 16 91.5t42 48.5t58.5 7.5t65.5 -26.5q30 -19 41 -15.5t11 39.5h105q0 -56 -16 -91.5t-42.5 -48.5t-59 -7.5t-64.5 26.5zM337 514q39 0 74 -14t60.5 -40.5t40 -65.5t14.5 -87v-307h-129v291q0 49 -27.5 76t-71.5 27
q-36 0 -60.5 -16t-34.5 -36.5t-12.5 -38.5t-2.5 -33v-270h-129v500h129v-56q22 33 61 51.5t88 18.5z" />
    <glyph glyph-name="ograve" unicode="&#xf2;" horiz-adv-x="594" 
d="M379 571l-80 137h-155l111 -137h124zM297 -14q-53 0 -102 20t-85 56.5t-56.5 85t-20.5 102.5t20.5 102.5t56.5 85t85 56.5t102 20t102 -20t85.5 -56.5t57 -85t20.5 -102.5t-20.5 -102.5t-57 -85t-85.5 -56.5t-102 -20zM297 112q57 0 96.5 39.5t39.5 98.5t-39.5 98.5
t-96.5 39.5t-96 -39.5t-39 -98.5t39 -98.5t96 -39.5z" />
    <glyph glyph-name="oacute" unicode="&#xf3;" horiz-adv-x="594" 
d="M217 571h124l111 137h-155zM297 -14q-53 0 -102 20t-85 56.5t-56.5 85t-20.5 102.5t20.5 102.5t56.5 85t85 56.5t102 20t102 -20t85.5 -56.5t57 -85t20.5 -102.5t-20.5 -102.5t-57 -85t-85.5 -56.5t-102 -20zM297 112q57 0 96.5 39.5t39.5 98.5t-39.5 98.5t-96.5 39.5
t-96 -39.5t-39 -98.5t39 -98.5t96 -39.5z" />
    <glyph glyph-name="ocircumflex" unicode="&#xf4;" horiz-adv-x="594" 
d="M294 628l-44 -65h-128l106 145h131l106 -145h-128zM297 514q53 0 102 -20t85.5 -56.5t57 -85t20.5 -102.5t-20.5 -102.5t-57 -85t-85.5 -56.5t-102 -20t-102 20t-85 56.5t-56.5 85t-20.5 102.5t20.5 102.5t56.5 85t85 56.5t102 20zM297 112q57 0 96.5 39.5t39.5 98.5
t-39.5 98.5t-96.5 39.5t-96 -39.5t-39 -98.5t39 -98.5t96 -39.5z" />
    <glyph glyph-name="otilde" unicode="&#xf5;" horiz-adv-x="594" 
d="M127 568q0 56 16 91.5t42 48.5t58.5 7.5t65.5 -26.5q30 -19 41 -15.5t11 39.5h105q0 -56 -16 -91.5t-42.5 -48.5t-59 -7.5t-64.5 26.5q-30 19 -41.5 15.5t-11.5 -39.5h-104zM297 -14q-53 0 -102 20t-85 56.5t-56.5 85t-20.5 102.5t20.5 102.5t56.5 85t85 56.5t102 20
t102 -20t85.5 -56.5t57 -85t20.5 -102.5t-20.5 -102.5t-57 -85t-85.5 -56.5t-102 -20zM297 112q57 0 96.5 39.5t39.5 98.5t-39.5 98.5t-96.5 39.5t-96 -39.5t-39 -98.5t39 -98.5t96 -39.5z" />
    <glyph glyph-name="odieresis" unicode="&#xf6;" horiz-adv-x="594" 
d="M202 557q-27 0 -47.5 20t-20.5 47t20.5 47.5t47.5 20.5t47 -20.5t20 -47.5t-20 -47t-47 -20zM392 557q-27 0 -47.5 20t-20.5 47t20.5 47.5t47.5 20.5t47 -20.5t20 -47.5t-20 -47t-47 -20zM297 -14q-53 0 -102 20t-85 56.5t-56.5 85t-20.5 102.5t20.5 102.5t56.5 85
t85 56.5t102 20t102 -20t85.5 -56.5t57 -85t20.5 -102.5t-20.5 -102.5t-57 -85t-85.5 -56.5t-102 -20zM297 112q57 0 96.5 39.5t39.5 98.5t-39.5 98.5t-96.5 39.5t-96 -39.5t-39 -98.5t39 -98.5t96 -39.5z" />
    <glyph glyph-name="divide" unicode="&#xf7;" horiz-adv-x="565" 
d="M283 463q-34 0 -58 24t-24 58t24 57.5t58 23.5t57.5 -23.5t23.5 -57.5t-23.5 -58t-57.5 -24zM45 290v121h475v-121h-475zM283 74q-34 0 -58 24t-24 58t24 57.5t58 23.5t57.5 -23.5t23.5 -57.5t-23.5 -58t-57.5 -24z" />
    <glyph glyph-name="oslash" unicode="&#xf8;" horiz-adv-x="594" 
d="M491 431q33 -35 52 -82.5t19 -98.5q0 -54 -20.5 -102.5t-57 -85t-85.5 -56.5t-102 -20q-81 0 -145 42l-32 -37l-55 32l39 46q-33 35 -52 82t-19 99q0 54 20.5 102.5t56.5 85t85 56.5t102 20q79 0 146 -43l32 38l55 -32zM162 250q0 -47 25 -83l174 206q-28 15 -64 15
q-57 0 -96 -39.5t-39 -98.5zM297 112q57 0 96.5 39.5t39.5 98.5q0 22 -7 44t-18 38l-174 -205q29 -15 63 -15z" />
    <glyph glyph-name="ugrave" unicode="&#xf9;" horiz-adv-x="577" 
d="M366 563h-124l-111 137h155zM389 500h129v-500h-129v56q-22 -33 -61 -51.5t-88 -18.5q-39 0 -74 14t-60.5 40.5t-40 65.5t-14.5 87v307h129v-291q0 -49 27.5 -76t71.5 -27q36 0 60.5 16t34.5 36.5t12.5 38.5t2.5 33v270z" />
    <glyph glyph-name="uacute" unicode="&#xfa;" horiz-adv-x="577" 
d="M439 700l-111 -137h-124l80 137h155zM389 500h129v-500h-129v56q-22 -33 -61 -51.5t-88 -18.5q-39 0 -74 14t-60.5 40.5t-40 65.5t-14.5 87v307h129v-291q0 -49 27.5 -76t71.5 -27q36 0 60.5 16t34.5 36.5t12.5 38.5t2.5 33v270z" />
    <glyph glyph-name="ucircumflex" unicode="&#xfb;" horiz-adv-x="577" 
d="M281 620l-44 -65h-128l106 145h131l106 -145h-128zM389 500h129v-500h-129v56q-22 -33 -61 -51.5t-88 -18.5q-39 0 -74 14t-60.5 40.5t-40 65.5t-14.5 87v307h129v-291q0 -49 27.5 -76t71.5 -27q36 0 60.5 16t34.5 36.5t12.5 38.5t2.5 33v270z" />
    <glyph glyph-name="udieresis" unicode="&#xfc;" horiz-adv-x="577" 
d="M189 549q-27 0 -47.5 20t-20.5 47t20.5 47.5t47.5 20.5t47 -20.5t20 -47.5t-20 -47t-47 -20zM379 549q-27 0 -47.5 20t-20.5 47t20.5 47.5t47.5 20.5t47 -20.5t20 -47.5t-20 -47t-47 -20zM389 500h129v-500h-129v56q-22 -33 -61 -51.5t-88 -18.5q-39 0 -74 14t-60.5 40.5
t-40 65.5t-14.5 87v307h129v-291q0 -49 27.5 -76t71.5 -27q36 0 60.5 16t34.5 36.5t12.5 38.5t2.5 33v270z" />
    <glyph glyph-name="yacute" unicode="&#xfd;" horiz-adv-x="525" 
d="M418 700l-111 -137h-124l80 137h155zM385 500h138l-182 -500q-39 -107 -104 -156t-160 -44v120q52 -1 82.5 22.5t48.5 73.5l-205 484h141l130 -336z" />
    <glyph glyph-name="thorn" unicode="&#xfe;" 
d="M350 514q49 0 93.5 -20t78.5 -56.5t53 -85t19 -102.5t-19 -102.5t-53 -85t-78.5 -56.5t-93.5 -20q-105 0 -162 73v-259h-129v900h129v-259q57 73 162 73zM326 109q60 0 99.5 39.5t39.5 101.5t-39.5 101.5t-99.5 39.5t-99 -39.5t-39 -101.5t39 -101.5t99 -39.5z" />
    <glyph glyph-name="ydieresis" unicode="&#xff;" horiz-adv-x="525" 
d="M168 549q-27 0 -47.5 20t-20.5 47t20.5 47.5t47.5 20.5t47 -20.5t20 -47.5t-20 -47t-47 -20zM358 549q-27 0 -47.5 20t-20.5 47t20.5 47.5t47.5 20.5t47 -20.5t20 -47.5t-20 -47t-47 -20zM385 500h138l-182 -500q-39 -107 -104 -156t-160 -44v120q52 -1 82.5 22.5
t48.5 73.5l-205 484h141l130 -336z" />
    <glyph glyph-name="Amacron" unicode="&#x100;" horiz-adv-x="668" 
d="M479 869v-105h-290v105h290zM515 0l-42 126h-279l-42 -126h-149l245 700h171l246 -700h-150zM238 255h192l-96 286z" />
    <glyph glyph-name="amacron" unicode="&#x101;" 
d="M454 669v-105h-290v105h290zM439 500h129v-500h-129v59q-27 -34 -69 -53.5t-94 -19.5q-48 0 -93 20t-78.5 56.5t-52.5 85t-19 102.5t19 102.5t52.5 85t78.5 56.5t93 20q52 0 94 -19.5t69 -53.5v59zM300 109q60 0 99.5 39.5t39.5 101.5t-39.5 101.5t-99.5 39.5t-99 -39.5
t-39 -101.5t39 -101.5t99 -39.5z" />
    <glyph glyph-name="Abreve" unicode="&#x102;" horiz-adv-x="668" 
d="M334 747q-79 0 -122.5 38t-43.5 107h115q0 -52 51 -52q52 0 52 52h115q0 -69 -43.5 -107t-123.5 -38zM515 0l-42 126h-279l-42 -126h-149l245 700h171l246 -700h-150zM238 255h192l-96 286z" />
    <glyph glyph-name="abreve" unicode="&#x103;" 
d="M309 547q-79 0 -122.5 38t-43.5 107h115q0 -52 51 -52q52 0 52 52h115q0 -69 -43.5 -107t-123.5 -38zM439 500h129v-500h-129v59q-27 -34 -69 -53.5t-94 -19.5q-48 0 -93 20t-78.5 56.5t-52.5 85t-19 102.5t19 102.5t52.5 85t78.5 56.5t93 20q52 0 94 -19.5t69 -53.5v59z
M300 109q60 0 99.5 39.5t39.5 101.5t-39.5 101.5t-99.5 39.5t-99 -39.5t-39 -101.5t39 -101.5t99 -39.5z" />
    <glyph glyph-name="Aogonek" unicode="&#x104;" horiz-adv-x="668" 
d="M637 -122q12 -1 28 5v-81q-38 -16 -81 -16q-30 0 -53.5 12.5t-32.5 34t-9 41.5q0 27 18 60.5t48 65.5h-40l-42 126h-279l-42 -126h-149l245 700h171l246 -700q-24 -26 -38.5 -51.5t-14.5 -43.5q0 -12 7 -19.5t18 -7.5zM238 255h192l-96 286z" />
    <glyph glyph-name="aogonek" unicode="&#x105;" 
d="M568 0q-25 -25 -39 -51t-14 -44q-1 -12 6 -19.5t19 -7.5q11 -1 28 5v-81q-40 -16 -81 -16q-42 0 -69 23t-27 65q0 27 17 60t47 66h-16v59q-27 -34 -69 -53.5t-94 -19.5q-48 0 -93 20t-78.5 56.5t-52.5 85t-19 102.5t19 102.5t52.5 85t78.5 56.5t93 20q52 0 94 -19.5
t69 -53.5v59h129v-500zM300 109q60 0 99.5 39.5t39.5 101.5t-39.5 101.5t-99.5 39.5t-99 -39.5t-39 -101.5t39 -101.5t99 -39.5z" />
    <glyph glyph-name="Cacute" unicode="&#x106;" horiz-adv-x="726" 
d="M317 771h124l111 137h-155zM397 -14q-77 0 -144.5 28t-116.5 77.5t-76 117t-27 141.5q0 75 27 142t76 117t116.5 77.5t144.5 27.5q59 0 113.5 -18t104 -54.5t83.5 -92.5l-119 -69q-12 22 -36 45.5t-63.5 39t-82.5 15.5q-50 0 -92.5 -17t-72.5 -47.5t-46 -73.5t-16 -92
t16 -91.5t46 -73t72.5 -47.5t92.5 -17q43 0 83 15.5t63.5 39t35.5 44.5l119 -69q-45 -76 -125.5 -120.5t-175.5 -44.5z" />
    <glyph glyph-name="cacute" unicode="&#x107;" horiz-adv-x="536" 
d="M216 563h124l111 137h-155zM297 -14q-55 0 -104 20t-85 56t-55.5 85t-19.5 103t19.5 103t55.5 85t85 56t104 20q53 0 101.5 -20.5t78.5 -51t44 -57.5l-111 -65q-15 30 -46 48.5t-68 18.5q-57 0 -95.5 -39t-38.5 -98q0 -58 38.5 -97t95.5 -39q38 0 69 18t46 48l112 -64
q-15 -27 -45.5 -58t-79 -51.5t-101.5 -20.5z" />
    <glyph glyph-name="Cdotaccent" unicode="&#x10a;" horiz-adv-x="726" 
d="M397 759q-32 0 -55 23.5t-23 54.5t23 54t55 23q31 0 54 -23t23 -54t-23 -54.5t-54 -23.5zM397 -14q-77 0 -144.5 28t-116.5 77.5t-76 117t-27 141.5q0 75 27 142t76 117t116.5 77.5t144.5 27.5q59 0 113.5 -18t104 -54.5t83.5 -92.5l-119 -69q-12 22 -36 45.5t-63.5 39
t-82.5 15.5q-50 0 -92.5 -17t-72.5 -47.5t-46 -73.5t-16 -92t16 -91.5t46 -73t72.5 -47.5t92.5 -17q43 0 83 15.5t63.5 39t35.5 44.5l119 -69q-45 -76 -125.5 -120.5t-175.5 -44.5z" />
    <glyph glyph-name="cdotaccent" unicode="&#x10b;" horiz-adv-x="536" 
d="M296 551q-32 0 -55 23.5t-23 54.5t23 54t55 23q31 0 54 -23t23 -54t-23 -54.5t-54 -23.5zM297 -14q-55 0 -104 20t-85 56t-55.5 85t-19.5 103t19.5 103t55.5 85t85 56t104 20q53 0 101.5 -20.5t78.5 -51t44 -57.5l-111 -65q-15 30 -46 48.5t-68 18.5q-57 0 -95.5 -39
t-38.5 -98q0 -58 38.5 -97t95.5 -39q38 0 69 18t46 48l112 -64q-15 -27 -45.5 -58t-79 -51.5t-101.5 -20.5z" />
    <glyph glyph-name="Ccaron" unicode="&#x10c;" horiz-adv-x="726" 
d="M328 763l-106 145h128l44 -65l43 65h128l-106 -145h-131zM397 121q43 0 83 15.5t63.5 39t35.5 44.5l119 -69q-45 -76 -125.5 -120.5t-175.5 -44.5q-77 0 -144.5 28t-116.5 77.5t-76 117t-27 141.5q0 75 27 142t76 117t116.5 77.5t144.5 27.5q59 0 113.5 -18t104 -54.5
t83.5 -92.5l-119 -69q-12 22 -36 45.5t-63.5 39t-82.5 15.5q-50 0 -92.5 -17t-72.5 -47.5t-46 -73.5t-16 -92t16 -91.5t46 -73t72.5 -47.5t92.5 -17z" />
    <glyph glyph-name="ccaron" unicode="&#x10d;" horiz-adv-x="536" 
d="M227 555l-106 145h128l44 -65l43 65h128l-106 -145h-131zM411 180l112 -64q-15 -27 -45.5 -58t-79 -51.5t-101.5 -20.5q-55 0 -104 20t-85 56t-55.5 85t-19.5 103t19.5 103t55.5 85t85 56t104 20q53 0 101.5 -20.5t78.5 -51t44 -57.5l-111 -65q-15 30 -46 48.5t-68 18.5
q-57 0 -95.5 -39t-38.5 -98q0 -58 38.5 -97t95.5 -39q38 0 69 18t46 48z" />
    <glyph glyph-name="Dcaron" unicode="&#x10e;" horiz-adv-x="713" 
d="M266 755l-106 145h128l44 -65l43 65h128l-106 -145h-131zM343 700q70 0 132.5 -26.5t108 -74.5t71 -112.5t25.5 -136.5t-25.5 -136.5t-71 -112.5t-108 -74.5t-132.5 -26.5h-278v700h278zM343 132q90 0 147.5 61t57.5 157t-57.5 157t-147.5 61h-140v-436h140z" />
    <glyph glyph-name="dcaron" unicode="&#x10f;" horiz-adv-x="735" 
d="M438 441v259h129v-700h-129v59q-57 -73 -162 -73q-49 0 -93.5 20t-78.5 56.5t-53 85t-19 102.5t19 102.5t53 85t78.5 56.5t93.5 20q105 0 162 -73zM624 700h121l-30 -200h-101zM300 109q60 0 99 39.5t39 101.5t-39 101.5t-99 39.5t-99.5 -39.5t-39.5 -101.5t39.5 -101.5
t99.5 -39.5z" />
    <glyph glyph-name="Dcroat" unicode="&#x110;" horiz-adv-x="748" 
d="M378 700q70 0 132.5 -26.5t108 -74.5t71 -112.5t25.5 -136.5t-25.5 -136.5t-71 -112.5t-108 -74.5t-132.5 -26.5h-278v281h-78v124h78v295h278zM378 132q90 0 147.5 61t57.5 157t-57.5 157t-147.5 61h-140v-163h159v-124h-159v-149h140z" />
    <glyph glyph-name="dcroat" unicode="&#x111;" horiz-adv-x="633" 
d="M630 638v-84h-62v-554h-129v59q-27 -34 -69 -53.5t-94 -19.5q-48 0 -93 20t-78.5 56.5t-52.5 85t-19 102.5t19 102.5t52.5 85t78.5 56.5t93 20q52 0 94 -19.5t69 -53.5v113h-151v84h151v62h129v-62h62zM300 109q60 0 99.5 39.5t39.5 101.5t-39.5 101.5t-99.5 39.5
t-99 -39.5t-39 -101.5t39 -101.5t99 -39.5z" />
    <glyph glyph-name="Emacron" unicode="&#x112;" horiz-adv-x="530" 
d="M424 869v-105h-290v105h290zM203 132h295v-132h-433v700h428v-132h-290v-149h265v-130h-265v-157z" />
    <glyph glyph-name="emacron" unicode="&#x113;" horiz-adv-x="581" 
d="M436 673v-105h-290v105h290zM168 197q13 -47 50.5 -70.5t90.5 -23.5q36 0 65.5 14t46.5 36l104 -60q-35 -51 -91.5 -79t-126.5 -28q-61 0 -112 20t-87.5 56t-55.5 84.5t-19 103.5t19 103.5t54.5 84.5t84.5 56t106 20q54 0 101 -20.5t81 -56.5t52.5 -84.5t18.5 -102.5
q0 -25 -5 -53h-377zM166 297h255q-6 26 -19.5 47.5t-40 37.5t-64.5 16q-51 0 -85.5 -27t-45.5 -74z" />
    <glyph glyph-name="Edotaccent" unicode="&#x116;" horiz-adv-x="530" 
d="M279 751q-32 0 -55 23.5t-23 54.5t23 54t55 23q31 0 54 -23t23 -54t-23 -54.5t-54 -23.5zM203 132h295v-132h-433v700h428v-132h-290v-149h265v-130h-265v-157z" />
    <glyph glyph-name="edotaccent" unicode="&#x117;" horiz-adv-x="581" 
d="M291 555q-32 0 -55 23.5t-23 54.5t23 54t55 23q31 0 54 -23t23 -54t-23 -54.5t-54 -23.5zM168 197q13 -47 50.5 -70.5t90.5 -23.5q36 0 65.5 14t46.5 36l104 -60q-35 -51 -91.5 -79t-126.5 -28q-61 0 -112 20t-87.5 56t-55.5 84.5t-19 103.5t19 103.5t54.5 84.5t84.5 56
t106 20q54 0 101 -20.5t81 -56.5t52.5 -84.5t18.5 -102.5q0 -25 -5 -53h-377zM166 297h255q-6 26 -19.5 47.5t-40 37.5t-64.5 16q-51 0 -85.5 -27t-45.5 -74z" />
    <glyph glyph-name="Eogonek" unicode="&#x118;" horiz-adv-x="530" 
d="M203 132h295v-132h-1q-24 -26 -38 -51.5t-14 -43.5q-1 -12 6 -19.5t19 -7.5q11 -1 27 5v-81q-38 -16 -80 -16t-69 23t-27 65q0 27 18 60.5t48 65.5h-322v700h428v-132h-290v-149h265v-130h-265v-157z" />
    <glyph glyph-name="eogonek" unicode="&#x119;" horiz-adv-x="581" 
d="M168 197q13 -47 50.5 -70.5t90.5 -23.5q36 0 65.5 14t46.5 36l104 -60q-13 -19 -37 -43q-36 -38 -60 -77.5t-24 -67.5q0 -12 7 -19.5t18 -7.5q12 -1 28 5v-81q-40 -16 -81 -16q-42 0 -68.5 23t-26.5 65q0 26 16.5 56.5t48.5 57.5l-39 -2q-61 0 -112 20t-87.5 56
t-55.5 84.5t-19 103.5t19 103.5t54.5 84.5t84.5 56t106 20q54 0 101 -20.5t81 -56.5t52.5 -84.5t18.5 -102.5q0 -25 -5 -53h-377zM166 297h255q-6 26 -19.5 47.5t-40 37.5t-64.5 16q-51 0 -85.5 -27t-45.5 -74z" />
    <glyph glyph-name="Ecaron" unicode="&#x11a;" horiz-adv-x="530" 
d="M210 755l-106 145h128l44 -65l43 65h128l-106 -145h-131zM203 132h295v-132h-433v700h428v-132h-290v-149h265v-130h-265v-157z" />
    <glyph glyph-name="ecaron" unicode="&#x11b;" horiz-adv-x="581" 
d="M222 559l-106 145h128l44 -65l43 65h128l-106 -145h-131zM168 197q13 -47 50.5 -70.5t90.5 -23.5q36 0 65.5 14t46.5 36l104 -60q-35 -51 -91.5 -79t-126.5 -28q-61 0 -112 20t-87.5 56t-55.5 84.5t-19 103.5t19 103.5t54.5 84.5t84.5 56t106 20q54 0 101 -20.5t81 -56.5
t52.5 -84.5t18.5 -102.5q0 -25 -5 -53h-377zM166 297h255q-6 26 -19.5 47.5t-40 37.5t-64.5 16q-51 0 -85.5 -27t-45.5 -74z" />
    <glyph glyph-name="Gbreve" unicode="&#x11e;" horiz-adv-x="785" 
d="M397 755q-79 0 -122.5 38t-43.5 107h115q0 -52 51 -52q52 0 52 52h115q0 -69 -43.5 -107t-123.5 -38zM752 376v-54q0 -73 -25.5 -136t-71.5 -107.5t-109.5 -68.5t-137.5 -24q-79 0 -148.5 28t-120.5 78.5t-78.5 117t-27.5 139.5q0 74 28 141t78 117.5t117.5 78.5
t143.5 28q97 0 178.5 -44.5t126.5 -118.5l-118 -68q-24 42 -75.5 69.5t-112.5 27.5q-23 0 -52.5 -5.5t-59 -21t-56.5 -43t-44 -70.5t-17 -91t17 -90t48.5 -73t76 -48t97.5 -17q60 0 105 20.5t68 52.5t31 60h-212v122h351z" />
    <glyph glyph-name="gbreve" unicode="&#x11f;" 
d="M297 555q-79 0 -122.5 38t-43.5 107h115q0 -52 51 -52q52 0 52 52h115q0 -69 -43.5 -107t-123.5 -38zM442 500h126v-476q0 -44 -14.5 -87t-48 -76.5t-84 -54t-114.5 -20.5q-80 0 -142.5 31.5t-94.5 90.5l110 63q13 -24 32 -40.5t46 -23t53 -6.5q59 0 95 31.5t36 91.5v54
q-27 -36 -68 -56t-92 -20q-38 0 -74.5 11.5t-66.5 32.5t-52.5 49.5t-39 70t-16.5 92.5t19 98t53 82.5t80 55.5t97 20t92 -20t68 -56v62zM302 121q58 0 99 38t41 99q0 58 -40 97t-100 39t-100 -39t-40 -97q0 -61 41 -99t99 -38z" />
    <glyph glyph-name="Gdotaccent" unicode="&#x120;" horiz-adv-x="785" 
d="M397 759q-32 0 -55 23.5t-23 54.5t23 54t55 23q31 0 54 -23t23 -54t-23 -54.5t-54 -23.5zM752 376v-54q0 -73 -25.5 -136t-71.5 -107.5t-109.5 -68.5t-137.5 -24q-79 0 -148.5 28t-120.5 78.5t-78.5 117t-27.5 139.5q0 74 28 141t78 117.5t117.5 78.5t143.5 28
q97 0 178.5 -44.5t126.5 -118.5l-118 -68q-24 42 -75.5 69.5t-112.5 27.5q-23 0 -52.5 -5.5t-59 -21t-56.5 -43t-44 -70.5t-17 -91t17 -90t48.5 -73t76 -48t97.5 -17q60 0 105 20.5t68 52.5t31 60h-212v122h351z" />
    <glyph glyph-name="gdotaccent" unicode="&#x121;" 
d="M297 559q-32 0 -55 23.5t-23 54.5t23 54t55 23q31 0 54 -23t23 -54t-23 -54.5t-54 -23.5zM442 500h126v-476q0 -44 -14.5 -87t-48 -76.5t-84 -54t-114.5 -20.5q-80 0 -142.5 31.5t-94.5 90.5l110 63q13 -24 32 -40.5t46 -23t53 -6.5q59 0 95 31.5t36 91.5v54
q-27 -36 -68 -56t-92 -20q-38 0 -74.5 11.5t-66.5 32.5t-52.5 49.5t-39 70t-16.5 92.5t19 98t53 82.5t80 55.5t97 20t92 -20t68 -56v62zM302 121q58 0 99 38t41 99q0 58 -40 97t-100 39t-100 -39t-40 -97q0 -61 41 -99t99 -38z" />
    <glyph glyph-name="uni0122" unicode="&#x122;" horiz-adv-x="785" 
d="M752 376v-54q0 -73 -25.5 -136t-71.5 -107.5t-109.5 -68.5t-137.5 -24q-79 0 -148.5 28t-120.5 78.5t-78.5 117t-27.5 139.5q0 74 28 141t78 117.5t117.5 78.5t143.5 28q97 0 178.5 -44.5t126.5 -118.5l-118 -68q-24 42 -75.5 69.5t-112.5 27.5q-23 0 -52.5 -5.5t-59 -21
t-56.5 -43t-44 -70.5t-17 -91t17 -90t48.5 -73t76 -48t97.5 -17q60 0 105 20.5t68 52.5t31 60h-212v122h351zM341 -263l10 200h122l-30 -200h-102z" />
    <glyph glyph-name="uni0123" unicode="&#x123;" 
d="M361 783l-10 -200h-122l30 200h102zM442 500h126v-476q0 -44 -14.5 -87t-48 -76.5t-84 -54t-114.5 -20.5q-80 0 -142.5 31.5t-94.5 90.5l110 63q13 -24 32 -40.5t46 -23t53 -6.5q59 0 95 31.5t36 91.5v54q-27 -36 -68 -56t-92 -20q-38 0 -74.5 11.5t-66.5 32.5
t-52.5 49.5t-39 70t-16.5 92.5t19 98t53 82.5t80 55.5t97 20t92 -20t68 -56v62zM302 121q58 0 99 38t41 99q0 58 -40 97t-100 39t-100 -39t-40 -97q0 -61 41 -99t99 -38z" />
    <glyph glyph-name="Hbar" unicode="&#x126;" horiz-adv-x="708" 
d="M683 602v-101h-62v-501h-137v272h-260v-272h-138v501h-61v101h61v98h138v-98h260v98h137v-98h62zM484 404v97h-260v-97h260z" />
    <glyph glyph-name="hbar" unicode="&#x127;" horiz-adv-x="583" 
d="M343 514q19 0 43 -4.5t48.5 -17t47 -36t37 -62.5t14.5 -87v-307h-129v291q0 23 -9.5 48t-34 40t-56.5 15q-36 0 -60.5 -16t-34.5 -36.5t-12.5 -38.5t-2.5 -33v-270h-129v554h-62v84h62v62h129v-62h141v-84h-141v-111q22 34 61 52.5t88 18.5z" />
    <glyph glyph-name="Imacron" unicode="&#x12a;" horiz-adv-x="268" 
d="M-11 764v105h290v-105h-290zM65 700h138v-700h-138v700z" />
    <glyph glyph-name="imacron" unicode="&#x12b;" horiz-adv-x="247" 
d="M8 564v112h230v-112h-230zM59 0v500h129v-500h-129z" />
    <glyph glyph-name="Iogonek" unicode="&#x12e;" horiz-adv-x="268" 
d="M194 -122q11 -1 28 5v-81q-40 -16 -81 -16q-42 0 -69 23t-27 65q0 29 13.5 63t32.5 63h-26v700h138v-700q-34 -56 -34 -95q-1 -12 6 -19.5t19 -7.5z" />
    <glyph glyph-name="iogonek" unicode="&#x12f;" horiz-adv-x="247" 
d="M123 560q-32 0 -55.5 23.5t-23.5 55.5t23.5 56t55.5 24t56 -24t24 -56t-24 -55.5t-56 -23.5zM179 -122q11 -1 27 5v-81q-38 -16 -80 -16q-30 0 -54 13.5t-33 35t-9 41.5q0 53 43 124h-14v500h129v-500q-15 -24 -24.5 -49.5t-9.5 -42.5q-1 -13 6 -21.5t19 -8.5z" />
    <glyph glyph-name="Idotaccent" unicode="&#x130;" horiz-adv-x="268" 
d="M134 751q-32 0 -55 23.5t-23 54.5t23 54t55 23q31 0 54 -23t23 -54t-23 -54.5t-54 -23.5zM65 700h138v-700h-138v700z" />
    <glyph glyph-name="dotlessi" unicode="&#x131;" horiz-adv-x="247" 
d="M59 0v500h129v-500h-129z" />
    <glyph glyph-name="uni0136" unicode="&#x136;" horiz-adv-x="615" 
d="M343 360l269 -360h-159l-250 328v-328h-138v700h138v-309l240 309h159zM242 -263l10 200h122l-30 -200h-102z" />
    <glyph glyph-name="uni0137" unicode="&#x137;" horiz-adv-x="525" 
d="M313 253l207 -253h-150l-182 227v-227h-129v700h129v-420l172 220h154zM215 -263l10 200h122l-30 -200h-102z" />
    <glyph glyph-name="Lacute" unicode="&#x139;" horiz-adv-x="483" 
d="M302 900l-111 -137h-124l80 137h155zM203 132h267v-132h-405v700h138v-568z" />
    <glyph glyph-name="lacute" unicode="&#x13a;" horiz-adv-x="247" 
d="M57 763h124l111 137h-155zM59 0v730h129v-730h-129z" />
    <glyph glyph-name="uni013B" unicode="&#x13b;" horiz-adv-x="483" 
d="M203 132h267v-132h-405v700h138v-568zM209 -263l10 200h122l-30 -200h-102z" />
    <glyph glyph-name="uni013C" unicode="&#x13c;" horiz-adv-x="247" 
d="M59 0v730h129v-730h-129zM157 -263l30 200h-122l-10 -200h102z" />
    <glyph glyph-name="Lcaron" unicode="&#x13d;" horiz-adv-x="483" 
d="M203 132h267v-132h-405v700h138v-568zM406 700l-30 -185h-109l10 185h129z" />
    <glyph glyph-name="lcaron" unicode="&#x13e;" horiz-adv-x="354" 
d="M59 0v730h129v-730h-129zM334 530l30 200h-122l-10 -200h102z" />
    <glyph glyph-name="Lslash" unicode="&#x141;" horiz-adv-x="503" 
d="M223 132h267v-132h-405v211l-60 -36v138l60 36v351h138v-269l132 78v-138l-132 -78v-161z" />
    <glyph glyph-name="lslash" unicode="&#x142;" horiz-adv-x="263" 
d="M250 490v-123l-54 -37v-330h-129v242l-54 -37v123l54 37v365h129v-277z" />
    <glyph glyph-name="Nacute" unicode="&#x143;" horiz-adv-x="673" 
d="M249 763h124l111 137h-155zM470 700h138v-700h-105l-300 428v-428h-138v700h105l300 -427v427z" />
    <glyph glyph-name="nacute" unicode="&#x144;" horiz-adv-x="577" 
d="M453 708l-111 -137h-124l80 137h155zM337 514q39 0 74 -14t60.5 -40.5t40 -65.5t14.5 -87v-307h-129v291q0 49 -27.5 76t-71.5 27q-36 0 -60.5 -16t-34.5 -36.5t-12.5 -38.5t-2.5 -33v-270h-129v500h129v-56q22 33 61 51.5t88 18.5z" />
    <glyph glyph-name="uni0145" unicode="&#x145;" horiz-adv-x="673" 
d="M470 700h138v-700h-105l-300 428v-428h-138v700h105l300 -427v427zM373 -263l30 200h-122l-10 -200h102z" />
    <glyph glyph-name="uni0146" unicode="&#x146;" horiz-adv-x="577" 
d="M337 514q39 0 74 -14t60.5 -40.5t40 -65.5t14.5 -87v-307h-129v291q0 49 -27.5 76t-71.5 27q-36 0 -60.5 -16t-34.5 -36.5t-12.5 -38.5t-2.5 -33v-270h-129v500h129v-56q22 33 61 51.5t88 18.5zM228 -263l10 200h122l-30 -200h-102z" />
    <glyph glyph-name="Ncaron" unicode="&#x147;" horiz-adv-x="673" 
d="M260 755l-106 145h128l44 -65l43 65h128l-106 -145h-131zM470 700h138v-700h-105l-300 428v-428h-138v700h105l300 -427v427z" />
    <glyph glyph-name="ncaron" unicode="&#x148;" horiz-adv-x="577" 
d="M229 563l-106 145h128l44 -65l43 65h128l-106 -145h-131zM337 514q39 0 74 -14t60.5 -40.5t40 -65.5t14.5 -87v-307h-129v291q0 49 -27.5 76t-71.5 27q-36 0 -60.5 -16t-34.5 -36.5t-12.5 -38.5t-2.5 -33v-270h-129v500h129v-56q22 33 61 51.5t88 18.5z" />
    <glyph glyph-name="Eng" unicode="&#x14a;" horiz-adv-x="673" 
d="M470 700h138v-700q0 -102 -61.5 -154t-171.5 -46v126q48 0 71.5 18t23.5 64v39l-267 381v-428h-138v700h105l300 -427v427z" />
    <glyph glyph-name="eng" unicode="&#x14b;" horiz-adv-x="577" 
d="M337 514q39 0 74 -14t60.5 -40.5t40 -65.5t14.5 -87v-317q0 -104 -52.5 -157.5t-157.5 -46.5v124q40 -4 60.5 15t20.5 65v301q0 49 -27.5 76t-71.5 27q-36 0 -60.5 -16t-34.5 -36.5t-12.5 -38.5t-2.5 -33v-270h-129v500h129v-56q22 33 61 51.5t88 18.5z" />
    <glyph glyph-name="Omacron" unicode="&#x14c;" horiz-adv-x="792" 
d="M251 772v105h290v-105h-290zM396 -14q-73 0 -140 28t-117 78t-78 117t-28 141t28 141.5t78 117t117 77.5t140 28t140 -28t117.5 -77.5t78.5 -117t28 -141.5t-28 -141t-78.5 -117t-117.5 -78t-140 -28zM396 121q34 0 72.5 11.5t76.5 42.5t57.5 78.5t19.5 96.5
q0 23 -5.5 53t-21 59.5t-42.5 56.5t-69 44t-88 17q-34 0 -72.5 -11.5t-76.5 -42.5t-57.5 -79t-19.5 -97q0 -36 11.5 -75t43 -77.5t78.5 -57.5t93 -19z" />
    <glyph glyph-name="omacron" unicode="&#x14d;" horiz-adv-x="594" 
d="M152 572v105h290v-105h-290zM297 -14q-53 0 -102 20t-85 56.5t-56.5 85t-20.5 102.5t20.5 102.5t56.5 85t85 56.5t102 20t102 -20t85.5 -56.5t57 -85t20.5 -102.5t-20.5 -102.5t-57 -85t-85.5 -56.5t-102 -20zM297 112q57 0 96.5 39.5t39.5 98.5t-39.5 98.5t-96.5 39.5
t-96 -39.5t-39 -98.5t39 -98.5t96 -39.5z" />
    <glyph glyph-name="Ohungarumlaut" unicode="&#x150;" horiz-adv-x="792" 
d="M221 763h128l84 138h-134zM394 763h128l94 138h-134zM396 -14q-73 0 -140 28t-117 78t-78 117t-28 141t28 141.5t78 117t117 77.5t140 28t140 -28t117.5 -77.5t78.5 -117t28 -141.5t-28 -141t-78.5 -117t-117.5 -78t-140 -28zM396 121q34 0 72.5 11.5t76.5 42.5
t57.5 78.5t19.5 96.5q0 23 -5.5 53t-21 59.5t-42.5 56.5t-69 44t-88 17q-34 0 -72.5 -11.5t-76.5 -42.5t-57.5 -79t-19.5 -97q0 -36 11.5 -75t43 -77.5t78.5 -57.5t93 -19z" />
    <glyph glyph-name="ohungarumlaut" unicode="&#x151;" horiz-adv-x="594" 
d="M122 563h128l84 138h-134zM295 563h128l94 138h-134zM297 -14q-53 0 -102 20t-85 56.5t-56.5 85t-20.5 102.5t20.5 102.5t56.5 85t85 56.5t102 20t102 -20t85.5 -56.5t57 -85t20.5 -102.5t-20.5 -102.5t-57 -85t-85.5 -56.5t-102 -20zM297 112q57 0 96.5 39.5t39.5 98.5
t-39.5 98.5t-96.5 39.5t-96 -39.5t-39 -98.5t39 -98.5t96 -39.5z" />
    <glyph glyph-name="OE" unicode="&#x152;" horiz-adv-x="916" 
d="M623 132h260v-132h-397q-48 -14 -100 -14q-73 0 -138.5 28t-113.5 78t-74.5 117t-26.5 141q0 75 26.5 142t74.5 116.5t113.5 77.5t138.5 28q52 0 100 -14h392v-132h-255v-149h233v-130h-233v-157zM486 136v429q-45 15 -100 15q-34 0 -71 -11t-73 -42.5t-54 -79.5t-18 -97
q0 -36 10.5 -75.5t40 -77.5t74.5 -57t91 -19q59 0 100 15z" />
    <glyph glyph-name="oe" unicode="&#x153;" horiz-adv-x="981" 
d="M568 197q14 -47 52 -70.5t85 -23.5q38 0 68.5 14t47.5 36l104 -60q-35 -51 -91.5 -79t-126.5 -28q-34 0 -74.5 10t-77 37t-58.5 65q-32 -52 -85 -82t-119 -30q-54 0 -102 20t-83.5 56t-55 85t-19.5 103t19.5 103t55 85t83.5 56t102 20q65 0 118.5 -30t84.5 -81
q22 38 58 64.5t76 36.5t73 10q53 0 99 -20.5t79 -56.5t51 -84.5t18 -102.5q0 -25 -5 -53h-377zM566 298h255q-5 25 -20.5 49t-43.5 37.5t-59 13.5q-50 0 -85 -26.5t-47 -73.5zM297 112q57 0 96.5 39.5t39.5 98.5t-39.5 98.5t-96.5 39.5q-58 0 -96.5 -39t-38.5 -99t38.5 -99
t96.5 -39z" />
    <glyph glyph-name="Racute" unicode="&#x154;" horiz-adv-x="614" 
d="M450 900l-111 -137h-124l80 137h155zM449 0l-141 243h-105v-243h-138v700h280q35 0 74 -12t78.5 -45t60 -81t20.5 -94q0 -65 -37.5 -120.5t-97.5 -83.5l155 -264h-149zM203 571v-207h142q18 0 40 10t38.5 36.5t16.5 57.5q0 20 -9.5 44t-33.5 41.5t-52 17.5h-142z" />
    <glyph glyph-name="racute" unicode="&#x155;" horiz-adv-x="356" 
d="M348 700l-111 -137h-124l80 137h155zM188 414q9 23 29 46.5t53.5 36.5t69.5 13v-144q-25 3 -53 -2.5t-50 -20t-35.5 -41t-13.5 -63.5v-239h-129v500h129v-86z" />
    <glyph glyph-name="uni0156" unicode="&#x156;" horiz-adv-x="614" 
d="M443 264l155 -264h-149l-141 243h-105v-243h-138v700h280q35 0 74 -12t78.5 -45t60 -81t20.5 -94q0 -65 -37.5 -120.5t-97.5 -83.5zM203 571v-207h142q18 0 40 10t38.5 36.5t16.5 57.5q0 20 -9.5 44t-33.5 41.5t-52 17.5h-142zM258 -263l10 200h122l-30 -200h-102z" />
    <glyph glyph-name="uni0157" unicode="&#x157;" horiz-adv-x="356" 
d="M188 414q9 23 29 46.5t53.5 36.5t69.5 13v-144q-25 3 -53 -2.5t-50 -20t-35.5 -41t-13.5 -63.5v-239h-129v500h129v-86zM55 -263l10 200h122l-30 -200h-102z" />
    <glyph glyph-name="Rcaron" unicode="&#x158;" horiz-adv-x="614" 
d="M226 755l-106 145h128l44 -65l43 65h128l-106 -145h-131zM449 0l-141 243h-105v-243h-138v700h280q35 0 74 -12t78.5 -45t60 -81t20.5 -94q0 -65 -37.5 -120.5t-97.5 -83.5l155 -264h-149zM203 571v-207h142q18 0 40 10t38.5 36.5t16.5 57.5q0 20 -9.5 44t-33.5 41.5
t-52 17.5h-142z" />
    <glyph glyph-name="rcaron" unicode="&#x159;" horiz-adv-x="356" 
d="M124 555l-106 145h128l44 -65l43 65h128l-106 -145h-131zM188 414q9 23 29 46.5t53.5 36.5t69.5 13v-144q-25 3 -53 -2.5t-50 -20t-35.5 -41t-13.5 -63.5v-239h-129v500h129v-86z" />
    <glyph glyph-name="Sacute" unicode="&#x15a;" horiz-adv-x="583" 
d="M213 771h124l111 137h-155zM304 -14q-104 0 -175 46.5t-100 126.5l118 69q19 -50 59 -78.5t102 -28.5q57 0 84.5 21t27.5 53q0 28 -24 50t-127 52q-72 21 -116 46t-69.5 65t-25.5 98q0 35 12.5 71.5t45.5 70.5t80 50t92 16q85 0 149.5 -41.5t100.5 -115.5l-116 -67
q-42 90 -134 90q-42 0 -67 -20t-25 -50q0 -32 26.5 -53t106.5 -45q98 -31 142.5 -58t65.5 -67t21 -90q0 -48 -18.5 -87.5t-52.5 -67t-81 -42t-102 -14.5z" />
    <glyph glyph-name="sacute" unicode="&#x15b;" horiz-adv-x="465" 
d="M386 708l-111 -137h-124l80 137h155zM178 358q0 -13 12.5 -24t59.5 -24.5t69 -20.5t43 -19t37 -27t26.5 -40t10.5 -57q0 -48 -24 -83t-69.5 -56t-107.5 -21q-74 0 -128.5 31t-81.5 88l112 63q8 -23 24 -38.5t36.5 -21t37.5 -5.5q31 0 50 11t19 32q0 16 -16 26.5t-61.5 24
t-65.5 20t-41 18.5t-37 26.5t-26.5 38.5t-10.5 55q0 46 22.5 80.5t65.5 56.5t102 22q60 0 111 -28t79 -78l-110 -60q-11 24 -32 37.5t-48 13.5q-25 0 -41.5 -11t-16.5 -30z" />
    <glyph glyph-name="Scedilla" unicode="&#x15e;" horiz-adv-x="583" 
d="M558 197q0 -85 -54.5 -139.5t-145.5 -67.5v-36q29 -7 49.5 -27t20.5 -51q0 -105 -220 -92v91q53 -4 80.5 1.5t27.5 18.5q0 8 -12 15t-51 10v69q-65 9 -112.5 37t-73.5 64.5t-38 68.5l118 69q19 -50 59 -78.5t102 -28.5q57 0 84.5 21t27.5 53q0 28 -24 50t-127 52
q-72 21 -116 46t-69.5 65t-25.5 98q0 35 12.5 71.5t45.5 70.5t80 50t92 16q85 0 149.5 -41.5t100.5 -115.5l-116 -67q-42 90 -134 90q-42 0 -67 -20t-25 -50q0 -32 26.5 -53t106.5 -45q98 -31 142.5 -58t65.5 -67t21 -90z" />
    <glyph glyph-name="scedilla" unicode="&#x15f;" horiz-adv-x="465" 
d="M436 146q0 -39 -15.5 -69t-47 -52.5t-76.5 -32.5v-38q29 -7 49.5 -27t20.5 -51q0 -105 -220 -92v91q53 -4 80.5 1.5t27.5 18.5q0 8 -12 15t-51 10v69q-58 7 -101 37t-66 79l112 63q8 -23 24 -38.5t36.5 -21t37.5 -5.5q31 0 50 11t19 32q0 16 -16 26.5t-61.5 24t-65.5 20
t-41 18.5t-37 26.5t-26.5 38.5t-10.5 55q0 46 22.5 80.5t65.5 56.5t102 22q60 0 111 -28t79 -78l-110 -60q-11 24 -32 37.5t-48 13.5q-25 0 -41.5 -11t-16.5 -30q0 -13 12.5 -24t59.5 -24.5t69 -20.5t43 -19t37 -27t26.5 -40t10.5 -57z" />
    <glyph glyph-name="Scaron" unicode="&#x160;" horiz-adv-x="583" 
d="M224 763l-106 145h128l44 -65l43 65h128l-106 -145h-131zM329 412q98 -31 142.5 -58t65.5 -67t21 -90q0 -48 -18.5 -87.5t-52.5 -67t-81 -42t-102 -14.5q-104 0 -175 46.5t-100 126.5l118 69q19 -50 59 -78.5t102 -28.5q57 0 84.5 21t27.5 53q0 28 -24 50t-127 52
q-72 21 -116 46t-69.5 65t-25.5 98q0 35 12.5 71.5t45.5 70.5t80 50t92 16q85 0 149.5 -41.5t100.5 -115.5l-116 -67q-42 90 -134 90q-42 0 -67 -20t-25 -50q0 -32 26.5 -53t106.5 -45z" />
    <glyph glyph-name="scaron" unicode="&#x161;" horiz-adv-x="465" 
d="M162 563l-106 145h128l44 -65l43 65h128l-106 -145h-131zM178 358q0 -13 12.5 -24t59.5 -24.5t69 -20.5t43 -19t37 -27t26.5 -40t10.5 -57q0 -48 -24 -83t-69.5 -56t-107.5 -21q-74 0 -128.5 31t-81.5 88l112 63q8 -23 24 -38.5t36.5 -21t37.5 -5.5q31 0 50 11t19 32
q0 16 -16 26.5t-61.5 24t-65.5 20t-41 18.5t-37 26.5t-26.5 38.5t-10.5 55q0 46 22.5 80.5t65.5 56.5t102 22q60 0 111 -28t79 -78l-110 -60q-11 24 -32 37.5t-48 13.5q-25 0 -41.5 -11t-16.5 -30z" />
    <glyph glyph-name="uni0162" unicode="&#x162;" horiz-adv-x="540" 
d="M528 700v-132h-189v-568h-138v568h-188v132h515zM205 -263l10 200h122l-30 -200h-102z" />
    <glyph glyph-name="uni0163" unicode="&#x163;" horiz-adv-x="385" 
d="M345 376h-113v-208q0 -20 9.5 -33.5t33 -17t70.5 -0.5v-117q-84 -9 -136 3t-79 50t-27 115v208h-87v124h87v101l129 39v-140h113v-124zM162 -263l10 200h122l-30 -200h-102z" />
    <glyph glyph-name="Tcaron" unicode="&#x164;" horiz-adv-x="540" 
d="M201 755l-106 145h128l44 -65l43 65h128l-106 -145h-131zM528 700v-132h-189v-568h-138v568h-188v132h515z" />
    <glyph glyph-name="tcaron" unicode="&#x165;" horiz-adv-x="406" 
d="M286 726h122l-30 -182h-102zM232 640v-140h113v-124h-113v-208q0 -20 9.5 -33.5t33 -17t70.5 -0.5v-117q-84 -9 -136 3t-79 50t-27 115v208h-87v124h87v101z" />
    <glyph glyph-name="Tbar" unicode="&#x166;" horiz-adv-x="540" 
d="M528 568h-189v-163h119v-124h-119v-281h-138v281h-118v124h118v163h-188v132h515v-132z" />
    <glyph glyph-name="tbar" unicode="&#x167;" horiz-adv-x="385" 
d="M345 376h-113v-73h80v-104h-80v-31q0 -20 9.5 -33.5t33 -17t70.5 -0.5v-117q-84 -9 -136 3t-79 50t-27 115v31h-58v104h58v73h-87v124h87v101l129 39v-140h113v-124z" />
    <glyph glyph-name="Umacron" unicode="&#x16a;" horiz-adv-x="653" 
d="M181 764v105h290v-105h-290zM326 -14q-56 0 -105.5 17t-85.5 48.5t-56 77t-20 100.5v471h137v-460q0 -54 31.5 -86.5t98.5 -32.5t98.5 32.5t31.5 86.5v460h138v-471q0 -55 -20 -100.5t-56 -77t-85.5 -48.5t-106.5 -17z" />
    <glyph glyph-name="umacron" unicode="&#x16b;" horiz-adv-x="577" 
d="M429 669v-105h-290v105h290zM389 500h129v-500h-129v56q-22 -33 -61 -51.5t-88 -18.5q-39 0 -74 14t-60.5 40.5t-40 65.5t-14.5 87v307h129v-291q0 -49 27.5 -76t71.5 -27q36 0 60.5 16t34.5 36.5t12.5 38.5t2.5 33v270z" />
    <glyph glyph-name="Uring" unicode="&#x16e;" horiz-adv-x="653" 
d="M326 709q-26 0 -55.5 11.5t-50 41t-20.5 66.5q0 36 20.5 65.5t50 41t55.5 11.5q41 0 72 -19.5t42.5 -47.5t11.5 -51q0 -37 -20 -66.5t-50 -41t-56 -11.5zM326 790q19 0 29.5 10.5t10.5 27.5q0 16 -10.5 26.5t-29.5 10.5q-18 0 -28.5 -10.5t-10.5 -26.5q0 -17 10.5 -27.5
t28.5 -10.5zM326 -14q-56 0 -105.5 17t-85.5 48.5t-56 77t-20 100.5v471h137v-460q0 -54 31.5 -86.5t98.5 -32.5t98.5 32.5t31.5 86.5v460h138v-471q0 -55 -20 -100.5t-56 -77t-85.5 -48.5t-106.5 -17z" />
    <glyph glyph-name="uring" unicode="&#x16f;" horiz-adv-x="577" 
d="M284 539q-26 0 -55.5 11.5t-50 41t-20.5 66.5q0 36 20.5 65.5t50 41t55.5 11.5q41 0 72 -19.5t42.5 -47.5t11.5 -51q0 -37 -20 -66.5t-50 -41t-56 -11.5zM284 695q-18 0 -28.5 -10.5t-10.5 -26.5q0 -17 10.5 -27.5t28.5 -10.5q19 0 29.5 10.5t10.5 27.5q0 16 -10.5 26.5
t-29.5 10.5zM389 500h129v-500h-129v56q-22 -33 -61 -51.5t-88 -18.5q-39 0 -74 14t-60.5 40.5t-40 65.5t-14.5 87v307h129v-291q0 -49 27.5 -76t71.5 -27q36 0 60.5 16t34.5 36.5t12.5 38.5t2.5 33v270z" />
    <glyph glyph-name="Uhungarumlaut" unicode="&#x170;" horiz-adv-x="653" 
d="M151 755h128l84 138h-134zM324 755h128l94 138h-134zM326 -14q-56 0 -105.5 17t-85.5 48.5t-56 77t-20 100.5v471h137v-460q0 -54 31.5 -86.5t98.5 -32.5t98.5 32.5t31.5 86.5v460h138v-471q0 -55 -20 -100.5t-56 -77t-85.5 -48.5t-106.5 -17z" />
    <glyph glyph-name="uhungarumlaut" unicode="&#x171;" horiz-adv-x="577" 
d="M321 693l-84 -138h-128l78 138h134zM410 555h-128l88 138h134zM389 500h129v-500h-129v56q-22 -33 -61 -51.5t-88 -18.5q-39 0 -74 14t-60.5 40.5t-40 65.5t-14.5 87v307h129v-291q0 -49 27.5 -76t71.5 -27q36 0 60.5 16t34.5 36.5t12.5 38.5t2.5 33v270z" />
    <glyph glyph-name="Uogonek" unicode="&#x172;" horiz-adv-x="653" 
d="M456 700h138v-471q0 -59 -24 -108t-66 -81q-38 -35 -64.5 -67.5t-27.5 -67.5q-1 -25 25 -27q11 -1 27 5v-81q-38 -16 -80 -16t-69 23t-27 65q0 50 54 112h-16q-56 0 -105.5 17t-85.5 48.5t-56 77t-20 100.5v471h137v-460q0 -54 31.5 -86.5t98.5 -32.5t98.5 32.5
t31.5 86.5v460z" />
    <glyph glyph-name="uogonek" unicode="&#x173;" horiz-adv-x="577" 
d="M518 500v-500q-24 -26 -38.5 -51.5t-14.5 -43.5q0 -12 7 -19.5t18 -7.5q12 -1 28 5v-81q-38 -16 -81 -16q-30 0 -53.5 12.5t-32.5 34t-9 41.5q0 52 64 126h-17v56q-22 -33 -61 -51.5t-88 -18.5q-39 0 -74 14t-60.5 40.5t-40 65.5t-14.5 87v307h129v-291q0 -49 27.5 -76
t71.5 -27q36 0 60.5 16t34.5 36.5t12.5 38.5t2.5 33v270h129z" />
    <glyph glyph-name="Wcircumflex" unicode="&#x174;" horiz-adv-x="999" 
d="M526 820l-44 -65h-128l106 145h131l106 -145h-128zM839 700h145l-196 -700h-157l-132 462l-131 -462h-157l-196 700h145l134 -519l146 519h118l147 -519z" />
    <glyph glyph-name="wcircumflex" unicode="&#x175;" horiz-adv-x="770" 
d="M382 620l-44 -65h-128l106 145h131l106 -145h-128zM622 500h137l-159 -500h-123l-92 303l-92 -303h-123l-159 500h137l85 -307l91 307h122l91 -308z" />
    <glyph glyph-name="Ycircumflex" unicode="&#x176;" horiz-adv-x="621" 
d="M307 820l-44 -65h-128l106 145h131l106 -145h-128zM619 700l-240 -427v-273h-137v273l-239 427h156l152 -292l152 292h156z" />
    <glyph glyph-name="ycircumflex" unicode="&#x177;" horiz-adv-x="525" 
d="M260 620l-44 -65h-128l106 145h131l106 -145h-128zM385 500h138l-182 -500q-39 -107 -104 -156t-160 -44v120q52 -1 82.5 22.5t48.5 73.5l-205 484h141l130 -336z" />
    <glyph glyph-name="Ydieresis" unicode="&#x178;" horiz-adv-x="621" 
d="M215 749q-27 0 -47.5 20t-20.5 47t20.5 47.5t47.5 20.5t47 -20.5t20 -47.5t-20 -47t-47 -20zM405 749q-27 0 -47.5 20t-20.5 47t20.5 47.5t47.5 20.5t47 -20.5t20 -47.5t-20 -47t-47 -20zM619 700l-240 -427v-273h-137v273l-239 427h156l152 -292l152 292h156z" />
    <glyph glyph-name="Zacute" unicode="&#x179;" horiz-adv-x="535" 
d="M428 900l-111 -137h-124l80 137h155zM212 132h297v-132h-473v110l291 458h-284v132h460v-109z" />
    <glyph glyph-name="zacute" unicode="&#x17a;" horiz-adv-x="474" 
d="M396 700l-111 -137h-124l80 137h155zM216 121h222v-121h-395v86l211 293h-201v121h375v-86z" />
    <glyph glyph-name="Zdotaccent" unicode="&#x17b;" horiz-adv-x="535" 
d="M273 751q-32 0 -55 23.5t-23 54.5t23 54t55 23q31 0 54 -23t23 -54t-23 -54.5t-54 -23.5zM212 132h297v-132h-473v110l291 458h-284v132h460v-109z" />
    <glyph glyph-name="zdotaccent" unicode="&#x17c;" horiz-adv-x="474" 
d="M241 551q-32 0 -55 23.5t-23 54.5t23 54t55 23q31 0 54 -23t23 -54t-23 -54.5t-54 -23.5zM216 121h222v-121h-395v86l211 293h-201v121h375v-86z" />
    <glyph glyph-name="Zcaron" unicode="&#x17d;" horiz-adv-x="535" 
d="M204 755l-106 145h128l44 -65l43 65h128l-106 -145h-131zM212 132h297v-132h-473v110l291 458h-284v132h460v-109z" />
    <glyph glyph-name="zcaron" unicode="&#x17e;" horiz-adv-x="474" 
d="M172 555l-106 145h128l44 -65l43 65h128l-106 -145h-131zM216 121h222v-121h-395v86l211 293h-201v121h375v-86z" />
    <glyph glyph-name="florin" unicode="&#x192;" horiz-adv-x="441" 
d="M441 576q-24 12 -49.5 7.5t-40 -22.5t-18.5 -41l-18 -106h91v-124h-112l-56 -331q-7 -40 -23.5 -76t-46 -59.5t-71.5 -31t-97 6.5v128q35 -16 68 -1.5t40 57.5l52 307h-84v124h106l22 131q7 40 23.5 76t46 59.5t71.5 31t96 -6.5v-129z" />
    <glyph glyph-name="uni0218" unicode="&#x218;" horiz-adv-x="583" 
d="M304 -14q-104 0 -175 46.5t-100 126.5l118 69q19 -50 59 -78.5t102 -28.5q57 0 84.5 21t27.5 53q0 28 -24 50t-127 52q-72 21 -116 46t-69.5 65t-25.5 98q0 35 12.5 71.5t45.5 70.5t80 50t92 16q85 0 149.5 -41.5t100.5 -115.5l-116 -67q-42 90 -134 90q-42 0 -67 -20
t-25 -50q0 -32 26.5 -53t106.5 -45q98 -31 142.5 -58t65.5 -67t21 -90q0 -48 -18.5 -87.5t-52.5 -67t-81 -42t-102 -14.5zM341 -263l30 200h-122l-10 -200h102z" />
    <glyph glyph-name="uni0219" unicode="&#x219;" horiz-adv-x="465" 
d="M178 358q0 -13 12.5 -24t59.5 -24.5t69 -20.5t43 -19t37 -27t26.5 -40t10.5 -57q0 -48 -24 -83t-69.5 -56t-107.5 -21q-74 0 -128.5 31t-81.5 88l112 63q8 -23 24 -38.5t36.5 -21t37.5 -5.5q31 0 50 11t19 32q0 16 -16 26.5t-61.5 24t-65.5 20t-41 18.5t-37 26.5
t-26.5 38.5t-10.5 55q0 46 22.5 80.5t65.5 56.5t102 22q60 0 111 -28t79 -78l-110 -60q-11 24 -32 37.5t-48 13.5q-25 0 -41.5 -11t-16.5 -30zM178 -263l10 200h122l-30 -200h-102z" />
    <glyph glyph-name="uni021A" unicode="&#x21a;" horiz-adv-x="540" 
d="M528 700v-132h-189v-568h-138v568h-188v132h515zM205 -263l10 200h122l-30 -200h-102z" />
    <glyph glyph-name="uni021B" unicode="&#x21b;" horiz-adv-x="385" 
d="M345 376h-113v-208q0 -20 9.5 -33.5t33 -17t70.5 -0.5v-117q-84 -9 -136 3t-79 50t-27 115v208h-87v124h87v101l129 39v-140h113v-124zM162 -263l10 200h122l-30 -200h-102z" />
    <glyph glyph-name="circumflex" unicode="&#x2c6;" horiz-adv-x="383" 
d="M363 555h-128l-43 65l-44 -65h-128l106 145h131z" />
    <glyph glyph-name="caron" unicode="&#x2c7;" horiz-adv-x="383" 
d="M235 700h128l-106 -145h-131l-106 145h128l44 -65z" />
    <glyph glyph-name="breve" unicode="&#x2d8;" horiz-adv-x="373" 
d="M186 547q-79 0 -122.5 38t-43.5 107h115q0 -52 51 -52q52 0 52 52h115q0 -69 -43.5 -107t-123.5 -38z" />
    <glyph glyph-name="dotaccent" unicode="&#x2d9;" horiz-adv-x="203" 
d="M98 551q-32 0 -55 23.5t-23 54.5t23 54t55 23q31 0 54 -23t23 -54t-23 -54.5t-54 -23.5z" />
    <glyph glyph-name="ring" unicode="&#x2da;" horiz-adv-x="293" 
d="M146 539q-26 0 -55.5 11.5t-50 41t-20.5 66.5q0 36 20.5 65.5t50 41t55.5 11.5q41 0 72 -19.5t42.5 -47.5t11.5 -51q0 -37 -20 -66.5t-50 -41t-56 -11.5zM146 620q19 0 29.5 10.5t10.5 27.5q0 16 -10.5 26.5t-29.5 10.5q-18 0 -28.5 -10.5t-10.5 -26.5q0 -17 10.5 -27.5
t28.5 -10.5z" />
    <glyph glyph-name="ogonek" unicode="&#x2db;" horiz-adv-x="216" 
d="M116 -214q-42 0 -69 23t-27 65q0 27 18 60.5t48 65.5h110q-24 -26 -38 -51.5t-14 -43.5q-1 -12 6 -19.5t19 -7.5q11 -1 27 5v-81q-38 -16 -80 -16z" />
    <glyph glyph-name="tilde" unicode="&#x2dc;" horiz-adv-x="379" 
d="M21 560q0 56 16 91.5t42 48.5t58.5 7.5t65.5 -26.5q30 -19 41 -15.5t11 39.5h105q0 -56 -16 -91.5t-42.5 -48.5t-59 -7.5t-64.5 26.5q-30 19 -41.5 15.5t-11.5 -39.5h-104z" />
    <glyph glyph-name="hungarumlaut" unicode="&#x2dd;" horiz-adv-x="435" 
d="M20 555h128l84 138h-134zM193 555h128l94 138h-134z" />
    <glyph glyph-name="gravecomb" unicode="&#x300;" horiz-adv-x="0" 
d="M-20 563l-80 137h-155l111 -137h124z" />
    <glyph glyph-name="acutecomb" unicode="&#x301;" horiz-adv-x="0" 
d="M-255 563h124l111 137h-155z" />
    <glyph glyph-name="uni0302" unicode="&#x302;" horiz-adv-x="0" 
d="M-20 555h-128l-43 65l-44 -65h-128l106 145h131z" />
    <glyph glyph-name="tildecomb" unicode="&#x303;" horiz-adv-x="0" 
d="M-351 560q0 56 16 91.5t42 48.5t58.5 7.5t65.5 -26.5q30 -19 41 -15.5t11 39.5h105q0 -56 -16 -91.5t-42.5 -48.5t-59 -7.5t-64.5 26.5q-30 19 -41.5 15.5t-11.5 -39.5h-104z" />
    <glyph glyph-name="uni0304" unicode="&#x304;" horiz-adv-x="0" 
d="M-310 564v105h290v-105h-290z" />
    <glyph glyph-name="uni0306" unicode="&#x306;" horiz-adv-x="0" 
d="M-187 547q-79 0 -122.5 38t-43.5 107h115q0 -52 51 -52q52 0 52 52h115q0 -69 -43.5 -107t-123.5 -38z" />
    <glyph glyph-name="uni0307" unicode="&#x307;" horiz-adv-x="0" 
d="M-97 551q-32 0 -55 23.5t-23 54.5t23 54t55 23q31 0 54 -23t23 -54t-23 -54.5t-54 -23.5z" />
    <glyph glyph-name="uni0308" unicode="&#x308;" horiz-adv-x="0" 
d="M-277 549q-27 0 -47.5 20t-20.5 47t20.5 47.5t47.5 20.5t47 -20.5t20 -47.5t-20 -47t-47 -20zM-87 549q-27 0 -47.5 20t-20.5 47t20.5 47.5t47.5 20.5t47 -20.5t20 -47.5t-20 -47t-47 -20z" />
    <glyph glyph-name="uni030A" unicode="&#x30a;" horiz-adv-x="0" 
d="M-150 539q-26 0 -55.5 11.5t-50 41t-20.5 66.5q0 36 20.5 65.5t50 41t55.5 11.5q41 0 72 -19.5t42.5 -47.5t11.5 -51q0 -37 -20 -66.5t-50 -41t-56 -11.5zM-150 620q19 0 29.5 10.5t10.5 27.5q0 16 -10.5 26.5t-29.5 10.5q-18 0 -28.5 -10.5t-10.5 -26.5
q0 -17 10.5 -27.5t28.5 -10.5z" />
    <glyph glyph-name="uni030B" unicode="&#x30b;" horiz-adv-x="0" 
d="M-415 555h128l84 138h-134zM-242 555h128l94 138h-134z" />
    <glyph glyph-name="uni030C" unicode="&#x30c;" horiz-adv-x="0" 
d="M-148 700h128l-106 -145h-131l-106 145h128l44 -65z" />
    <glyph glyph-name="uni0312" unicode="&#x312;" horiz-adv-x="0" 
d="M-122 975l-30 -200h122l10 200h-102z" />
    <glyph glyph-name="uni0326" unicode="&#x326;" horiz-adv-x="0" 
d="M-50 -263l30 200h-122l-10 -200h102z" />
    <glyph glyph-name="uni0327" unicode="&#x327;" horiz-adv-x="0" 
d="M-90 -46q29 -7 49.5 -27t20.5 -51q0 -105 -220 -92v91q53 -4 80.5 1.5t27.5 18.5q0 8 -12 15t-51 10v80h105v-46z" />
    <glyph glyph-name="uni0328" unicode="&#x328;" horiz-adv-x="0" 
d="M-108 -214q-42 0 -69 23t-27 65q0 27 18 60.5t48 65.5h110q-24 -26 -38 -51.5t-14 -43.5q-1 -12 6 -19.5t19 -7.5q11 -1 27 5v-81q-38 -16 -80 -16z" />
    <glyph glyph-name="uni0394" unicode="&#x394;" horiz-adv-x="653" 
d="M412 700l238 -700h-647l238 700h171zM193 129h266l-133 418z" />
    <glyph glyph-name="uni03A9" unicode="&#x3a9;" horiz-adv-x="777" 
d="M752 365q0 -68 -28.5 -129t-78.5 -104h94v-132h-277v132q42 13 75 41.5t55.5 73t22.5 103.5q0 23 -5.5 53t-21 59.5t-42.5 56.5t-69 44t-88 17q-34 0 -72.5 -11.5t-76.5 -42.5t-57.5 -79t-19.5 -97q0 -79 42 -137.5t110 -80.5v-132h-276v132h93q-50 43 -78.5 104
t-28.5 129q0 71 28 135.5t78.5 112.5t117.5 74.5t140 26.5t140 -26.5t117 -74.5t78 -112.5t28 -135.5z" />
    <glyph glyph-name="pi" unicode="&#x3c0;" horiz-adv-x="665" 
d="M643 500v-121h-80v-379h-129v379h-199v-379h-129v379h-83v121h620z" />
    <glyph glyph-name="uni0401" unicode="&#x401;" horiz-adv-x="530" 
d="M184 749q-27 0 -47.5 20t-20.5 47t20.5 47.5t47.5 20.5t47 -20.5t20 -47.5t-20 -47t-47 -20zM374 749q-27 0 -47.5 20t-20.5 47t20.5 47.5t47.5 20.5t47 -20.5t20 -47.5t-20 -47t-47 -20zM203 132h295v-132h-433v700h428v-132h-290v-149h265v-130h-265v-157z" />
    <glyph glyph-name="uni0402" unicode="&#x402;" horiz-adv-x="703" 
d="M465 466q86 0 137 -50.5t51 -144.5v-77q0 -110 -53.5 -160.5t-163.5 -43.5v128q44 -3 62 15t18 61v63q0 43 -21.5 64t-59.5 21q-47 0 -109 -20v-322h-137v568h-176v132h512v-132h-199v-124q72 22 139 22z" />
    <glyph glyph-name="uni0403" unicode="&#x403;" horiz-adv-x="475" 
d="M424 899l-111 -137h-124l80 137h155zM463 700v-132h-260v-568h-138v700h398z" />
    <glyph glyph-name="uni0404" unicode="&#x404;" horiz-adv-x="724" 
d="M396 121q43 0 82.5 15.5t63 39t35.5 44.5l119 -69q-45 -75 -125 -120t-175 -45q-77 0 -144.5 28t-116.5 77.5t-76 117t-27 141.5q0 75 27 142t76 117t116.5 77.5t144.5 27.5q94 0 174.5 -45t125.5 -120l-119 -69q-12 22 -36 45.5t-63 39t-82 15.5q-85 0 -143 -44.5
t-76 -120.5h312v-129h-312q18 -75 76 -120t143 -45z" />
    <glyph glyph-name="uni0405" unicode="&#x405;" horiz-adv-x="583" 
d="M304 -14q-104 0 -175 46.5t-100 126.5l118 69q19 -50 59 -78.5t102 -28.5q57 0 84.5 21t27.5 53q0 28 -24 50t-127 52q-72 21 -116 46t-69.5 65t-25.5 98q0 35 12.5 71.5t45.5 70.5t80 50t92 16q85 0 149.5 -41.5t100.5 -115.5l-116 -67q-42 90 -134 90q-42 0 -67 -20
t-25 -50q0 -32 26.5 -53t106.5 -45q98 -31 142.5 -58t65.5 -67t21 -90q0 -48 -18.5 -87.5t-52.5 -67t-81 -42t-102 -14.5z" />
    <glyph glyph-name="uni0406" unicode="&#x406;" horiz-adv-x="268" 
d="M65 700h138v-700h-138v700z" />
    <glyph glyph-name="uni0407" unicode="&#x407;" horiz-adv-x="268" 
d="M39 749q-27 0 -47.5 20t-20.5 47t20.5 47.5t47.5 20.5t47 -20.5t20 -47.5t-20 -47t-47 -20zM229 749q-27 0 -47.5 20t-20.5 47t20.5 47.5t47.5 20.5t47 -20.5t20 -47.5t-20 -47t-47 -20zM65 700h138v-700h-138v700z" />
    <glyph glyph-name="uni0408" unicode="&#x408;" horiz-adv-x="569" 
d="M264 -14q-79 0 -139 34.5t-92 98.5l119 68q17 -33 43.5 -49.5t68.5 -16.5q54 0 81.5 26.5t27.5 70.5v482h137v-482q0 -54 -18.5 -98t-52 -74t-79 -45t-96.5 -15z" />
    <glyph glyph-name="uni0409" unicode="&#x409;" horiz-adv-x="961" 
d="M700 438q49 0 92.5 -16t75.5 -45.5t50 -70.5t18 -87q0 -59 -30.5 -111.5t-87.5 -80t-118 -27.5h-241v568h-187v-278q0 -89 -21.5 -150t-58.5 -93t-83 -43t-98 -6v128q70 -8 97 32.5t27 127.5v414h461v-262h104zM700 129q31 0 55.5 13.5t34 35t9.5 41.5t-9.5 41.5t-34 35
t-55.5 13.5h-104v-180h104z" />
    <glyph glyph-name="uni040A" unicode="&#x40a;" horiz-adv-x="958" 
d="M696 438q49 0 92.5 -16t76 -45.5t50.5 -70.5t18 -87q0 -47 -18 -87.5t-50.5 -70t-76 -45.5t-92.5 -16h-241v309h-252v-309h-138v700h138v-262h252v262h138v-262h103zM696 129q31 0 55.5 13.5t34 35t9.5 41.5t-9.5 41.5t-34 35t-55.5 13.5h-103v-180h103z" />
    <glyph glyph-name="uni040B" unicode="&#x40b;" horiz-adv-x="708" 
d="M465 466q86 0 137 -50.5t51 -144.5v-271h-137v257q0 43 -21.5 64t-59.5 21q-47 0 -109 -20v-322h-137v568h-176v132h512v-132h-199v-124q72 22 139 22z" />
    <glyph glyph-name="uni040C" unicode="&#x40c;" horiz-adv-x="615" 
d="M464 899l-111 -137h-124l80 137h155zM612 0h-159l-250 328v-328h-138v700h138v-309l240 309h159l-259 -340z" />
    <glyph glyph-name="uni040E" unicode="&#x40e;" horiz-adv-x="600" 
d="M447 875v-112h-290v112h290zM452 700h138l-210 -507q-84 -204 -276 -193v129q55 -5 90.5 16t57.5 66l-229 489h138l153 -338z" />
    <glyph glyph-name="uni040F" unicode="&#x40f;" horiz-adv-x="653" 
d="M450 700h138v-700h-193v-134h-137v134h-193v700h138v-568h247v568z" />
    <glyph glyph-name="uni0410" unicode="&#x410;" horiz-adv-x="668" 
d="M515 0l-42 126h-279l-42 -126h-149l245 700h171l246 -700h-150zM238 255h192l-96 286z" />
    <glyph glyph-name="uni0411" unicode="&#x411;" horiz-adv-x="585" 
d="M333 435q50 0 93 -16t74 -45t48 -69t17 -87q0 -35 -11.5 -72.5t-43 -73.5t-79.5 -54t-98 -18h-268v700h440v-132h-302v-133h130zM333 129q29 0 52.5 13t33 34.5t9.5 41.5t-9.5 41t-33 34t-52.5 13h-130v-177h130z" />
    <glyph glyph-name="uni0412" unicode="&#x412;" horiz-adv-x="605" 
d="M488 363q43 -24 67.5 -65.5t24.5 -94.5q0 -54 -28.5 -103t-81 -74.5t-108.5 -25.5h-297v700h276q43 0 82 -14.5t68.5 -40.5t46 -63t16.5 -79q0 -43 -17.5 -79t-48.5 -61zM341 571h-138v-154h138q32 0 53.5 22t21.5 55t-21.5 55t-53.5 22zM362 129q35 0 58 24t23 59
t-23 58.5t-58 23.5h-159v-165h159z" />
    <glyph glyph-name="uni0413" unicode="&#x413;" horiz-adv-x="475" 
d="M463 700v-132h-260v-568h-138v700h398z" />
    <glyph glyph-name="uni0414" unicode="&#x414;" horiz-adv-x="705" 
d="M603 132h75v-266h-138v134h-387v-134h-138v266h68q58 81 58 237v331h462v-568zM231 132h234v439h-186v-204q0 -152 -48 -235z" />
    <glyph glyph-name="uni0415" unicode="&#x415;" horiz-adv-x="530" 
d="M203 132h295v-132h-433v700h428v-132h-290v-149h265v-130h-265v-157z" />
    <glyph glyph-name="uni0416" unicode="&#x416;" horiz-adv-x="904" 
d="M892 0h-154l-217 319v-319h-138v319l-217 -319h-153l243 357l-233 343h153l207 -312v312h138v-312l207 312h154l-234 -343z" />
    <glyph glyph-name="uni0417" unicode="&#x417;" horiz-adv-x="561" 
d="M436 362q47 -25 73.5 -68t26.5 -98q0 -34 -12.5 -70.5t-47 -71t-87.5 -51.5t-107 -17q-65 0 -114.5 18.5t-87 54.5t-59.5 92l119 67q32 -102 142 -102q56 0 86.5 24t30.5 65t-30 65t-84 24h-87v123h66q52 0 81 23t29 61t-25.5 61t-73.5 23q-90 0 -126 -88l-117 68
q15 31 38 59t52 48t68 31t85 11q64 0 120.5 -25t86 -74t29.5 -105q0 -22 -6.5 -49.5t-24.5 -53.5t-44 -45z" />
    <glyph glyph-name="uni0418" unicode="&#x418;" horiz-adv-x="673" 
d="M470 0v427l-300 -427h-105v700h138v-428l300 428h105v-700h-138z" />
    <glyph glyph-name="uni0419" unicode="&#x419;" horiz-adv-x="673" 
d="M191 764v112h290v-112h-290zM470 0v427l-300 -427h-105v700h138v-428l300 428h105v-700h-138z" />
    <glyph glyph-name="uni041A" unicode="&#x41a;" horiz-adv-x="615" 
d="M612 0h-159l-250 328v-328h-138v700h138v-309l240 309h159l-259 -340z" />
    <glyph glyph-name="uni041B" unicode="&#x41b;" horiz-adv-x="676" 
d="M11 0v128q70 -10 97 30.5t27 127.5v414h476v-700h-137v568h-202v-278q0 -89 -21.5 -149.5t-58.5 -92.5t-83 -42.5t-98 -5.5z" />
    <glyph glyph-name="uni041C" unicode="&#x41c;" horiz-adv-x="815" 
d="M750 700v-700h-137v454l-197 -325h-16l-197 324v-453h-138v700h142l201 -331l200 331h142z" />
    <glyph glyph-name="uni041D" unicode="&#x41d;" horiz-adv-x="665" 
d="M463 700h137v-700h-137v290h-260v-290h-138v700h138v-278h260v278z" />
    <glyph glyph-name="uni041E" unicode="&#x41e;" horiz-adv-x="792" 
d="M396 -14q-73 0 -140 28t-117 78t-78 117t-28 141t28 141.5t78 117t117 77.5t140 28t140 -28t117.5 -77.5t78.5 -117t28 -141.5t-28 -141t-78.5 -117t-117.5 -78t-140 -28zM396 121q34 0 72.5 11.5t76.5 42.5t57.5 78.5t19.5 96.5q0 23 -5.5 53t-21 59.5t-42.5 56.5
t-69 44t-88 17q-34 0 -72.5 -11.5t-76.5 -42.5t-57.5 -79t-19.5 -97q0 -36 11.5 -75t43 -77.5t78.5 -57.5t93 -19z" />
    <glyph glyph-name="uni041F" unicode="&#x41f;" horiz-adv-x="653" 
d="M588 700v-700h-138v568h-247v-568h-138v700h523z" />
    <glyph glyph-name="uni0420" unicode="&#x420;" horiz-adv-x="590" 
d="M326 700q49 0 93 -18t77 -50.5t51 -75.5t18 -91q0 -35 -12 -74.5t-45.5 -79.5t-83 -60.5t-98.5 -20.5h-123v-230h-138v700h261zM326 359q20 0 44 10t41 36.5t17 59.5q0 46 -29 76t-73 30h-123v-212h123z" />
    <glyph glyph-name="uni0421" unicode="&#x421;" horiz-adv-x="726" 
d="M397 -14q-77 0 -144.5 28t-116.5 77.5t-76 117t-27 141.5q0 75 27 142t76 117t116.5 77.5t144.5 27.5q59 0 113.5 -18t104 -54.5t83.5 -92.5l-119 -69q-12 22 -36 45.5t-63.5 39t-82.5 15.5q-50 0 -92.5 -17t-72.5 -47.5t-46 -73.5t-16 -92t16 -91.5t46 -73t72.5 -47.5
t92.5 -17q43 0 83 15.5t63.5 39t35.5 44.5l119 -69q-45 -76 -125.5 -120.5t-175.5 -44.5z" />
    <glyph glyph-name="uni0422" unicode="&#x422;" horiz-adv-x="540" 
d="M528 700v-132h-189v-568h-138v568h-188v132h515z" />
    <glyph glyph-name="uni0423" unicode="&#x423;" horiz-adv-x="600" 
d="M452 700h138l-210 -507q-84 -204 -276 -193v129q55 -5 90.5 16t57.5 66l-229 489h138l153 -338z" />
    <glyph glyph-name="uni0424" unicode="&#x424;" horiz-adv-x="819" 
d="M797 350q0 -59 -23 -109t-65 -86.5t-101.5 -59t-130.5 -29.5v-81h-135v81q-71 7 -130 30t-101.5 59.5t-65 86t-22.5 108.5q0 44 15 90t57.5 90.5t109 70.5t137.5 33v81h135v-81q71 -7 130.5 -29.5t101.5 -59t65 -86.5t23 -109zM477 192q182 21 182 158q0 138 -182 159
v-317zM160 350q0 -137 182 -157v315q-182 -20 -182 -158z" />
    <glyph glyph-name="uni0425" unicode="&#x425;" horiz-adv-x="610" 
d="M598 0h-157l-136 228l-136 -228h-156l214 359l-203 341h156l125 -210l125 210h156l-203 -340z" />
    <glyph glyph-name="uni0426" unicode="&#x426;" horiz-adv-x="690" 
d="M588 132h75v-266h-138v134h-460v700h138v-568h247v568h138v-568z" />
    <glyph glyph-name="uni0427" unicode="&#x427;" horiz-adv-x="633" 
d="M430 700h138v-700h-138v256q-64 -27 -137 -27q-24 0 -55 5t-62.5 18.5t-60 39t-47 67t-18.5 91.5v250h138v-232q0 -50 29.5 -78.5t78.5 -28.5q73 0 134 29v310z" />
    <glyph glyph-name="uni0428" unicode="&#x428;" horiz-adv-x="943" 
d="M740 700h138v-700h-813v700h138v-568h200v568h137v-568h200v568z" />
    <glyph glyph-name="uni0429" unicode="&#x429;" horiz-adv-x="980" 
d="M878 132h75v-266h-138v134h-750v700h138v-568h200v568h137v-568h200v568h138v-568z" />
    <glyph glyph-name="uni042A" unicode="&#x42a;" horiz-adv-x="693" 
d="M168 0v568h-168v132h305v-230h124q49 0 93 -18t77 -50.5t51 -75.5t18 -91q0 -35 -12 -74.5t-45.5 -79.5t-83 -60.5t-98.5 -20.5h-261zM305 129h124q31 0 56.5 17.5t35 42.5t9.5 46t-9.5 46t-35 42.5t-56.5 17.5h-124v-212z" />
    <glyph glyph-name="uni042B" unicode="&#x42b;" horiz-adv-x="831" 
d="M65 0v700h138v-230h123q49 0 93 -18t77 -50.5t51 -75.5t18 -91q0 -35 -12 -74.5t-45.5 -79.5t-83 -60.5t-98.5 -20.5h-261zM629 0v700h137v-700h-137zM203 129h123q44 0 73 30t29 76t-29 76t-73 30h-123v-212z" />
    <glyph glyph-name="uni042C" unicode="&#x42c;" horiz-adv-x="590" 
d="M326 470q49 0 93 -18t77 -50.5t51 -75.5t18 -91q0 -35 -12 -74.5t-45.5 -79.5t-83 -60.5t-98.5 -20.5h-261v700h138v-230h123zM326 129q44 0 73 30t29 76q0 33 -17 59.5t-41 36.5t-44 10h-123v-212h123z" />
    <glyph glyph-name="uni042D" unicode="&#x42d;" horiz-adv-x="724" 
d="M328 714q77 0 144.5 -27.5t116.5 -77.5t76 -117t27 -142q0 -74 -27 -141.5t-76 -117t-116.5 -77.5t-144.5 -28q-95 0 -175 45t-125 120l119 69q12 -21 35.5 -44.5t63 -39t82.5 -15.5q85 0 143 45t76 120h-312v129h312q-18 76 -76 120.5t-143 44.5q-28 0 -62.5 -9t-67 -33
t-51.5 -58l-119 69q45 75 125.5 120t174.5 45z" />
    <glyph glyph-name="uni042E" unicode="&#x42e;" horiz-adv-x="1055" 
d="M659 714q73 0 140 -28t117.5 -77.5t78.5 -117t28 -141.5t-28 -141t-78.5 -117t-117.5 -78t-140 -28q-49 0 -97 13t-88.5 37.5t-78.5 64.5t-61 92.5t-30 100.5h-101v-294h-138v700h138v-274h104q12 61 44 114.5t79 92t106 60t123 21.5zM659 121q34 0 72.5 11.5t76.5 42.5
t57.5 78.5t19.5 96.5q0 23 -5.5 53t-21 59.5t-42.5 56.5t-69 44t-88 17q-34 0 -72.5 -11t-76.5 -42t-57.5 -79t-19.5 -98q0 -36 11.5 -75t43 -77.5t78.5 -57.5t93 -19z" />
    <glyph glyph-name="uni042F" unicode="&#x42f;" horiz-adv-x="624" 
d="M559 700v-700h-138v243h-79l-161 -243h-155l171 258q-66 24 -108.5 82t-42.5 128q0 34 12 73t45 78.5t81 60t95 20.5h280zM279 364h142v207h-142q-28 0 -52 -17.5t-33.5 -41.5t-9.5 -44t9.5 -44.5t33.5 -42t52 -17.5z" />
    <glyph glyph-name="uni0430" unicode="&#x430;" 
d="M439 500h129v-500h-129v59q-27 -34 -69 -53.5t-94 -19.5q-48 0 -93 20t-78.5 56.5t-52.5 85t-19 102.5t19 102.5t52.5 85t78.5 56.5t93 20q52 0 94 -19.5t69 -53.5v59zM300 109q60 0 99.5 39.5t39.5 101.5t-39.5 101.5t-99.5 39.5t-99 -39.5t-39 -101.5t39 -101.5
t99 -39.5z" />
    <glyph glyph-name="uni0431" unicode="&#x431;" horiz-adv-x="567" 
d="M296 -14q-58 0 -107 20t-84 56.5t-53.5 86.5t-18.5 106q0 112 23.5 168t66 91.5t101.5 64.5q16 8 59 28t65 34t35 30t18.5 29.5t7.5 18.5l106 -61q-10 -48 -48 -84.5t-147 -78.5q-63 -25 -92.5 -50t-42.5 -60q28 29 68 43t82 14q38 0 76.5 -15t69.5 -44t49 -70.5
t18 -91.5q0 -49 -18 -92.5t-51 -75.5t-80.5 -49.5t-102.5 -17.5zM295 104q39 0 70 19.5t42.5 47t11.5 50.5q0 24 -11.5 51.5t-42.5 47t-71 19.5q-22 0 -50.5 -10t-52 -37t-23.5 -67q0 -38 21.5 -68t51 -41.5t54.5 -11.5z" />
    <glyph glyph-name="uni0432" unicode="&#x432;" horiz-adv-x="511" 
d="M419 256q33 -16 51.5 -46t18.5 -68q0 -46 -22 -77.5t-58.5 -48t-86.5 -16.5h-263v500h243q79 0 122.5 -39t43.5 -102q0 -66 -49 -103zM290 394h-110v-90h110q55 0 55 45q0 22 -14.5 33.5t-40.5 11.5zM307 109q26 0 41 12.5t15 35.5q0 21 -15.5 33t-40.5 12h-127v-93h127z
" />
    <glyph glyph-name="uni0433" unicode="&#x433;" horiz-adv-x="411" 
d="M401 500v-124h-213v-376h-129v500h342z" />
    <glyph glyph-name="uni0434" unicode="&#x434;" horiz-adv-x="598" 
d="M509 121h66v-255h-126v134h-310v-134h-126v255h61q21 32 32 73t11 104v202h392v-379zM212 121h171v263h-140v-86q0 -106 -31 -177z" />
    <glyph glyph-name="uni0435" unicode="&#x435;" horiz-adv-x="581" 
d="M168 197q13 -47 50.5 -70.5t90.5 -23.5q36 0 65.5 14t46.5 36l104 -60q-35 -51 -91.5 -79t-126.5 -28q-61 0 -112 20t-87.5 56t-55.5 84.5t-19 103.5t19 103.5t54.5 84.5t84.5 56t106 20q54 0 101 -20.5t81 -56.5t52.5 -84.5t18.5 -102.5q0 -25 -5 -53h-377zM166 297h255
q-6 26 -19.5 47.5t-40 37.5t-64.5 16q-51 0 -85.5 -27t-45.5 -74z" />
    <glyph glyph-name="uni0436" unicode="&#x436;" horiz-adv-x="746" 
d="M734 0h-145l-153 224v-224h-126v224l-153 -224h-144l180 253l-170 247h144l143 -217v217h126v-217l143 217h145l-171 -247z" />
    <glyph glyph-name="uni0437" unicode="&#x437;" horiz-adv-x="450" 
d="M352 255q36 -18 56 -49t20 -70q0 -30 -13 -57.5t-39 -48t-64 -32.5t-86 -12q-77 0 -128.5 31t-78.5 89l105 62q11 -32 37.5 -50t65.5 -18q35 0 55 14t20 38q0 21 -15.5 33.5t-43.5 12.5h-71v110h54q28 0 43 12t15 34q0 21 -17 34.5t-45 13.5q-65 0 -93 -63l-104 60
q28 56 79 85.5t116 29.5q43 0 86.5 -15t72 -52t28.5 -82q0 -35 -14 -63.5t-41 -46.5z" />
    <glyph glyph-name="uni0438" unicode="&#x438;" horiz-adv-x="575" 
d="M420 500h96v-500h-126v284l-235 -284h-96v500h126v-284z" />
    <glyph glyph-name="uni0439" unicode="&#x439;" horiz-adv-x="575" 
d="M143 564v112h290v-112h-290zM420 500h96v-500h-126v284l-235 -284h-96v500h126v-284z" />
    <glyph glyph-name="uni043A" unicode="&#x43a;" horiz-adv-x="525" 
d="M520 0h-150l-182 227v-227h-129v500h129v-220l172 220h154l-201 -247z" />
    <glyph glyph-name="uni043B" unicode="&#x43b;" horiz-adv-x="546" 
d="M488 500v-500h-129v376h-138v-167q0 -43 -9.5 -84t-33 -71t-64.5 -45.5t-104 -8.5v121q40 -10 61 14t21 81v284h396z" />
    <glyph glyph-name="uni043C" unicode="&#x43c;" horiz-adv-x="638" 
d="M579 500v-500h-125v292l-127 -200h-16l-128 202v-294h-124v500h127l133 -210l133 210h127z" />
    <glyph glyph-name="uni043D" unicode="&#x43d;" horiz-adv-x="575" 
d="M387 500h129v-500h-129v190h-199v-190h-129v500h129v-189h199v189z" />
    <glyph glyph-name="uni043E" unicode="&#x43e;" horiz-adv-x="594" 
d="M297 -14q-53 0 -102 20t-85 56.5t-56.5 85t-20.5 102.5t20.5 102.5t56.5 85t85 56.5t102 20t102 -20t85.5 -56.5t57 -85t20.5 -102.5t-20.5 -102.5t-57 -85t-85.5 -56.5t-102 -20zM297 112q57 0 96.5 39.5t39.5 98.5t-39.5 98.5t-96.5 39.5t-96 -39.5t-39 -98.5t39 -98.5
t96 -39.5z" />
    <glyph glyph-name="uni043F" unicode="&#x43f;" horiz-adv-x="575" 
d="M516 500v-500h-129v379h-199v-379h-129v500h457z" />
    <glyph glyph-name="uni0440" unicode="&#x440;" 
d="M350 514q49 0 93.5 -20t78.5 -56.5t53 -85t19 -102.5t-19 -102.5t-53 -85t-78.5 -56.5t-93.5 -20q-105 0 -162 73v-259h-129v700h129v-59q57 73 162 73zM326 109q60 0 99.5 39.5t39.5 101.5t-39.5 101.5t-99.5 39.5t-99 -39.5t-39 -101.5t39 -101.5t99 -39.5z" />
    <glyph glyph-name="uni0441" unicode="&#x441;" horiz-adv-x="536" 
d="M297 -14q-55 0 -104 20t-85 56t-55.5 85t-19.5 103t19.5 103t55.5 85t85 56t104 20q53 0 101.5 -20.5t78.5 -51t44 -57.5l-111 -65q-15 30 -46 48.5t-68 18.5q-57 0 -95.5 -39t-38.5 -98q0 -58 38.5 -97t95.5 -39q38 0 69 18t46 48l112 -64q-15 -27 -45.5 -58t-79 -51.5
t-101.5 -20.5z" />
    <glyph glyph-name="uni0442" unicode="&#x442;" horiz-adv-x="463" 
d="M453 500v-124h-156v-376h-129v376h-158v124h443z" />
    <glyph glyph-name="uni0443" unicode="&#x443;" horiz-adv-x="525" 
d="M385 500h138l-182 -500q-38 -106 -105.5 -155.5t-158.5 -44.5v120q50 -1 80 19.5t48 66.5l-202 494h137l134 -336z" />
    <glyph glyph-name="uni0444" unicode="&#x444;" horiz-adv-x="685" 
d="M653 250q0 -48 -17 -92t-49 -78t-78.5 -57t-102.5 -31v-192h-126v192q-56 8 -102.5 31t-78.5 57t-49 78t-17 92t17 92t49 78t78.5 57t102.5 31v192h126v-192q56 -8 102.5 -31t78.5 -57t49 -78t17 -92zM160 250q0 -50 31 -86t89 -49v270q-27 -6 -56 -22t-46.5 -46
t-17.5 -67zM406 116q42 9 70.5 32t38.5 51t10 51q0 50 -31 86t-88 49v-269z" />
    <glyph glyph-name="uni0445" unicode="&#x445;" horiz-adv-x="525" 
d="M520 0h-149l-108 152l-109 -152h-149l183 255l-175 245h149l101 -141l101 141h148l-175 -244z" />
    <glyph glyph-name="uni0446" unicode="&#x446;" horiz-adv-x="605" 
d="M499 121h84v-255h-126v134h-398v500h129v-379h182v379h129v-379z" />
    <glyph glyph-name="uni0447" unicode="&#x447;" horiz-adv-x="541" 
d="M354 500h129v-500h-129v159q-55 -18 -119 -18q-66 0 -110.5 23t-67 62.5t-22.5 94.5v179h129v-164q0 -75 93 -75q54 0 97 19v220z" />
    <glyph glyph-name="uni0448" unicode="&#x448;" horiz-adv-x="833" 
d="M645 500h129v-500h-715v500h129v-379h164v379h129v-379h164v379z" />
    <glyph glyph-name="uni0449" unicode="&#x449;" horiz-adv-x="848" 
d="M759 121h66v-255h-126v134h-640v500h129v-379h156v379h129v-379h157v379h129v-379z" />
    <glyph glyph-name="uni044A" unicode="&#x44a;" horiz-adv-x="574" 
d="M363 340q84 0 136 -47t52 -123t-52 -123t-136 -47h-227v376h-136v124h265v-160h98zM363 114q27 0 44.5 15.5t17.5 40.5t-17.5 41t-44.5 16h-98v-113h98z" />
    <glyph glyph-name="uni044B" unicode="&#x44b;" horiz-adv-x="717" 
d="M285 340q85 0 137 -47t52 -123t-52 -123t-137 -47h-226v500h129v-160h97zM529 500h129v-500h-129v500zM286 114q27 0 44.5 15.5t17.5 40.5t-17.5 41t-44.5 16h-98v-113h98z" />
    <glyph glyph-name="uni044C" unicode="&#x44c;" horiz-adv-x="496" 
d="M285 340q85 0 137 -47t52 -123t-52 -123t-137 -47h-226v500h129v-160h97zM286 114q27 0 44.5 15.5t17.5 40.5t-17.5 41t-44.5 16h-98v-113h98z" />
    <glyph glyph-name="uni044D" unicode="&#x44d;" horiz-adv-x="537" 
d="M243 514q55 0 103.5 -19t83.5 -54.5t54.5 -84.5t19.5 -106t-19.5 -106t-54.5 -84.5t-83.5 -54.5t-104.5 -19q-36 0 -81 12t-85.5 43.5t-62.5 74.5l109 63q13 -30 45 -49.5t77 -19.5q41 0 74 22.5t48 59.5h-170v116h170q-15 37 -48 59.5t-74 22.5q-43 0 -74.5 -19
t-46.5 -49l-109 63q32 59 92.5 94t136.5 35z" />
    <glyph glyph-name="uni044E" unicode="&#x44e;" horiz-adv-x="811" 
d="M514 514q53 0 102 -20t85.5 -56.5t57 -85t20.5 -102.5t-20.5 -102.5t-57 -85t-85.5 -56.5t-102 -20q-93 0 -163.5 57t-90.5 147h-72v-190h-129v500h129v-189h73q7 32 24.5 66.5t53 68.5t83 51t92.5 17zM514 112q57 0 96.5 39.5t39.5 98.5t-39.5 98.5t-96.5 39.5
t-96 -39.5t-39 -98.5t39 -98.5t96 -39.5z" />
    <glyph glyph-name="uni044F" unicode="&#x44f;" horiz-adv-x="519" 
d="M460 500v-500h-126v156h-45l-115 -156h-149l125 171q-47 20 -76 64t-29 93q0 33 12.5 64t36 55.5t58 38.5t74.5 14h234zM236 385q-28 0 -46.5 -17t-18.5 -44t18.5 -43t46.5 -16h98v120h-98z" />
    <glyph glyph-name="uni0451" unicode="&#x451;" horiz-adv-x="581" 
d="M196 553q-27 0 -47.5 20t-20.5 47t20.5 47.5t47.5 20.5t47 -20.5t20 -47.5t-20 -47t-47 -20zM386 553q-27 0 -47.5 20t-20.5 47t20.5 47.5t47.5 20.5t47 -20.5t20 -47.5t-20 -47t-47 -20zM168 197q13 -47 50.5 -70.5t90.5 -23.5q36 0 65.5 14t46.5 36l104 -60
q-35 -51 -91.5 -79t-126.5 -28q-61 0 -112 20t-87.5 56t-55.5 84.5t-19 103.5t19 103.5t54.5 84.5t84.5 56t106 20q54 0 101 -20.5t81 -56.5t52.5 -84.5t18.5 -102.5q0 -25 -5 -53h-377zM166 297h255q-6 26 -19.5 47.5t-40 37.5t-64.5 16q-51 0 -85.5 -27t-45.5 -74z" />
    <glyph glyph-name="uni0452" unicode="&#x452;" horiz-adv-x="583" 
d="M343 514q19 0 43 -4.5t48.5 -17t47 -36t37 -62.5t14.5 -87v-317q0 -110 -54 -160.5t-164 -43.5v124q45 -3 67 16t22 64v301q0 23 -9.5 48t-34 40t-56.5 15q-36 0 -60.5 -16t-34.5 -36.5t-12.5 -38.5t-2.5 -33v-270h-129v554h-62v84h62v62h129v-62h141v-84h-141v-111
q22 34 61 52.5t88 18.5z" />
    <glyph glyph-name="uni0453" unicode="&#x453;" horiz-adv-x="411" 
d="M369 700l-111 -137h-124l80 137h155zM401 500v-124h-213v-376h-129v500h342z" />
    <glyph glyph-name="uni0454" unicode="&#x454;" horiz-adv-x="537" 
d="M415 179l109 -63q-22 -43 -62.5 -74.5t-85.5 -43.5t-81 -12q-56 0 -104.5 19t-83.5 54.5t-54.5 84.5t-19.5 106t19.5 106t54.5 84.5t83.5 54.5t103.5 19t104.5 -20t79.5 -51t45 -58l-109 -63q-15 30 -46.5 49t-74.5 19q-41 0 -74 -22.5t-48 -59.5h170v-116h-170
q15 -37 48 -59.5t74 -22.5q45 0 77 19.5t45 49.5z" />
    <glyph glyph-name="uni0455" unicode="&#x455;" horiz-adv-x="465" 
d="M178 358q0 -13 12.5 -24t59.5 -24.5t69 -20.5t43 -19t37 -27t26.5 -40t10.5 -57q0 -48 -24 -83t-69.5 -56t-107.5 -21q-74 0 -128.5 31t-81.5 88l112 63q8 -23 24 -38.5t36.5 -21t37.5 -5.5q31 0 50 11t19 32q0 16 -16 26.5t-61.5 24t-65.5 20t-41 18.5t-37 26.5
t-26.5 38.5t-10.5 55q0 46 22.5 80.5t65.5 56.5t102 22q60 0 111 -28t79 -78l-110 -60q-11 24 -32 37.5t-48 13.5q-25 0 -41.5 -11t-16.5 -30z" />
    <glyph glyph-name="uni0456" unicode="&#x456;" horiz-adv-x="247" 
d="M123 560q-32 0 -55.5 23.5t-23.5 55.5t23.5 56t55.5 24t56 -24t24 -56t-24 -55.5t-56 -23.5zM59 0v500h129v-500h-129z" />
    <glyph glyph-name="uni0457" unicode="&#x457;" horiz-adv-x="247" 
d="M28 549q-27 0 -47.5 20t-20.5 47t20.5 47.5t47.5 20.5t47 -20.5t20 -47.5t-20 -47t-47 -20zM218 549q-27 0 -47.5 20t-20.5 47t20.5 47.5t47.5 20.5t47 -20.5t20 -47.5t-20 -47t-47 -20zM59 0v500h129v-500h-129z" />
    <glyph glyph-name="uni0458" unicode="&#x458;" horiz-adv-x="264" 
d="M141 560q-32 0 -56 23.5t-24 55.5t24 56t56 24t55.5 -24t23.5 -56t-23.5 -55.5t-55.5 -23.5zM76 -10v510h129v-510q0 -110 -54 -160.5t-164 -43.5v124q45 -3 67 16t22 64z" />
    <glyph glyph-name="uni0459" unicode="&#x459;" horiz-adv-x="764" 
d="M570 328q79 0 125 -44t46 -120q0 -75 -47 -119.5t-124 -44.5h-221v376h-128v-167q0 -229 -211 -215v121q82 -11 82 101v284h386v-172h92zM571 114q21 0 36.5 13t15.5 37t-15.5 37t-36.5 13h-93v-100h93z" />
    <glyph glyph-name="uni045A" unicode="&#x45a;" horiz-adv-x="790" 
d="M589 328q79 0 128.5 -44.5t49.5 -119.5q0 -46 -22.5 -85.5t-65.5 -59t-90 -19.5h-222v207h-187v-207h-129v500h129v-172h187v172h129v-172h93zM589 114q22 0 37 13t15 37t-15 37t-37 13h-93v-100h93z" />
    <glyph glyph-name="uni045B" unicode="&#x45b;" horiz-adv-x="583" 
d="M343 514q19 0 43 -4.5t48.5 -17t47 -36t37 -62.5t14.5 -87v-307h-129v291q0 23 -9.5 48t-34 40t-56.5 15q-36 0 -60.5 -16t-34.5 -36.5t-12.5 -38.5t-2.5 -33v-270h-129v554h-62v84h62v62h129v-62h141v-84h-141v-111q22 34 61 52.5t88 18.5z" />
    <glyph glyph-name="uni045C" unicode="&#x45c;" horiz-adv-x="525" 
d="M424 700l-111 -137h-124l80 137h155zM520 0h-150l-182 227v-227h-129v500h129v-220l172 220h154l-201 -247z" />
    <glyph glyph-name="uni045E" unicode="&#x45e;" horiz-adv-x="525" 
d="M408 676v-112h-290v112h290zM385 500h138l-182 -500q-38 -106 -105.5 -155.5t-158.5 -44.5v120q50 -1 80 19.5t48 66.5l-202 494h137l134 -336z" />
    <glyph glyph-name="uni045F" unicode="&#x45f;" horiz-adv-x="575" 
d="M387 500h129v-500h-165v-134h-126v134h-166v500h129v-379h199v379z" />
    <glyph glyph-name="uni0490" unicode="&#x490;" horiz-adv-x="475" 
d="M325 820h138v-252h-260v-568h-138v700h260v120z" />
    <glyph glyph-name="uni0491" unicode="&#x491;" horiz-adv-x="411" 
d="M275 601h126v-225h-213v-376h-129v500h216v101z" />
    <glyph glyph-name="Wgrave" unicode="&#x1e80;" horiz-adv-x="999" 
d="M611 763l-80 137h-155l111 -137h124zM211 0l-196 700h145l134 -519l146 519h118l147 -519l134 519h145l-196 -700h-157l-132 462l-131 -462h-157z" />
    <glyph glyph-name="wgrave" unicode="&#x1e81;" horiz-adv-x="770" 
d="M467 563h-124l-111 137h155zM622 500h137l-159 -500h-123l-92 303l-92 -303h-123l-159 500h137l85 -307l91 307h122l91 -308z" />
    <glyph glyph-name="Wacute" unicode="&#x1e82;" horiz-adv-x="999" 
d="M449 763h124l111 137h-155zM211 0l-196 700h145l134 -519l146 519h118l147 -519l134 519h145l-196 -700h-157l-132 462l-131 -462h-157z" />
    <glyph glyph-name="wacute" unicode="&#x1e83;" horiz-adv-x="770" 
d="M540 700l-111 -137h-124l80 137h155zM622 500h137l-159 -500h-123l-92 303l-92 -303h-123l-159 500h137l85 -307l91 307h122l91 -308z" />
    <glyph glyph-name="Wdieresis" unicode="&#x1e84;" horiz-adv-x="999" 
d="M434 749q-27 0 -47.5 20t-20.5 47t20.5 47.5t47.5 20.5t47 -20.5t20 -47.5t-20 -47t-47 -20zM624 749q-27 0 -47.5 20t-20.5 47t20.5 47.5t47.5 20.5t47 -20.5t20 -47.5t-20 -47t-47 -20zM211 0l-196 700h145l134 -519l146 519h118l147 -519l134 519h145l-196 -700h-157
l-132 462l-131 -462h-157z" />
    <glyph glyph-name="wdieresis" unicode="&#x1e85;" horiz-adv-x="770" 
d="M290 549q-27 0 -47.5 20t-20.5 47t20.5 47.5t47.5 20.5t47 -20.5t20 -47.5t-20 -47t-47 -20zM480 549q-27 0 -47.5 20t-20.5 47t20.5 47.5t47.5 20.5t47 -20.5t20 -47.5t-20 -47t-47 -20zM622 500h137l-159 -500h-123l-92 303l-92 -303h-123l-159 500h137l85 -307l91 307
h122l91 -308z" />
    <glyph glyph-name="Ygrave" unicode="&#x1ef2;" horiz-adv-x="621" 
d="M392 763h-124l-111 137h155zM619 700l-240 -427v-273h-137v273l-239 427h156l152 -292l152 292h156z" />
    <glyph glyph-name="ygrave" unicode="&#x1ef3;" horiz-adv-x="525" 
d="M345 563h-124l-111 137h155zM385 500h138l-182 -500q-39 -107 -104 -156t-160 -44v120q52 -1 82.5 22.5t48.5 73.5l-205 484h141l130 -336z" />
    <glyph glyph-name="endash" unicode="&#x2013;" horiz-adv-x="645" 
d="M65 240v124h515v-124h-515z" />
    <glyph glyph-name="emdash" unicode="&#x2014;" horiz-adv-x="745" 
d="M65 240v124h615v-124h-615z" />
    <glyph glyph-name="quoteleft" unicode="&#x2018;" horiz-adv-x="278" 
d="M49 422l75 278h105l-40 -278h-140z" />
    <glyph glyph-name="quoteright" unicode="&#x2019;" horiz-adv-x="278" 
d="M229 701l-75 -278h-105l40 278h140z" />
    <glyph glyph-name="quotesinglbase" unicode="&#x201a;" horiz-adv-x="278" 
d="M229 138l-75 -278h-105l40 278h140z" />
    <glyph glyph-name="quotedblleft" unicode="&#x201c;" horiz-adv-x="463" 
d="M49 422l75 278h105l-40 -278h-140zM234 422l75 278h105l-40 -278h-140z" />
    <glyph glyph-name="quotedblright" unicode="&#x201d;" horiz-adv-x="463" 
d="M229 701l-75 -278h-105l40 278h140zM414 701l-75 -278h-105l40 278h140z" />
    <glyph glyph-name="quotedblbase" unicode="&#x201e;" horiz-adv-x="463" 
d="M229 138l-75 -278h-105l40 278h140zM414 138l-75 -278h-105l40 278h140z" />
    <glyph glyph-name="dagger" unicode="&#x2020;" horiz-adv-x="480" 
d="M435 565v-124h-130v-441h-129v441h-131v124h131v135h129v-135h130z" />
    <glyph glyph-name="daggerdbl" unicode="&#x2021;" horiz-adv-x="480" 
d="M435 441h-130v-182h130v-124h-130v-135h-129v135h-131v124h131v182h-131v124h131v135h129v-135h130v-124z" />
    <glyph glyph-name="bullet" unicode="&#x2022;" horiz-adv-x="360" 
d="M182 213q-57 0 -98 41t-41 98q0 55 41 95.5t98 40.5q55 0 95.5 -40.5t40.5 -95.5q0 -57 -40.5 -98t-95.5 -41z" />
    <glyph glyph-name="ellipsis" unicode="&#x2026;" horiz-adv-x="723" 
d="M134 -13q-16 0 -36 8.5t-34.5 30t-14.5 46.5q0 16 8.5 36t30 34.5t46.5 14.5q16 0 36 -8.5t34.5 -30t14.5 -46.5q0 -16 -8.5 -36t-30 -34.5t-46.5 -14.5zM362 -13q-16 0 -36 8.5t-34.5 30t-14.5 46.5q0 16 8.5 36t30 34.5t46.5 14.5q16 0 36 -8.5t34.5 -30t14.5 -46.5
q0 -16 -8.5 -36t-30 -34.5t-46.5 -14.5zM589 -13q-16 0 -36 8.5t-34.5 30t-14.5 46.5q0 16 8.5 36t30 34.5t46.5 14.5q16 0 36 -8.5t34.5 -30t14.5 -46.5q0 -16 -8.5 -36t-30 -34.5t-46.5 -14.5z" />
    <glyph glyph-name="perthousand" unicode="&#x2030;" horiz-adv-x="1139" 
d="M214 384q-72 0 -120.5 48t-48.5 117q0 25 8.5 52.5t29 52.5t54 42.5t77.5 17.5q71 0 119.5 -47.5t48.5 -117.5q0 -69 -48 -117t-120 -48zM116 106l456 507l61 -34l-457 -508zM213 485q27 0 45 19t18 45t-18 44.5t-45 18.5q-26 0 -44 -18.5t-18 -44.5q0 -27 18 -45.5
t44 -18.5zM552 -12q-26 0 -54.5 8.5t-53.5 29t-42.5 53t-17.5 74.5q0 25 8.5 52.5t29 52.5t53.5 42.5t77 17.5q26 0 54.5 -8.5t53.5 -29t42.5 -53t17.5 -74.5q0 -25 -8.5 -52.5t-29 -52.5t-53.5 -42.5t-77 -17.5zM926 -12q-26 0 -54.5 8.5t-54 29t-43 53t-17.5 74.5
q0 25 8.5 52.5t29 52.5t54 42.5t77.5 17.5q26 0 54.5 -8.5t53.5 -29t42.5 -53t17.5 -74.5q0 -33 -12.5 -63.5t-35.5 -53t-54 -35.5t-66 -13zM552 89q27 0 44.5 19t17.5 45q0 27 -17.5 45.5t-44.5 18.5t-44.5 -18.5t-17.5 -45.5t17.5 -45.5t44.5 -18.5zM925 89q27 0 45 19
t18 45q0 27 -17.5 45.5t-45.5 18.5q-26 0 -44 -18.5t-18 -45.5t18 -45.5t44 -18.5z" />
    <glyph glyph-name="guilsinglleft" unicode="&#x2039;" horiz-adv-x="355" 
d="M292 497l-110 -188l110 -187h-119l-110 187l110 188h119z" />
    <glyph glyph-name="guilsinglright" unicode="&#x203a;" horiz-adv-x="355" 
d="M182 497l110 -188l-110 -187h-119l110 187l-110 188h119z" />
    <glyph glyph-name="fraction" unicode="&#x2044;" horiz-adv-x="190" 
d="M-60 0h-90l400 700h90z" />
    <glyph glyph-name="Euro" unicode="&#x20ac;" horiz-adv-x="611" 
d="M475 204l114 -65q-33 -74 -92 -113.5t-137 -39.5q-41 0 -78 11t-67.5 31.5t-54.5 50t-44 73.5t-30 105h-70v78h63v15v24h-63v77h71q21 122 92.5 192.5t180.5 70.5q55 0 102.5 -21.5t77.5 -56.5t46 -68l-115 -66q-19 39 -46 58.5t-65 19.5q-51 0 -85.5 -33.5t-48.5 -95.5
h205v-77h-215v-24v-15h215v-78h-207q13 -67 47.5 -101.5t88.5 -34.5q39 0 67.5 20.5t47.5 62.5z" />
    <glyph glyph-name="uni20BD" unicode="&#x20bd;" horiz-adv-x="601" 
d="M349 243h-124v-55h223v-88h-223v-100h-137v100h-75v88h75v55h-75v121h75v336h261q48 0 91.5 -18t76 -50t50.5 -74.5t18 -89.5t-18 -88.5t-50.5 -72t-76 -47.5t-91.5 -17zM225 571v-207h124q42 0 70.5 30.5t28.5 73.5q0 20 -9.5 44t-34.5 41.5t-55 17.5h-124z" />
    <glyph glyph-name="uni2116" unicode="&#x2116;" horiz-adv-x="1039" 
d="M839 383q-44 0 -84.5 22t-62 62t-21.5 81q0 25 8.5 52.5t29 52.5t53.5 42.5t77 17.5q26 0 54.5 -8.5t53.5 -29t42.5 -53t17.5 -74.5t-21 -81.5t-61.5 -61.5t-85.5 -22zM470 700h138v-700h-105l-300 428v-428h-138v700h105l300 -427v427zM839 488q26 0 42.5 17t16.5 43
q0 25 -16.5 42.5t-42.5 17.5t-42.5 -17.5t-16.5 -42.5t16.5 -42.5t42.5 -17.5zM684 208v121h312v-121h-312z" />
    <glyph glyph-name="trademark" unicode="&#x2122;" horiz-adv-x="473" 
d="M204 700v-56h-55v-144h-61v144h-55v56h171zM383 700h58v-200h-58v109l-48 -73h-5l-48 73v-109h-58v200h58l51 -77z" />
    <glyph glyph-name="estimated" unicode="&#x212e;" horiz-adv-x="790" 
d="M395 710q80 0 149 -28t118.5 -77.5t76 -115.5t26.5 -139q0 -15 -15 -15h-560q-15 0 -15 -15v-192q0 -11 7 -19q84 -89 233 -89q72 0 131 25.5t100 71.5q8 9 18 9h37q9 0 12 -6t-3 -13q-51 -55 -126.5 -86t-168.5 -31q-87 0 -160 28t-124.5 77.5t-78.5 115.5t-27 139
t26.5 139t76 115.5t118.5 77.5t149 28zM615 572q0 11 -7 19q-40 42 -95.5 65.5t-117.5 23.5t-117.5 -23.5t-95.5 -65.5q-7 -8 -7 -19v-192q0 -15 15 -15h410q15 0 15 15v192z" />
    <glyph glyph-name="oneeighth" unicode="&#x215b;" horiz-adv-x="806" 
d="M217 300h-107v292l-82 -23l-25 88l120 43h94v-400zM517 700h90l-400 -700h-90zM727 210q28 -16 43 -43t15 -58q0 -56 -40.5 -89.5t-112.5 -33.5t-113 33.5t-41 89.5q0 31 15.5 58t43.5 43q-45 31 -45 84q0 56 41 88t99 32t99 -32t41 -88q0 -53 -45 -84zM632 323
q-22 0 -35 -10t-13 -28t13 -28.5t35 -10.5q21 0 34.5 10.5t13.5 28.5t-13.5 28t-34.5 10zM632 78q24 0 38 12.5t14 33.5q0 20 -14.5 32.5t-37.5 12.5q-25 0 -39 -12.5t-14 -32.5q0 -21 14 -33.5t39 -12.5z" />
    <glyph glyph-name="threeeighths" unicode="&#x215c;" horiz-adv-x="887" 
d="M321 421q0 -64 -41.5 -99.5t-113.5 -35.5q-58 0 -97.5 23.5t-58.5 65.5l90 52q17 -47 66 -47q23 0 35.5 11t12.5 30q0 18 -14.5 29t-36.5 11h-19l-40 58l69 84h-145v97h275v-79l-72 -86q42 -12 66 -42t24 -72zM598 700h90l-400 -700h-90zM808 210q28 -16 43 -43t15 -58
q0 -56 -40.5 -89.5t-112.5 -33.5t-113 33.5t-41 89.5q0 31 15.5 58t43.5 43q-45 31 -45 84q0 56 41 88t99 32t99 -32t41 -88q0 -53 -45 -84zM713 323q-22 0 -35 -10t-13 -28t13 -28.5t35 -10.5q21 0 34.5 10.5t13.5 28.5t-13.5 28t-34.5 10zM713 78q24 0 38 12.5t14 33.5
q0 20 -14.5 32.5t-37.5 12.5q-25 0 -39 -12.5t-14 -32.5q0 -21 14 -33.5t39 -12.5z" />
    <glyph glyph-name="fiveeighths" unicode="&#x215d;" horiz-adv-x="873" 
d="M315 417q0 -39 -17 -68.5t-50.5 -46t-78.5 -16.5q-59 0 -98 23.5t-58 65.5l88 50q18 -47 65 -47q24 0 37.5 11.5t13.5 29.5q0 19 -13.5 31t-37.5 12h-128l16 238h242v-97h-152l-4 -54h33q39 0 73 -14t51.5 -45.5t17.5 -72.5zM584 700h90l-400 -700h-90zM794 210
q28 -16 43 -43t15 -58q0 -56 -40.5 -89.5t-112.5 -33.5t-113 33.5t-41 89.5q0 31 15.5 58t43.5 43q-45 31 -45 84q0 56 41 88t99 32t99 -32t41 -88q0 -53 -45 -84zM699 323q-22 0 -35 -10t-13 -28t13 -28.5t35 -10.5q21 0 34.5 10.5t13.5 28.5t-13.5 28t-34.5 10zM699 78
q24 0 38 12.5t14 33.5q0 20 -14.5 32.5t-37.5 12.5q-25 0 -39 -12.5t-14 -32.5q0 -21 14 -33.5t39 -12.5z" />
    <glyph glyph-name="seveneighths" unicode="&#x215e;" horiz-adv-x="834" 
d="M153 300h-111l121 303h-160v97h276v-82zM545 700h90l-400 -700h-90zM755 210q28 -16 43 -43t15 -58q0 -56 -40.5 -89.5t-112.5 -33.5t-113 33.5t-41 89.5q0 31 15.5 58t43.5 43q-45 31 -45 84q0 56 41 88t99 32t99 -32t41 -88q0 -53 -45 -84zM660 323q-22 0 -35 -10
t-13 -28t13 -28.5t35 -10.5q21 0 34.5 10.5t13.5 28.5t-13.5 28t-34.5 10zM660 78q24 0 38 12.5t14 33.5q0 20 -14.5 32.5t-37.5 12.5q-25 0 -39 -12.5t-14 -32.5q0 -21 14 -33.5t39 -12.5z" />
    <glyph glyph-name="arrowleft" unicode="&#x2190;" horiz-adv-x="798" 
d="M753 412v-124h-475l238 -238h-171l-300 300l300 300h171l-238 -238h475z" />
    <glyph glyph-name="arrowup" unicode="&#x2191;" horiz-adv-x="690" 
d="M645 400v-171l-235 235v-464h-129v465l-236 -236v171l300 300z" />
    <glyph glyph-name="arrowright" unicode="&#x2192;" horiz-adv-x="798" 
d="M453 650l300 -300l-300 -300h-171l238 238h-475v124h475l-238 238h171z" />
    <glyph glyph-name="arrowdown" unicode="&#x2193;" horiz-adv-x="690" 
d="M410 236l235 235v-171l-300 -300l-300 300v171l236 -236v465h129v-464z" />
    <glyph glyph-name="arrowboth" unicode="&#x2194;" horiz-adv-x="1085" 
d="M768 623l272 -273l-272 -272h-168l208 210h-533l210 -210h-168l-272 272l272 273h168l-210 -211h535l-210 211h168z" />
    <glyph glyph-name="arrowupdn" unicode="&#x2195;" horiz-adv-x="635" 
d="M590 407l-208 209v-531l208 208v-168l-272 -273l-273 273v168l208 -207v529l-208 -208v168l273 273l272 -273v-168z" />
    <glyph glyph-name="uni2196" unicode="&#x2196;" horiz-adv-x="643" 
d="M598 148l-87 -88l-345 344v-335l-121 120v424h424l121 -120h-337z" />
    <glyph glyph-name="uni2197" unicode="&#x2197;" horiz-adv-x="643" 
d="M174 613h424v-424l-120 -120v336l-345 -345l-88 88l345 345h-336z" />
    <glyph glyph-name="uni2198" unicode="&#x2198;" horiz-adv-x="643" 
d="M478 617l120 -120v-424h-424l-120 120h336l-345 345l88 88l345 -345v336z" />
    <glyph glyph-name="uni2199" unicode="&#x2199;" horiz-adv-x="643" 
d="M598 538l-345 -345h337l-121 -120h-424v424l121 120v-335l345 344z" />
    <glyph glyph-name="partialdiff" unicode="&#x2202;" horiz-adv-x="584" 
d="M240 714q58 0 112.5 -26t96.5 -74t66 -116.5t24 -147.5q0 -87 -21.5 -156t-59.5 -115t-89.5 -69.5t-108.5 -23.5q-50 0 -86 14.5t-63 37.5t-47.5 65t-20.5 97q0 50 15.5 93t45 74.5t72 49t93.5 17.5q28 0 64.5 -8t73.5 -32q-10 92 -57 144.5t-126 53.5q-57 1 -115 -32
v118q56 36 131 36zM265 108q29 0 56.5 14t47.5 45.5t28 66.5t10 50q-27 19 -59 27.5t-61 8.5q-50 0 -82.5 -31t-32.5 -85q0 -43 25.5 -69.5t67.5 -26.5z" />
    <glyph glyph-name="emptyset" unicode="&#x2205;" horiz-adv-x="804" 
d="M660 604q48 -49 76 -115.5t28 -138.5q0 -73 -28 -139.5t-78 -116.5t-116.5 -78t-139.5 -28q-104 0 -192 55l-50 -63h-107l92 115q-49 50 -77 116.5t-28 138.5q0 73 28 139.5t78 116.5t116.5 78t139.5 28q104 0 192 -55l50 63h108zM130 350q0 -51 19 -99.5t52 -85.5
l337 423q-28 16 -64.5 26t-71.5 10q-55 0 -105 -21t-87.5 -59t-58.5 -88.5t-21 -105.5zM402 76q55 0 105 21t87.5 59t58.5 88.5t21 105.5q0 52 -18.5 100t-51.5 85l-338 -423q29 -16 65 -26t71 -10z" />
    <glyph glyph-name="product" unicode="&#x220f;" horiz-adv-x="640" 
d="M65 -200v900h510v-900h-129v776h-252v-776h-129z" />
    <glyph glyph-name="summation" unicode="&#x2211;" horiz-adv-x="563" 
d="M35 -200v110l213 350l-198 329v111h460v-124h-308l191 -316l-205 -336h337v-124h-490z" />
    <glyph glyph-name="minus" unicode="&#x2212;" horiz-adv-x="555" 
d="M53 290v121h450v-121h-450z" />
    <glyph glyph-name="radical" unicode="&#x221a;" horiz-adv-x="676" 
d="M269 0l-122 199h-102v124h176l100 -173l218 650h132l-277 -800h-125z" />
    <glyph glyph-name="infinity" unicode="&#x221e;" horiz-adv-x="808" 
d="M575 525q28 0 58.5 -8.5t57.5 -29t46 -55t19 -82.5q0 -28 -9 -58.5t-31 -56t-57.5 -43t-83.5 -17.5q-86 0 -171 87q-85 -87 -171 -87q-28 0 -59 8.5t-58 29t-46 55t-19 82.5q0 38 13.5 70.5t38.5 56t58.5 36t71.5 12.5q86 0 171 -87q85 87 171 87zM239 291q43 0 89 59
q-46 59 -89 59q-26 0 -42.5 -17t-16.5 -42t16.5 -42t42.5 -17zM569 291q26 0 42.5 17t16.5 42t-16.5 42t-42.5 17q-43 0 -89 -59q46 -59 89 -59z" />
    <glyph glyph-name="integral" unicode="&#x222b;" horiz-adv-x="441" 
d="M0 -204v129q25 -12 50 -7.5t39 22.5t18 41l95 561q7 40 23.5 76t46 59.5t71.5 31t98 -6.5v-128q-17 7 -35 8t-33.5 -5.5t-26 -21.5t-14.5 -37l-96 -562q-7 -40 -23.5 -76t-45.5 -59.5t-70.5 -31t-96.5 6.5z" />
    <glyph glyph-name="approxequal" unicode="&#x2248;" horiz-adv-x="569" 
d="M289 379q-54 25 -91 29.5t-70 -31.5l-83 28q26 99 86.5 126.5t148.5 -12.5q66 -31 96.5 -27t42.5 51l105 -51q-22 -94 -85.5 -124t-149.5 11zM150 157l-105 51q22 94 85.5 124t149.5 -11q54 -25 90 -29t71 31l83 -28q-10 -36 -27.5 -68.5t-49 -52.5t-73.5 -16.5t-85 23.5
q-66 31 -96.5 27t-42.5 -51z" />
    <glyph glyph-name="notequal" unicode="&#x2260;" horiz-adv-x="525" 
d="M480 393h-158l-39 -86h197v-121h-251l-59 -131h-80l59 131h-104v121h158l39 86h-197v121h251l59 131h80l-59 -131h104v-121z" />
    <glyph glyph-name="lessequal" unicode="&#x2264;" horiz-adv-x="528" 
d="M483 653v-134l-289 -90l289 -89v-134l-438 166v114zM45 55v121h438v-121h-438z" />
    <glyph glyph-name="greaterequal" unicode="&#x2265;" horiz-adv-x="528" 
d="M45 653l438 -167v-114l-438 -166v134l289 89l-289 90v134zM45 55v121h438v-121h-438z" />
    <glyph glyph-name="lozenge" unicode="&#x25ca;" horiz-adv-x="555" 
d="M229 0l-186 350l186 350h98l186 -350l-186 -350h-98zM278 170l95 180l-95 180l-96 -180z" />
    <glyph glyph-name="i.locl" horiz-adv-x="247" 
d="M123 551q-32 0 -55 23.5t-23 54.5t23 54t55 23q31 0 54 -23t23 -54t-23 -54.5t-54 -23.5zM59 0v500h129v-500h-129z" />
    <glyph glyph-name="f_f_j.dlig" horiz-adv-x="834" 
d="M775 500v-510q0 -110 -53.5 -160.5t-163.5 -43.5v124q45 -3 66.5 16t21.5 64v386h-147v-376h-129v376h-148v-376h-129v376h-72v124h72v5q0 106 59.5 161t175.5 48v-124q-106 8 -106 -85v-5h148v15q0 209 235 209q54 0 118 -14v-118q-69 8 -118 8q-39 0 -63 -9.5
t-33.5 -29.5t-9.5 -46v-15h276z" />
    <glyph glyph-name="f_j.dlig" horiz-adv-x="557" 
d="M498 500v-510q0 -110 -54 -160.5t-164 -43.5v124q45 -3 67 16t22 64v386h-147v-376h-129v376h-72v124h72v5q0 209 235 209q53 0 117 -14v-118q-67 8 -117 8q-53 0 -79.5 -18.5t-26.5 -66.5v-5h276z" />
    <glyph glyph-name="uni0414.locl" horiz-adv-x="730" 
d="M634 132h79v-266h-138v134h-420v-134h-137v266h79l183 568h171zM241 132h248l-124 412z" />
    <glyph glyph-name="uni041B.aalt" horiz-adv-x="647" 
d="M238 700h171l236 -700h-151l-170 538l-171 -538h-150z" />
    <glyph glyph-name="uni0424.aalt" horiz-adv-x="859" 
d="M827 350q0 -73 -23.5 -135.5t-67 -109t-105.5 -76t-136 -37.5v-92h-130v92q-74 8 -136 37.5t-105.5 76t-67 109t-23.5 135.5t23.5 135.5t67 109t105.5 76t136 37.5v92h130v-92q74 -8 136 -37.5t105.5 -76t67 -109t23.5 -135.5zM170 350q0 -97 49.5 -157t145.5 -74v463
q-96 -15 -145.5 -75t-49.5 -157zM495 119q96 15 145 74.5t49 156.5t-49.5 157t-144.5 75v-463z" />
    <glyph glyph-name="uni0414.salt" horiz-adv-x="705" 
d="M603 132h75v-132h-663v132h68q58 81 58 237v331h462v-568zM231 132h234v439h-186v-204q0 -152 -48 -235z" />
    <glyph glyph-name="uni0426.aalt" horiz-adv-x="690" 
d="M588 132h75v-132h-598v700h138v-568h247v568h138v-568z" />
    <glyph glyph-name="uni0429.aalt" horiz-adv-x="980" 
d="M878 132h75v-132h-888v700h138v-568h200v568h137v-568h200v568h138v-568z" />
    <glyph glyph-name="uni0414.locl.salt" horiz-adv-x="730" 
d="M634 132h79v-132h-695v132h79l183 568h171zM241 132h248l-124 412z" />
    <glyph glyph-name="uni0432.aalt" horiz-adv-x="566" 
d="M419 409q54 -22 84.5 -72.5t30.5 -122.5q0 -107 -63 -167.5t-175 -60.5q-107 0 -172 66.5t-65 176.5v238q0 54 16 100t46 79t72.5 50.5t92.5 17.5q87 0 141 -47.5t54 -126.5q0 -68 -62 -131zM286 593q-21 0 -44 -11.5t-38.5 -42.5t-15.5 -72v-58l47 10q35 7 61 8
q59 47 59 98q0 30 -18.5 49t-50.5 19zM296 111q51 0 80 27.5t29 75.5q0 58 -46 81t-124 7l-47 -10v-63q0 -40 17 -68.5t42.5 -39t48.5 -10.5z" />
    <glyph glyph-name="uni0433.aalt" horiz-adv-x="465" 
d="M333 170l112 -64q-27 -57 -81.5 -88.5t-128.5 -31.5q-51 0 -99.5 17.5t-75 56t-26.5 86.5q0 49 22 79.5t54.5 47t90.5 33t71.5 28t13.5 24.5q0 19 -16 30t-40 11q-27 0 -48.5 -14t-33.5 -38l-109 60q28 50 79 78.5t112 28.5q28 0 59.5 -7t59.5 -25t48.5 -49.5t20.5 -77.5
q0 -32 -10.5 -56t-30 -42t-47 -30t-76.5 -25t-62.5 -20t-19.5 -15t-6 -18q0 -22 18.5 -34t50.5 -12q36 0 62 18t36 49z" />
    <glyph glyph-name="uni0434.aalt" 
d="M442 500h126v-476q0 -44 -14.5 -87t-48 -76.5t-84 -54t-114.5 -20.5q-80 0 -142.5 31.5t-94.5 90.5l110 63q13 -24 32 -40.5t46 -23t53 -6.5q59 0 95 31.5t36 91.5v54q-27 -36 -68 -56t-92 -20q-38 0 -74.5 11.5t-66.5 32.5t-52.5 49.5t-39 70t-16.5 92.5t19 98t53 82.5
t80 55.5t97 20t92 -20t68 -56v62zM302 121q58 0 99 38t41 99q0 58 -40 97t-100 39t-100 -39t-40 -97q0 -61 41 -99t99 -38z" />
    <glyph glyph-name="uni0436.aalt" horiz-adv-x="746" 
d="M734 0h-145l-153 223v-223h-126v223l-153 -223h-144l180 253l-170 247h144l143 -216v416h126v-416l143 216h145l-171 -247z" />
    <glyph glyph-name="uni0438.aalt" horiz-adv-x="577" 
d="M389 500h129v-500h-129v56q-22 -33 -61 -51.5t-88 -18.5q-39 0 -74 14t-60.5 40.5t-40 65.5t-14.5 87v307h129v-291q0 -49 27.5 -76t71.5 -27q36 0 60.5 16t34.5 36.5t12.5 38.5t2.5 33v270z" />
    <glyph glyph-name="uni0439.aalt" horiz-adv-x="577" 
d="M429 676v-112h-290v112h290zM389 500h129v-500h-129v56q-22 -33 -61 -51.5t-88 -18.5q-39 0 -74 14t-60.5 40.5t-40 65.5t-14.5 87v307h129v-291q0 -49 27.5 -76t71.5 -27q36 0 60.5 16t34.5 36.5t12.5 38.5t2.5 33v270z" />
    <glyph glyph-name="uni043A.aalt" horiz-adv-x="525" 
d="M520 0h-150l-182 227v-227h-129v700h129v-420l172 220h154l-201 -247z" />
    <glyph glyph-name="uni043B.aalt" horiz-adv-x="533" 
d="M530 0h-142l-122 350l-121 -350h-142l190 500h147z" />
    <glyph glyph-name="uni043F.aalt" horiz-adv-x="577" 
d="M337 514q39 0 74 -14t60.5 -40.5t40 -65.5t14.5 -87v-307h-129v291q0 49 -27.5 76t-71.5 27q-36 0 -60.5 -16t-34.5 -36.5t-12.5 -38.5t-2.5 -33v-270h-129v500h129v-56q22 33 61 51.5t88 18.5z" />
    <glyph glyph-name="uni0442.aalt" horiz-adv-x="852" 
d="M612 514q85 0 137 -56.5t52 -149.5v-308h-129v299q0 44 -22 69.5t-62 25.5q-43 0 -68 -29.5t-25 -83.5v-281h-129v299q0 44 -22 69.5t-62 25.5q-42 0 -68 -29.5t-26 -83.5v-281h-129v500h129v-53q21 32 57 49.5t82 17.5q45 0 80 -19t56 -53q23 34 61.5 53t87.5 19z" />
    <glyph glyph-name="uni0446.aalt" horiz-adv-x="616" 
d="M550 121h43v-255h-126v144q-41 17 -62 55q-25 -38 -67 -58.5t-98 -20.5q-39 0 -74 14t-60.5 40.5t-40 65.5t-14.5 87v307h129v-290q0 -37 16 -62t39 -33.5t44 -8.5q36 0 60.5 16t34.5 36.5t12.5 38.5t2.5 33v270h129v-347q0 -14 9 -23t23 -9z" />
    <glyph glyph-name="uni0448.aalt" horiz-adv-x="852" 
d="M664 500h129v-500h-129v53q-21 -32 -57 -49.5t-82 -17.5q-45 0 -80 19t-56 53q-23 -34 -61.5 -53t-87.5 -19q-85 0 -137 56.5t-52 149.5v308h129v-299q0 -44 22 -69.5t62 -25.5q43 0 68 29.5t25 83.5v281h129v-299q0 -44 22 -69.5t62 -25.5q42 0 68 29.5t26 83.5v281z
" />
    <glyph glyph-name="uni0449.aalt" horiz-adv-x="891" 
d="M825 121h43v-255h-126v144q-39 15 -59 50q-50 -74 -150 -74q-49 0 -85.5 19t-58.5 54q-23 -35 -61.5 -54t-87.5 -19q-85 0 -137 56.5t-52 149.5v308h129v-298q0 -45 22 -70.5t62 -25.5q43 0 68 29.5t25 83.5v281h129v-298q0 -45 22 -70.5t62 -25.5q42 0 68 29.5t26 83.5
v281h129v-347q0 -14 9 -23t23 -9z" />
    <glyph glyph-name="uni044C.aalt" horiz-adv-x="493" 
d="M268 361q98 0 150.5 -48.5t52.5 -133.5q0 -50 -26 -96.5t-76.5 -71.5t-107.5 -25q-23 0 -51.5 4.5t-55.5 17.5t-50.5 36.5t-38 60.5t-14.5 81v314h126v-139h91zM261 108q35 0 59.5 22.5t24.5 49.5q0 30 -20.5 48.5t-56.5 18.5h-91v-61q0 -33 23 -55.5t61 -22.5z" />
    <glyph glyph-name="uni044A.aalt" horiz-adv-x="579" 
d="M354 361q97 0 149.5 -48t52.5 -134q0 -50 -26 -96.5t-76.5 -71.5t-107.5 -25q-23 0 -51.5 4.5t-55.5 17.5t-50.5 36.5t-38 60.5t-14.5 81v193h-136v121h262v-139h92zM346 108q35 0 59.5 22.5t24.5 49.5q0 30 -20 48.5t-56 18.5h-92v-61q0 -33 23 -55.5t61 -22.5z" />
    <glyph glyph-name="uni044E.aalt" horiz-adv-x="811" 
d="M514 514q53 0 102 -20t85.5 -56.5t57 -85t20.5 -102.5t-20.5 -102.5t-57 -85t-85.5 -56.5t-102 -20q-93 0 -163.5 57t-90.5 147h-72v-190h-129v700h129v-389h73q7 32 24.5 66.5t53 68.5t83 51t92.5 17zM514 112q57 0 96.5 39.5t39.5 98.5t-39.5 98.5t-96.5 39.5
t-96 -39.5t-39 -98.5t39 -98.5t96 -39.5z" />
    <glyph glyph-name="zero.sinf" horiz-adv-x="409" 
d="M204 -174q-83 0 -132 58t-49 156t49 156t132 58t132.5 -58t49.5 -156t-49.5 -156t-132.5 -58zM204 -67q34 0 53 28t19 79t-19 79t-53 28q-33 0 -52 -28t-19 -79t19 -79t52 -28z" />
    <glyph glyph-name="one.sinf" horiz-adv-x="265" 
d="M123 240h94v-400h-107v292l-82 -23l-25 88z" />
    <glyph glyph-name="two.sinf" horiz-adv-x="349" 
d="M24 -160v70l150 149q16 15 25.5 31.5t9.5 29.5q0 16 -11.5 26t-29.5 10q-41 0 -62 -51l-87 50q19 45 58 72t92 27q29 0 61 -11t52 -31.5t27.5 -42t7.5 -41.5q0 -26 -13.5 -57t-54.5 -72l-65 -62h139v-97h-299z" />
    <glyph glyph-name="three.sinf" horiz-adv-x="345" 
d="M231 75q42 -12 66 -42t24 -72q0 -64 -41.5 -99.5t-113.5 -35.5q-58 0 -97.5 23.5t-58.5 65.5l90 52q17 -47 66 -47q23 0 35.5 11t12.5 30q0 18 -14.5 29t-36.5 11h-19l-40 58l69 84h-145v97h275v-79z" />
    <glyph glyph-name="four.sinf" horiz-adv-x="357" 
d="M341 2v-98h-41v-64h-102v64h-187v98l129 238h114l-123 -238h67v69h102v-69h41z" />
    <glyph glyph-name="five.sinf" horiz-adv-x="336" 
d="M174 89q39 0 73 -14t51.5 -45.5t17.5 -72.5q0 -39 -17 -68.5t-50.5 -46t-78.5 -16.5q-59 0 -98 23.5t-58 65.5l88 50q18 -47 65 -47q24 0 37.5 11.5t13.5 29.5q0 19 -13.5 31t-37.5 12h-128l16 238h242v-97h-152l-4 -54h33z" />
    <glyph glyph-name="six.sinf" horiz-adv-x="340" 
d="M185 110q29 -2 62 -16.5t55 -48.5t22 -76q0 -63 -42.5 -103t-111.5 -40q-68 0 -111 40.5t-43 102.5q0 40 19 73l125 198h110zM170 -84q25 0 40 14t15 39q0 24 -15 37.5t-40 13.5q-24 0 -39 -13.5t-15 -37.5q0 -25 15 -39t39 -14z" />
    <glyph glyph-name="seven.sinf" horiz-adv-x="295" 
d="M3 240h276v-82l-126 -318h-111l121 303h-160v97z" />
    <glyph glyph-name="eight.sinf" horiz-adv-x="349" 
d="M270 50q28 -16 43 -43t15 -58q0 -56 -40.5 -89.5t-112.5 -33.5t-113 33.5t-41 89.5q0 31 15.5 58t43.5 43q-45 31 -45 84q0 56 41 88t99 32t99 -32t41 -88q0 -53 -45 -84zM175 163q-22 0 -35 -10t-13 -28t13 -28.5t35 -10.5q21 0 34.5 10.5t13.5 28.5t-13.5 28t-34.5 10z
M175 -82q24 0 38 12.5t14 33.5q0 20 -14.5 32.5t-37.5 12.5q-25 0 -39 -12.5t-14 -32.5q0 -21 14 -33.5t39 -12.5z" />
    <glyph glyph-name="nine.sinf" horiz-adv-x="340" 
d="M324 111q0 -40 -19 -73l-124 -198h-111l85 130q-62 4 -100.5 43.5t-38.5 97.5q0 62 43 102.5t111 40.5q69 0 111.5 -40t42.5 -103zM116 111q0 -24 15 -37.5t39 -13.5q25 0 40 13.5t15 37.5q0 25 -15 39t-40 14q-24 0 -39 -14t-15 -39z" />
    <glyph glyph-name="zero.tnum" horiz-adv-x="578" 
d="M289 -14q-65 0 -118 26.5t-89 74.5t-54.5 115.5t-18.5 147.5t18.5 147.5t54.5 115.5t89 74.5t118 26.5t117.5 -26.5t88.5 -74.5t55 -115.5t19 -147.5t-19 -147.5t-55 -115.5t-88.5 -74.5t-117.5 -26.5zM289 121q70 0 106 59t36 170t-36 170.5t-106 59.5t-106.5 -59.5
t-36.5 -170.5t36.5 -170t106.5 -59z" />
    <glyph glyph-name="one.tnum" horiz-adv-x="578" 
d="M369 132h190v-132h-530v132h202v422l-132 -37l-34 118l184 65h120v-568z" />
    <glyph glyph-name="two.tnum" horiz-adv-x="578" 
d="M34 0v103l255 231q48 43 74 78t26 70q0 40 -28 69t-79 29q-83 0 -130 -91l-116 68q23 48 61 85t87.5 54.5t98.5 17.5q39 0 80.5 -11t82 -42t60.5 -77.5t20 -93.5q0 -49 -21.5 -94t-55.5 -81.5t-66 -65.5l-132 -116h287v-133h-504z" />
    <glyph glyph-name="three.tnum" horiz-adv-x="578" 
d="M380 424q47 -13 87 -40.5t61 -71t21 -92.5q0 -54 -19.5 -98.5t-55 -74.5t-83 -45.5t-101.5 -15.5q-96 0 -166 42t-102 122l118 68q16 -46 52.5 -71.5t90.5 -25.5q61 0 94.5 26.5t33.5 72.5q0 45 -33.5 72t-94.5 27h-28l-55 81l144 171h-300v129h473v-114z" />
    <glyph glyph-name="four.tnum" horiz-adv-x="578" 
d="M561 247v-128h-75v-119h-139v119h-338v128l232 453h148l-232 -453h190v161h139v-161h75z" />
    <glyph glyph-name="five.tnum" horiz-adv-x="578" 
d="M296 445q53 0 99.5 -15t81 -44t53.5 -72.5t19 -97.5t-20 -97.5t-55.5 -73t-82.5 -44.5t-98 -15q-97 0 -167 42t-102 122l118 68q16 -46 53.5 -71.5t93.5 -25.5q59 0 90.5 26t31.5 69t-31.5 69t-90.5 26h-225l28 389h424v-129h-298l-10 -126h88z" />
    <glyph glyph-name="six.tnum" horiz-adv-x="578" 
d="M291 480q59 -1 109 -19t84.5 -51t53 -78.5t18.5 -98.5q0 -54 -19 -99.5t-54.5 -78.5t-86 -51t-110.5 -18t-110.5 18t-86 51t-54.5 78.5t-19 99.5q0 93 53 158l222 309h159zM286 116q60 0 96.5 31.5t36.5 85.5t-36.5 86t-96.5 32t-96 -31.5t-36 -86.5q0 -54 36 -85.5
t96 -31.5z" />
    <glyph glyph-name="seven.tnum" horiz-adv-x="578" 
d="M25 700h520v-117l-265 -583h-145l256 568h-366v132z" />
    <glyph glyph-name="eight.tnum" horiz-adv-x="578" 
d="M456 364q23 -13 47.5 -36t40 -58.5t15.5 -74.5q0 -96 -72.5 -152.5t-197.5 -56.5t-197.5 56.5t-72.5 152.5q0 39 15.5 74.5t40 58.5t47.5 36q-79 52 -79 145q0 48 19 87t52.5 65t78.5 39.5t96 13.5q77 0 132.5 -27.5t84.5 -72.5t29 -105q0 -46 -21 -83t-58 -62zM289 584
q-50 0 -79.5 -22t-29.5 -60q0 -37 29.5 -60t79.5 -23t79.5 23t29.5 60q0 38 -29.5 60t-79.5 22zM289 116q63 0 98 26t35 71t-35 70.5t-98 25.5t-98 -25.5t-35 -70.5t35 -71t98 -26z" />
    <glyph glyph-name="nine.tnum" horiz-adv-x="578" 
d="M561 467q0 -86 -45 -148l-229 -319h-159l159 220q-59 1 -109 19t-85 50.5t-53.5 78.5t-18.5 99q0 54 19 100t54.5 78.5t86 50.5t110.5 18q61 0 111.5 -18t86 -50.5t54 -78.5t18.5 -100zM159 467q0 -28 12.5 -55t44 -44.5t75.5 -17.5q61 0 97 31t36 86t-36 86t-97 31
q-44 0 -75.5 -17.5t-44 -44.5t-12.5 -55z" />
    <glyph glyph-name="zero.dnom" horiz-adv-x="409" 
d="M204 -14q-83 0 -132 58t-49 156t49 156t132 58t132.5 -58t49.5 -156t-49.5 -156t-132.5 -58zM204 93q34 0 53 28t19 79t-19 79t-53 28q-33 0 -52 -28t-19 -79t19 -79t52 -28z" />
    <glyph glyph-name="one.dnom" horiz-adv-x="267" 
d="M123 400h94v-400h-107v292l-82 -23l-25 88z" />
    <glyph glyph-name="two.dnom" horiz-adv-x="356" 
d="M24 0v70l150 149q16 15 25.5 31.5t9.5 29.5q0 16 -11.5 26t-29.5 10q-41 0 -62 -51l-87 50q19 45 58 72t92 27q29 0 61 -11t52 -31.5t27.5 -42t7.5 -41.5q0 -26 -13.5 -57t-54.5 -72l-65 -62h139v-97h-299z" />
    <glyph glyph-name="three.dnom" horiz-adv-x="348" 
d="M231 235q42 -12 66 -42t24 -72q0 -64 -41.5 -99.5t-113.5 -35.5q-58 0 -97.5 23.5t-58.5 65.5l90 52q17 -47 66 -47q23 0 35.5 11t12.5 30q0 18 -14.5 29t-36.5 11h-19l-40 58l69 84h-145v97h275v-79z" />
    <glyph glyph-name="four.dnom" horiz-adv-x="357" 
d="M341 162v-98h-41v-64h-102v64h-187v98l129 238h114l-123 -238h67v69h102v-69h41z" />
    <glyph glyph-name="five.dnom" horiz-adv-x="334" 
d="M173 249q39 0 73 -14t51.5 -45.5t17.5 -72.5q0 -39 -17 -68.5t-50.5 -46t-78.5 -16.5q-59 0 -98 23.5t-58 65.5l88 50q18 -47 65 -47q24 0 37.5 11.5t13.5 29.5q0 19 -13.5 31t-37.5 12h-128l16 238h242v-97h-152l-4 -54h33z" />
    <glyph glyph-name="six.dnom" horiz-adv-x="340" 
d="M185 270q29 -2 62 -16.5t55 -48.5t22 -76q0 -63 -42.5 -103t-111.5 -40q-68 0 -111 40.5t-43 102.5q0 40 19 73l125 198h110zM170 76q25 0 40 14t15 39q0 24 -15 37.5t-40 13.5q-24 0 -39 -13.5t-15 -37.5q0 -25 15 -39t39 -14z" />
    <glyph glyph-name="seven.dnom" horiz-adv-x="295" 
d="M3 400h276v-82l-126 -318h-111l121 303h-160v97z" />
    <glyph glyph-name="eight.dnom" horiz-adv-x="349" 
d="M270 210q28 -16 43 -43t15 -58q0 -56 -40.5 -89.5t-112.5 -33.5t-113 33.5t-41 89.5q0 31 15.5 58t43.5 43q-45 31 -45 84q0 56 41 88t99 32t99 -32t41 -88q0 -53 -45 -84zM175 323q-22 0 -35 -10t-13 -28t13 -28.5t35 -10.5q21 0 34.5 10.5t13.5 28.5t-13.5 28t-34.5 10
zM175 78q24 0 38 12.5t14 33.5q0 20 -14.5 32.5t-37.5 12.5q-25 0 -39 -12.5t-14 -32.5q0 -21 14 -33.5t39 -12.5z" />
    <glyph glyph-name="nine.dnom" horiz-adv-x="340" 
d="M324 271q0 -40 -19 -73l-124 -198h-111l85 130q-62 4 -100.5 43.5t-38.5 97.5q0 62 43 102.5t111 40.5q69 0 111.5 -40t42.5 -103zM116 271q0 -24 15 -37.5t39 -13.5q25 0 40 13.5t15 37.5q0 25 -15 39t-40 14q-24 0 -39 -14t-15 -39z" />
    <glyph glyph-name="zero.numr" horiz-adv-x="409" 
d="M204 286q-83 0 -132 58t-49 156t49 156t132 58t132.5 -58t49.5 -156t-49.5 -156t-132.5 -58zM204 393q34 0 53 28t19 79t-19 79t-53 28q-33 0 -52 -28t-19 -79t19 -79t52 -28z" />
    <glyph glyph-name="one.numr" horiz-adv-x="267" 
d="M123 700h94v-400h-107v292l-82 -23l-25 88z" />
    <glyph glyph-name="two.numr" horiz-adv-x="356" 
d="M24 300v70l150 149q16 15 25.5 31.5t9.5 29.5q0 16 -11.5 26t-29.5 10q-41 0 -62 -51l-87 50q19 45 58 72t92 27q29 0 61 -11t52 -31.5t27.5 -42t7.5 -41.5q0 -26 -13.5 -57t-54.5 -72l-65 -62h139v-97h-299z" />
    <glyph glyph-name="three.numr" horiz-adv-x="348" 
d="M231 535q42 -12 66 -42t24 -72q0 -64 -41.5 -99.5t-113.5 -35.5q-58 0 -97.5 23.5t-58.5 65.5l90 52q17 -47 66 -47q23 0 35.5 11t12.5 30q0 18 -14.5 29t-36.5 11h-19l-40 58l69 84h-145v97h275v-79z" />
    <glyph glyph-name="four.numr" horiz-adv-x="357" 
d="M341 462v-98h-41v-64h-102v64h-187v98l129 238h114l-123 -238h67v69h102v-69h41z" />
    <glyph glyph-name="five.numr" horiz-adv-x="334" 
d="M173 549q39 0 73 -14t51.5 -45.5t17.5 -72.5q0 -39 -17 -68.5t-50.5 -46t-78.5 -16.5q-59 0 -98 23.5t-58 65.5l88 50q18 -47 65 -47q24 0 37.5 11.5t13.5 29.5q0 19 -13.5 31t-37.5 12h-128l16 238h242v-97h-152l-4 -54h33z" />
    <glyph glyph-name="six.numr" horiz-adv-x="340" 
d="M185 570q29 -2 62 -16.5t55 -48.5t22 -76q0 -63 -42.5 -103t-111.5 -40q-68 0 -111 40.5t-43 102.5q0 40 19 73l125 198h110zM170 376q25 0 40 14t15 39q0 24 -15 37.5t-40 13.5q-24 0 -39 -13.5t-15 -37.5q0 -25 15 -39t39 -14z" />
    <glyph glyph-name="seven.numr" horiz-adv-x="295" 
d="M3 700h276v-82l-126 -318h-111l121 303h-160v97z" />
    <glyph glyph-name="eight.numr" horiz-adv-x="349" 
d="M270 510q28 -16 43 -43t15 -58q0 -56 -40.5 -89.5t-112.5 -33.5t-113 33.5t-41 89.5q0 31 15.5 58t43.5 43q-45 31 -45 84q0 56 41 88t99 32t99 -32t41 -88q0 -53 -45 -84zM175 623q-22 0 -35 -10t-13 -28t13 -28.5t35 -10.5q21 0 34.5 10.5t13.5 28.5t-13.5 28t-34.5 10
zM175 378q24 0 38 12.5t14 33.5q0 20 -14.5 32.5t-37.5 12.5q-25 0 -39 -12.5t-14 -32.5q0 -21 14 -33.5t39 -12.5z" />
    <glyph glyph-name="nine.numr" horiz-adv-x="340" 
d="M324 571q0 -40 -19 -73l-124 -198h-111l85 130q-62 4 -100.5 43.5t-38.5 97.5q0 62 43 102.5t111 40.5q69 0 111.5 -40t42.5 -103zM116 571q0 -24 15 -37.5t39 -13.5q25 0 40 13.5t15 37.5q0 25 -15 39t-40 14q-24 0 -39 -14t-15 -39z" />
    <glyph glyph-name="zero.superior" horiz-adv-x="409" 
d="M204 446q-83 0 -132 58t-49 156t49 156t132 58t132.5 -58t49.5 -156t-49.5 -156t-132.5 -58zM204 553q34 0 53 28t19 79t-19 79t-53 28q-33 0 -52 -28t-19 -79t19 -79t52 -28z" />
    <glyph glyph-name="one.superior" horiz-adv-x="267" 
d="M123 860h94v-400h-107v292l-82 -23l-25 88z" />
    <glyph glyph-name="two.superior" horiz-adv-x="356" 
d="M24 460v70l150 149q16 15 25.5 31.5t9.5 29.5q0 16 -11.5 26t-29.5 10q-41 0 -62 -51l-87 50q19 45 58 72t92 27q29 0 61 -11t52 -31.5t27.5 -42t7.5 -41.5q0 -26 -13.5 -57t-54.5 -72l-65 -62h139v-97h-299z" />
    <glyph glyph-name="three.superior" horiz-adv-x="348" 
d="M231 695q42 -12 66 -42t24 -72q0 -64 -41.5 -99.5t-113.5 -35.5q-58 0 -97.5 23.5t-58.5 65.5l90 52q17 -47 66 -47q23 0 35.5 11t12.5 30q0 18 -14.5 29t-36.5 11h-19l-40 58l69 84h-145v97h275v-79z" />
    <glyph glyph-name="four.superior" horiz-adv-x="357" 
d="M341 622v-98h-41v-64h-102v64h-187v98l129 238h114l-123 -238h67v69h102v-69h41z" />
    <glyph glyph-name="five.superior" horiz-adv-x="334" 
d="M173 709q39 0 73 -14t51.5 -45.5t17.5 -72.5q0 -39 -17 -68.5t-50.5 -46t-78.5 -16.5q-59 0 -98 23.5t-58 65.5l88 50q18 -47 65 -47q24 0 37.5 11.5t13.5 29.5q0 19 -13.5 31t-37.5 12h-128l16 238h242v-97h-152l-4 -54h33z" />
    <glyph glyph-name="six.superior" horiz-adv-x="340" 
d="M185 730q29 -2 62 -16.5t55 -48.5t22 -76q0 -63 -42.5 -103t-111.5 -40q-68 0 -111 40.5t-43 102.5q0 40 19 73l125 198h110zM170 536q25 0 40 14t15 39q0 24 -15 37.5t-40 13.5q-24 0 -39 -13.5t-15 -37.5q0 -25 15 -39t39 -14z" />
    <glyph glyph-name="seven.superior" horiz-adv-x="295" 
d="M3 860h276v-82l-126 -318h-111l121 303h-160v97z" />
    <glyph glyph-name="eight.superior" horiz-adv-x="349" 
d="M270 670q28 -16 43 -43t15 -58q0 -56 -40.5 -89.5t-112.5 -33.5t-113 33.5t-41 89.5q0 31 15.5 58t43.5 43q-45 31 -45 84q0 56 41 88t99 32t99 -32t41 -88q0 -53 -45 -84zM175 783q-22 0 -35 -10t-13 -28t13 -28.5t35 -10.5q21 0 34.5 10.5t13.5 28.5t-13.5 28t-34.5 10
zM175 538q24 0 38 12.5t14 33.5q0 20 -14.5 32.5t-37.5 12.5q-25 0 -39 -12.5t-14 -32.5q0 -21 14 -33.5t39 -12.5z" />
    <glyph glyph-name="nine.superior" horiz-adv-x="340" 
d="M324 731q0 -40 -19 -73l-124 -198h-111l85 130q-62 4 -100.5 43.5t-38.5 97.5q0 62 43 102.5t111 40.5q69 0 111.5 -40t42.5 -103zM116 731q0 -24 15 -37.5t39 -13.5q25 0 40 13.5t15 37.5q0 25 -15 39t-40 14q-24 0 -39 -14t-15 -39z" />
    <glyph glyph-name="cent.aalt" horiz-adv-x="578" 
d="M431 280l112 -64q-15 -27 -45.5 -58t-79 -51.5t-101.5 -20.5q-34 0 -61 7l-30 -93h-58l35 110q-66 30 -108 93.5t-42 146.5q0 54 19.5 103t55.5 85t85 56t104 20q27 0 48 -4l29 90h58l-34 -106q39 -16 71.5 -44.5t51.5 -64.5l-111 -65q-17 35 -52 52l-82 -257l20 -1
q38 0 69 18t46 48zM182 350q0 -37 16.5 -68t44.5 -48l82 253h-9q-57 0 -95.5 -39t-38.5 -98z" />
    <glyph glyph-name="dollar.aalt" horiz-adv-x="578" 
d="M553 195q0 -88 -58 -142.5t-156 -64.5v-88h-67v87q-92 6 -155.5 50.5t-91.5 117.5l119 69q36 -93 128 -105v174l-6 2q-69 25 -113 50.5t-70.5 67t-26.5 100.5q0 56 25.5 98.5t74 70t116.5 31.5v87h67v-89q68 -9 119.5 -46.5t79.5 -100.5l-116 -68q-25 66 -83 81v-169
q108 -39 144 -67t53 -63t17 -83zM193 514q0 -25 18 -43t61 -37v148q-40 -4 -59.5 -22.5t-19.5 -45.5zM339 119q39 6 57.5 24.5t18.5 45.5q0 26 -17.5 43t-58.5 35v-148z" />
    <glyph glyph-name="Euro.aalt" horiz-adv-x="578" 
d="M446 207l113 -65q-13 -33 -40.5 -70.5t-73.5 -61.5t-101 -24q-52 0 -96 19t-76.5 55t-54 86t-30.5 111h-66v78h60v15v24h-60v77h68q19 122 85.5 192.5t169.5 70.5q71 0 127 -40t84 -107l-115 -66q-13 35 -39 57t-57 22q-45 0 -75 -33.5t-42 -95.5h174v-77h-182v-24v-15
h182v-78h-175q11 -66 41 -101t77 -35q33 0 60.5 24t41.5 62z" />
    <glyph glyph-name="florin.aalt" horiz-adv-x="578" 
d="M555 576q-46 16 -79.5 1.5t-45.5 -57.5l-29 -106h122v-124h-156l-90 -331q-18 -66 -52 -106.5t-84.5 -55.5t-117.5 2v128q46 -15 79 -1t45 57l84 307h-119v124h152l36 131q11 39 31 75t51 59.5t74.5 31.5t98.5 -6v-129z" />
    <glyph glyph-name="uni20BD.aalt" horiz-adv-x="578" 
d="M319 243h-96v-55h195v-88h-195v-100h-138v100h-75v88h75v55h-75v121h75v336h234q48 0 91.5 -18t76 -50t50.5 -74.5t18 -89.5t-18 -88.5t-50.5 -72t-76 -47.5t-91.5 -17zM223 571v-207h96q42 0 70.5 30.5t28.5 73.5q0 20 -9.5 44t-34.5 41.5t-55 17.5h-96z" />
    <glyph glyph-name="sterling.aalt" horiz-adv-x="578" 
d="M241 133h327v-133h-538v133h73v141h-60v121h60v100q0 67 28 115t78 76t114 28q37 0 79 -12.5t80 -48t58 -85.5l-118 -68q-13 40 -35.5 60t-59.5 20q-27 0 -48 -13t-29.5 -34.5t-8.5 -42.5v-95h210v-121h-210v-141z" />
    <glyph glyph-name="yen.aalt" horiz-adv-x="578" 
d="M576 700l-191 -338h134v-80h-161v-45h161v-81h-161v-156h-138v156h-161v81h161v45h-161v80h134l-191 338h156l131 -252l131 252h156z" />
    <glyph glyph-name="glyph553" horiz-adv-x="360" 
d="M35 564v112h290v-112h-290z" />
    </font>
</defs>
</svg>
