<?xml version="1.0" encoding="utf-8"?>
<!-- Generator: Adobe Illustrator 19.0.0, SVG Export Plug-In . SVG Version: 6.00 Build 0)  -->
<svg version="1.1" id="Layer_1" xmlns="http://www.w3.org/2000/svg" xmlns:xlink="http://www.w3.org/1999/xlink" x="0px" y="0px"
	 viewBox="0 0 1280 800" style="enable-background:new 0 0 1280 800;" xml:space="preserve">
<style type="text/css">
	.st0{fill:#161313;}
	.st1{fill:#0A439B;}
</style>
<g id="XMLID_42_">
	<g id="XMLID_20_">
		<path id="XMLID_22_" class="st0" d="M436.5,447.2c-2.6-1.4-5.6-1.6-8.5-0.7c-2.8,0.9-5.1,2.8-6.5,5.4
			c-7.8,13.4-22.3,21.7-37.8,21.7c-24.1,0-43.7-19.6-43.7-43.7V299l-22.2-10.3v141.1c0,36.3,29.6,65.9,65.9,65.9
			c23.7,0,45.7-12.8,57.4-33.5l0.1-0.2C444,456.6,441.9,450,436.5,447.2z"/>
		<path id="XMLID_21_" class="st1" d="M433,342.3l-42-19.6v107.1c0,4-3.2,7.2-7.2,7.2c-4,0-7.2-3.2-7.2-7.2V316l-22.2-10.3v124.1
			c0,16.2,13.2,29.4,29.4,29.4c16.2,0,29.4-13.2,29.4-29.4V373c0-4,3.2-7.2,7.2-7.2c4,0,7.2,3.2,7.2,7.2v52.4
			c0,6.1,5,11.1,11.1,11.1c6.1,0,11.1-5,11.1-11.1v-56.7C449.7,357.6,443.2,347.2,433,342.3z"/>
	</g>
	<g id="XMLID_1_">
		<path id="XMLID_2_" class="st0" d="M593.7,369.3c0,0.9-1,1.6-3,2.1c-3.5,0.8-5.6,1.6-6.6,2.4c-1.2,1.1-1.9,3.2-1.9,6.2V418
			c0,12.2-3.2,21.6-9.5,28.2c-6.5,6.8-15.9,10.2-28.3,10.2c-26.1,0-39.2-12.3-39.2-36.9v-39.8c0-4.2-2.5-6.8-7.4-7.6
			c-1.7-0.3-2.7-0.6-3.1-0.9c-0.4-0.3-0.6-0.8-0.6-1.6c0-1.4,0.3-2.2,1-2.4c0.3-0.1,1.3-0.2,3.1-0.1c11.9,0.6,21,0.6,27.3,0
			c1.3-0.1,2.1-0.1,2.4,0.2c0.3,0.3,0.4,1,0.4,2.3c0,0.9-1,1.6-2.9,2.1c-3.7,0.8-5.9,1.4-6.4,1.7c-1.4,0.9-2.1,2.7-2.1,5.4v38.4
			c0,11.3,2.3,19.6,7,24.8c4.7,5.3,12.2,7.9,22.6,7.9c17.8,0,26.8-10.3,26.8-30.8v-38.3c0-3-0.8-5.2-2.3-6.6c-1.2-1.2-3.4-2-6.5-2.5
			c-2.4-0.4-3.7-1.3-3.7-2.5c0-1.4,0.4-2.2,1.1-2.4c0.3-0.1,1.3-0.1,3.1-0.1c12.3,0.5,20.8,0.5,25.4,0c1.8-0.2,2.7,0.2,2.9,1.1
			C593.7,368.3,593.7,368.7,593.7,369.3z"/>
		<path id="XMLID_4_" class="st0" d="M671.3,453.3c0,1.4-1,2-3,1.9c-9.5-0.5-16.7-0.6-21.7-0.3c-2.5,0.2-3.9-0.1-4.1-0.9
			c-0.1-0.3-0.1-0.6-0.1-1.1c0-0.9,1.3-1.7,3.9-2.4c2.3-0.7,3.5-2.9,3.5-6.8v-17.7c0-10.1-4.4-15.2-13.2-15.2c-3.9,0-7.6,0.9-11,2.8
			c-3.2,1.8-4.8,3.7-4.8,5.6v24.3c0,4.2,2.7,6.5,8.2,7c2.1,0.2,3.1,0.8,3.1,2c0,1.1-0.3,1.8-0.9,2c-0.3,0.1-1,0.1-2.3,0.1
			c-7-0.3-14.1,0.1-21.5,1.1c-1.6,0.2-2.6,0.3-3,0.2c-0.9-0.2-1.3-0.9-1.3-2.1c0-1.1,1.3-2,3.8-2.7c2.3-0.7,3.5-3.7,3.5-8.8V422
			c0-3.4-0.4-5.6-1.3-6.5c-0.6-0.7-2.7-1.6-6.2-2.8c-0.9-0.3-1.3-0.9-1.3-1.9c0-0.9,0.9-1.7,2.7-2.3c2.5-0.9,5.2-2.4,8.2-4.4
			c2.5-1.7,4.1-2.5,4.8-2.5c1.2,0,2,1.4,2.4,4.1s1,4.1,1.7,4.1c-0.4,0,1.9-1.3,6.8-3.9c4.9-2.6,9.7-3.9,14.4-3.9
			c11.5,0,17.2,6.5,17.3,19.6l0.1,21.4c0,2.7,0.7,4.7,2.1,5.9c1.1,0.9,3.1,1.6,6.2,2.3C670.3,451.5,671.3,452.2,671.3,453.3z"/>
		<path id="XMLID_6_" class="st0" d="M705.3,452.8c-0.2,1.3-0.8,2-1.6,2.2c-0.2,0-1.3,0-3.2-0.1c-6.6-0.4-13.1-0.4-19.5,0.3
			c-1.7,0.2-2.8,0.1-3.3-0.2c-0.4-0.3-0.7-1-0.7-2.1c0-1,1.2-1.9,3.5-2.5c2.6-0.8,3.9-3.2,3.9-7.4v-17.4c0-3.5-0.4-6-1.1-7.4
			c-1-1.9-3-3.4-6-4.5c-1.4-0.5-2.1-1.2-2.1-2.2c0-1.3,1-2.2,3-2.9c3.7-1.2,7-2.7,9.9-4.6c2.3-1.6,3.7-2.4,4.3-2.4
			c1.8,0,2.6,1.2,2.6,3.5c-0.2,11.6-0.3,23.4-0.3,35.5c0,2.9,0.4,4.9,1.3,6.2c0.9,1.4,2.7,2.3,5.3,2.9
			C704.2,450.4,705.5,451.4,705.3,452.8z M697.9,377.6c0,2-0.8,3.9-2.3,5.7c-1.5,1.7-3.2,2.6-5,2.6c-2.1,0-3.8-0.6-5.1-1.9
			c-1.3-1.2-2-2.9-2-4.8c0-1.9,0.8-3.8,2.4-5.4c1.6-1.7,3.4-2.5,5.2-2.5C695.6,371.3,697.9,373.4,697.9,377.6z"/>
		<path id="XMLID_9_" class="st0" d="M773.3,431.4c0,7.5-2.7,13.5-8.2,18c-5.7,4.7-13.5,7-23.4,7c-13.1,0-20.7-2.4-23-7.2
			c-1.4-2.9-2.7-6.6-4.1-11.2c-0.6-2.1-0.2-3.4,1.3-4.1c1.8-0.8,3.2-0.4,4.2,1.1c3.8,5.6,7.5,9.5,11.4,11.9c3.7,2.3,8,3.4,12.9,3.4
			c12.3,0,18.5-4.9,18.5-14.7c0-3.9-1.4-7.1-4.1-9.8c-2.6-2.5-8-6-16.2-10.4c-10.4-5.6-17.2-10-20.5-13.1c-4-3.9-6-8.8-6-14.6
			c0-6.2,2.6-11.4,7.7-15.7c5.2-4.3,11.7-6.5,19.8-6.5c5.7,0,11.2,0.7,16.5,2.1c4.1,1.1,6.4,2.5,7,4.3c1.1,3.6,1.8,8,2.2,13.3
			c0.1,1.9-0.6,3-1.9,3.2c-1.7,0.3-2.9-0.3-3.7-1.8c-2.7-5.5-5.9-9.4-9.4-11.7c-3.2-2.1-7.5-3.1-12.7-3.1c-4.6,0-8.3,1.1-11,3.3
			c-2.7,2.2-4.1,5.2-4.1,9.2c0,3.7,1.3,6.9,4,9.6c2.5,2.5,7.2,5.5,13.9,8.9c10.4,5.2,17.6,9.7,21.6,13.3
			C770.8,420.3,773.3,425.5,773.3,431.4z"/>
		<path id="XMLID_11_" class="st0" d="M848.2,448.9c0,0.9-2.1,2.2-6.2,4.1l-5.3,2.3c-0.6,0-1.8-1-3.7-3c-1.9-2-3.2-3-4-3
			c-0.4,0-2.7,0.9-6.8,2.8c-4.2,1.9-7.8,2.8-11,2.8c-6.6,0-11.3-1.3-13.9-3.8c-2.8-2.7-4.3-7.6-4.3-14.7v-13.3
			c0-3.7-0.4-6.3-1.1-7.8c-1-1.9-3.1-3.3-6.2-4.3c-1-0.3-1.5-0.9-1.5-1.7c0-0.9,0.9-1.7,2.6-2.3c3.3-1.3,6.5-2.6,9.8-3.9
			c2.3-0.9,3.9-1.4,4.9-1.4c1.5,0,2.3,1,2.3,3.1c-0.3,9.3-0.4,16.1-0.4,20.3v8c0,5.4,1.1,9.1,3.2,11.1c1.9,1.8,5.4,2.7,10.4,2.7
			c7.8,0,11.7-4,11.7-12v-11.8c0-4.3-0.4-7-1.2-8.3c-0.8-1.2-2.8-2.3-6.2-3.2c-1-0.4-1.5-1.1-1.5-2.1c0-1,0.6-1.7,1.8-2.2
			c9.2-3.3,14.2-5,15.1-5c1.7,0,2.6,1,2.6,3c0,0-0.1,2.2-0.2,6.7c-0.1,4.5-0.2,8.8-0.2,13v16.7c0,3.1,2.3,4.9,6.9,5.2
			C847.4,447.2,848.2,447.8,848.2,448.9z"/>
		<path id="XMLID_13_" class="st0" d="M924.6,453.3c0,1.4-1,2-3,1.9c-9.5-0.5-16.7-0.6-21.6-0.3c-2.5,0.2-3.9-0.1-4.1-0.9
			c-0.1-0.3-0.1-0.6-0.1-1.1c0-0.9,1.3-1.7,3.9-2.4c2.3-0.7,3.5-2.9,3.5-6.8v-17.7c0-10.1-4.4-15.2-13.2-15.2c-3.9,0-7.6,0.9-11,2.8
			c-3.2,1.8-4.8,3.7-4.8,5.6v24.3c0,4.2,2.7,6.5,8.2,7c2.1,0.2,3.1,0.8,3.1,2c0,1.1-0.3,1.8-0.9,2c-0.3,0.1-1,0.1-2.3,0.1
			c-7-0.3-14.1,0.1-21.5,1.1c-1.6,0.2-2.6,0.3-3,0.2c-0.9-0.2-1.3-0.9-1.3-2.1c0-1.1,1.3-2,3.8-2.7c2.3-0.7,3.5-3.7,3.5-8.8V422
			c0-3.4-0.4-5.6-1.3-6.5c-0.6-0.7-2.7-1.6-6.2-2.8c-0.9-0.3-1.3-0.9-1.3-1.9c0-0.9,0.9-1.7,2.7-2.3c2.5-0.9,5.2-2.4,8.2-4.4
			c2.5-1.7,4.1-2.5,4.8-2.5c1.2,0,2,1.4,2.4,4.1s1,4.1,1.7,4.1c-0.4,0,1.9-1.3,6.8-3.9s9.7-3.9,14.4-3.9c11.5,0,17.2,6.5,17.3,19.6
			l0.1,21.4c0,2.7,0.7,4.7,2.1,5.9c1.1,0.9,3.1,1.6,6.2,2.3C923.6,451.5,924.6,452.2,924.6,453.3z"/>
	</g>
	<g id="XMLID_15_">
		<path id="XMLID_16_" class="st0" d="M582.9,500.2v-22h1.7v22H582.9z"/>
		<path id="XMLID_18_" class="st0" d="M621.5,478.2l14.8,18.2v-18.2h1.7v22h-0.7L622.5,482v18.2h-1.7v-22H621.5z"/>
		<path id="XMLID_25_" class="st0" d="M692.5,478.2l-9,22h-1.8l-9-22h1.8l8.1,20.1l8.1-20.1H692.5z"/>
		<path id="XMLID_27_" class="st0" d="M728.5,488.3h12.9v1.5h-12.9v8.7h13.9v1.6h-15.5v-22H742v1.6h-13.5V488.3z"/>
		<path id="XMLID_29_" class="st0" d="M792.5,482.4c-1.6-2.6-4.2-3-6.7-3c-2.6,0-6.7,0.9-6.7,4.5c0,2.8,3,3.5,6.7,4.1
			c4.2,0.8,8.6,1.6,8.6,6.3c0,5-5,6.2-8.7,6.2c-3.4,0-7.3-1.4-9-4.8l1.5-0.8c1.4,2.7,4.8,4,7.5,4c2.7,0,7-0.8,7-4.6
			c0-3.3-3.6-4-7.2-4.7c-4-0.8-8.1-1.6-8.1-5.7c-0.1-4.6,4.7-6.1,8.4-6.1c3.1,0,5.9,0.5,8,3.7L792.5,482.4z"/>
		<path id="XMLID_31_" class="st0" d="M835.8,479.7h-7.9v-1.5h17.6v1.5h-7.9v20.4h-1.7V479.7z"/>
	</g>
	<rect id="XMLID_19_" x="502.9" y="490.4" class="st1" width="45.4" height="2.3"/>
	<rect id="XMLID_24_" x="878" y="490.4" class="st1" width="45.4" height="2.3"/>
</g>
</svg>
